<?xml version="1.0" encoding="UTF-8"?>
<svg width='190px' height='120px' viewBox='0 0 190 120' version='1.1' xmlns='http://www.w3.org/2000/svg'>
    <title>F147B984-A838-4899-8248-4130C188E73A@1x</title>
    <g id="Illustrations" stroke="none" stroke-width="1" fill="none" fill-rule="evenodd">
        <g id="illustration/select-organizations" fill-rule="nonzero">
            <g id="undraw_Invite_re_rrcp">
                <path d="M76.6787004,55.4512635 L3.68231047,55.4512635 C1.64957122,55.4489847 0.00227881031,53.8016923 0,51.7689531 L0,10.8303249 C0.00227881031,8.79758566 1.64957122,7.15029325 3.68231047,7.14801444 L76.6787004,7.14801444 C78.7114357,7.15030278 80.3587225,8.79758961 80.3610108,10.8303249 L80.3610108,51.7689531 C80.3587225,53.8016884 78.7114357,55.4489752 76.6787004,55.4512635 Z M3.68231047,7.58122744 C1.88872471,7.58325672 0.435242279,9.03673915 0.433212996,10.8303249 L0.433212996,51.7689531 C0.435242279,53.5625388 1.88872471,55.0160213 3.68231047,55.0180505 L76.6787004,55.0180505 C78.4722861,55.0160213 79.9257686,53.5625388 79.9277978,51.7689531 L79.9277978,10.8303249 C79.9257686,9.03673915 78.4722861,7.58325672 76.6787004,7.58122744 L3.68231047,7.58122744 Z" id="Shape" fill="#E6E6E6"></path>
                <path d="M58.1805899,23.4612996 L44.1011675,23.4612996 C43.5628394,23.4612996 43.1264383,23.8977008 43.1264383,24.4360289 C43.1264383,24.974357 43.5628394,25.4107581 44.1011675,25.4107581 L58.1805899,25.4107581 C58.718918,25.4107581 59.1553191,24.974357 59.1553191,24.4360289 C59.1553191,23.8977008 58.718918,23.4612996 58.1805899,23.4612996 L58.1805899,23.4612996 Z" id="Path" fill="#E6E6E6"></path>
                <path d="M71.9047495,29.6345848 L43.9149162,29.6345848 C43.479483,29.6345848 43.1264383,30.07213 43.1264383,30.6093141 C43.1264383,31.1464982 43.479483,31.5840433 43.9149162,31.5840433 L71.9047495,31.5840433 C72.3401827,31.5840433 72.6932253,31.1464982 72.6932253,30.6093141 C72.6932253,30.07213 72.3401827,29.6345848 71.9047495,29.6345848 Z" id="Path" fill="#E6E6E6"></path>
                <path d="M71.9047495,35.9566787 L43.9149162,35.9566787 C43.479483,35.9566787 43.1264383,36.3942238 43.1264383,36.9314079 C43.1264383,37.4685921 43.479483,37.9061372 43.9149162,37.9061372 L71.9047495,37.9061372 C72.3401827,37.9061372 72.6932253,37.4685921 72.6932253,36.9314079 C72.6932253,36.3942238 72.3401827,35.9566787 71.9047495,35.9566787 Z" id="Path" fill="#E6E6E6"></path>
                <path d="M33.3574007,46.4620939 L9.09747292,46.4620939 C7.84196784,46.4606615 6.8245371,45.4432307 6.82310469,44.1877256 L6.82310469,17.1119134 C6.8245371,15.8564083 7.84196784,14.8389775 9.09747292,14.8375451 L33.3574007,14.8375451 C34.6129058,14.8389775 35.6303365,15.8564083 35.631769,17.1119134 L35.631769,44.1877256 C35.6303365,45.4432307 34.6129058,46.4606615 33.3574007,46.4620939 L33.3574007,46.4620939 Z" id="Path" fill="#E6E6E6"></path>
                <circle id="Oval" fill="#E6E6E6" cx="78.4115523" cy="7.79783394" r="7.79783394"></circle>
                <path d="M180.216606,55.4512635 L107.220217,55.4512635 C105.187477,55.4489847 103.540185,53.8016923 103.537906,51.7689531 L103.537906,10.8303249 C103.540185,8.79758566 105.187477,7.15029325 107.220217,7.14801444 L180.216606,7.14801444 C182.249342,7.15030278 183.896629,8.79758961 183.898917,10.8303249 L183.898917,51.7689531 C183.896629,53.8016884 182.249342,55.4489752 180.216606,55.4512635 Z M107.220217,7.58122744 C105.426631,7.58325672 103.973148,9.03673915 103.971119,10.8303249 L103.971119,51.7689531 C103.973148,53.5625388 105.426631,55.0160213 107.220217,55.0180505 L180.216606,55.0180505 C182.010192,55.0160213 183.463675,53.5625388 183.465704,51.7689531 L183.465704,10.8303249 C183.463675,9.03673915 182.010192,7.58325672 180.216606,7.58122744 L107.220217,7.58122744 Z" id="Shape" fill="#3F3D56"></path>
                <path d="M161.718496,23.4612996 L147.639074,23.4612996 C147.100746,23.4612996 146.664344,23.8977008 146.664344,24.4360289 C146.664344,24.974357 147.100746,25.4107581 147.639074,25.4107581 L161.718496,25.4107581 C162.256824,25.4107581 162.693225,24.974357 162.693225,24.4360289 C162.693225,23.8977008 162.256824,23.4612996 161.718496,23.4612996 L161.718496,23.4612996 Z" id="Path" fill="#3F3D56"></path>
                <path d="M175.442656,29.6345848 L147.452822,29.6345848 C147.017389,29.6345848 146.664344,30.07213 146.664344,30.6093141 C146.664344,31.1464982 147.017389,31.5840433 147.452822,31.5840433 L175.442656,31.5840433 C175.878089,31.5840433 176.231131,31.1464982 176.231131,30.6093141 C176.231131,30.07213 175.878089,29.6345848 175.442656,29.6345848 Z" id="Path" fill="#3F3D56"></path>
                <path d="M175.442656,35.9566787 L147.452822,35.9566787 C147.017389,35.9566787 146.664344,36.3942238 146.664344,36.9314079 C146.664344,37.4685921 147.017389,37.9061372 147.452822,37.9061372 L175.442656,37.9061372 C175.878089,37.9061372 176.231131,37.4685921 176.231131,36.9314079 C176.231131,36.3942238 175.878089,35.9566787 175.442656,35.9566787 Z" id="Path" fill="#3F3D56"></path>
                <path d="M136.895307,46.4620939 L112.635379,46.4620939 C111.379874,46.4606615 110.362443,45.4432307 110.361011,44.1877256 L110.361011,17.1119134 C110.362443,15.8564083 111.379874,14.8389775 112.635379,14.8375451 L136.895307,14.8375451 C138.150812,14.8389775 139.168243,15.8564083 139.169675,17.1119134 L139.169675,44.1877256 C139.168243,45.4432307 138.150812,46.4606615 136.895307,46.4620939 L136.895307,46.4620939 Z" id="Path" fill="#ffa600"></path>
                <circle id="Oval" fill="#ffa600" cx="181.949458" cy="7.79783394" r="7.79783394"></circle>
                <path d="M181.511118,10.9544984 C181.298489,10.954893 181.091497,10.8861362 180.921366,10.7585957 L180.910819,10.7506765 L178.68984,9.05021805 C178.409225,8.83608158 178.264371,8.4883567 178.309969,8.13832781 C178.355567,7.78829891 178.58467,7.48928899 178.91078,7.35418999 C179.23689,7.21909099 179.610328,7.26848373 179.8901,7.48371986 L181.328679,8.58680361 L184.728275,4.15323682 C184.887509,3.9455588 185.122723,3.80964504 185.38217,3.77539707 C185.641616,3.74114911 185.904041,3.81137258 186.11171,3.97061805 L186.090572,3.99931625 L186.112258,3.9710361 C186.544141,4.30296584 186.625837,4.92185202 186.294879,5.35448014 L182.296144,10.5694159 C182.108688,10.8129897 181.818473,10.9553489 181.511118,10.9544984 L181.511118,10.9544984 Z" id="Path" fill="#FFFFFF"></path>
                <path d="M76.6787004,120 L3.68231047,120 C1.64957122,119.997721 0.00227881031,118.350429 0,116.31769 L0,75.3790614 C0.00227881031,73.3463221 1.64957122,71.6990297 3.68231047,71.6967509 L76.6787004,71.6967509 C78.7114357,71.6990392 80.3587225,73.3463261 80.3610108,75.3790614 L80.3610108,116.31769 C80.3587225,118.350425 78.7114357,119.997712 76.6787004,120 L76.6787004,120 Z M3.68231047,72.1299639 C1.88872471,72.1319932 0.435242279,73.5854756 0.433212996,75.3790614 L0.433212996,116.31769 C0.435242279,118.111275 1.88872471,119.564758 3.68231047,119.566787 L76.6787004,119.566787 C78.4722861,119.564758 79.9257686,118.111275 79.9277978,116.31769 L79.9277978,75.3790614 C79.9257686,73.5854756 78.4722861,72.1319932 76.6787004,72.1299639 L3.68231047,72.1299639 Z" id="Shape" fill="#3F3D56"></path>
                <path d="M58.1805899,88.0100361 L44.1011675,88.0100361 C43.5628394,88.0100361 43.1264383,88.4464372 43.1264383,88.9847653 C43.1264383,89.5230934 43.5628394,89.9594946 44.1011675,89.9594946 L58.1805899,89.9594946 C58.718918,89.9594946 59.1553191,89.5230934 59.1553191,88.9847653 C59.1553191,88.4464372 58.718918,88.0100361 58.1805899,88.0100361 L58.1805899,88.0100361 Z" id="Path" fill="#3F3D56"></path>
                <path d="M71.9047495,94.1833213 L43.9149162,94.1833213 C43.479483,94.1833213 43.1264383,94.6208664 43.1264383,95.1580505 C43.1264383,95.6952347 43.479483,96.1327798 43.9149162,96.1327798 L71.9047495,96.1327798 C72.3401827,96.1327798 72.6932253,95.6952347 72.6932253,95.1580505 C72.6932253,94.6208664 72.3401827,94.1833213 71.9047495,94.1833213 Z" id="Path" fill="#3F3D56"></path>
                <path d="M71.9047495,100.505415 L43.9149162,100.505415 C43.479483,100.505415 43.1264383,100.94296 43.1264383,101.480144 C43.1264383,102.017329 43.479483,102.454874 43.9149162,102.454874 L71.9047495,102.454874 C72.3401827,102.454874 72.6932253,102.017329 72.6932253,101.480144 C72.6932253,100.94296 72.3401827,100.505415 71.9047495,100.505415 Z" id="Path" fill="#3F3D56"></path>
                <path d="M33.3574007,111.01083 L9.09747292,111.01083 C7.84196784,111.009398 6.8245371,109.991967 6.82310469,108.736462 L6.82310469,81.6606498 C6.8245371,80.4051447 7.84196784,79.387714 9.09747292,79.3862816 L33.3574007,79.3862816 C34.6129058,79.387714 35.6303365,80.4051447 35.631769,81.6606498 L35.631769,108.736462 C35.6303365,109.991967 34.6129058,111.009398 33.3574007,111.01083 L33.3574007,111.01083 Z" id="Path" fill="#ffa600"></path>
                <circle id="Oval" fill="#ffa600" cx="78.4115523" cy="72.3465704" r="7.79783394"></circle>
                <path d="M77.9732123,75.5032349 C77.7605833,75.5036295 77.5535912,75.4348726 77.3834599,75.3073321 L77.3729134,75.299413 L75.1519343,73.5989545 C74.871319,73.384818 74.7264653,73.0370932 74.7720632,72.6870643 C74.8176611,72.3370354 75.0467642,72.0380255 75.3728741,71.9029265 C75.698984,71.7678275 76.0724214,71.8172202 76.3521942,72.0324563 L77.7907733,73.1355401 L81.190369,68.7019733 C81.3496026,68.4942953 81.5848168,68.3583815 81.8442635,68.3241335 C82.1037103,68.2898856 82.3661354,68.360109 82.5738043,68.5193545 L82.5526657,68.5480527 L82.5743523,68.5197726 C83.006235,68.8517023 83.0879308,69.4705885 82.7569733,69.9032166 L78.7582375,75.1181523 C78.570782,75.3617262 78.2805672,75.5040853 77.9732123,75.5032349 L77.9732123,75.5032349 Z" id="Path" fill="#FFFFFF"></path>
                <path d="M180.216606,120 L107.220217,120 C105.187477,119.997721 103.540185,118.350429 103.537906,116.31769 L103.537906,75.3790614 C103.540185,73.3463221 105.187477,71.6990297 107.220217,71.6967509 L180.216606,71.6967509 C182.249342,71.6990392 183.896629,73.3463261 183.898917,75.3790614 L183.898917,116.31769 C183.896629,118.350425 182.249342,119.997712 180.216606,120 L180.216606,120 Z M107.220217,72.1299639 C105.426631,72.1319932 103.973148,73.5854756 103.971119,75.3790614 L103.971119,116.31769 C103.973148,118.111275 105.426631,119.564758 107.220217,119.566787 L180.216606,119.566787 C182.010192,119.564758 183.463675,118.111275 183.465704,116.31769 L183.465704,75.3790614 C183.463675,73.5854756 182.010192,72.1319932 180.216606,72.1299639 L107.220217,72.1299639 Z" id="Shape" fill="#3F3D56"></path>
                <path d="M161.718496,88.0100361 L147.639074,88.0100361 C147.100746,88.0100361 146.664344,88.4464372 146.664344,88.9847653 C146.664344,89.5230934 147.100746,89.9594946 147.639074,89.9594946 L161.718496,89.9594946 C162.256824,89.9594946 162.693225,89.5230934 162.693225,88.9847653 C162.693225,88.4464372 162.256824,88.0100361 161.718496,88.0100361 L161.718496,88.0100361 Z" id="Path" fill="#3F3D56"></path>
                <path d="M175.442656,94.1833213 L147.452822,94.1833213 C147.017389,94.1833213 146.664344,94.6208664 146.664344,95.1580505 C146.664344,95.6952347 147.017389,96.1327798 147.452822,96.1327798 L175.442656,96.1327798 C175.878089,96.1327798 176.231131,95.6952347 176.231131,95.1580505 C176.231131,94.6208664 175.878089,94.1833213 175.442656,94.1833213 Z" id="Path" fill="#3F3D56"></path>
                <path d="M175.442656,100.505415 L147.452822,100.505415 C147.017389,100.505415 146.664344,100.94296 146.664344,101.480144 C146.664344,102.017329 147.017389,102.454874 147.452822,102.454874 L175.442656,102.454874 C175.878089,102.454874 176.231131,102.017329 176.231131,101.480144 C176.231131,100.94296 175.878089,100.505415 175.442656,100.505415 Z" id="Path" fill="#3F3D56"></path>
                <path d="M136.895307,111.01083 L112.635379,111.01083 C111.379874,111.009398 110.362443,109.991967 110.361011,108.736462 L110.361011,81.6606498 C110.362443,80.4051447 111.379874,79.387714 112.635379,79.3862816 L136.895307,79.3862816 C138.150812,79.387714 139.168243,80.4051447 139.169675,81.6606498 L139.169675,108.736462 C139.168243,109.991967 138.150812,111.009398 136.895307,111.01083 L136.895307,111.01083 Z" id="Path" fill="#ffa600"></path>
                <circle id="Oval" fill="#ffa600" cx="181.949458" cy="72.3465704" r="7.79783394"></circle>
                <path d="M181.511118,75.5032349 C181.298489,75.5036295 181.091497,75.4348726 180.921366,75.3073321 L180.910819,75.299413 L178.68984,73.5989545 C178.409225,73.384818 178.264371,73.0370932 178.309969,72.6870643 C178.355567,72.3370354 178.58467,72.0380255 178.91078,71.9029265 C179.23689,71.7678275 179.610328,71.8172202 179.8901,72.0324563 L181.328679,73.1355401 L184.728275,68.7019733 C184.887509,68.4942953 185.122723,68.3583815 185.38217,68.3241335 C185.641616,68.2898856 185.904041,68.360109 186.11171,68.5193545 L186.090572,68.5480527 L186.112258,68.5197726 C186.544141,68.8517023 186.625837,69.4705885 186.294879,69.9032166 L182.296144,75.1181523 C182.108688,75.3617262 181.818473,75.5040853 181.511118,75.5032349 L181.511118,75.5032349 Z" id="Path" fill="#FFFFFF"></path>
                <path d="M125.567437,41.0822383 C125.021105,41.0669892 124.341167,41.0478693 123.81767,40.6654419 C123.501982,40.4253754 123.308452,40.0581282 123.288886,39.6620123 C123.269703,39.3801216 123.38343,39.1054756 123.596281,38.9196671 C123.913347,38.6829664 124.328795,38.6231564 124.699755,38.7608058 L124.253749,35.5013762 L124.581152,35.4565191 L125.105497,39.2883791 L124.83211,39.1629206 C124.515115,39.0175321 124.080002,38.9436282 123.809601,39.1720375 C123.675043,39.2930613 123.604621,39.4699124 123.619155,39.6503047 C123.635343,39.9450382 123.778951,40.218149 124.012594,40.3985394 C124.419992,40.696252 124.961968,40.7346563 125.57671,40.751922 L125.567437,41.0822383 Z" id="Path" fill="#FFFFFF"></path>
                <rect id="Rectangle" fill="#FFFFFF" x="120.854749" y="35.7824643" width="1.77986209" height="1"></rect>
                <rect id="Rectangle" fill="#FFFFFF" x="126.472724" y="35.7824643" width="1.77986209" height="1"></rect>
                <path d="M117.762516,31.219083 C116.32923,31.0556426 115.219189,29.6823639 115.097268,28.2889841 C114.952222,26.6313314 115.917589,25.0569422 117.241999,24.1267408 C118.627027,23.153961 120.35264,22.7477329 122.022245,22.6583069 C125.279257,22.4962311 128.480139,23.5512695 131.002434,25.6182542 C132.253497,26.6573155 133.421907,27.9809199 133.864742,29.5796578 C134.249326,30.9681054 133.936371,32.541013 132.819678,33.5134332 C132.261205,33.995207 131.526647,34.2213702 130.793909,34.1371473 C129.927438,34.0471776 129.127975,33.5915805 128.435946,33.0884209 C127.089806,32.1096671 125.98469,30.7461726 124.344658,30.2347083 C123.142129,29.8596866 121.581609,30.1897906 120.846741,31.2772549 C120.679992,31.5261919 120.571934,31.8097361 120.530712,32.1065112 C120.499207,32.2378575 120.574886,32.371147 120.703822,32.4113978 C120.835708,32.4469213 120.971632,32.3697474 121.00871,32.2382903 C121.201633,30.8685964 122.885799,30.357496 124.067627,30.6702975 C125.790784,31.1263668 126.947521,32.6640347 128.361303,33.6409733 C129.093115,34.1866461 129.955283,34.5307739 130.861703,34.6389899 C131.647629,34.7006505 132.427583,34.4610462 133.043342,33.9687834 C134.251139,33.015065 134.713031,31.374704 134.445957,29.8978267 C134.136682,28.1875841 132.985575,26.7218036 131.722564,25.5869848 C129.162104,23.3106926 125.837981,22.0827066 122.4126,22.1477307 C120.665478,22.1878614 118.842526,22.5485329 117.337388,23.4719567 C115.877415,24.3676744 114.74898,25.8662079 114.601492,27.6080989 C114.471676,29.1413004 115.294267,30.7449487 116.706321,31.4166455 C117.039254,31.5743502 117.396269,31.6751273 117.762524,31.714787 C118.078939,31.7508693 118.076361,31.2548708 117.762524,31.219083 L117.762516,31.219083 Z" id="Path" fill="#FFFFFF"></path>
                <path d="M125.567437,104.764549 C125.021105,104.7493 124.341167,104.73018 123.81767,104.347752 C123.501982,104.107686 123.308452,103.740439 123.288886,103.344323 C123.269703,103.062432 123.38343,102.787786 123.596281,102.601978 C123.913347,102.365277 124.328795,102.305467 124.699755,102.443116 L124.253749,99.1836866 L124.581152,99.1388296 L125.105497,102.97069 L124.83211,102.845231 C124.515115,102.699843 124.080002,102.625939 123.809601,102.854348 C123.675043,102.975372 123.604621,103.152223 123.619155,103.332615 C123.635343,103.627349 123.778951,103.900459 124.012594,104.08085 C124.419992,104.378562 124.961968,104.416967 125.57671,104.434232 L125.567437,104.764549 Z" id="Path" fill="#FFFFFF"></path>
                <rect id="Rectangle" fill="#FFFFFF" x="120.854749" y="99.4647747" width="1.77986209" height="1"></rect>
                <rect id="Rectangle" fill="#FFFFFF" x="126.472724" y="99.4647747" width="1.77986209" height="1"></rect>
                <path d="M117.762516,94.9013935 C116.32923,94.7379531 115.219189,93.3646744 115.097268,91.9712946 C114.952222,90.3136419 115.917589,88.7392527 117.241999,87.8090513 C118.627027,86.8362715 120.35264,86.4300433 122.022245,86.3406173 C125.279257,86.1785416 128.480139,87.2335799 131.002434,89.3005646 C132.253497,90.339626 133.421907,91.6632303 133.864742,93.2619682 C134.249326,94.6504051 133.936371,96.2233235 132.819678,97.1957437 C132.261205,97.6775175 131.526647,97.9036806 130.793909,97.8194578 C129.927438,97.7294881 129.127975,97.273891 128.435946,96.7707314 C127.089806,95.7919776 125.98469,94.428483 124.344658,93.9170188 C123.142129,93.5419971 121.581609,93.8721011 120.846741,94.9595653 C120.679992,95.2085024 120.571934,95.4920466 120.530712,95.7888217 C120.499207,95.9201679 120.574886,96.0534575 120.703822,96.0937083 C120.835708,96.1292318 120.971632,96.0520579 121.00871,95.9206007 C121.201633,94.5509069 122.885799,94.0398065 124.067627,94.3526079 C125.790784,94.8086773 126.947521,96.3463451 128.361303,97.3232838 C129.093115,97.8689565 129.955283,98.2130844 130.861703,98.3213004 C131.647629,98.382961 132.427583,98.1433566 133.043342,97.6510939 C134.251139,96.6973755 134.713031,95.0570144 134.445957,93.5801372 C134.136682,91.8698946 132.985575,90.4041141 131.722564,89.2692953 C129.162104,86.9930031 125.837981,85.765017 122.4126,85.8300412 C120.665478,85.8701718 118.842526,86.2308433 117.337388,87.1542671 C115.877415,88.0499848 114.74898,89.5485184 114.601492,91.2904094 C114.471676,92.8236108 115.294267,94.4272592 116.706321,95.098956 C117.039254,95.2566607 117.396269,95.3574377 117.762524,95.3970975 C118.078939,95.4331798 118.076361,94.9371812 117.762524,94.9013935 L117.762516,94.9013935 Z" id="Path" fill="#FFFFFF"></path>
                <path d="M20.9464982,104.764549 C20.4001668,104.7493 19.7202282,104.73018 19.1967314,104.347752 C18.8810438,104.107686 18.687513,103.740439 18.6679473,103.344323 C18.648764,103.062432 18.7624911,102.787786 18.9753422,102.601978 C19.2924082,102.365277 19.7078567,102.305467 20.0788159,102.443116 L19.6328101,99.1836866 L19.960213,99.1388296 L20.4845588,102.97069 L20.2111711,102.845231 C19.8941762,102.699843 19.4590635,102.625939 19.1886628,102.854348 C19.0541048,102.975372 18.9836823,103.152223 18.9982159,103.332615 C19.0144041,103.627349 19.1580122,103.900459 19.3916556,104.08085 C19.7990534,104.378562 20.3410289,104.416967 20.9557711,104.434232 L20.9464982,104.764549 Z" id="Path" fill="#FFFFFF"></path>
                <rect id="Rectangle" fill="#FFFFFF" x="16.2338101" y="99.4647747" width="1.77986209" height="1"></rect>
                <rect id="Rectangle" fill="#FFFFFF" x="21.8517856" y="99.4647747" width="1.77986209" height="1"></rect>
                <path d="M13.1415769,94.9013935 C11.7082917,94.7379531 10.5982505,93.3646744 10.4763292,91.9712946 C10.331283,90.3136419 11.2966505,88.7392527 12.6210606,87.8090513 C14.0060881,86.8362715 15.7317011,86.4300433 17.4013061,86.3406173 C20.6583181,86.1785416 23.8592008,87.2335799 26.3814953,89.3005646 C27.6325581,90.339626 28.8009682,91.6632303 29.2438029,93.2619682 C29.6283877,94.6504051 29.3154325,96.2233235 28.1987394,97.1957437 C27.6402664,97.6775175 26.9057081,97.9036806 26.1729704,97.8194578 C25.3064989,97.7294881 24.5070368,97.273891 23.8150072,96.7707314 C22.4688671,95.7919776 21.3637516,94.428483 19.7237199,93.9170188 C18.5211899,93.5419971 16.96067,93.8721011 16.2258022,94.9595653 C16.0590537,95.2085024 15.9509952,95.4920466 15.9097733,95.7888217 C15.8782682,95.9201679 15.9539478,96.0534575 16.082883,96.0937083 C16.214769,96.1292318 16.3506929,96.0520579 16.3877718,95.9206007 C16.5806946,94.5509069 18.2648599,94.0398065 19.4466888,94.3526079 C21.1698455,94.8086773 22.3265827,96.3463451 23.7403646,97.3232838 C24.4721768,97.8689565 25.3343439,98.2130844 26.2407639,98.3213004 C27.02669,98.382961 27.8066439,98.1433566 28.4224029,97.6510939 C29.6302007,96.6973755 30.0920924,95.0570144 29.8250188,93.5801372 C29.5157437,91.8698946 28.3646361,90.4041141 27.1016253,89.2692953 C24.5411655,86.9930031 21.217042,85.765017 17.7916614,85.8300412 C16.0445394,85.8701718 14.2215877,86.2308433 12.7164498,87.1542671 C11.2564765,88.0499848 10.1280412,89.5485184 9.98055379,91.2904094 C9.85073718,92.8236108 10.6733285,94.4272592 12.0853819,95.098956 C12.4183154,95.2566607 12.7753307,95.3574377 13.1415856,95.3970975 C13.458,95.4331798 13.4554224,94.9371812 13.1415856,94.9013935 L13.1415769,94.9013935 Z" id="Path" fill="#FFFFFF"></path>
                <path d="M20.9464982,41.5154513 C20.4001668,41.5002022 19.7202282,41.4810823 19.1967314,41.0986549 C18.8810438,40.8585884 18.687513,40.4913412 18.6679473,40.0952253 C18.648764,39.8133345 18.7624911,39.5386886 18.9753422,39.3528801 C19.2924082,39.1161794 19.7078567,39.0563694 20.0788159,39.1940188 L19.6328101,35.9345892 L19.960213,35.8897321 L20.4845588,39.7215921 L20.2111711,39.5961336 C19.8941762,39.4507451 19.4590635,39.3768412 19.1886628,39.6052505 C19.0541048,39.7262743 18.9836823,39.9031254 18.9982159,40.0835177 C19.0144041,40.3782512 19.1580122,40.6513619 19.3916556,40.8317523 C19.7990534,41.129465 20.3410289,41.1678693 20.9557711,41.185135 L20.9464982,41.5154513 Z" id="Path" fill="#3F3D56"></path>
                <rect id="Rectangle" fill="#3F3D56" x="16.2338101" y="36.2156773" width="1.77986209" height="1"></rect>
                <rect id="Rectangle" fill="#3F3D56" x="21.8517856" y="36.2156773" width="1.77986209" height="1"></rect>
                <path d="M13.1415769,31.652296 C11.7082917,31.4888556 10.5982505,30.1155769 10.4763292,28.7221971 C10.331283,27.0645444 11.2966505,25.4901552 12.6210606,24.5599538 C14.0060881,23.587174 15.7317011,23.1809458 17.4013061,23.0915199 C20.6583181,22.9294441 23.8592008,23.9844825 26.3814953,26.0514671 C27.6325581,27.0905285 28.8009682,28.4141329 29.2438029,30.0128708 C29.6283877,31.4013184 29.3154325,32.974226 28.1987394,33.9466462 C27.6402664,34.42842 26.9057081,34.6545832 26.1729704,34.5703603 C25.3064989,34.4803906 24.5070368,34.0247935 23.8150072,33.5216339 C22.4688671,32.5428801 21.3637516,31.1793856 19.7237199,30.6679213 C18.5211899,30.2928996 16.96067,30.6230036 16.2258022,31.7104679 C16.0590537,31.9594049 15.9509952,32.2429491 15.9097733,32.5397242 C15.8782682,32.6710705 15.9539478,32.80436 16.082883,32.8446108 C16.214769,32.8801343 16.3506929,32.8029604 16.3877718,32.6715032 C16.5806946,31.3018094 18.2648599,30.790709 19.4466888,31.1035105 C21.1698455,31.5595798 22.3265827,33.0972477 23.7403646,34.0741863 C24.4721768,34.6198591 25.3343439,34.9639869 26.2407639,35.0722029 C27.02669,35.1338635 27.8066439,34.8942592 28.4224029,34.4019964 C29.6302007,33.448278 30.0920924,31.807917 29.8250188,30.3310397 C29.5157437,28.6207971 28.3646361,27.1550166 27.1016253,26.0201978 C24.5411655,23.7439056 21.217042,22.5159196 17.7916614,22.5809437 C16.0445394,22.6210744 14.2215877,22.9817458 12.7164498,23.9051697 C11.2564765,24.8008874 10.1280412,26.2994209 9.98055379,28.0413119 C9.85073718,29.5745134 10.6733285,31.1781617 12.0853819,31.8498585 C12.4183154,32.0075632 12.7753307,32.1083403 13.1415856,32.148 C13.458,32.1840823 13.4554224,31.6880838 13.1415856,31.652296 L13.1415769,31.652296 Z" id="Path" fill="#3F3D56"></path>
            </g>
        </g>
    </g>
</svg>
