<?xml version="1.0" encoding="UTF-8"?>
<svg width='134px' height='120px' viewBox='0 0 134 120' version='1.1' xmlns='http://www.w3.org/2000/svg'>
    <title>4C647B4B-F5C2-468F-892F-B5727B96B1E5@1x</title>
    <g id="Invite-management" stroke="none" stroke-width="1" fill="none" fill-rule="evenodd">
        <g id="02.1-InvestigationDetails-ViewDetail-Invitee-accepted" transform="translate(-673.000000, -652.000000)" fill-rule="nonzero">
            <g id="My-affected-parts" transform="translate(64.000000, 564.000000)">
                <g id="Empty-state" transform="translate(484.000000, 88.000000)">
                    <g id="undraw_Add_files_re_v09g-(1)" transform="translate(125.000000, 0.000000)">
                        <path d="M68.4745249,0.260614142 L64.1239486,1.38254001 L10.5238854,15.2049251 L6.17330217,16.326851 C1.77640394,17.4660112 -0.868644702,21.9493437 0.260618503,26.3487942 L19.1257091,99.5033434 C20.2648541,103.900247 24.7481811,106.54531 29.1476353,105.416056 L29.1588715,105.413158 L91.4376167,89.3527156 L91.4488529,89.3498176 C95.8457548,88.2106674 98.4908117,83.727337 97.361552,79.3278846 L78.4964613,6.17333543 C77.3573171,1.77642594 72.8739845,-0.868641295 68.4745249,0.260614142 Z" id="Path" fill="#F2F2F2"></path>
                        <path d="M69.0660857,2.55421668 L63.9131193,3.8830634 L11.9176736,17.2916495 L6.76478425,18.620474 C3.63364072,19.4316786 1.75002522,22.6243662 2.55420053,25.7573224 L21.4192911,98.9118716 C22.2305039,102.043009 25.4231925,103.926613 28.5561429,103.122431 L28.5673791,103.119533 L90.8461244,87.0590925 L90.8574409,87.0561741 C93.9885432,86.2449422 95.8721145,83.0522785 95.0679392,79.9193565 L76.2028485,6.76480725 C75.3916548,3.63369645 72.1990176,1.75008502 69.0660857,2.55421668 Z" id="Path" fill="#FFFFFF"></path>
                        <path d="M65.1751592,26.2435822 L33.6698544,34.36817 C32.937098,34.5571329 32.1898969,34.1163012 32.000934,33.3835448 C31.811971,32.6507884 32.2528027,31.9035873 32.9855591,31.7146243 L64.4908639,23.5900348 C65.2233284,23.401841 65.969763,23.8426676 66.1586074,24.5749646 C66.3474517,25.3072616 65.9072882,26.0540875 65.1751592,26.2435822 L65.1751592,26.2435822 Z" id="Path" fill="#F2F2F2"></path>
                        <path d="M71.8028428,29.3100788 L34.8245912,38.846029 C34.0918348,39.0349919 33.3446337,38.5941602 33.1556707,37.8614038 C32.9667078,37.1286474 33.4075395,36.3814463 34.1402959,36.1924833 L71.1185475,26.6565332 C71.8513039,26.4675698 72.5985055,26.9084011 72.7874689,27.6411575 C72.9764323,28.3739139 72.5356009,29.1211154 71.8028445,29.3100788 L71.8028428,29.3100788 Z" id="Path" fill="#F2F2F2"></path>
                        <path d="M70.3501466,46.3110234 L38.8448417,54.4356112 C38.3708314,54.5578491 37.8676147,54.4179201 37.5247485,54.0685341 C37.1818822,53.7191481 37.0514559,53.2133851 37.1826,52.7417612 C37.313744,52.2701373 37.6865344,51.9043034 38.1605447,51.7820655 L69.6658496,43.6574777 C70.1398599,43.5352401 70.6430764,43.6751694 70.9859424,44.0245555 C71.3288084,44.3739417 71.4592344,44.8797047 71.3280901,45.3513284 C71.1969458,45.8229522 70.8241552,46.1887858 70.3501449,46.3110234 L70.3501466,46.3110234 Z" id="Path" fill="#F2F2F2"></path>
                        <path d="M76.977837,49.37752 L39.9995854,58.9134702 C39.5255751,59.0357081 39.0223584,58.8957791 38.6794921,58.5463931 C38.3366259,58.1970071 38.2061996,57.6912441 38.3373436,57.2196202 C38.4684877,56.7479963 38.8412781,56.3821624 39.3152884,56.2599245 L76.29354,46.7239743 C77.0262964,46.535011 77.7734979,46.9758423 77.9624613,47.7085987 C78.1514247,48.4413551 77.7105934,49.1885566 76.977837,49.37752 Z" id="Path" fill="#F2F2F2"></path>
                        <path d="M75.525139,66.3784645 L44.0198342,74.5030541 C43.2873048,74.6914192 42.5406994,74.2505917 42.3518283,73.5181926 C42.1629572,72.7857935 42.6032687,72.0388838 43.3355372,71.8495067 L74.840842,63.7249189 C75.5735984,63.5359555 76.3208,63.9767868 76.5097634,64.7095432 C76.6987268,65.4422996 76.2578954,66.1895011 75.525139,66.3784645 L75.525139,66.3784645 Z" id="Path" fill="#F2F2F2"></path>
                        <path d="M82.1528278,69.4449543 L45.1745762,78.9809062 C44.7003936,79.1036374 44.1967608,78.9639135 43.853588,78.6144217 C43.5104152,78.2649298 43.3799029,77.7588317 43.5112648,77.2869671 C43.6426266,76.8151026 44.015881,76.4492475 44.4902809,76.3273588 L81.4685325,66.7914086 C82.2012889,66.6024453 82.9484904,67.0432766 83.1374538,67.776033 C83.3264171,68.5087894 82.8855859,69.2559909 82.1528295,69.4449543 L82.1528278,69.4449543 Z" id="Path" fill="#F2F2F2"></path>
                        <path d="M28.2914271,42.6987435 L17.1419997,45.5739597 C16.7907025,45.664141 16.4327024,45.4529291 16.3417503,45.1018306 L13.7824096,35.177286 C13.6922291,34.8259898 13.9034399,34.4679912 14.2545369,34.3770383 L25.403966,31.5018221 C25.7552622,31.4116417 26.1132608,31.6228525 26.2042137,31.9739495 L28.7635562,41.8984923 C28.8537387,42.2497902 28.6425265,42.6077914 28.2914271,42.6987435 Z" id="Path" fill="#E6E6E6"></path>
                        <path d="M33.4664196,62.7661846 L22.3169905,65.6414008 C21.9656933,65.7315822 21.6076932,65.5203703 21.5167411,65.1692718 L18.9574003,55.2447306 C18.8672229,54.8934371 19.0784312,54.5354425 19.4295243,54.444488 L30.5789516,51.5692718 C30.9302484,51.4790903 31.2882482,51.6903014 31.3792011,52.0413992 L33.9385418,61.9659421 C34.0287193,62.317235 33.817512,62.6752294 33.4664196,62.7661846 L33.4664196,62.7661846 Z" id="Path" fill="#E6E6E6"></path>
                        <path d="M38.6414104,82.8336258 L27.491983,85.708842 C27.1406863,85.7990235 26.7826864,85.5878124 26.6917336,85.2367146 L24.1323928,75.3121717 C24.0422113,74.960875 24.2534223,74.6028752 24.6045202,74.5119223 L35.7539493,71.6367061 C36.1052459,71.5465258 36.4632449,71.7577375 36.554197,72.1088352 L39.1135394,82.0333764 C39.2037208,82.3846736 38.9925089,82.7426737 38.6414104,82.8336258 L38.6414104,82.8336258 Z" id="Path" fill="#E6E6E6"></path>
                        <path d="M111.926525,18.8043737 L47.5870684,18.8043737 C43.0449979,18.809488 39.364201,22.4902941 39.359098,27.0323646 L39.359098,102.580228 C39.364202,107.122297 43.0449997,110.8031 47.5870684,110.808211 L111.926525,110.808211 C116.468594,110.8031 120.149391,107.122297 120.154495,102.580228 L120.154495,27.0323646 C120.149392,22.4902941 116.468595,18.809488 111.926525,18.8043737 L111.926525,18.8043737 Z" id="Path" fill="#E6E6E6"></path>
                        <path d="M111.926615,21.1730358 L47.5870684,21.1730358 C44.3525515,21.1766615 41.7313599,23.7978477 41.7277276,27.0323646 L41.7277276,102.580228 C41.7313637,105.814742 44.3525545,108.435924 47.5870684,108.439549 L111.926615,108.439549 C115.161101,108.435888 117.782247,105.814714 117.785872,102.580228 L117.785872,27.0323646 C117.782251,23.7978761 115.161104,21.1766973 111.926615,21.1730358 Z" id="Path" fill="#FFFFFF"></path>
                        <circle id="Oval" fill="#ffa600" cx="118.685914" cy="104.980147" r="15.0198527"></circle>
                        <path d="M125.869323,103.021035 L120.645026,103.021035 L120.645026,97.7967384 C120.645026,96.7147508 119.767902,95.8376266 118.685914,95.8376266 C117.603927,95.8376266 116.726802,96.7147508 116.726802,97.7967384 L116.726802,103.021035 L111.502505,103.021035 C110.420518,103.021035 109.543393,103.89816 109.543393,104.980147 C109.543393,106.062135 110.420518,106.939259 111.502505,106.939259 L116.726802,106.939259 L116.726802,112.163551 C116.726802,113.245539 117.603927,114.122663 118.685914,114.122663 C119.767902,114.122663 120.645026,113.245539 120.645026,112.163551 L120.645026,106.939259 L125.869323,106.939259 C126.951311,106.939259 127.828435,106.062135 127.828435,104.980147 C127.828435,103.89816 126.951311,103.021035 125.869323,103.021035 L125.869323,103.021035 Z" id="Path" fill="#FFFFFF"></path>
                        <path d="M102.243458,62.6863951 L69.7074245,62.6863951 C69.2175419,62.6869415 68.7646374,62.4259064 68.5195379,62.0017466 C68.2744385,61.5775867 68.2744385,61.0548422 68.5195379,60.6306824 C68.7646374,60.2065226 69.2175419,59.9454875 69.7074245,59.9460339 L102.243458,59.9460339 C102.999589,59.9468794 103.612108,60.5600823 103.612108,61.3162145 C103.612108,62.0723467 102.999589,62.6855496 102.243458,62.6863951 L102.243458,62.6863951 Z" id="Path" fill="#E6E6E6"></path>
                        <path d="M107.895447,67.3107504 L69.7074245,67.3107504 C69.2175419,67.3112968 68.7646374,67.0502618 68.5195379,66.6261019 C68.2744385,66.2019421 68.2744385,65.6791976 68.5195379,65.2550377 C68.7646374,64.8308779 69.2175419,64.5698428 69.7074245,64.5703892 L107.895447,64.5703892 C108.652176,64.5703892 109.265627,65.1838404 109.265627,65.9405698 C109.265627,66.6972992 108.652176,67.3107504 107.895447,67.3107504 L107.895447,67.3107504 Z" id="Path" fill="#E6E6E6"></path>
                        <path d="M102.243458,83.4103642 L69.7074245,83.4103642 C69.2175419,83.4109106 68.7646374,83.1498755 68.5195379,82.7257157 C68.2744385,82.3015558 68.2744385,81.7788113 68.5195379,81.3546515 C68.7646374,80.9304916 69.2175419,80.6694566 69.7074245,80.670003 L102.243458,80.670003 C103.000187,80.670003 103.613637,81.2834542 103.613637,82.0401836 C103.613637,82.796913 103.000187,83.4103642 102.243458,83.4103642 Z" id="Path" fill="#E6E6E6"></path>
                        <path d="M107.895447,88.0347161 L69.7074245,88.0347161 C69.2175419,88.0352625 68.7646374,87.7742274 68.5195379,87.3500676 C68.2744385,86.9259077 68.2744385,86.4031632 68.5195379,85.9790034 C68.7646374,85.5548435 69.2175419,85.2938085 69.7074245,85.2943549 L107.895447,85.2943549 C108.385329,85.2938085 108.838234,85.5548435 109.083333,85.9790034 C109.328433,86.4031632 109.328433,86.9259077 109.083333,87.3500676 C108.838234,87.7742274 108.385329,88.0352625 107.895447,88.0347161 L107.895447,88.0347161 Z" id="Path" fill="#E6E6E6"></path>
                        <path d="M62.4191576,69.4100113 L50.9049674,69.4100113 C50.5422793,69.4096137 50.2483618,69.1156961 50.2479641,68.7530081 L50.2479641,58.5037762 C50.2483618,58.1410882 50.5422793,57.8471706 50.9049674,57.846773 L62.4191576,57.846773 C62.7818456,57.8471706 63.0757632,58.1410882 63.0761608,58.5037762 L63.0761608,68.7530081 C63.0757632,69.1156961 62.7818456,69.4096137 62.4191576,69.4100113 Z" id="Path" fill="#E6E6E6"></path>
                        <path d="M62.4191576,90.133977 L50.9049674,90.133977 C50.5422793,90.1335793 50.2483618,89.8396618 50.2479641,89.4769738 L50.2479641,79.2277419 C50.2483618,78.8650539 50.5422793,78.5711363 50.9049674,78.5707387 L62.4191576,78.5707387 C62.7818456,78.5711363 63.0757632,78.8650539 63.0761608,79.2277419 L63.0761608,89.4769738 C63.0757632,89.8396618 62.7818456,90.1335793 62.4191576,90.133977 Z" id="Path" fill="#E6E6E6"></path>
                        <path d="M102.279562,39.6165312 L78.2920692,39.6165312 C77.5353398,39.6165312 76.9218894,39.0030808 76.9218894,38.2463514 C76.9218894,37.4896221 77.5353398,36.8761717 78.2920692,36.8761717 L102.279562,36.8761717 C103.036291,36.8761717 103.649741,37.4896221 103.649741,38.2463514 C103.649741,39.0030808 103.036291,39.6165312 102.279562,39.6165312 Z" id="Path" fill="#CCCCCC"></path>
                        <path d="M107.931552,44.2408848 L78.2920692,44.2408848 C77.8025514,44.2408848 77.3502182,43.9797303 77.1054593,43.5557954 C76.8607004,43.1318606 76.8607004,42.6095513 77.1054593,42.1856164 C77.3502182,41.7616816 77.8025514,41.500527 78.2920692,41.500527 L107.931552,41.500527 C108.688281,41.500527 109.301731,42.113977 109.301731,42.8707059 C109.301731,43.6274348 108.688281,44.2408848 107.931552,44.2408848 L107.931552,44.2408848 Z" id="Path" fill="#CCCCCC"></path>
                        <path d="M72.9832441,49.8450482 L50.8688617,49.8450482 C50.5061751,49.8446497 50.2122588,49.5507334 50.2118602,49.1880467 L50.2118602,31.9290098 C50.2122588,31.5663231 50.5061751,31.2724068 50.8688617,31.2720083 L72.9832441,31.2720083 C73.3459308,31.2724068 73.6398471,31.5663231 73.6402457,31.9290098 L73.6402457,49.1880467 C73.6398471,49.5507334 73.3459308,49.8446497 72.9832441,49.8450482 L72.9832441,49.8450482 Z" id="Path" fill="#ffa600"></path>
                    </g>
                </g>
            </g>
        </g>
    </g>
</svg>
