<svg width="20" height="21" viewBox="0 0 20 21" fill="none" xmlns="http://www.w3.org/2000/svg">
<rect y="0.0517578" width="20" height="20" rx="4" fill="#E7B80C"/>
<mask id="mask0_1331_13571" style="mask-type:alpha" maskUnits="userSpaceOnUse" x="1" y="1" width="18" height="18">
<rect x="1.64286" y="1.69458" width="16.7143" height="16.7143" fill="#D9D9D9"/>
</mask>
<g mask="url(#mask0_1331_13571)">
<path d="M4.6429 15.275C4.29109 15.275 3.99331 15.1532 3.74956 14.9094C3.50581 14.6657 3.38393 14.3679 3.38393 14.0161V6.08758C3.38393 5.73577 3.50581 5.43799 3.74956 5.19424C3.99331 4.95049 4.29109 4.82861 4.6429 4.82861H15.3571C15.7089 4.82861 16.0067 4.95049 16.2505 5.19424C16.4942 5.43799 16.6161 5.73577 16.6161 6.08758V14.0161C16.6161 14.3679 16.4942 14.6657 16.2505 14.9094C16.0067 15.1532 15.7089 15.275 15.3571 15.275H4.6429ZM4.6429 14.2304H15.3571C15.4107 14.2304 15.4598 14.2081 15.5044 14.1634C15.5491 14.1188 15.5714 14.0697 15.5714 14.0161V6.08758C15.5714 6.03396 15.5491 5.98486 15.5044 5.94029C15.4598 5.8956 15.4107 5.87326 15.3571 5.87326H4.6429C4.58928 5.87326 4.54018 5.8956 4.49561 5.94029C4.45092 5.98486 4.42858 6.03396 4.42858 6.08758V14.0161C4.42858 14.0697 4.45092 14.1188 4.49561 14.1634C4.54018 14.2081 4.58928 14.2304 4.6429 14.2304ZM5.88847 12.7705H14.1115V7.33314H5.88847V12.7705Z" fill="white"/>
</g>
</svg>
