<svg width="20" height="20" viewBox="0 0 20 20" fill="none" xmlns="http://www.w3.org/2000/svg">
<rect width="20" height="20" rx="4" fill="#8C0CE7"/>
<mask id="mask0_1212_4633" style="mask-type:alpha" maskUnits="userSpaceOnUse" x="1" y="1" width="18" height="18">
<rect x="1.64288" y="1.64288" width="16.7143" height="16.7143" fill="#D9D9D9"/>
</mask>
<g mask="url(#mask0_1212_4633)">
<path d="M5.33935 14.5268C4.98754 14.5268 4.68976 14.405 4.44601 14.1612C4.20226 13.9175 4.08038 13.6197 4.08038 13.2679V6.73224C4.08038 6.38042 4.20226 6.08264 4.44601 5.83889C4.68976 5.59514 4.98754 5.47327 5.33935 5.47327H14.6607C15.0125 5.47327 15.3103 5.59514 15.554 5.83889C15.7978 6.08264 15.9197 6.38042 15.9197 6.73224V13.2679C15.9197 13.6197 15.7978 13.9175 15.554 14.1612C15.3103 14.405 15.0125 14.5268 14.6607 14.5268H5.33935ZM5.33935 13.4822H14.6607C14.7143 13.4822 14.7634 13.4599 14.808 13.4152C14.8527 13.3706 14.875 13.3215 14.875 13.2679V6.73224C14.875 6.67861 14.8527 6.62951 14.808 6.58494C14.7634 6.54025 14.7143 6.51791 14.6607 6.51791H5.33935C5.28573 6.51791 5.23663 6.54025 5.19206 6.58494C5.14737 6.62951 5.12503 6.67861 5.12503 6.73224V13.2679C5.12503 13.3215 5.14737 13.3706 5.19206 13.4152C5.23663 13.4599 5.28573 13.4822 5.33935 13.4822Z" fill="white"/>
</g>
</svg>
