<?xml version="1.0" encoding="utf-8"?>
<!-- Generator: Adobe Illustrator 27.9.0, SVG Export Plug-In . SVG Version: 6.00 Build 0)  -->
<svg version="1.1" id="header_x5F_pattern_x5F_gradient"
	 xmlns="http://www.w3.org/2000/svg" xmlns:xlink="http://www.w3.org/1999/xlink" x="0px" y="0px" viewBox="0 0 649.3 647"
	 style="enable-background:new 0 0 649.3 647;" xml:space="preserve">
<style type="text/css">
	.st0{fill:#FFFFFF;}
	.st1{fill:url(#pattern_x5F_gradient_00000052076137393626921430000016060872253109914807_);}
</style>
<path id="pattern_x5F_white" class="st0" d="M50.1,83.4c0,13.2-10.7,24-24,24c-13.2,0-24-10.7-24-24s10.7-24,24-24
	S50.1,70.1,50.1,83.4z M263.8,356.4c-13.2,0-24,10.7-24,24c0,13.2,10.7,24,24,24c13.2,0,24-10.7,24-24c0-19.6,15.9-35.4,35.4-35.4
	c13.2,0,24-10.7,24-24c0-13.2-10.7-24-24-24c-19.6,0-35.4-15.9-35.4-35.4c0-13.2-10.7-24-24-24c-13.2,0-24,10.7-24,24
	c0,13.2,10.7,24,24,24c19.6,0,35.4,15.9,35.4,35.4S283.3,356.4,263.8,356.4z M26.1,297c-13.2,0-24,10.7-24,24s10.7,24,24,24
	c13.2,0,24-10.7,24-24S39.4,297,26.1,297z M145,415.8c-13.2,0-24,10.7-24,24c0,13.2,10.7,24,24,24c13.2,0,24-10.7,24-24
	C168.9,426.6,158.2,415.8,145,415.8z M145,297c-13.2,0-24,10.7-24,24s10.7,24,24,24c13.2,0,24-10.7,24-24S158.2,297,145,297z
	 M442,345c19.6,0,35.4,15.9,35.4,35.4c0,13.2,10.7,24,24,24c13.2,0,24-10.7,24-24c0-13.2-10.7-24-24-24c-19.6,0-35.4-15.9-35.4-35.4
	s15.9-35.4,35.4-35.4c13.2,0,24-10.7,24-24c0-13.2-10.7-24-24-24c-13.2,0-24,10.7-24,24c0,19.6-15.9,35.4-35.4,35.4
	c-13.2,0-24,10.7-24,24C418,334.2,428.8,345,442,345z M323.2,178.2c-19.6,0-35.4-15.9-35.4-35.4c0-13.2-10.7-24-24-24
	c-13.2,0-24,10.7-24,24c0,13.2,10.7,24,24,24c19.6,0,35.4,15.9,35.4,35.4c0,13.2,10.7,24,24,24c13.2,0,24-10.7,24-24
	c0-19.6,15.9-35.4,35.4-35.4c13.2,0,24-10.7,24-24c0-13.2-10.7-24-24-24c-19.6,0-35.4-15.9-35.4-35.4c0-13.2-10.7-24-24-24
	c-19.6,0-35.4-15.9-35.4-35.4c0-13.2-10.7-24-24-24c-13.2,0-24,10.7-24,24c0,13.2,10.7,24,24,24c19.6,0,35.4,15.9,35.4,35.4
	c0,13.2,10.7,24,24,24c19.6,0,35.4,15.9,35.4,35.4C358.6,162.4,342.7,178.2,323.2,178.2z M560.5,107.3c13.2,0,24-10.7,24-24
	c0-19.6,15.9-35.4,35.4-35.4c13.2,0,24-10.7,24-24c0-13.2-10.7-24-24-24c-13.2,0-24,10.7-24,24c0,19.6-15.9,35.4-35.4,35.4
	c-13.2,0-24,10.7-24,24S547.2,107.3,560.5,107.3z M145,178.2c-13.2,0-24,10.7-24,24c0,13.2,10.7,24,24,24c13.2,0,24-10.7,24-24
	C168.9,189,158.2,178.2,145,178.2z M382.6,47.9c13.2,0,24-10.7,24-24c0-13.2-10.7-24-24-24c-13.2,0-24,10.7-24,24
	S369.3,47.9,382.6,47.9z M442,178.2c-13.2,0-24,10.7-24,24c0,13.2,10.7,24,24,24c13.2,0,24-10.7,24-24c0-19.6,15.9-35.4,35.4-35.4
	c13.2,0,24-10.7,24-24c0-13.2-10.7-24-24-24c-19.6,0-35.4-15.9-35.4-35.4c0-19.6,15.9-35.4,35.4-35.4c13.2,0,24-10.7,24-24
	c0-13.2-10.7-24-24-24c-13.2,0-24,10.7-24,24c0,19.6-15.9,35.4-35.4,35.4c-13.2,0-24,10.7-24,24c0,13.2,10.7,24,24,24
	c19.6,0,35.4,15.9,35.4,35.4C477.4,162.4,461.6,178.2,442,178.2z M620.2,118.8c-13.2,0-24,10.7-24,24c0,13.2,10.7,24,24,24
	c13.2,0,24-10.7,24-24c0-6.7,1.9-13,5.1-18.4v-20.8C642.9,112.8,632.3,118.8,620.2,118.8z M382.6,523.2c13.2,0,24-10.7,24-24
	c0-13.2-10.7-24-24-24s-24,10.7-24,24c0,19.6-15.9,35.4-35.4,35.4c-13.2,0-24,10.7-24,24c0,19.6-15.9,35.4-35.4,35.4
	c-13.2,0-24,10.7-24,24c0,13.2,10.7,24,24,24c13.2,0,24-10.7,24-24c0-19.6,15.9-35.4,35.4-35.4s35.4,15.9,35.4,35.4
	c0,13.2,10.7,24,24,24s24-10.7,24-24c0-13.2-10.7-24-24-24c-19.6,0-35.4-15.9-35.4-35.4C347.1,539.1,363,523.2,382.6,523.2z
	 M619.9,237.6c-19.6,0-35.4-15.9-35.4-35.4c0-13.2-10.7-24-24-24c-13.2,0-24,10.7-24,24c0,13.2,10.7,24,24,24
	c19.6,0,35.4,15.9,35.4,35.4S580,297,560.5,297c-13.2,0-24,10.7-24,24c0,13.2,10.7,24,24,24c13.2,0,24-10.7,24-24
	c0-19.6,15.9-35.4,35.4-35.4c13.2,0,24-10.7,24-24c0-7,2-13.4,5.5-18.9v-20.8C643,231.4,632.1,237.6,619.9,237.6z M383.3,237.6
	c-13.2,0-24,10.7-24,24c0,13.3,10.7,24,24,24c13.2,0,24-10.7,24-24S396.6,237.6,383.3,237.6z M620.2,356.4c-13.2,0-24,10.7-24,24
	c0,13.2,10.7,24,24,24c13.2,0,24-10.7,24-24c0-6.7,1.9-13,5.1-18.4v-20.8C642.9,350.4,632.3,356.4,620.2,356.4z M383.3,356.4
	c-13.2,0-24,10.7-24,24s10.7,24,24,24c13.2,0,24-10.7,24-24S396.6,356.4,383.3,356.4z M620.2,475.2c-19.6,0-35.4-15.9-35.4-35.4
	c0-13.2-10.7-24-24-24c-13.2,0-24,10.7-24,24s10.7,24,24,24c19.6,0,35.4,15.9,35.4,35.4c0,13.2,10.7,24,24,24c13.2,0,24-10.7,24-24
	c0-6.7,1.9-13,5.1-18.4V460C642.9,469.2,632.3,475.2,620.2,475.2z M620.2,594.1c-19.6,0-35.4-15.9-35.4-35.4c0-13.2-10.7-24-24-24
	c-19.6,0-35.4-15.9-35.4-35.4c0-13.2-10.7-24-24-24c-19.6,0-35.4-15.9-35.4-35.4c0-13.2-10.7-24-24-24c-13.2,0-24,10.7-24,24
	c0,13.2,10.7,24,24,24c19.6,0,35.4,15.9,35.4,35.4c0,19.6-15.9,35.4-35.4,35.4c-13.2,0-24,10.7-24,24c0,13.2,10.7,24,24,24
	c19.6,0,35.4,15.9,35.4,35.4c0,13.2,10.7,24,24,24c13.2,0,24-10.7,24-24c0-13.2-10.7-24-24-24c-19.6,0-35.4-15.9-35.4-35.4
	c0-19.6,15.9-35.4,35.4-35.4c19.6,0,35.4,15.9,35.4,35.4c0,13.2,10.7,24,24,24c19.6,0,35.4,15.9,35.4,35.4c0,2.5,0.4,4.9,1.1,7.1
	c0.2,0.8,0.5,1.5,0.8,2.2c0.6,1.4,1.4,2.8,2.2,4.1c1.3,1.9,2.9,3.6,4.6,5.1c1.2,1,2.5,1.8,3.8,2.6c3.4,1.9,7.3,2.9,11.4,2.9
	c4.1,0,8-1,11.4-2.9c1.4-0.7,2.6-1.6,3.8-2.6c1.8-1.5,3.3-3.2,4.6-5.1c0.9-1.3,1.6-2.6,2.2-4.1c0.3-0.7,0.6-1.5,0.8-2.2
	c0.7-2.3,1.1-4.6,1.1-7.1c0-6.7,1.9-13,5.1-18.4v-20.8C642.9,588.1,632.3,594.1,620.2,594.1z"/>
<linearGradient id="pattern_x5F_gradient_00000083058870580769936590000000486387110238153605_" gradientUnits="userSpaceOnUse" x1="644.5" y1="241.55" x2="298.5407" y2="241.55" gradientTransform="matrix(1 0 0 1 0 50)">
	<stop  offset="0" style="stop-color:#D31184"/>
	<stop  offset="1" style="stop-color:#FDB913"/>
</linearGradient>
<path id="pattern_x5F_gradient" style="fill:url(#pattern_x5F_gradient_00000083058870580769936590000000486387110238153605_);" d="
	M644.5,83c0,3.2-0.6,6.3-1.8,9.2c-1.2,2.9-3,5.6-5.2,7.8c-2.2,2.2-4.9,4-7.8,5.2c-2.9,1.2-6,1.8-9.2,1.8c-9.4,0.1-18.3,3.8-25,10.5
	c-6.6,6.7-10.3,15.7-10.3,25c0,9.4,3.7,18.4,10.3,25c6.6,6.7,15.6,10.4,25,10.5c6.3,0,12.4,2.6,16.9,7.1s7,10.6,7,16.9
	c0,6.3-2.5,12.4-7,16.9s-10.5,7-16.9,7.1c-4.7,0-9.3,0.9-13.6,2.7s-8.2,4.4-11.5,7.7s-5.9,7.2-7.7,11.5s-2.7,8.9-2.7,13.6l0,0l0,0
	c0,4.7,0.9,9.3,2.7,13.6c1.8,4.3,4.4,8.2,7.7,11.5s7.2,5.9,11.5,7.7c4.3,1.8,8.9,2.7,13.6,2.7c5.7,0,11.3,2.1,15.6,5.8
	c4.3,3.7,7.2,8.9,8.1,14.6c0.9,5.7-0.3,11.5-3.4,16.3c-3,4.9-7.7,8.5-13.2,10.2c-2.3,0.7-4.8,1.1-7.2,1.1c-4.7,0-9.3,0.9-13.6,2.7
	c-4.3,1.8-8.2,4.4-11.5,7.7c-3.3,3.3-5.9,7.2-7.6,11.5c-1.8,4.3-2.7,8.9-2.6,13.6c0,5.1-1.6,10.1-4.6,14.3c-3,4.1-7.3,7.2-12.2,8.7
	c-2.3,0.7-4.8,1.1-7.2,1.1H561c-3.2,0-6.3-0.6-9.2-1.8c-2.9-1.2-5.6-3-7.8-5.2s-4-4.9-5.2-7.8s-1.8-6-1.8-9.2
	c0-4.7-0.9-9.3-2.7-13.6c-1.8-4.3-4.4-8.2-7.7-11.5s-7.2-5.9-11.5-7.7c-4.3-1.8-8.9-2.7-13.6-2.7c-3.2,0-6.3-0.6-9.2-1.8
	c-2.9-1.2-5.6-3-7.8-5.2c-2.2-2.2-4-4.9-5.2-7.8s-1.8-6-1.8-9.2l0,0l0,0c0-3.2,0.6-6.3,1.8-9.2c1.2-2.9,3-5.6,5.2-7.8
	c2.2-2.2,4.9-4,7.8-5.2s6-1.8,9.2-1.8c9.4,0,18.4-3.7,25.1-10.4c6.7-6.7,10.4-15.7,10.4-25.1s-3.7-18.4-10.4-25.1
	c-6.7-6.7-15.7-10.4-25.1-10.4c-4.7,0-9.4-1.4-13.3-4c-4-2.6-7-6.4-8.9-10.8s-2.3-9.2-1.4-13.9s3.2-8.9,6.6-12.3
	c3.4-3.4,7.6-5.7,12.3-6.6c4.7-0.9,9.5-0.5,13.9,1.4c4.4,1.8,8.1,4.9,10.8,8.8c2.6,4,4,8.6,4,13.4c0,9.3,3.6,18.2,10.1,24.8
	s15.3,10.5,24.6,10.7c0.3,0,0.6,0,0.9,0c9.4,0,18.3-3.8,25-10.5c6.6-6.7,10.3-15.7,10.3-25c0-9.4-3.7-18.4-10.3-25
	c-6.6-6.7-15.6-10.4-25-10.5c-6.3,0-12.4-2.6-16.9-7.1s-7-10.6-7-16.9c0-6.3,2.5-12.4,7-16.9c4.5-4.5,10.5-7,16.9-7.1
	c4.7,0,9.3-0.9,13.6-2.7c4.3-1.8,8.2-4.4,11.5-7.7c3.3-3.3,5.9-7.2,7.7-11.5s2.7-8.9,2.7-13.6c0-3.1,0.6-6.3,1.8-9.2
	c1.2-2.9,3-5.6,5.2-7.8c2.2-2.2,4.9-4,7.8-5.2c2.9-1.2,6-1.8,9.2-1.8c3.1,0,6.3,0.6,9.2,1.8s5.5,3,7.8,5.2c2.3,2.2,4,4.9,5.2,7.8
	C643.9,76.7,644.5,79.8,644.5,83L644.5,83z M596.6,321.1c0-4.7-0.9-9.3-2.7-13.6s-4.4-8.2-7.7-11.5s-7.2-5.9-11.5-7.7
	c-4.3-1.8-8.9-2.7-13.6-2.7H561c-9.3,0-18.3,3.7-24.9,10.3c-6.6,6.6-10.4,15.5-10.5,24.8s3.5,18.3,10,25s15.3,10.6,24.7,10.8
	c0.3,0,0.6,0,0.9,0c4.7,0,9.3-0.9,13.6-2.7c4.3-1.8,8.2-4.4,11.5-7.7c3.3-3.3,5.9-7.2,7.6-11.5C595.7,330.4,596.6,325.8,596.6,321.1
	z M524.9,142.2c0,3.2-0.6,6.3-1.8,9.2s-3,5.6-5.2,7.8s-4.9,4-7.8,5.2c-2.9,1.2-6,1.8-9.2,1.8c-9.4,0-18.4,3.7-25.1,10.4
	s-10.4,15.7-10.4,25.1c0,9.4,3.7,18.5,10.4,25.1c6.7,6.7,15.7,10.4,25.1,10.4c6.3,0,12.4,2.6,16.9,7.1s7,10.6,7,16.9
	c0,6.3-2.5,12.4-7,16.9s-10.5,7-16.9,7.1c-4.7,0-9.3,0.9-13.6,2.7c-4.3,1.8-8.2,4.4-11.5,7.7c-3.3,3.3-5.9,7.2-7.7,11.5
	c-1.8,4.3-2.7,8.9-2.7,13.6c0,5.7-2,11.3-5.7,15.7c-3.7,4.4-8.9,7.2-14.6,8.1c-1.3,0.2-2.5,0.3-3.8,0.3c-4.7,0-9.3,0.9-13.6,2.7
	c-4.3,1.8-8.2,4.4-11.5,7.7c-3.3,3.3-5.9,7.2-7.7,11.5s-2.7,8.9-2.7,13.6c0,6.4-2.5,12.5-7,17s-10.6,7-16.9,7
	c-6.4,0-12.4-2.5-16.9-7s-7-10.6-7-17c0-3.2,0.6-6.3,1.8-9.2c1.2-2.9,3-5.6,5.2-7.8c2.2-2.2,4.9-4,7.8-5.2s6-1.8,9.2-1.8
	c9.4,0,18.4-3.7,25.1-10.4c6.7-6.7,10.4-15.7,10.4-25.1s-3.7-18.4-10.4-25.1c-6.7-6.7-15.7-10.4-25.1-10.4c-4.7,0-9.4-1.4-13.3-4
	c-4-2.6-7-6.4-8.9-10.8c-1.8-4.4-2.3-9.2-1.4-13.9c0.9-4.7,3.2-8.9,6.6-12.3c3.4-3.4,7.6-5.7,12.3-6.6c4.7-0.9,9.5-0.5,13.9,1.4
	c4.4,1.8,8.1,4.9,10.8,8.8c2.6,4,4,8.6,4,13.4c0,9.3,3.6,18.2,10.1,24.8s15.3,10.5,24.6,10.7c0.3,0,0.6,0,0.9,0
	c9.4-0.1,18.4-3.8,25-10.5s10.3-15.7,10.3-25c0-9.4-3.7-18.4-10.3-25c-6.6-6.7-15.6-10.4-25-10.5c-3.2,0-6.3-0.6-9.2-1.8
	c-2.9-1.2-5.6-3-7.8-5.2c-2.2-2.2-4-4.9-5.2-7.8c-1.2-2.9-1.8-6.1-1.8-9.2c0-9.4-3.8-18.4-10.5-25c-6.6-6.6-15.6-10.3-25-10.3
	s-18.4,3.7-25,10.3s-10.4,15.6-10.5,25c0,4.8-1.4,9.4-4,13.4s-6.4,7-10.8,8.9c-4.4,1.8-9.2,2.3-13.9,1.4c-4.7-0.9-8.9-3.2-12.3-6.6
	c-3.4-3.4-5.7-7.6-6.6-12.3s-0.5-9.5,1.4-13.9s4.9-8.1,8.8-10.8c3.9-2.6,8.6-4.1,13.3-4.1c4.7,0,9.3-0.9,13.6-2.7
	c4.3-1.8,8.2-4.4,11.5-7.7s5.9-7.2,7.7-11.5c1.8-4.3,2.7-8.9,2.7-13.6c0-6.4,2.5-12.5,7-17s10.6-7,17-7s12.5,2.5,17,7s7,10.6,7,17
	c0,4.7,0.9,9.3,2.7,13.6c1.8,4.3,4.4,8.2,7.7,11.5c3.3,3.3,7.2,5.9,11.5,7.7s8.9,2.7,13.6,2.7c0.2,0,0.4,0,0.6,0
	c9.3-0.1,18.2-3.9,24.7-10.6c6.5-6.6,10.2-15.6,10.2-24.9c0-3.2,0.6-6.3,1.8-9.2c1.2-2.9,3-5.6,5.2-7.8c2.2-2.2,4.9-4,7.8-5.2
	s6-1.8,9.2-1.8s6.3,0.6,9.2,1.8c2.9,1.2,5.6,3,7.8,5.2s4,4.9,5.2,7.8C524.3,135.9,524.9,139.1,524.9,142.2L524.9,142.2z M585.1,202
	c0,4.8-1.4,9.4-4,13.3c-2.6,4-6.4,7-10.8,8.8c-4.4,1.8-9.2,2.3-13.9,1.4c-4.7-0.9-8.9-3.2-12.3-6.6c-3.4-3.4-5.6-7.6-6.6-12.3
	c-0.9-4.7-0.5-9.5,1.4-13.9c1.8-4.4,4.9-8.1,8.8-10.8c3.9-2.6,8.6-4,13.3-4c3.2,0,6.3,0.6,9.2,1.8s5.6,3,7.8,5.2s4,4.9,5.2,7.8
	C584.5,195.8,585.1,198.9,585.1,202z M465.5,261.3c0,4.8-1.4,9.4-4,13.3s-6.4,7-10.8,8.8s-9.2,2.3-13.9,1.4
	c-4.7-0.9-8.9-3.2-12.3-6.6s-5.6-7.6-6.6-12.3s-0.5-9.5,1.4-13.9s4.9-8.1,8.8-10.8c3.9-2.6,8.6-4,13.3-4c6.4,0,12.5,2.5,17,7
	C463,248.8,465.5,254.9,465.5,261.3L465.5,261.3z M585.1,321.2c0,4.8-1.4,9.4-4,13.3c-2.6,4-6.4,7-10.8,8.8
	c-4.4,1.8-9.2,2.3-13.9,1.4s-8.9-3.2-12.3-6.6c-3.4-3.4-5.6-7.6-6.6-12.3c-0.9-4.7-0.5-9.5,1.4-13.9c1.8-4.4,4.9-8.1,8.8-10.8
	c3.9-2.6,8.6-4,13.3-4c3.2,0,6.3,0.6,9.2,1.8s5.6,3,7.8,5.2s4,4.9,5.2,7.8C584.5,314.9,585.1,318,585.1,321.2z M465.5,380.4
	c0,4.8-1.4,9.4-4,13.3s-6.4,7-10.8,8.8s-9.2,2.3-13.9,1.4c-4.7-0.9-8.9-3.2-12.3-6.6s-5.6-7.6-6.6-12.3c-0.9-4.7-0.4-9.5,1.4-13.9
	s4.9-8.1,8.8-10.8s8.6-4,13.3-4c6.4,0,12.5,2.5,17,7C463,367.9,465.5,374,465.5,380.4z M585.1,500c0,6.4-2.5,12.5-7,17s-10.6,7-17,7
	c-3.2,0-6.3-0.6-9.2-1.8s-5.6-3-7.8-5.2s-4-4.9-5.2-7.8c-1.2-2.9-1.8-6-1.8-9.2s0.6-6.3,1.8-9.2c1.2-2.9,3-5.6,5.2-7.8
	c2.2-2.2,4.9-4,7.8-5.2c2.9-1.2,6-1.8,9.2-1.8s6.3,0.6,9.2,1.8c2.9,1.2,5.6,3,7.8,5.2s4,4.9,5.2,7.8
	C584.5,493.7,585.1,496.8,585.1,500z"/>
</svg>
