<?xml version="1.0" encoding="utf-8"?>
<!-- Generator: Adobe Illustrator 27.9.0, SVG Export Plug-In . SVG Version: 6.00 Build 0)  -->
<svg version="1.1" id="Cofinity-X" xmlns="http://www.w3.org/2000/svg" xmlns:xlink="http://www.w3.org/1999/xlink" x="0px" y="0px"
	 viewBox="0 0 118.5 25.2" style="enable-background:new 0 0 118.5 25.2;" xml:space="preserve">
<style type="text/css">
	.st0{fill:#4D4D4D;}
	.st1{fill:url(#X_00000129920907757998108210000001061728892802333082_);}
</style>
<path id="Cofinity" class="st0" d="M69.1,6.8H66v12.7h3.1V6.8z M57.6,6.5c-3.5,0-6.1,2.2-6.1,6.1v6.9h3.1v-6.8c0-2.1,1.3-3.2,3-3.2
	s3,1.1,3,3.2v6.8h3.1v-6.9C63.8,8.8,61.2,6.5,57.6,6.5z M49.4,6.8h-3.1v12.7h3.1V6.8z M27.1,6.5c-3.8,0-6.7,2.7-6.7,6.6
	c0,3.9,2.8,6.6,6.7,6.6c3.9,0,6.7-2.7,6.7-6.6C33.8,9.3,31,6.5,27.1,6.5z M27.1,16.8c-2.1,0-3.5-1.5-3.5-3.6c0-2.1,1.5-3.6,3.5-3.6
	c2.1,0,3.5,1.5,3.5,3.6C30.7,15.3,29.2,16.8,27.1,16.8z M9.9,3.1c2.9,0,5.1,1.6,6.1,4h3.4C18.3,2.8,14.7,0,9.9,0C4.1,0,0,4.1,0,9.9
	c0,5.7,4.1,9.9,9.9,9.9c4.7,0,8.3-2.7,9.5-7.1H16c-1,2.5-3.2,4-6.1,4c-4,0-6.7-2.9-6.7-6.8S5.9,3.1,9.9,3.1z M74.7,14.4V9.6h4.4V6.8
	h-4.4V1.6h-3.1v13.2c0,3.3,1.7,4.9,4.8,4.9c0.9,0,2-0.1,3-0.2v-3c-1.1,0.1-1.8,0.2-2.4,0.2C75.3,16.7,74.7,16,74.7,14.4z M67.6,0.8
	c-1.1,0-1.9,0.9-1.9,1.9c0,1,0.9,1.9,1.9,1.9c1.1,0,1.9-0.9,1.9-1.9C69.5,1.7,68.7,0.8,67.6,0.8z M100.9,9.9h-4.6v2.7h4.6V9.9z
	 M90.4,13.1c0,2-1.4,3-3,3c-1.7,0-3-1.1-3-3V6.8h-3.1v6.3c0,3.8,2.4,6,5.9,6c1.4,0,2.5-0.6,3.3-1.6v1.6c0,2.1-1.4,3.2-3.3,3.2
	c-1.4,0-2.3-0.7-2.8-1.6L82,22.9c1.1,1.5,2.9,2.3,5,2.3c3.8,0,6.4-2.2,6.4-6.1V6.8h-3.1L90.4,13.1L90.4,13.1z M37.2,5.4v1.4h-3v2.8
	h3v9.9h3.1V9.6h4.1V6.8h-4.1V5.5c0-1.4,0.6-2.3,2-2.3c0.3,0,1.2,0,2.1,0.1v-3c-1-0.1-2-0.1-2.3-0.1C39,0.2,37.2,1.9,37.2,5.4z
	 M47.8,0.8c-1.1,0-1.9,0.9-1.9,1.9c0,1,0.9,1.9,1.9,1.9c1.1,0,1.9-0.9,1.9-1.9C49.8,1.7,48.9,0.8,47.8,0.8z"/>
<linearGradient id="X_00000090271186984533421660000002424804616395085203_" gradientUnits="userSpaceOnUse" x1="99.6719" y1="9.5088" x2="118.52" y2="9.5088" gradientTransform="matrix(1 0 0 -1 0 19.2756)">
	<stop  offset="0" style="stop-color:#FDB913"/>
	<stop  offset="1" style="stop-color:#D31184"/>
</linearGradient>
<path id="X" style="fill:url(#X_00000090271186984533421660000002424804616395085203_);" d="M114.2,0.1L109.7,7
	c-0.1,0.2-0.3,0.3-0.5,0.3c-0.2,0-0.3-0.1-0.5-0.3l-4.6-6.9h-4l6,8.8c0.1,0.2,0.3,0.4,0.4,0.6c-0.1,0.1-0.2,0.3-0.4,0.4l-6.6,9.6
	h3.9l5-7.5c0.1-0.2,0.3-0.3,0.5-0.3c0.2,0,0.3,0.1,0.5,0.3l5,7.5h4l-6.7-9.6c-0.1-0.2-0.2-0.3-0.4-0.5c0.1-0.2,0.3-0.4,0.4-0.5
	l6-8.8H114.2z"/>
</svg>
