<svg width="189" height="60" viewBox="0 0 189 60" fill="none" xmlns="http://www.w3.org/2000/svg">
<g clip-path="url(#clip0_2191_9876)">
<path d="M71.8286 41.4003H67.0072V22.7681H59.9464V18.4824H78.8786V22.7681H71.8179V41.4003H71.8286Z" fill="black"/>
<path d="M85.0929 41.4003H80.4643V25.511C82.35 24.5038 84.825 23.9253 87.3322 23.9253C88.6822 23.9253 89.6464 24.0431 90.9214 24.386V28.8646C89.8072 28.4038 88.5643 28.286 87.45 28.286C86.6036 28.286 85.8322 28.436 85.0929 28.6717V41.4003Z" fill="black"/>
<path d="M102.3 30.1396C102.3 28.4788 100.907 27.7824 99.2143 27.7824C97.1679 27.7824 95.5929 28.4038 94.2429 29.2074V25.2003C95.7857 24.311 97.8322 23.8074 100.029 23.8074C103.961 23.8074 106.896 25.3503 106.896 29.936V41.0467C105.236 41.4324 102.611 41.7431 100.414 41.7431C96.0536 41.7431 92.7 40.436 92.7 36.461C92.7 32.8717 95.5929 31.1788 100.414 31.1788H102.3V30.1396ZM102.3 34.1467H100.757C98.5929 34.1467 97.3286 34.7681 97.3286 36.2253C97.3286 37.6824 98.5286 38.3467 100.371 38.3467C100.875 38.3467 101.679 38.3038 102.3 38.1538V34.1467Z" fill="black"/>
<path d="M124.243 29.486C122.818 28.3288 121.425 27.9003 119.85 27.9003C117 27.9003 114.954 29.6788 114.954 32.7646C114.954 35.8503 116.925 37.7038 120.043 37.7038C121.661 37.7038 123.086 37.1681 124.404 36.161V40.5217C122.861 41.4431 121.168 41.7967 119.389 41.7967C113.839 41.7967 110.282 38.2503 110.282 32.8503C110.282 27.4503 114.096 23.8288 119.346 23.8288C121.318 23.8288 122.775 24.2146 124.243 25.1038V29.4967V29.486Z" fill="black"/>
<path d="M131.539 34.0717V34.1467C131.882 36.5788 134.282 37.811 136.596 37.811C138.911 37.811 140.646 37.2753 142.339 36.2681V40.2003C140.754 41.3146 138.439 41.786 136.125 41.786C130.532 41.786 127.029 38.3574 127.029 32.9896C127.029 27.3217 130.618 23.8074 135.439 23.8074C140.796 23.8074 142.886 27.3539 142.886 31.9074V34.0717H131.539ZM131.582 31.2967H138.557C138.514 29.1753 137.518 27.6324 135.321 27.6324C133.318 27.6324 132 29.0574 131.582 31.2967Z" fill="black"/>
<path d="M148.854 30.3646H157.146V32.4431H148.854V30.3646Z" fill="black"/>
<path d="M169.639 29.5181L177.857 41.4003H175.082L168.182 31.3288L161.207 41.4003H158.507L166.8 29.486L159.086 18.4931H161.904L168.311 27.7824L174.6 18.4931H177.257L169.661 29.5181H169.639Z" fill="black"/>
<path d="M12.8571 17.1428C15.2241 17.1428 17.1428 15.2241 17.1428 12.8571C17.1428 10.4902 15.2241 8.5714 12.8571 8.5714C10.4902 8.5714 8.57141 10.4902 8.57141 12.8571C8.57141 15.2241 10.4902 17.1428 12.8571 17.1428Z" fill="#00725C"/>
<path d="M47.1428 17.1428C49.5098 17.1428 51.4286 15.2241 51.4286 12.8571C51.4286 10.4902 49.5098 8.5714 47.1428 8.5714C44.7759 8.5714 42.8571 10.4902 42.8571 12.8571C42.8571 15.2241 44.7759 17.1428 47.1428 17.1428Z" fill="#00725C"/>
<path d="M12.8571 51.4286C15.2241 51.4286 17.1428 49.5098 17.1428 47.1428C17.1428 44.7759 15.2241 42.8571 12.8571 42.8571C10.4902 42.8571 8.57141 44.7759 8.57141 47.1428C8.57141 49.5098 10.4902 51.4286 12.8571 51.4286Z" fill="#00725C"/>
<path d="M47.1428 51.4286C49.5098 51.4286 51.4286 49.5098 51.4286 47.1428C51.4286 44.7759 49.5098 42.8571 47.1428 42.8571C44.7759 42.8571 42.8571 44.7759 42.8571 47.1428C42.8571 49.5098 44.7759 51.4286 47.1428 51.4286Z" fill="#00725C"/>
<path d="M9.82498 15.8893C8.15355 14.2178 8.15355 11.5071 9.82498 9.82498C11.4964 8.14283 14.2071 8.15355 15.8893 9.82498L50.175 44.1107C51.8464 45.7821 51.8464 48.4928 50.175 50.175C48.5036 51.8571 45.7928 51.8464 44.1107 50.175L9.82498 15.8893Z" fill="url(#paint0_linear_2191_9876)"/>
<path d="M35.55 18.4071C37.2214 16.7357 39.9321 16.7357 41.6143 18.4071C43.2964 20.0785 43.2857 22.7893 41.6143 24.4714L15.9 50.1857C14.2286 51.8571 11.5178 51.8571 9.8357 50.1857C8.15355 48.5143 8.16427 45.8036 9.8357 44.1214L35.55 18.4071Z" fill="url(#paint1_linear_2191_9876)"/>
</g>
<defs>
<linearGradient id="paint0_linear_2191_9876" x1="50.1774" y1="50.183" x2="9.82053" y2="9.83249" gradientUnits="userSpaceOnUse">
<stop stop-color="#00725C" stop-opacity="0"/>
<stop offset="1" stop-color="#00725C"/>
</linearGradient>
<linearGradient id="paint1_linear_2191_9876" x1="9.8337" y1="50.1727" x2="41.608" y2="18.3983" gradientUnits="userSpaceOnUse">
<stop stop-color="#00725C" stop-opacity="0"/>
<stop offset="1" stop-color="#00725C"/>
</linearGradient>
<clipPath id="clip0_2191_9876">
<rect width="188.571" height="60" fill="white"/>
</clipPath>
</defs>
</svg>
