<?xml version="1.0" encoding="UTF-8"?>
<svg width='275px' height='268px' viewBox='0 0 275 268' version='1.1' xmlns='http://www.w3.org/2000/svg'>
    <title>FD50730B-959B-4D3E-A8F7-BB3A5965864E@1x</title>
    <g id="🛠-Symbols" stroke="none" stroke-width="1" fill="none" fill-rule="evenodd">
        <g id="illustration/no-data" fill-rule="nonzero">
            <g id="no-data-illustration-">
                <path d="M174,60.3035094 L99.880475,60.3035094 C96.3636705,60.3077781 93.5138039,63.1514965 93.5095259,66.6607139 L93.5095259,231.036832 L92.660066,231.29538 L74.4773516,236.851576 C72.6830785,237.397487 70.7846544,236.390566 70.2344099,234.601126 L16.1491585,58.3158234 C15.6010828,56.5252913 16.6105394,54.6302628 18.4045,54.0819252 L46.4240279,45.5208898 L127.65363,20.7108396 L155.672945,12.1498042 C156.534132,11.8853305 157.465375,11.9734968 158.261349,12.3948638 C159.057322,12.8162308 159.65266,13.5361956 159.916099,14.3960164 L173.740974,59.4558821 L174,60.3035094 Z" id="Path" fill="#F2F2F2"></path>
                <path d="M190.740862,59.4290876 L174.083803,5.0987986 C173.524111,3.27056146 172.259744,1.73938408 170.569072,0.842377064 C168.8784,-0.0546299551 166.900035,-0.243923225 165.069545,0.316172875 L125.687892,12.3532956 L44.4874966,37.1780147 L5.10584381,49.2193774 C1.2965635,50.3873992 -0.846377595,54.4147329 0.316236586,58.2207199 L57.2466426,243.89938 C58.1777623,246.928255 60.9778323,248.996892 64.1507495,249 C64.8661246,249 65.5774744,248.893129 66.2608927,248.682006 L93.2569966,240.431128 L94.1061967,240.168253 L94.1061967,239.282111 L93.2569966,239.540746 L66.0104467,247.872181 C62.6481507,248.895639 59.090653,247.008485 58.0576881,243.653465 L1.13163424,57.9705649 C0.635193326,56.3580542 0.801608828,54.614569 1.59416768,53.1247409 C2.38672653,51.6349129 3.74030227,50.5211647 5.3562814,50.0292014 L44.7379342,37.9878388 L125.938546,13.167368 L165.320199,1.12600539 C165.927083,0.941059825 166.558024,0.846761387 167.19254,0.846170907 C169.987798,0.852438214 172.452951,2.67626624 173.272949,5.34472223 L189.853495,59.4290961 L190.116798,60.2770794 L191,60.2770794 L190.740862,59.4290876 Z" id="Path" fill="#3F3D56"></path>
                <path d="M52.3123829,54 C50.6289344,53.9988126 49.1429737,52.9110416 48.6483418,51.3178041 L43.1678638,33.5935901 C42.8704359,32.6320584 42.9710355,31.5929179 43.4475253,30.7048357 C43.924015,29.8167535 44.7373505,29.1525007 45.708554,28.8582486 L120.568967,6.16624485 C122.591032,5.55530735 124.730902,6.68070099 125.35179,8.6816118 L130.832268,26.4060323 C131.448895,28.4080717 130.312414,30.5265162 128.29179,31.1415802 L53.4311682,53.833584 C53.0686519,53.9437409 52.6915875,54 52.3123829,54 L52.3123829,54 Z" id="Path" fill="#ffa600"></path>
                <circle id="Oval" fill="#ffa600" cx="80.5" cy="10.5" r="8.5"></circle>
                <circle id="Oval" fill="#FFFFFF" cx="80.5" cy="10.5" r="5.5"></circle>
                <path d="M256.384507,247 L112.615493,247 C110.619665,246.997707 109.002299,245.384834 109,243.39455 L109,71.6054502 C109.002229,69.6151366 110.619635,68.0022231 112.615493,68 L256.384507,68 C258.380334,68.0022954 259.997698,69.6151666 260,71.6054502 L260,243.39455 C259.997626,245.384803 258.380304,246.997632 256.384507,247 Z" id="Path" fill="#E6E6E6"></path>
                <path d="M189.736316,60 L100.228648,60 C96.2387171,60.0056269 93.0056467,63.2274006 93,67.2033898 L93,240 L93.8504292,239.741525 L93.8504292,67.2033898 C93.854712,63.6948748 96.7078305,60.8517255 100.228648,60.8474576 L190,60.8474576 L189.736316,60 Z M267.771028,60 L100.228972,60 C96.2388624,60.0056141 93.0056469,63.2200536 93,67.1869919 L93,260.813008 C93.0056446,264.779947 96.2388614,267.994388 100.228972,268 L267.771028,268 C271.761139,267.994388 274.994355,264.779947 275,260.813008 L275,67.1869919 C274.994353,63.2200536 271.761138,60.0056141 267.771028,60 L267.771028,60 Z M274,260.668033 C273.995724,264.163319 271.14721,266.995748 267.632075,267 L100.367925,267 C96.8527896,266.995748 94.004276,264.163319 94,260.668033 L94,67.3319672 C94.004276,63.836681 96.8527896,61.0042518 100.367925,61 L267.632075,61 C271.14721,61.0042518 273.995724,63.836681 274,67.3319672 L274,260.668033 Z" id="Shape" fill="#3F3D56"></path>
                <path d="M222.212871,78 L144.787129,78 C142.696531,77.9976543 141.002354,76.3092636 141,74.2258065 L141,55.7741935 C141.002356,53.6907374 142.696532,52.002348 144.787129,52 L222.212871,52 C224.303468,52.002348 225.997644,53.6907374 226,55.7741935 L226,74.2258065 C225.997646,76.3092636 224.303469,77.9976543 222.212871,78 Z" id="Path" fill="#ffa600"></path>
                <circle id="Oval" fill="#ffa600" cx="183.5" cy="44.5" r="8.5"></circle>
                <circle id="Oval" fill="#FFFFFF" cx="184" cy="44" r="5"></circle>
            </g>
        </g>
    </g>
</svg>
