<?xml version="1.0" encoding="us-ascii" standalone="no"?><svg xmlns="http://www.w3.org/2000/svg" xmlns:xlink="http://www.w3.org/1999/xlink" contentStyleType="text/css" height="885px" preserveAspectRatio="none" style="width:889px;height:885px;background:#FFFFFF;" version="1.1" viewBox="0 0 889 885" width="889px" zoomAndPan="magnify"><defs/><g><text fill="#000000" font-family="sans-serif" font-size="16" font-weight="bold" lengthAdjust="spacing" textLength="183" x="354.25" y="32.2656">Policies for notifications</text><rect fill="#FFFFFF" height="633.1797" style="stroke:#181818;stroke-width:1.0;" width="10" x="432.5" y="159.1934"/><rect fill="none" height="460.0156" style="stroke:#000000;stroke-width:1.5;" width="872.5" x="10" y="325.3574"/><rect fill="none" height="129.7949" style="stroke:#000000;stroke-width:1.5;" width="852.5" x="20" y="395.9395"/><rect fill="none" height="129.7949" style="stroke:#000000;stroke-width:1.5;" width="852.5" x="20" y="600.6563"/><line style="stroke:#181818;stroke-width:0.5;stroke-dasharray:5.0,5.0;" x1="47" x2="47" y1="125.9023" y2="802.373"/><line style="stroke:#181818;stroke-width:0.5;stroke-dasharray:5.0,5.0;" x1="437.5" x2="437.5" y1="125.9023" y2="802.373"/><line style="stroke:#181818;stroke-width:0.5;stroke-dasharray:5.0,5.0;" x1="827.5" x2="827.5" y1="125.9023" y2="802.373"/><text fill="#000000" font-family="sans-serif" font-size="14" lengthAdjust="spacing" textLength="29" x="30" y="122.3887">User</text><ellipse cx="47.5" cy="55.7813" fill="#E2E2F0" rx="8" ry="8" style="stroke:#181818;stroke-width:0.5;"/><path d="M47.5,63.7813 L47.5,90.7813 M34.5,71.7813 L60.5,71.7813 M47.5,90.7813 L34.5,105.7813 M47.5,90.7813 L60.5,105.7813 " fill="none" style="stroke:#181818;stroke-width:0.5;"/><text fill="#000000" font-family="sans-serif" font-size="14" lengthAdjust="spacing" textLength="29" x="30" y="816.4805">User</text><ellipse cx="47.5" cy="828.4941" fill="#E2E2F0" rx="8" ry="8" style="stroke:#181818;stroke-width:0.5;"/><path d="M47.5,836.4941 L47.5,863.4941 M34.5,844.4941 L60.5,844.4941 M47.5,863.4941 L34.5,878.4941 M47.5,863.4941 L60.5,878.4941 " fill="none" style="stroke:#181818;stroke-width:0.5;"/><rect fill="#E2E2F0" height="32.6211" rx="2.5" ry="2.5" style="stroke:#181818;stroke-width:0.5;" width="64" x="405.5" y="92.2813"/><text fill="#000000" font-family="sans-serif" font-size="14" lengthAdjust="spacing" textLength="50" x="412.5" y="114.3887">Trace-X</text><rect fill="#E2E2F0" height="32.6211" rx="2.5" ry="2.5" style="stroke:#181818;stroke-width:0.5;" width="64" x="405.5" y="801.373"/><text fill="#000000" font-family="sans-serif" font-size="14" lengthAdjust="spacing" textLength="50" x="412.5" y="823.4805">Trace-X</text><rect fill="#E2E2F0" height="32.6211" rx="2.5" ry="2.5" style="stroke:#181818;stroke-width:0.5;" width="70" x="792.5" y="92.2813"/><text fill="#000000" font-family="sans-serif" font-size="14" lengthAdjust="spacing" textLength="56" x="799.5" y="114.3887">Receiver</text><rect fill="#E2E2F0" height="32.6211" rx="2.5" ry="2.5" style="stroke:#181818;stroke-width:0.5;" width="70" x="792.5" y="801.373"/><text fill="#000000" font-family="sans-serif" font-size="14" lengthAdjust="spacing" textLength="56" x="799.5" y="823.4805">Receiver</text><rect fill="#FFFFFF" height="633.1797" style="stroke:#181818;stroke-width:1.0;" width="10" x="432.5" y="159.1934"/><polygon fill="#181818" points="420.5,155.1934,430.5,159.1934,420.5,163.1934,424.5,159.1934" style="stroke:#181818;stroke-width:1.0;"/><line style="stroke:#181818;stroke-width:1.0;" x1="47.5" x2="426.5" y1="159.1934" y2="159.1934"/><text fill="#000000" font-family="sans-serif" font-size="13" font-weight="bold" lengthAdjust="spacing" textLength="22" x="54.5" y="153.9307">[01]</text><text fill="#000000" font-family="sans-serif" font-size="13" lengthAdjust="spacing" textLength="253" x="80.5" y="153.9307">sendNotification(notificationID, receiverBPN)</text><polygon fill="#181818" points="815.5,186.4844,825.5,190.4844,815.5,194.4844,819.5,190.4844" style="stroke:#181818;stroke-width:1.0;"/><line style="stroke:#181818;stroke-width:1.0;" x1="442.5" x2="821.5" y1="190.4844" y2="190.4844"/><text fill="#000000" font-family="sans-serif" font-size="13" font-weight="bold" lengthAdjust="spacing" textLength="22" x="449.5" y="185.2217">[02]</text><text fill="#000000" font-family="sans-serif" font-size="13" lengthAdjust="spacing" textLength="97" x="475.5" y="185.2217">getCatalogOffer()</text><polygon fill="#181818" points="453.5,217.7754,443.5,221.7754,453.5,225.7754,449.5,221.7754" style="stroke:#181818;stroke-width:1.0;"/><line style="stroke:#181818;stroke-width:1.0;stroke-dasharray:2.0,2.0;" x1="447.5" x2="826.5" y1="221.7754" y2="221.7754"/><text fill="#000000" font-family="sans-serif" font-size="13" font-weight="bold" lengthAdjust="spacing" textLength="22" x="459.5" y="216.5127">[03]</text><text fill="#000000" font-family="sans-serif" font-size="13" lengthAdjust="spacing" textLength="69" x="485.5" y="216.5127">catalogOffer</text><line style="stroke:#181818;stroke-width:1.0;" x1="442.5" x2="484.5" y1="253.0664" y2="253.0664"/><line style="stroke:#181818;stroke-width:1.0;" x1="484.5" x2="484.5" y1="253.0664" y2="266.0664"/><line style="stroke:#181818;stroke-width:1.0;" x1="443.5" x2="484.5" y1="266.0664" y2="266.0664"/><polygon fill="#181818" points="453.5,262.0664,443.5,266.0664,453.5,270.0664,449.5,266.0664" style="stroke:#181818;stroke-width:1.0;"/><text fill="#000000" font-family="sans-serif" font-size="13" font-weight="bold" lengthAdjust="spacing" textLength="22" x="449.5" y="247.8037">[04]</text><text fill="#000000" font-family="sans-serif" font-size="13" lengthAdjust="spacing" textLength="192" x="475.5" y="247.8037">Extract policies from catalogOffer</text><line style="stroke:#181818;stroke-width:1.0;" x1="442.5" x2="484.5" y1="297.3574" y2="297.3574"/><line style="stroke:#181818;stroke-width:1.0;" x1="484.5" x2="484.5" y1="297.3574" y2="310.3574"/><line style="stroke:#181818;stroke-width:1.0;" x1="443.5" x2="484.5" y1="310.3574" y2="310.3574"/><polygon fill="#181818" points="453.5,306.3574,443.5,310.3574,453.5,314.3574,449.5,310.3574" style="stroke:#181818;stroke-width:1.0;"/><text fill="#000000" font-family="sans-serif" font-size="13" font-weight="bold" lengthAdjust="spacing" textLength="22" x="449.5" y="292.0947">[05]</text><text fill="#000000" font-family="sans-serif" font-size="13" lengthAdjust="spacing" textLength="219" x="475.5" y="292.0947">Get configured policy for receiver BPN</text><path d="M10,325.3574 L71,325.3574 L71,334.6484 L61,344.6484 L10,344.6484 L10,325.3574 " fill="#EEEEEE" style="stroke:#000000;stroke-width:1.5;"/><rect fill="none" height="460.0156" style="stroke:#000000;stroke-width:1.5;" width="872.5" x="10" y="325.3574"/><text fill="#000000" font-family="sans-serif" font-size="13" font-weight="bold" lengthAdjust="spacing" textLength="16" x="25" y="340.3857">alt</text><text fill="#000000" font-family="sans-serif" font-size="11" font-weight="bold" lengthAdjust="spacing" textLength="193" x="86" y="339.2275">[NO policies found for receiverBPN]</text><line style="stroke:#181818;stroke-width:1.0;" x1="442.5" x2="484.5" y1="367.9395" y2="367.9395"/><line style="stroke:#181818;stroke-width:1.0;" x1="484.5" x2="484.5" y1="367.9395" y2="380.9395"/><line style="stroke:#181818;stroke-width:1.0;" x1="443.5" x2="484.5" y1="380.9395" y2="380.9395"/><polygon fill="#181818" points="453.5,376.9395,443.5,380.9395,453.5,384.9395,449.5,380.9395" style="stroke:#181818;stroke-width:1.0;"/><text fill="#000000" font-family="sans-serif" font-size="13" font-weight="bold" lengthAdjust="spacing" textLength="22" x="449.5" y="362.6768">[06]</text><text fill="#000000" font-family="sans-serif" font-size="13" lengthAdjust="spacing" textLength="255" x="475.5" y="362.6768">Compare receiver policies with default policy</text><path d="M20,395.9395 L81,395.9395 L81,405.2305 L71,415.2305 L20,415.2305 L20,395.9395 " fill="#EEEEEE" style="stroke:#000000;stroke-width:1.5;"/><rect fill="none" height="129.7949" style="stroke:#000000;stroke-width:1.5;" width="852.5" x="20" y="395.9395"/><text fill="#000000" font-family="sans-serif" font-size="13" font-weight="bold" lengthAdjust="spacing" textLength="16" x="35" y="410.9678">alt</text><text fill="#000000" font-family="sans-serif" font-size="11" font-weight="bold" lengthAdjust="spacing" textLength="88" x="96" y="409.8096">[policies match]</text><polygon fill="#181818" points="815.5,434.5215,825.5,438.5215,815.5,442.5215,819.5,438.5215" style="stroke:#181818;stroke-width:1.0;"/><line style="stroke:#181818;stroke-width:1.0;" x1="442.5" x2="821.5" y1="438.5215" y2="438.5215"/><text fill="#000000" font-family="sans-serif" font-size="13" font-weight="bold" lengthAdjust="spacing" textLength="22" x="449.5" y="433.2588">[07]</text><text fill="#000000" font-family="sans-serif" font-size="13" lengthAdjust="spacing" textLength="335" x="475.5" y="433.2588">sendNotification(notificationID, receiverBPN, defaultPolicy)</text><polygon fill="#181818" points="58.5,465.8125,48.5,469.8125,58.5,473.8125,54.5,469.8125" style="stroke:#181818;stroke-width:1.0;"/><line style="stroke:#181818;stroke-width:1.0;stroke-dasharray:2.0,2.0;" x1="52.5" x2="431.5" y1="469.8125" y2="469.8125"/><text fill="#000000" font-family="sans-serif" font-size="13" font-weight="bold" lengthAdjust="spacing" textLength="22" x="64.5" y="464.5498">[08]</text><text fill="#000000" font-family="sans-serif" font-size="13" lengthAdjust="spacing" textLength="51" x="90.5" y="464.5498">Success</text><line style="stroke:#000000;stroke-width:1.0;stroke-dasharray:2.0,2.0;" x1="20" x2="872.5" y1="478.8125" y2="478.8125"/><text fill="#000000" font-family="sans-serif" font-size="11" font-weight="bold" lengthAdjust="spacing" textLength="119" x="25" y="490.6826">[policies don't match]</text><polygon fill="#181818" points="58.5,513.7344,48.5,517.7344,58.5,521.7344,54.5,517.7344" style="stroke:#181818;stroke-width:1.0;"/><line style="stroke:#181818;stroke-width:1.0;stroke-dasharray:2.0,2.0;" x1="52.5" x2="431.5" y1="517.7344" y2="517.7344"/><text fill="#000000" font-family="sans-serif" font-size="13" font-weight="bold" lengthAdjust="spacing" textLength="22" x="64.5" y="512.4717">[09]</text><text fill="#000000" font-family="sans-serif" font-size="13" lengthAdjust="spacing" textLength="314" x="90.5" y="512.4717">Error('Default policy did not match with receiver policy')</text><line style="stroke:#000000;stroke-width:1.0;stroke-dasharray:2.0,2.0;" x1="10" x2="882.5" y1="533.7344" y2="533.7344"/><text fill="#000000" font-family="sans-serif" font-size="11" font-weight="bold" lengthAdjust="spacing" textLength="111" x="15" y="545.6045">[VALID policy found]</text><line style="stroke:#181818;stroke-width:1.0;" x1="442.5" x2="484.5" y1="572.6563" y2="572.6563"/><line style="stroke:#181818;stroke-width:1.0;" x1="484.5" x2="484.5" y1="572.6563" y2="585.6563"/><line style="stroke:#181818;stroke-width:1.0;" x1="443.5" x2="484.5" y1="585.6563" y2="585.6563"/><polygon fill="#181818" points="453.5,581.6563,443.5,585.6563,453.5,589.6563,449.5,585.6563" style="stroke:#181818;stroke-width:1.0;"/><text fill="#000000" font-family="sans-serif" font-size="13" font-weight="bold" lengthAdjust="spacing" textLength="22" x="449.5" y="567.3936">[10]</text><text fill="#000000" font-family="sans-serif" font-size="13" lengthAdjust="spacing" textLength="276" x="475.5" y="567.3936">Compare receiver policies with configured policy</text><path d="M20,600.6563 L81,600.6563 L81,609.9473 L71,619.9473 L20,619.9473 L20,600.6563 " fill="#EEEEEE" style="stroke:#000000;stroke-width:1.5;"/><rect fill="none" height="129.7949" style="stroke:#000000;stroke-width:1.5;" width="852.5" x="20" y="600.6563"/><text fill="#000000" font-family="sans-serif" font-size="13" font-weight="bold" lengthAdjust="spacing" textLength="16" x="35" y="615.6846">alt</text><text fill="#000000" font-family="sans-serif" font-size="11" font-weight="bold" lengthAdjust="spacing" textLength="88" x="96" y="614.5264">[policies match]</text><polygon fill="#181818" points="815.5,639.2383,825.5,643.2383,815.5,647.2383,819.5,643.2383" style="stroke:#181818;stroke-width:1.0;"/><line style="stroke:#181818;stroke-width:1.0;" x1="442.5" x2="821.5" y1="643.2383" y2="643.2383"/><text fill="#000000" font-family="sans-serif" font-size="13" font-weight="bold" lengthAdjust="spacing" textLength="22" x="449.5" y="637.9756">[11]</text><text fill="#000000" font-family="sans-serif" font-size="13" lengthAdjust="spacing" textLength="322" x="475.5" y="637.9756">sendNotification(notificationID, receiverBPN, validPolicy)</text><polygon fill="#181818" points="58.5,670.5293,48.5,674.5293,58.5,678.5293,54.5,674.5293" style="stroke:#181818;stroke-width:1.0;"/><line style="stroke:#181818;stroke-width:1.0;stroke-dasharray:2.0,2.0;" x1="52.5" x2="431.5" y1="674.5293" y2="674.5293"/><text fill="#000000" font-family="sans-serif" font-size="13" font-weight="bold" lengthAdjust="spacing" textLength="22" x="64.5" y="669.2666">[12]</text><text fill="#000000" font-family="sans-serif" font-size="13" lengthAdjust="spacing" textLength="51" x="90.5" y="669.2666">Success</text><line style="stroke:#000000;stroke-width:1.0;stroke-dasharray:2.0,2.0;" x1="20" x2="872.5" y1="683.5293" y2="683.5293"/><text fill="#000000" font-family="sans-serif" font-size="11" font-weight="bold" lengthAdjust="spacing" textLength="119" x="25" y="695.3994">[policies don't match]</text><polygon fill="#181818" points="58.5,718.4512,48.5,722.4512,58.5,726.4512,54.5,722.4512" style="stroke:#181818;stroke-width:1.0;"/><line style="stroke:#181818;stroke-width:1.0;stroke-dasharray:2.0,2.0;" x1="52.5" x2="431.5" y1="722.4512" y2="722.4512"/><text fill="#000000" font-family="sans-serif" font-size="13" font-weight="bold" lengthAdjust="spacing" textLength="22" x="64.5" y="717.1885">[13]</text><text fill="#000000" font-family="sans-serif" font-size="13" lengthAdjust="spacing" textLength="335" x="90.5" y="717.1885">Error('Configured policy did not match with receiver policy')</text><line style="stroke:#000000;stroke-width:1.0;stroke-dasharray:2.0,2.0;" x1="10" x2="882.5" y1="738.4512" y2="738.4512"/><text fill="#000000" font-family="sans-serif" font-size="11" font-weight="bold" lengthAdjust="spacing" textLength="121" x="15" y="750.3213">[INVALID policy found]</text><polygon fill="#181818" points="58.5,773.373,48.5,777.373,58.5,781.373,54.5,777.373" style="stroke:#181818;stroke-width:1.0;"/><line style="stroke:#181818;stroke-width:1.0;stroke-dasharray:2.0,2.0;" x1="52.5" x2="431.5" y1="777.373" y2="777.373"/><text fill="#000000" font-family="sans-serif" font-size="13" font-weight="bold" lengthAdjust="spacing" textLength="22" x="64.5" y="772.1104">[14]</text><text fill="#000000" font-family="sans-serif" font-size="13" lengthAdjust="spacing" textLength="147" x="90.5" y="772.1104">Error('Policy has expired')</text><!--SRC=[hPDRQy9048NVzrSCUL51mVPHgb0l5A54iLg4qeVjxaGNOZPi9bR_VISNJKI42kPnSywPirycP2X40Vpq-tCR6cKmWS0wY2oPm2X9naQ9m4W3vL8XKx9Hklj11zxBSF3LxNvxVAg8JTugGUU1J605rccMT4Ki7N5iB2C2R-camiuwbopNfURfKhD0XMPVvYnApRCGA-WCsDI3XDlujNhDUjVfk0skJ1ZE_LRMpEmb8Li5Z-ICHGysI2D9ChIRMH2WQxR40ZfblAgzA1tPyUH0N9uWFbDoTdTB_8O4oaQ1sQGETU4vvbnFtO3B2HaI-BDQf4qPT5sMgQhOaTqnAgn2pivVGrlG6CWqB2iUy_IpO2T9RIi0zp1iduBp1JcsyXIEMVNW8rKA4zwFCC5gbhPHWseJ2-t4EUkQZV55IT16PxjMg8jhNDxks6XbwrUC-7nzduuhd4ph_tIkliS30UrbQFH3y8okjkO-GbF_1gEBAKLLsF8VXeVOyBGoGsFzV_a3]--></g></svg>