<?xml version="1.0" encoding="us-ascii" standalone="no"?><svg xmlns="http://www.w3.org/2000/svg" xmlns:xlink="http://www.w3.org/1999/xlink" contentStyleType="text/css" height="792px" preserveAspectRatio="none" style="width:742px;height:792px;background:#FFFFFF;" version="1.1" viewBox="0 0 742 792" width="742px" zoomAndPan="magnify"><defs/><g><text fill="#000000" font-family="sans-serif" font-size="16" font-weight="bold" lengthAdjust="spacing" textLength="104" x="320" y="32.2656">Policy update</text><rect fill="#FFFFFF" height="525.2871" style="stroke:#181818;stroke-width:1.0;" width="10" x="263.5" y="159.1934"/><rect fill="#FFFFFF" height="31.291" style="stroke:#181818;stroke-width:1.0;" width="10" x="562.5" y="190.4844"/><rect fill="#FFFFFF" height="31.291" style="stroke:#181818;stroke-width:1.0;" width="10" x="562.5" y="253.0664"/><rect fill="#FFFFFF" height="31.291" style="stroke:#181818;stroke-width:1.0;" width="10" x="698.5" y="315.6484"/><rect fill="#FFFFFF" height="31.291" style="stroke:#181818;stroke-width:1.0;" width="10" x="698.5" y="378.2305"/><rect fill="none" height="223.668" style="stroke:#000000;stroke-width:1.5;" width="725" x="10" y="468.8125"/><line style="stroke:#181818;stroke-width:0.5;stroke-dasharray:5.0,5.0;" x1="37" x2="37" y1="125.9023" y2="709.4805"/><line style="stroke:#181818;stroke-width:0.5;stroke-dasharray:5.0,5.0;" x1="268.5" x2="268.5" y1="125.9023" y2="709.4805"/><line style="stroke:#181818;stroke-width:0.5;stroke-dasharray:5.0,5.0;" x1="567.5" x2="567.5" y1="125.9023" y2="709.4805"/><line style="stroke:#181818;stroke-width:0.5;stroke-dasharray:5.0,5.0;" x1="703" x2="703" y1="125.9023" y2="709.4805"/><text fill="#000000" font-family="sans-serif" font-size="14" lengthAdjust="spacing" textLength="29" x="20" y="122.3887">User</text><ellipse cx="37.5" cy="55.7813" fill="#E2E2F0" rx="8" ry="8" style="stroke:#181818;stroke-width:0.5;"/><path d="M37.5,63.7813 L37.5,90.7813 M24.5,71.7813 L50.5,71.7813 M37.5,90.7813 L24.5,105.7813 M37.5,90.7813 L50.5,105.7813 " fill="none" style="stroke:#181818;stroke-width:0.5;"/><text fill="#000000" font-family="sans-serif" font-size="14" lengthAdjust="spacing" textLength="29" x="20" y="723.5879">User</text><ellipse cx="37.5" cy="735.6016" fill="#E2E2F0" rx="8" ry="8" style="stroke:#181818;stroke-width:0.5;"/><path d="M37.5,743.6016 L37.5,770.6016 M24.5,751.6016 L50.5,751.6016 M37.5,770.6016 L24.5,785.6016 M37.5,770.6016 L50.5,785.6016 " fill="none" style="stroke:#181818;stroke-width:0.5;"/><rect fill="#E2E2F0" height="32.6211" rx="2.5" ry="2.5" style="stroke:#181818;stroke-width:0.5;" width="64" x="236.5" y="92.2813"/><text fill="#000000" font-family="sans-serif" font-size="14" lengthAdjust="spacing" textLength="50" x="243.5" y="114.3887">Trace-X</text><rect fill="#E2E2F0" height="32.6211" rx="2.5" ry="2.5" style="stroke:#181818;stroke-width:0.5;" width="64" x="236.5" y="708.4805"/><text fill="#000000" font-family="sans-serif" font-size="14" lengthAdjust="spacing" textLength="50" x="243.5" y="730.5879">Trace-X</text><rect fill="#E2E2F0" height="32.6211" rx="2.5" ry="2.5" style="stroke:#181818;stroke-width:0.5;" width="66" x="534.5" y="92.2813"/><text fill="#000000" font-family="sans-serif" font-size="14" lengthAdjust="spacing" textLength="52" x="541.5" y="114.3887">Registry</text><rect fill="#E2E2F0" height="32.6211" rx="2.5" ry="2.5" style="stroke:#181818;stroke-width:0.5;" width="66" x="534.5" y="708.4805"/><text fill="#000000" font-family="sans-serif" font-size="14" lengthAdjust="spacing" textLength="52" x="541.5" y="730.5879">Registry</text><rect fill="#E2E2F0" height="32.6211" rx="2.5" ry="2.5" style="stroke:#181818;stroke-width:0.5;" width="43" x="682" y="92.2813"/><text fill="#000000" font-family="sans-serif" font-size="14" lengthAdjust="spacing" textLength="29" x="689" y="114.3887">EDC</text><rect fill="#E2E2F0" height="32.6211" rx="2.5" ry="2.5" style="stroke:#181818;stroke-width:0.5;" width="43" x="682" y="708.4805"/><text fill="#000000" font-family="sans-serif" font-size="14" lengthAdjust="spacing" textLength="29" x="689" y="730.5879">EDC</text><rect fill="#FFFFFF" height="525.2871" style="stroke:#181818;stroke-width:1.0;" width="10" x="263.5" y="159.1934"/><rect fill="#FFFFFF" height="31.291" style="stroke:#181818;stroke-width:1.0;" width="10" x="562.5" y="190.4844"/><rect fill="#FFFFFF" height="31.291" style="stroke:#181818;stroke-width:1.0;" width="10" x="562.5" y="253.0664"/><rect fill="#FFFFFF" height="31.291" style="stroke:#181818;stroke-width:1.0;" width="10" x="698.5" y="315.6484"/><rect fill="#FFFFFF" height="31.291" style="stroke:#181818;stroke-width:1.0;" width="10" x="698.5" y="378.2305"/><polygon fill="#181818" points="251.5,155.1934,261.5,159.1934,251.5,163.1934,255.5,159.1934" style="stroke:#181818;stroke-width:1.0;"/><line style="stroke:#181818;stroke-width:1.0;" x1="37.5" x2="257.5" y1="159.1934" y2="159.1934"/><text fill="#000000" font-family="sans-serif" font-size="13" font-weight="bold" lengthAdjust="spacing" textLength="22" x="44.5" y="153.9307">[01]</text><text fill="#000000" font-family="sans-serif" font-size="13" lengthAdjust="spacing" textLength="181" x="70.5" y="153.9307">policyDefinition + globalAssetId</text><polygon fill="#181818" points="550.5,186.4844,560.5,190.4844,550.5,194.4844,554.5,190.4844" style="stroke:#181818;stroke-width:1.0;"/><line style="stroke:#181818;stroke-width:1.0;" x1="273.5" x2="556.5" y1="190.4844" y2="190.4844"/><text fill="#000000" font-family="sans-serif" font-size="13" font-weight="bold" lengthAdjust="spacing" textLength="22" x="280.5" y="185.2217">[02]</text><text fill="#000000" font-family="sans-serif" font-size="13" lengthAdjust="spacing" textLength="168" x="306.5" y="185.2217">query_registry(globalAssetId)</text><polygon fill="#181818" points="284.5,217.7754,274.5,221.7754,284.5,225.7754,280.5,221.7754" style="stroke:#181818;stroke-width:1.0;"/><line style="stroke:#181818;stroke-width:1.0;stroke-dasharray:2.0,2.0;" x1="278.5" x2="566.5" y1="221.7754" y2="221.7754"/><text fill="#000000" font-family="sans-serif" font-size="13" font-weight="bold" lengthAdjust="spacing" textLength="22" x="290.5" y="216.5127">[03]</text><text fill="#000000" font-family="sans-serif" font-size="13" lengthAdjust="spacing" textLength="69" x="316.5" y="216.5127">aasIdentifier</text><polygon fill="#181818" points="550.5,249.0664,560.5,253.0664,550.5,257.0664,554.5,253.0664" style="stroke:#181818;stroke-width:1.0;"/><line style="stroke:#181818;stroke-width:1.0;" x1="273.5" x2="556.5" y1="253.0664" y2="253.0664"/><text fill="#000000" font-family="sans-serif" font-size="13" font-weight="bold" lengthAdjust="spacing" textLength="22" x="280.5" y="247.8037">[04]</text><text fill="#000000" font-family="sans-serif" font-size="13" lengthAdjust="spacing" textLength="129" x="306.5" y="247.8037">get_shell(aasIdentifier)</text><polygon fill="#181818" points="284.5,280.3574,274.5,284.3574,284.5,288.3574,280.5,284.3574" style="stroke:#181818;stroke-width:1.0;"/><line style="stroke:#181818;stroke-width:1.0;stroke-dasharray:2.0,2.0;" x1="278.5" x2="566.5" y1="284.3574" y2="284.3574"/><text fill="#000000" font-family="sans-serif" font-size="13" font-weight="bold" lengthAdjust="spacing" textLength="22" x="290.5" y="279.0947">[05]</text><text fill="#000000" font-family="sans-serif" font-size="13" lengthAdjust="spacing" textLength="27" x="316.5" y="279.0947">shell</text><polygon fill="#181818" points="686.5,311.6484,696.5,315.6484,686.5,319.6484,690.5,315.6484" style="stroke:#181818;stroke-width:1.0;"/><line style="stroke:#181818;stroke-width:1.0;" x1="273.5" x2="692.5" y1="315.6484" y2="315.6484"/><text fill="#000000" font-family="sans-serif" font-size="13" font-weight="bold" lengthAdjust="spacing" textLength="22" x="280.5" y="310.3857">[06]</text><text fill="#000000" font-family="sans-serif" font-size="13" lengthAdjust="spacing" textLength="273" x="306.5" y="310.3857">get_contractDefinition(shell.subprotocolBodyID)</text><polygon fill="#181818" points="284.5,342.9395,274.5,346.9395,284.5,350.9395,280.5,346.9395" style="stroke:#181818;stroke-width:1.0;"/><line style="stroke:#181818;stroke-width:1.0;stroke-dasharray:2.0,2.0;" x1="278.5" x2="702.5" y1="346.9395" y2="346.9395"/><text fill="#000000" font-family="sans-serif" font-size="13" font-weight="bold" lengthAdjust="spacing" textLength="22" x="290.5" y="341.6768">[07]</text><text fill="#000000" font-family="sans-serif" font-size="13" lengthAdjust="spacing" textLength="100" x="316.5" y="341.6768">contractDefinition</text><polygon fill="#181818" points="686.5,374.2305,696.5,378.2305,686.5,382.2305,690.5,378.2305" style="stroke:#181818;stroke-width:1.0;"/><line style="stroke:#181818;stroke-width:1.0;" x1="273.5" x2="692.5" y1="378.2305" y2="378.2305"/><text fill="#000000" font-family="sans-serif" font-size="13" font-weight="bold" lengthAdjust="spacing" textLength="22" x="280.5" y="372.9678">[08]</text><text fill="#000000" font-family="sans-serif" font-size="13" lengthAdjust="spacing" textLength="317" x="306.5" y="372.9678">get_policyDefinition(contractDefinition.contractPolicyId)</text><polygon fill="#181818" points="284.5,405.5215,274.5,409.5215,284.5,413.5215,280.5,409.5215" style="stroke:#181818;stroke-width:1.0;"/><line style="stroke:#181818;stroke-width:1.0;stroke-dasharray:2.0,2.0;" x1="278.5" x2="702.5" y1="409.5215" y2="409.5215"/><text fill="#000000" font-family="sans-serif" font-size="13" font-weight="bold" lengthAdjust="spacing" textLength="22" x="290.5" y="404.2588">[09]</text><text fill="#000000" font-family="sans-serif" font-size="13" lengthAdjust="spacing" textLength="87" x="316.5" y="404.2588">policyDefinition</text><line style="stroke:#181818;stroke-width:1.0;" x1="273.5" x2="315.5" y1="440.8125" y2="440.8125"/><line style="stroke:#181818;stroke-width:1.0;" x1="315.5" x2="315.5" y1="440.8125" y2="453.8125"/><line style="stroke:#181818;stroke-width:1.0;" x1="274.5" x2="315.5" y1="453.8125" y2="453.8125"/><polygon fill="#181818" points="284.5,449.8125,274.5,453.8125,284.5,457.8125,280.5,453.8125" style="stroke:#181818;stroke-width:1.0;"/><text fill="#000000" font-family="sans-serif" font-size="13" font-weight="bold" lengthAdjust="spacing" textLength="22" x="280.5" y="435.5498">[10]</text><text fill="#000000" font-family="sans-serif" font-size="13" lengthAdjust="spacing" textLength="98" x="306.5" y="435.5498">compare policies</text><path d="M10,468.8125 L71,468.8125 L71,478.1035 L61,488.1035 L10,488.1035 L10,468.8125 " fill="#EEEEEE" style="stroke:#000000;stroke-width:1.5;"/><rect fill="none" height="223.668" style="stroke:#000000;stroke-width:1.5;" width="725" x="10" y="468.8125"/><text fill="#000000" font-family="sans-serif" font-size="13" font-weight="bold" lengthAdjust="spacing" textLength="16" x="25" y="483.8408">alt</text><text fill="#000000" font-family="sans-serif" font-size="11" font-weight="bold" lengthAdjust="spacing" textLength="88" x="86" y="482.6826">[Policies match]</text><polygon fill="#181818" points="48.5,507.3945,38.5,511.3945,48.5,515.3945,44.5,511.3945" style="stroke:#181818;stroke-width:1.0;"/><line style="stroke:#181818;stroke-width:1.0;stroke-dasharray:2.0,2.0;" x1="42.5" x2="262.5" y1="511.3945" y2="511.3945"/><text fill="#000000" font-family="sans-serif" font-size="13" font-weight="bold" lengthAdjust="spacing" textLength="22" x="54.5" y="506.1318">[11]</text><text fill="#000000" font-family="sans-serif" font-size="13" lengthAdjust="spacing" textLength="128" x="80.5" y="506.1318">Done without changes</text><line style="stroke:#000000;stroke-width:1.0;stroke-dasharray:2.0,2.0;" x1="10" x2="735" y1="520.3945" y2="520.3945"/><text fill="#000000" font-family="sans-serif" font-size="11" font-weight="bold" lengthAdjust="spacing" textLength="119" x="15" y="532.2646">[Policies don't match]</text><polygon fill="#181818" points="691.5,555.3164,701.5,559.3164,691.5,563.3164,695.5,559.3164" style="stroke:#181818;stroke-width:1.0;"/><line style="stroke:#181818;stroke-width:1.0;" x1="273.5" x2="697.5" y1="559.3164" y2="559.3164"/><text fill="#000000" font-family="sans-serif" font-size="13" font-weight="bold" lengthAdjust="spacing" textLength="22" x="280.5" y="554.0537">[12]</text><text fill="#000000" font-family="sans-serif" font-size="13" lengthAdjust="spacing" textLength="72" x="306.5" y="554.0537">create asset</text><polygon fill="#181818" points="691.5,586.6074,701.5,590.6074,691.5,594.6074,695.5,590.6074" style="stroke:#181818;stroke-width:1.0;"/><line style="stroke:#181818;stroke-width:1.0;" x1="273.5" x2="697.5" y1="590.6074" y2="590.6074"/><text fill="#000000" font-family="sans-serif" font-size="13" font-weight="bold" lengthAdjust="spacing" textLength="22" x="280.5" y="585.3447">[13]</text><text fill="#000000" font-family="sans-serif" font-size="13" lengthAdjust="spacing" textLength="154" x="306.5" y="585.3447">create new policyDefinition</text><polygon fill="#181818" points="691.5,617.8984,701.5,621.8984,691.5,625.8984,695.5,621.8984" style="stroke:#181818;stroke-width:1.0;"/><line style="stroke:#181818;stroke-width:1.0;" x1="273.5" x2="697.5" y1="621.8984" y2="621.8984"/><text fill="#000000" font-family="sans-serif" font-size="13" font-weight="bold" lengthAdjust="spacing" textLength="22" x="280.5" y="616.6357">[14]</text><text fill="#000000" font-family="sans-serif" font-size="13" lengthAdjust="spacing" textLength="380" x="306.5" y="616.6357">create new contractDefinition(with new assetID+policyDefinitionID)</text><polygon fill="#181818" points="555.5,649.1895,565.5,653.1895,555.5,657.1895,559.5,653.1895" style="stroke:#181818;stroke-width:1.0;"/><line style="stroke:#181818;stroke-width:1.0;" x1="273.5" x2="561.5" y1="653.1895" y2="653.1895"/><text fill="#000000" font-family="sans-serif" font-size="13" font-weight="bold" lengthAdjust="spacing" textLength="22" x="280.5" y="647.9268">[15]</text><text fill="#000000" font-family="sans-serif" font-size="13" lengthAdjust="spacing" textLength="244" x="306.5" y="647.9268">update_shell(with new subprotocolBodyID)</text><polygon fill="#181818" points="48.5,680.4805,38.5,684.4805,48.5,688.4805,44.5,684.4805" style="stroke:#181818;stroke-width:1.0;"/><line style="stroke:#181818;stroke-width:1.0;stroke-dasharray:2.0,2.0;" x1="42.5" x2="267.5" y1="684.4805" y2="684.4805"/><text fill="#000000" font-family="sans-serif" font-size="13" font-weight="bold" lengthAdjust="spacing" textLength="22" x="54.5" y="679.2178">[16]</text><text fill="#000000" font-family="sans-serif" font-size="13" lengthAdjust="spacing" textLength="138" x="80.5" y="679.2178">Done with policy update</text><!--SRC=[TLFDIyCm5B_dhtZiuaGcKsz31MSzx3QA0q54ilIv1RAa9g_A_djVqsnhkzfBwClluts5D1aKmD_3mz8PhVPGbOKa56WBe7WhP4NELhirUXZTpn_VfzEF4KSLEGwi0leHo00hSBvWo5IKqfDMkfIMOFJgfSB9MuIylYNCJHUJuqO7yli8oXFcjejvoPxZDPy9S2V42YQFh3g3CkQUuPUschIpS0KRuzRIF8M0j2ZgRFKFryLemMamBP_1TuL-_-cJ-xZ3k3nHSf7391b96HO5Mj9V6hqei0KwocwGFiCMZHbtqFyeHkIG4bVQQ2bdYRj8f_B6aNGTgdNf7JdbpDmL-qNMic2sg7jri3aNQNlMw9vhlwNZSuNhGwXPdKxJ-lvzkM7t9jCTJnuRXiOWf25OfX_OILBRY6RuQWQPimY_chQk8b1RQJVCG1FmH2cSlQ0MCHMfFDRcifxtGDpYxtdImx210TKPnRielyYk-bBri8uRqxovj3H7wi1u1-fEIHxURQkjlEhyYeNu0m00]--></g></svg>