<svg width="1920" height="1020" viewBox="0 0 1920 1020" fill="none" xmlns="http://www.w3.org/2000/svg">
<g clip-path="url(#clip0_2445_12192)">
<path d="M1661.39 992.528C1577.47 1076.44 1441.39 1076.44 1356.93 992.528C1272.48 908.615 1273.02 772.526 1356.93 688.075L1813.61 231.935C1897.53 148.022 2033.62 148.022 2118.07 231.935C2202.52 315.847 2201.98 451.936 2118.07 536.387L1661.39 992.528Z" fill="url(#paint0_linear_2445_12192)"/>
</g>
<g clip-path="url(#clip1_2445_12192)">
<path d="M270.387 823.528C186.474 907.44 50.3853 907.44 -34.0653 823.528C-118.516 739.615 -117.978 603.526 -34.0653 519.075L422.613 62.9345C506.526 -20.9782 642.615 -20.9782 727.066 62.9345C811.516 146.847 810.978 282.936 727.066 367.387L270.387 823.528Z" fill="url(#paint1_linear_2445_12192)"/>
</g>
<defs>
<linearGradient id="paint0_linear_2445_12192" x1="2118.16" y1="231.928" x2="1357.45" y2="992.636" gradientUnits="userSpaceOnUse">
<stop stop-color="#166958" stop-opacity="0"/>
<stop offset="1" stop-color="#166958"/>
</linearGradient>
<linearGradient id="paint1_linear_2445_12192" x1="727.163" y1="62.928" x2="-33.5451" y2="823.636" gradientUnits="userSpaceOnUse">
<stop stop-color="#166958" stop-opacity="0"/>
<stop offset="1" stop-color="#166958"/>
</linearGradient>
<clipPath id="clip0_2445_12192">
<rect width="887" height="887" fill="white" transform="translate(1294 169)"/>
</clipPath>
<clipPath id="clip1_2445_12192">
<rect width="887" height="887" fill="white" transform="translate(-97)"/>
</clipPath>
</defs>
</svg>
