<svg width="9" height="16" viewBox="0 0 9 16" fill="none" xmlns="http://www.w3.org/2000/svg">
<path d="M1.23077 15.2307C0.892308 15.2307 0.602566 15.1102 0.361549 14.8692C0.120516 14.6281 0 14.3384 0 13.9999C0 13.6615 0.120516 13.3717 0.361549 13.1307C0.602566 12.8897 0.892308 12.7692 1.23077 12.7692C1.56924 12.7692 1.85898 12.8897 2.1 13.1307C2.34103 13.3717 2.46155 13.6615 2.46155 13.9999C2.46155 14.3384 2.34103 14.6281 2.1 14.8692C1.85898 15.1102 1.56924 15.2307 1.23077 15.2307ZM7.23078 15.2307C6.89231 15.2307 6.60257 15.1102 6.36155 14.8692C6.12052 14.6281 6 14.3384 6 13.9999C6 13.6615 6.12052 13.3717 6.36155 13.1307C6.60257 12.8897 6.89231 12.7692 7.23078 12.7692C7.56924 12.7692 7.85898 12.8897 8.1 13.1307C8.34103 13.3717 8.46155 13.6615 8.46155 13.9999C8.46155 14.3384 8.34103 14.6281 8.1 14.8692C7.85898 15.1102 7.56924 15.2307 7.23078 15.2307ZM1.23077 9.23072C0.892308 9.23072 0.602566 9.1102 0.361549 8.86917C0.120516 8.62815 0 8.33841 0 7.99994C0 7.66147 0.120516 7.37173 0.361549 7.13072C0.602566 6.88968 0.892308 6.76917 1.23077 6.76917C1.56924 6.76917 1.85898 6.88968 2.1 7.13072C2.34103 7.37173 2.46155 7.66147 2.46155 7.99994C2.46155 8.33841 2.34103 8.62815 2.1 8.86917C1.85898 9.1102 1.56924 9.23072 1.23077 9.23072ZM7.23078 9.23072C6.89231 9.23072 6.60257 9.1102 6.36155 8.86917C6.12052 8.62815 6 8.33841 6 7.99994C6 7.66147 6.12052 7.37173 6.36155 7.13072C6.60257 6.88968 6.89231 6.76917 7.23078 6.76917C7.56924 6.76917 7.85898 6.88968 8.1 7.13072C8.34103 7.37173 8.46155 7.66147 8.46155 7.99994C8.46155 8.33841 8.34103 8.62815 8.1 8.86917C7.85898 9.1102 7.56924 9.23072 7.23078 9.23072ZM1.23077 3.23072C0.892308 3.23072 0.602566 3.1102 0.361549 2.86917C0.120516 2.62815 0 2.33841 0 1.99994C0 1.66147 0.120516 1.37173 0.361549 1.13072C0.602566 0.889683 0.892308 0.769165 1.23077 0.769165C1.56924 0.769165 1.85898 0.889683 2.1 1.13072C2.34103 1.37173 2.46155 1.66147 2.46155 1.99994C2.46155 2.33841 2.34103 2.62815 2.1 2.86917C1.85898 3.1102 1.56924 3.23072 1.23077 3.23072ZM7.23078 3.23072C6.89231 3.23072 6.60257 3.1102 6.36155 2.86917C6.12052 2.62815 6 2.33841 6 1.99994C6 1.66147 6.12052 1.37173 6.36155 1.13072C6.60257 0.889683 6.89231 0.769165 7.23078 0.769165C7.56924 0.769165 7.85898 0.889683 8.1 1.13072C8.34103 1.37173 8.46155 1.66147 8.46155 1.99994C8.46155 2.33841 8.34103 2.62815 8.1 2.86917C7.85898 3.1102 7.56924 3.23072 7.23078 3.23072Z" fill="#A6A6A6"/>
</svg>
