<?xml version="1.0" encoding="utf-8"?>
<!-- Generator: Adobe Illustrator 27.8.0, SVG Export Plug-In . SVG Version: 6.00 Build 0)  -->
<svg version="1.1" id="Ebene_1" xmlns="http://www.w3.org/2000/svg" xmlns:xlink="http://www.w3.org/1999/xlink" x="0px" y="0px"
	 viewBox="0 0 16 16" style="enable-background:new 0 0 16 16;" xml:space="preserve">
<style type="text/css">
	.st0{clip-path:url(#SVGID_00000033369644005037407190000000356301562507911335_);}
	.st1{fill:url(#SVGID_00000013175150850522022720000010211576923575207852_);}
	.st2{fill:url(#SVGID_00000036948576158388856490000009553757493670099608_);}
	.st3{fill:url(#SVGID_00000127014609715251699250000003262178517216068996_);}
</style>
<g>
	<defs>
		<rect id="SVGID_1_" x="0.5" y="0.5" width="15" height="14.9"/>
	</defs>
	<clipPath id="SVGID_00000143602642287705540720000003922164097930743446_">
		<use xlink:href="#SVGID_1_"  style="overflow:visible;"/>
	</clipPath>
	<g style="clip-path:url(#SVGID_00000143602642287705540720000003922164097930743446_);">
		
			<linearGradient id="SVGID_00000023959575782040000920000002126089743318593725_" gradientUnits="userSpaceOnUse" x1="0.5" y1="-0.5998" x2="15.5" y2="-0.5998" gradientTransform="matrix(1 0 0 -1 0 2.0798)">
			<stop  offset="0" style="stop-color:#FDB913"/>
			<stop  offset="1" style="stop-color:#D31184"/>
		</linearGradient>
		<path style="fill:url(#SVGID_00000023959575782040000920000002126089743318593725_);" d="M13.4,4.8c1.2,0,2.1-1,2.1-2.1
			c0-1.2-1-2.1-2.1-2.1c-1.2,0-2.1,1-2.1,2.1C11.2,3.9,12.2,4.8,13.4,4.8z"/>
		
			<linearGradient id="SVGID_00000117646770964169613400000006068467234060340411_" gradientUnits="userSpaceOnUse" x1="0.5" y1="-11.2405" x2="15.5" y2="-11.2405" gradientTransform="matrix(1 0 0 -1 0 2.0798)">
			<stop  offset="0" style="stop-color:#FDB913"/>
			<stop  offset="1" style="stop-color:#D31184"/>
		</linearGradient>
		<path style="fill:url(#SVGID_00000117646770964169613400000006068467234060340411_);" d="M13.4,15.5c1.2,0,2.1-1,2.1-2.1
			s-1-2.1-2.1-2.1c-1.2,0-2.1,1-2.1,2.1S12.2,15.5,13.4,15.5z"/>
		
			<linearGradient id="SVGID_00000113317491167760259960000013058935610224486557_" gradientUnits="userSpaceOnUse" x1="0.5" y1="-5.9202" x2="15.5" y2="-5.9202" gradientTransform="matrix(1 0 0 -1 0 2.0798)">
			<stop  offset="0" style="stop-color:#FDB913"/>
			<stop  offset="1" style="stop-color:#D31184"/>
		</linearGradient>
		<path style="fill:url(#SVGID_00000113317491167760259960000013058935610224486557_);" d="M4.8,13.3c0-0.8,0.3-1.6,0.9-2.2
			c0.6-0.6,1.4-0.9,2.2-0.9c0.6,0,1.1-0.2,1.5-0.6c0.4-0.4,0.6-0.9,0.6-1.5S9.9,6.9,9.5,6.5C9.1,6.1,8.5,5.9,8,5.9
			c-0.8,0-1.6-0.3-2.2-0.9C5.1,4.3,4.8,3.5,4.8,2.7c0-0.4-0.1-0.8-0.4-1.2c-0.2-0.4-0.6-0.6-1-0.8C3.1,0.5,2.6,0.5,2.2,0.6
			C1.8,0.7,1.4,0.9,1.1,1.2C0.8,1.5,0.6,1.8,0.5,2.3c-0.1,0.4,0,0.8,0.1,1.2c0.2,0.4,0.4,0.7,0.8,1c0.4,0.2,0.8,0.4,1.2,0.4
			c0.8,0,1.6,0.3,2.2,0.9C5.5,6.4,5.8,7.2,5.8,8s-0.3,1.6-0.9,2.2c-0.6,0.6-1.4,0.9-2.2,0.9c-0.4,0-0.8,0.1-1.2,0.4
			c-0.4,0.2-0.6,0.6-0.8,1s-0.2,0.8-0.1,1.2c0.1,0.4,0.3,0.8,0.6,1.1s0.7,0.5,1.1,0.6c0.4,0.1,0.8,0,1.2-0.1c0.4-0.2,0.7-0.4,1-0.8
			C4.7,14.2,4.8,13.7,4.8,13.3z"/>
	</g>
</g>
</svg>
