<svg width="2145" height="583" viewBox="0 0 2145 583" fill="none" xmlns="http://www.w3.org/2000/svg">
<circle cx="269.012" cy="50" r="50" fill="#FFA600"/>
<circle cx="66.0117" cy="426" r="50" fill="#FFA600"/>
<path d="M232.921 569.631C232.044 575.084 226.908 578.812 221.491 577.737C177.026 568.914 135.428 549.234 100.407 520.451C96.1407 516.944 95.7653 510.609 99.4248 506.472L122.616 480.259C126.276 476.122 132.582 475.755 136.88 479.223C164.052 501.144 196.055 516.285 230.235 523.391C235.643 524.515 239.358 529.623 238.481 535.076L232.921 569.631Z" fill="#B3CB2D"/>
<path d="M14.1114 354.407C8.67389 355.374 3.46283 351.752 2.69387 346.283C-3.61772 301.393 1.26682 255.635 16.9118 213.089C18.8179 207.905 24.6761 205.464 29.7869 207.558L62.1756 220.823C67.2864 222.916 69.7096 228.75 67.8507 233.951C56.1002 266.825 52.3424 302.029 56.8887 336.643C57.6079 342.119 54.0079 347.31 48.5704 348.277L14.1114 354.407Z" fill="#B3CB2D"/>
<path d="M68.8263 141.53C64.5291 138.061 63.8442 131.752 67.4675 127.583C97.2066 93.3707 134.947 67.0381 177.321 50.9343C182.483 48.9723 188.169 51.7926 189.942 57.0231L201.178 90.1705C202.951 95.401 200.138 101.057 194.993 103.066C162.473 115.764 133.438 136.023 110.296 162.162C106.635 166.297 100.356 166.985 96.0588 163.516L68.8263 141.53Z" fill="#B3CB2D"/>
<path fill-rule="evenodd" clip-rule="evenodd" d="M369.104 49.5921C363.914 47.7026 358.269 50.6021 356.569 55.857L345.798 89.1584C344.099 94.4132 346.991 100.029 352.163 101.966C373.4 109.918 393.211 121.079 410.93 135H481.619C483.089 131.645 482.631 127.617 480.019 124.696C449.804 90.9029 411.699 65.1011 369.104 49.5921Z" fill="#B3CB2D"/>
<path fill-rule="evenodd" clip-rule="evenodd" d="M387.61 497C368.067 508.642 346.772 517.221 324.466 522.367C319.084 523.608 315.48 528.796 316.476 534.228L322.785 568.655C323.781 574.087 328.997 577.702 334.389 576.51C378.651 566.723 419.812 546.143 454.199 516.606C458.389 513.008 458.626 506.666 454.878 502.61L449.693 497H387.61Z" fill="#B3CB2D"/>
<path d="M312.212 181.4C312.212 179.267 312.878 177.533 314.212 176.2C315.545 174.867 317.545 174.2 320.212 174.2H549.812C552.745 174.2 554.745 174.867 555.812 176.2C557.145 177.533 557.812 179.267 557.812 181.4V218.6C557.812 222.6 555.412 224.6 550.612 224.6H475.812C472.878 224.6 471.412 225.933 471.412 228.6V463.4C471.412 468.467 469.145 471 464.612 471H407.412C403.412 471 401.412 468.733 401.412 464.2V229.8C401.412 226.333 399.945 224.6 397.012 224.6H319.812C314.745 224.6 312.212 222.6 312.212 218.6V181.4ZM840.077 460.2C841.144 463.133 841.011 465.667 839.677 467.8C838.611 469.933 836.744 471 834.077 471H775.277C770.744 471 767.811 468.6 766.477 463.8L723.277 351.8C721.677 348.067 717.944 346.2 712.077 346.2H674.077C672.211 346.2 670.877 346.733 670.077 347.8C669.544 348.867 669.277 349.8 669.277 350.6V461.4C669.277 467.8 665.677 471 658.477 471H607.677C604.477 471 602.211 470.333 600.877 469C599.811 467.667 599.277 465.667 599.277 463V181.8C599.277 176.733 601.411 174.2 605.677 174.2H730.477C766.211 174.2 793.944 181.267 813.677 195.4C833.677 209.533 843.677 229.667 843.677 255.8C843.677 269.4 841.144 281.533 836.077 292.2C831.011 302.867 824.344 311.8 816.077 319C807.811 325.933 798.744 331.133 788.877 334.6C786.477 335.4 785.944 337.4 787.277 340.6L840.077 460.2ZM724.077 299C739.277 299 750.877 295.8 758.877 289.4C767.144 282.733 771.277 273.133 771.277 260.6C771.277 247.533 767.144 237.667 758.877 231C750.611 224.333 739.677 221 726.077 221H676.877C671.811 221 669.277 223.267 669.277 227.8V292.2C669.277 296.733 671.144 299 674.877 299H724.077ZM868.602 471C866.202 471 864.469 469.933 863.402 467.8C862.336 465.667 862.336 462.867 863.402 459.4L963.002 182.2C964.069 179.267 965.269 177.267 966.602 176.2C967.936 174.867 970.202 174.2 973.402 174.2H1033.4C1039.27 174.2 1043.27 177.133 1045.4 183L1144.2 460.2C1145 462.333 1145 464.733 1144.2 467.4C1143.4 469.8 1141.8 471 1139.4 471H1080.6C1076.6 471 1074.07 469.133 1073 465.4L1052.2 407C1051.94 405.667 1051.4 404.6 1050.6 403.8C1050.07 403 1048.87 402.6 1047 402.6H949.402C946.736 402.6 945.002 403.933 944.202 406.6L923.002 465.8C922.469 467.4 921.536 468.733 920.202 469.8C919.136 470.6 917.269 471 914.602 471H868.602ZM1030.6 349.4C1034.34 349.4 1035.54 347.133 1034.2 342.6L1000.6 249C999.802 247.4 998.869 246.6 997.802 246.6C997.002 246.6 996.202 247.533 995.402 249.4L961.402 342.6C959.536 347.133 960.736 349.4 965.002 349.4H1030.6ZM1292.05 170.2C1307.51 170.2 1321.91 172.467 1335.25 177C1348.85 181.267 1360.98 187.4 1371.65 195.4C1382.31 203.4 1390.98 212.733 1397.65 223.4C1404.58 234.067 1409.11 245.667 1411.25 258.2C1412.31 262.467 1412.45 265.267 1411.65 266.6C1411.11 267.933 1409.65 268.733 1407.25 269L1353.25 272.6C1350.85 272.6 1349.25 272.2 1348.45 271.4C1347.91 270.333 1347.38 268.733 1346.85 266.6C1343.91 252.733 1338.18 241.4 1329.65 232.6C1321.11 223.533 1309.25 219 1294.05 219C1274.05 219 1258.31 227.133 1246.85 243.4C1235.65 259.4 1230.05 285.4 1230.05 321.4C1230.05 357.133 1235.38 383.133 1246.05 399.4C1256.98 415.4 1273.25 423.4 1294.85 423.4C1310.31 423.4 1323.65 419.533 1334.85 411.8C1346.05 404.067 1355.25 390.867 1362.45 372.2C1363.51 369.8 1366.45 369 1371.25 369.8L1410.45 378.2C1411.78 378.467 1412.98 379.267 1414.05 380.6C1415.11 381.667 1415.38 384.2 1414.85 388.2C1413.51 393.8 1410.85 400.333 1406.85 407.8C1403.11 415.267 1398.05 423 1391.65 431C1385.25 438.733 1377.25 445.933 1367.65 452.6C1358.31 459.267 1347.38 464.733 1334.85 469C1322.31 473 1308.05 475 1292.05 475C1264.58 475 1240.58 468.467 1220.05 455.4C1199.78 442.333 1184.18 424.2 1173.25 401C1162.31 377.8 1156.85 350.867 1156.85 320.2C1156.85 289.267 1162.31 262.733 1173.25 240.6C1184.18 218.2 1199.78 200.867 1220.05 188.6C1240.31 176.333 1264.31 170.2 1292.05 170.2ZM1457.09 181.8C1457.09 176.733 1459.22 174.2 1463.49 174.2H1665.09C1669.09 174.2 1671.09 176.467 1671.09 181L1670.69 217C1670.69 222.6 1667.89 225.4 1662.29 225.4H1534.69C1529.62 225.4 1527.09 227.533 1527.09 231.8V289.8C1527.09 294.333 1529.09 296.6 1533.09 296.6H1617.89C1622.42 296.6 1624.69 298.733 1624.69 303V341.4C1624.69 343 1624.16 344.333 1623.09 345.4C1622.29 346.467 1620.69 347 1618.29 347H1532.69C1528.96 347 1527.09 348.6 1527.09 351.8V414.6C1527.09 418.067 1528.56 419.8 1531.49 419.8H1668.29C1673.09 419.8 1675.49 421.8 1675.49 425.8V463.8C1675.49 465.933 1674.82 467.667 1673.49 469C1672.42 470.333 1670.42 471 1667.49 471H1465.89C1460.02 471 1457.09 468.2 1457.09 462.6V181.8ZM1823.21 379C1823.21 384.867 1819.74 387.8 1812.81 387.8H1718.81C1715.61 387.8 1713.34 387.267 1712.01 386.2C1710.94 384.867 1710.41 382.733 1710.41 379.8V350.6C1710.41 345.8 1712.41 343.4 1716.41 343.4H1817.21C1821.21 343.4 1823.21 345.4 1823.21 349.4V379ZM2094.12 455.4C2098.12 461.267 2099.46 465.4 2098.12 467.8C2096.79 469.933 2093.99 471 2089.72 471H2034.12C2027.99 471 2023.72 469 2021.32 465L1964.92 374.2C1962.79 371 1961.06 369.4 1959.72 369.4C1958.39 369.133 1956.66 370.733 1954.52 374.2L1898.52 465C1897.46 467.133 1895.72 468.733 1893.32 469.8C1891.19 470.6 1888.52 471 1885.32 471H1840.92C1836.66 471 1833.86 469.933 1832.52 467.8C1831.46 465.667 1832.92 461.533 1836.92 455.4L1920.92 327C1922.52 324.6 1923.19 322.6 1922.92 321C1922.92 319.133 1922.12 316.867 1920.52 314.2L1836.52 185C1834.92 182.867 1834.39 180.6 1834.92 178.2C1835.72 175.533 1837.86 174.2 1841.32 174.2H1899.72C1903.19 174.2 1905.72 174.733 1907.32 175.8C1909.19 176.867 1910.79 178.467 1912.12 180.6L1961.72 261.8C1963.06 263.933 1964.39 265 1965.72 265C1967.32 265 1968.79 263.933 1970.12 261.8L2019.72 180.6C2021.06 178.467 2022.52 176.867 2024.12 175.8C2025.99 174.733 2028.52 174.2 2031.72 174.2H2080.52C2084.26 174.2 2086.26 175.4 2086.52 177.8C2087.06 179.933 2086.39 182.067 2084.52 184.2L2003.72 306.6C2002.12 309 2001.46 311 2001.72 312.6C2001.99 314.2 2002.79 316.333 2004.12 319L2094.12 455.4Z" fill="black"/>
</svg>
