<?xml version="1.0" encoding="UTF-8"?>
<svg width='202px' height='170px' viewBox='0 0 152 120' version='1.1' xmlns='http://www.w3.org/2000/svg'>
    <title>C6156922-B0E6-4453-8B09-03631AD2099B@1x</title>
    <g id="Illustrations" stroke="none" stroke-width="1" fill="none" fill-rule="evenodd">
        <g id="illustration/relax" fill-rule="nonzero">
            <g id="relax">
                <polygon id="Path" fill="#3F3D56" points="14.083803 105.028917 12.4291185 117.395506 15.7384874 117.395506"></polygon>
                <polygon id="Path" fill="#3F3D56" points="12.3420299 106.073981 10.6873455 118.44057 13.9967143 118.44057"></polygon>
                <polygon id="Path" fill="#3F3D56" points="10.2519022 106.073981 8.59721776 118.44057 11.9065866 118.44057"></polygon>
                <polygon id="Path" fill="#3F3D56" points="113.713223 101.197016 112.058539 113.563605 115.367908 113.563605"></polygon>
                <polygon id="Path" fill="#3F3D56" points="115.977528 101.197016 114.322844 113.563605 117.632213 113.563605"></polygon>
                <polygon id="Path" fill="#3F3D56" points="117.719301 103.809676 116.064617 116.176265 119.373986 116.176265"></polygon>
                <polygon id="Path" fill="#3F3D56" points="119.983606 103.809676 118.328922 116.176265 121.638291 116.176265"></polygon>
                <polygon id="Path" fill="#3F3D56" points="129.737536 105.725626 128.082851 118.092215 131.39222 118.092215"></polygon>
                <polygon id="Path" fill="#3F3D56" points="132.001841 105.725626 130.347156 118.092215 133.656525 118.092215"></polygon>
                <polygon id="Path" fill="#3F3D56" points="135.142258 118.788924 132.34497 118.788924 132.439026 118.092215 133.027745 113.692496 133.046905 113.540962 133.743614 108.338286 134.50651 114.042593 134.875766 116.799819"></polygon>
                <polygon id="Path" fill="#3F3D56" points="137.406563 118.788924 134.609275 118.788924 134.875766 116.799819 135.222379 114.215028 136.007919 108.338286 136.847453 114.615636 136.847453 114.617378 137.093043 116.451465"></polygon>
                <polygon id="Path" fill="#3F3D56" points="139.763182 118.788924 136.781266 118.788924 137.093043 116.451465 137.322957 114.735818 138.272224 107.641577 139.289419 115.239191 139.404376 116.10311"></polygon>
                <polygon id="Path" fill="#3F3D56" points="142.027487 118.788924 139.045571 118.788924 139.404376 116.10311 139.512366 115.296669 140.536529 107.641577 141.581593 115.456912 141.637329 115.864487"></polygon>
                <polygon id="Path" fill="#3F3D56" points="143.420905 118.788924 141.135699 118.788924 141.531081 115.836619 141.581593 115.456912 142.278302 110.254236 143.081259 116.261612 143.410454 118.71577"></polygon>
                <polygon id="Path" fill="#3F3D56" points="145.68521 118.788924 143.400004 118.788924 143.410454 118.71577 143.715265 116.437531 144.542607 110.254236 145.436136 116.926969"></polygon>
                <circle id="Oval" fill="#FFF5CC" cx="16.6964434" cy="16.6339329" r="16.6339329"></circle>
                <path d="M151.596767,119.833988 L0.0625087524,119.833988 C0.0625087524,119.833988 30.8291885,108.012574 76.1448988,108.146691 C76.3991977,108.146691 76.6534965,108.148433 76.9077954,108.150174 C77.8117756,108.1554 78.7209812,108.16527 79.6354121,108.179784 C80.3512901,108.191977 81.0700618,108.207072 81.7917271,108.225071 C82.1035045,108.232038 82.4152819,108.240746 82.7288011,108.249455 C82.8542087,108.252939 82.9778746,108.256422 83.1015405,108.259906 C83.3889331,108.268615 83.6780674,108.277324 83.9689435,108.287774 C84.5141185,108.305192 85.0610352,108.326093 85.6096937,108.346995 C86.0904138,108.366154 86.5734656,108.387055 87.0588489,108.409698 C87.2434769,108.416666 87.4315884,108.425374 87.6179581,108.435825 C88.4975535,108.475886 89.3806325,108.522333 90.267195,108.575167 C90.4727242,108.587359 90.6782534,108.599552 90.8855244,108.611744 C91.1694334,108.62742 91.4550842,108.64658 91.7389932,108.663997 C92.1152162,108.688382 92.4914392,108.713348 92.8676622,108.738894 C93.3571004,108.771987 93.8447969,108.806823 94.3342351,108.8434 C95.3583977,108.918296 96.3883662,109.00074 97.4241406,109.090732 C98.1940043,109.155177 98.9656097,109.22659 99.7406988,109.299745 C100.069887,109.331105 100.400243,109.363618 100.731768,109.397284 C101.238624,109.446053 101.746641,109.497726 102.255819,109.552302 C102.579789,109.587137 102.9055,109.621973 103.22947,109.656808 C103.621369,109.698611 104.011526,109.742155 104.403425,109.787441 C104.793582,109.832727 105.187223,109.878013 105.579122,109.925041 C105.972763,109.972069 106.366404,110.019677 106.760044,110.067866 C107.155427,110.116636 107.549067,110.165406 107.94445,110.217659 C108.334607,110.266429 108.724764,110.318682 109.116663,110.370935 C110.785282,110.59214 112.466093,110.833085 114.159096,111.093771 C114.483066,111.14254 114.810519,111.193052 115.136231,111.245305 C115.472393,111.297558 115.809717,111.351553 116.148201,111.40729 C116.61848,111.482186 117.0905,111.559985 117.564263,111.640688 C117.970096,111.708617 118.375929,111.776546 118.783504,111.847959 C119.151018,111.910671 119.522016,111.975108 119.891272,112.041304 C119.929591,112.048271 119.96791,112.055238 120.006229,112.062205 C120.413803,112.133618 120.82312,112.208514 121.230695,112.283411 C121.640012,112.358307 122.05107,112.434945 122.460387,112.511583 C122.871452,112.588221 123.282511,112.666601 123.693562,112.746722 C124.106362,112.826844 124.517421,112.906965 124.930221,112.988829 C125.252449,113.053274 125.572935,113.11772 125.895163,113.182165 C126.055406,113.215259 126.21565,113.246611 126.375893,113.279705 C126.720764,113.351117 127.066796,113.423111 127.41399,113.495685 C127.828531,113.582773 128.243654,113.670442 128.659357,113.758692 C128.706385,113.769143 128.751671,113.779594 128.798699,113.788302 C129.443155,113.927644 130.088192,114.069309 130.733809,114.213295 C130.820898,114.232455 130.909728,114.253356 130.998559,114.272515 C131.336462,114.347412 131.674366,114.42405 132.01227,114.502429 C132.350174,114.580801 132.688078,114.657447 133.027724,114.737569 C133.04182,114.739635 133.055779,114.742543 133.069527,114.746278 C133.548514,114.857751 134.02576,114.970966 134.506489,115.087665 C134.745112,115.143402 134.983735,115.20088 135.222358,115.260101 C135.549812,115.338481 135.875523,115.418602 136.202976,115.500465 C136.417215,115.55446 136.631453,115.608455 136.847433,115.66245 C137.005934,115.699028 137.164435,115.739088 137.322937,115.780891 C137.657357,115.862754 137.992358,115.94752 138.32794,116.03519 C138.639717,116.115304 138.951494,116.196004 139.263272,116.277287 C139.272178,116.278793 139.280925,116.281125 139.289398,116.284255 C139.364295,116.303414 139.437449,116.322574 139.512345,116.341733 C139.740518,116.400953 139.96869,116.461915 140.198604,116.522877 C140.433743,116.585581 140.670624,116.648285 140.907506,116.712731 C141.114777,116.768467 141.323789,116.824204 141.53106,116.881683 C141.537024,116.881826 141.542918,116.883005 141.548478,116.885166 C141.578088,116.892133 141.607698,116.900842 141.637309,116.909551 C141.877673,116.973997 142.118038,117.038442 142.358403,117.106371 C142.598767,117.172559 142.839132,117.238746 143.081238,117.306675 C143.105623,117.311901 143.130008,117.318868 143.154393,117.325835 C143.340754,117.376353 143.527124,117.428606 143.713502,117.482594 C143.713502,117.482594 143.713502,117.480853 143.715244,117.482594 C143.821492,117.510463 143.92774,117.541815 144.033988,117.571425 C144.317897,117.651539 144.601806,117.732239 144.885715,117.813523 C145.068601,117.865776 145.253229,117.918029 145.436116,117.972024 C145.946455,118.120075 146.458536,118.268125 146.970618,118.41966 C147.482699,118.571194 147.996522,118.72447 148.508603,118.879488 C148.816897,118.971802 149.123449,119.065857 149.431743,119.161655 C149.720877,119.248744 150.010012,119.337574 150.299146,119.428146 C150.731111,119.562272 151.164811,119.696381 151.596767,119.833988 Z" id="Path" fill="#E6E6E6"></path>
                <path d="M151.544209,120 C108.656107,106.423356 69.7664282,107.146599 44.6943397,110.144184 C17.5318727,113.391638 0.295880219,119.930942 0.125019247,119.996593 L0,119.671371 C0.17136957,119.605544 17.4479227,113.050763 44.6530057,109.798205 C60.6555972,107.887304 76.801623,107.47428 92.880985,108.564507 C112.842261,109.915604 132.571095,113.643091 151.649327,119.667962 L151.544209,120 Z" id="Path" fill="#3F3D56"></path>
                <circle id="Oval" fill="#ACBCD7" cx="123.118779" cy="34.7397599" r="28.4779899"></circle>
                <path d="M144.302481,15.7186991 C149.78895,28.5525169 145.166384,43.4713225 133.384689,50.954629 C121.602993,58.4379356 106.134182,56.2804459 96.8497299,45.8589693 C101.283962,56.2328579 111.423712,63.0114364 122.704782,63.1434682 C133.985852,63.2755 144.281474,56.7360938 148.957286,46.4688276 C153.633098,36.2015615 151.807592,24.1420762 144.302481,15.7186991 L144.302481,15.7186991 Z" id="Path" fill="#000000" opacity="0.2"></path>
                <polygon id="Path" fill="#3F3D56" points="123.197004 34.7398383 123.275209 34.7398383 124.683433 115.479555 121.710574 115.479555"></polygon>
                <polygon id="Rectangle" fill="#3F3D56" transform="translate(125.700579, 79.334414) rotate(62.234130) translate(-125.700579, -79.334414) " points="124.996453 76.6743819 126.404705 76.6743819 126.404705 81.9944467 124.996453 81.9944467"></polygon>
                <path d="M55.1291664,116.163017 C55.1291664,116.163017 55.2494463,113.642701 57.7151978,113.935653" id="Path" fill="#3F3D56"></path>
                <path d="M77.1291664,111.163017 C77.1291664,111.163017 77.2494463,108.642701 79.7151978,108.935653" id="Path-Copy" fill="#3F3D56"></path>
                <circle id="Oval" fill="#ffa600" cx="54.4324572" cy="112.530533" r="1.23409152"></circle>
                <circle id="Oval-Copy" fill="#ffa600" cx="76.4324572" cy="107.530533" r="1.23409152"></circle>
                <rect id="Rectangle" fill="#3F3D56" x="54.2316534" y="114.608669" width="1" height="2.43848232"></rect>
                <rect id="Rectangle-Copy" fill="#3F3D56" x="76.2316534" y="109.608669" width="1" height="2.43848232"></rect>
                <path d="M100.066912,116.685549 C100.066912,116.685549 100.187192,114.165233 102.652943,114.458185" id="Path" fill="#3F3D56"></path>
                <circle id="Oval" fill="#ffa600" cx="99.3702027" cy="113.053065" r="1.23409152"></circle>
                <rect id="Rectangle" fill="#3F3D56" x="99.1693989" y="115.131201" width="1" height="2.43848232"></rect>
                <path d="M26.0415559,112.331116 C26.0415559,112.331116 26.1618358,109.8108 28.6275873,110.103752" id="Path" fill="#3F3D56"></path>
                <circle id="Oval" fill="#ffa600" cx="25.3448467" cy="108.698632" r="1.23409152"></circle>
                <rect id="Rectangle" fill="#3F3D56" x="25.1440429" y="110.776768" width="1" height="2.43848232"></rect>
                <path d="M45.0268825,109.021747 C45.0268825,109.021747 45.1471624,106.501431 47.6129139,106.794383" id="Path" fill="#3F3D56"></path>
                <circle id="Oval" fill="#ffa600" cx="44.3301733" cy="105.389264" r="1.23409152"></circle>
                <rect id="Rectangle" fill="#3F3D56" x="44.1293695" y="107.467399" width="1" height="2.43848232"></rect>
                <path d="M92.5772877,113.724534 C92.5772877,113.724534 92.6975676,111.204218 95.1633191,111.497171" id="Path" fill="#3F3D56"></path>
                <circle id="Oval" fill="#ffa600" cx="91.8805785" cy="110.092051" r="1.23409152"></circle>
                <rect id="Rectangle" fill="#3F3D56" x="91.6797747" y="112.170187" width="1" height="2.43848232"></rect>
                <path d="M58.0277276,6.87406075 L59.6311482,5.5916298 C58.3855227,5.45420391 57.8737166,6.1335407 57.6642544,6.67124347 C56.6911258,6.26715211 55.6317463,6.79673125 55.6317463,6.79673125 L58.839899,7.9614044 C58.6780528,7.52911508 58.3963184,7.151926 58.0277276,6.87406075 L58.0277276,6.87406075 Z" id="Path" fill="#3F3D56"></path>
                <path d="M82.4125508,19.9373589 L84.0159714,18.6549279 C82.7703458,18.517502 82.2585397,19.1968388 82.0490776,19.7345416 C81.075949,19.3304502 80.0165695,19.8600294 80.0165695,19.8600294 L83.2247222,21.0247025 C83.062876,20.5924132 82.7811415,20.2152241 82.4125508,19.9373589 Z" id="Path" fill="#3F3D56"></path>
                <path d="M56.1117772,31.0847066 L57.7151978,29.8022757 C56.4695723,29.6648498 55.9577662,30.3441866 55.748304,30.8818893 C54.7751754,30.477798 53.7157959,31.0073771 53.7157959,31.0073771 L56.9239486,32.1720503 C56.7621024,31.7397609 56.480368,31.3625719 56.1117772,31.0847066 L56.1117772,31.0847066 Z" id="Path" fill="#3F3D56"></path>
            </g>
        </g>
    </g>
</svg>
