<svg width="20" height="21" viewBox="0 0 20 21" fill="none" xmlns="http://www.w3.org/2000/svg">
<path d="M0 9C0 7.33333 0.370833 5.80416 1.1125 4.4125C1.85417 3.02083 2.85 1.86666 4.1 0.949997L5.275 2.55C4.275 3.28333 3.47917 4.20833 2.8875 5.325C2.29583 6.44166 2 7.66666 2 9H0ZM18 9C18 7.66666 17.7042 6.44166 17.1125 5.325C16.5208 4.20833 15.725 3.28333 14.725 2.55L15.9 0.949997C17.15 1.86666 18.1458 3.02083 18.8875 4.4125C19.6292 5.80416 20 7.33333 20 9H18ZM2 18V16H4V9C4 7.61666 4.41667 6.3875 5.25 5.3125C6.08333 4.2375 7.16667 3.53333 8.5 3.2V2.5C8.5 2.08333 8.64583 1.72916 8.9375 1.4375C9.22917 1.14583 9.58333 0.999997 10 0.999997C10.4167 0.999997 10.7708 1.14583 11.0625 1.4375C11.3542 1.72916 11.5 2.08333 11.5 2.5V3.2C12.8333 3.53333 13.9167 4.2375 14.75 5.3125C15.5833 6.3875 16 7.61666 16 9V16H18V18H2ZM10 21C9.45 21 8.97917 20.8042 8.5875 20.4125C8.19583 20.0208 8 19.55 8 19H12C12 19.55 11.8042 20.0208 11.4125 20.4125C11.0208 20.8042 10.55 21 10 21ZM6 16H14V9C14 7.9 13.6083 6.95833 12.825 6.175C12.0417 5.39166 11.1 5 10 5C8.9 5 7.95833 5.39166 7.175 6.175C6.39167 6.95833 6 7.9 6 9V16Z" fill="black"/>
</svg>
