<svg width="30" height="31" viewBox="0 0 30 31" fill="none" xmlns="http://www.w3.org/2000/svg">
<path d="M4 25.5V22.5H7V12C7 11.175 7.10625 10.3625 7.31875 9.5625C7.53125 8.7625 7.85 8 8.275 7.275L10.525 9.525C10.35 9.925 10.2188 10.3313 10.1313 10.7438C10.0438 11.1562 10 11.575 10 12V22.5H19.3L0.1 3.3L2.2 1.2L29.8 28.8L27.7 30.9L22.225 25.5H4ZM25 19.725L22 16.725V12C22 10.35 21.4125 8.9375 20.2375 7.7625C19.0625 6.5875 17.65 6 16 6C15.35 6 14.725 6.1 14.125 6.3C13.525 6.5 12.975 6.8 12.475 7.2L10.3 5.025C10.8 4.625 11.3375 4.275 11.9125 3.975C12.4875 3.675 13.1 3.45 13.75 3.3V2.25C13.75 1.625 13.9688 1.09375 14.4063 0.65625C14.8438 0.21875 15.375 0 16 0C16.625 0 17.1563 0.21875 17.5938 0.65625C18.0313 1.09375 18.25 1.625 18.25 2.25V3.3C20.25 3.8 21.875 4.85625 23.125 6.46875C24.375 8.08125 25 9.925 25 12V19.725ZM16 30C15.175 30 14.4688 29.7063 13.8813 29.1188C13.2938 28.5313 13 27.825 13 27H19C19 27.825 18.7063 28.5313 18.1188 29.1188C17.5313 29.7063 16.825 30 16 30Z" fill="black"/>
</svg>
