<svg width="48" height="48" viewBox="0 0 48 48" fill="none" xmlns="http://www.w3.org/2000/svg">
<path d="M41.4 14C41 13.4 40.6 13 40 12.6L26 4.6C25.4 4.2 24.6 4 24 4C23.4 4 22.6 4.2 22 4.6L8 12.6C7.4 13 6.8 13.4 6.6 14C6.2 14.6 6 15.4 6 16V32C6 32.8 6.2 33.4 6.6 34C7 34.6 7.4 35 8 35.4L21.8 43.4V38.8L19.8 37.6L17.2 36L10 32V18.2L22 25.2L22.6 25.6C23.4 26 24.4 26 25.2 25.6L25.8 25.2L37.8 18.2V27.2H41.8V16C42 15.4 41.8 14.6 41.4 14ZM24 21.8L12.2 14.8L16.2 12.6L28 19.4L24 21.8ZM32 17L20 10.2L24 8L35.8 14.8L32 17Z" fill="#4D4D4D"/>
<path d="M26 44H42V42.8C42 41.2 41.2 40.2 39.8 39.2C38.4 38.4 36.4 38 34 38C31.6 38 29.6 38.4 28.2 39.4C26.8 40.2 26 41.4 26 43V44ZM34 36C35.2 36 36 35.6 36.8 34.8C37.6 34 38 33.2 38 32C38 30.8 37.6 30 36.8 29.2C36 28.4 35.2 28 34 28C33 28 32 28.4 31.2 29.2C30.4 30 30 31 30 32C30 33 30.4 34 31.2 34.8C32 35.6 33 36 34 36Z" fill="#4D4D4D"/>
</svg>
