<svg width="48" height="48" viewBox="0 0 48 48" fill="none" xmlns="http://www.w3.org/2000/svg">
<path d="M28 47L14 43V46H2V24H17.8L30.2 28.6C31.2 29 32.2 29.8 32.8 30.8C33.4 31.8 34 32.8 34 34H38C39.6 34 41 34.6 42.2 35.6C43.4 36.8 44 38.2 44 40V42L28 47ZM6 42H10V28H6V42ZM27.8 42.8L39.6 39C39.6 38.6 39.2 38.4 39 38.2C38.8 38 38.4 38 38 38H28.4C27.4 38 26.4 38 25.6 37.8C24.8 37.6 23.8 37.4 22.8 37L19.4 36L20.6 32.2L24.6 33.4C25.2 33.6 25.8 33.8 26.8 33.8C27.6 33.8 28.6 34 30 34C30 33.6 29.8 33.2 29.6 33C29.4 32.6 29.2 32.4 28.8 32.4L17.2 28H14V39L27.8 42.8Z" fill="#4d4d4d"/>
<path d="M41.4 14C41 13.4 40.6 13 40 12.6L26 4.6C25.4 4.2 24.6 4 24 4C23.4 4 22.6 4.2 22 4.6L8 12.6C7.4 13 6.8 13.4 6.6 14C6.2 14.6 6 15.4 6 16V20H10V18.2L13.2 20H18.8L19.4 20.2L28.6 23.6L38 18.2V30C39.4 30 40.8 30.2 42 30.8V16C42 15.4 41.8 14.6 41.4 14ZM24 21.8L12.2 14.8L16.2 12.6L28 19.4L24 21.8ZM32 17L20 10.2L24 8L35.8 14.8L32 17Z" fill="#4d4d4d"/>
</svg>
