<svg width="48" height="48" viewBox="0 0 48 48" fill="none" xmlns="http://www.w3.org/2000/svg">
<path d="M41.4 14C41 13.4 40.6 13 40 12.6L26 4.6C25.4 4.2 24.6 4 24 4C23.4 4 22.6 4.2 22 4.6L8 12.6C7.4 13 6.8 13.4 6.6 14C6.2 14.6 6 15.4 6 16V32C6 32.8 6.2 33.4 6.6 34C7 34.6 7.4 35 8 35.4L13 38.2V33.6L10 32V18.2L22 25.2L22.6 25.6C23.4 26 24.4 26 25.2 25.6L25.8 25.2L37.8 18.2V29.2H41.8V16C41.8 15.4 41.8 14.6 41.4 14ZM24 21.8L12.2 14.8L16.2 12.6L28 19.4L24 21.8ZM32 17L20 10.2L24 8L35.8 14.8L32 17Z" fill="#4D4D4D"/>
<path d="M16 44V41.8C16 40.4 16.8 39.2 18.4 38.2C20 37.4 22 36.8 24.6 36.8C27.2 36.8 29.2 37.2 30.8 38.2C32.4 39 33.2 40.2 33.2 41.8V44H16ZM35.4 44V41.8C35.4 41.2 35.4 40.6 35.2 40.2C35 39.6 34.8 39.2 34.4 38.8C34.6 38.8 35 38.8 35.2 38.8C35.4 38.8 35.8 38.8 36 38.8C37.8 38.8 39.2 39 40.2 39.6C41.2 40.2 42 41 42 42V44H35.4ZM24.6 39.6C23.2 39.6 22 39.8 21 40C20 40.4 19.2 40.8 19 41.2H30.2C30 40.8 29.4 40.4 28.2 40C27.2 39.8 26 39.6 24.6 39.6ZM36.2 37.4C35.4 37.4 34.8 37.2 34.2 36.6C33.6 36 33.4 35.4 33.4 34.8C33.4 34 33.6 33.4 34.2 32.8C34.8 32.2 35.4 32 36.2 32C37 32 37.8 32.2 38.2 32.8C38.6 33.4 39 34 39 34.8C39 35.6 38.8 36.2 38.2 36.6C37.8 37 37 37.4 36.2 37.4ZM24.6 36C23.4 36 22.4 35.6 21.6 34.8C20.8 34 20.4 33 20.4 32C20.4 30.8 20.8 30 21.6 29.2C22.4 28.4 23.4 28 24.6 28C25.8 28 26.8 28.4 27.6 29.2C28.4 30 28.8 31 28.8 32C28.8 33.2 28.4 34 27.6 34.8C26.8 35.6 25.8 36 24.6 36ZM24.6 30.6C24.2 30.6 23.8 30.8 23.6 31C23.4 31.2 23.2 31.6 23.2 32C23.2 32.4 23.4 32.6 23.6 33C23.8 33.2 24.2 33.4 24.6 33.4C25 33.4 25.4 33.2 25.6 33C25.8 32.8 26 32.4 26 32C26 31.6 25.8 31.4 25.6 31C25.4 30.8 25 30.6 24.6 30.6Z" fill="#4D4D4D"/>
</svg>
