<svg width="20" height="21" viewBox="0 0 20 21" fill="none" xmlns="http://www.w3.org/2000/svg">
<path d="M17.4 2.6C17 2.2 16.5 2 16 2H11.8C11.6 1.4 11.3 0.9 10.7 0.6C10.3 0.2 9.7 0 9 0C8.4 0 7.8 0.2 7.2 0.6C6.7 0.9 6.4 1.4 6.2 2H2C1.5 2 1 2.2 0.6 2.6C0.2 3 0 3.5 0 4V18C0 18.5 0.2 19 0.6 19.4C1 19.8 1.5 20 2 20H10.8C10 19.7 9.3 19.2 8.7 18.6C8.5 18.4 8.3 18.2 8.2 18H2V4H4V7H14V4H16V8.1C16.7 8.4 17.3 8.9 17.9 9.4L18 9.5V4C18 3.5 17.8 3 17.4 2.6ZM9.7 3.7C9.5 3.9 9.3 4 9 4C8.7 4 8.5 3.9 8.3 3.7C8.1 3.5 8 3.3 8 3C8 2.7 8.1 2.5 8.3 2.3C8.5 2.1 8.7 2 9 2C9.3 2 9.5 2.1 9.7 2.3C9.9 2.5 10 2.7 10 3C10 3.3 9.9 3.5 9.7 3.7Z" fill="black"/>
<path d="M1.79999 1.5V7.5V17.5V1.5ZM13.3 16.5C14 16.5 14.6 16.3 15.1 15.8C15.6 15.3 15.8 14.7 15.8 14C15.8 13.3 15.6 12.7 15.1 12.2C14.6 11.7 14 11.5 13.3 11.5C12.6 11.5 12 11.7 11.5 12.2C11 12.7 10.8 13.3 10.8 14C10.8 14.7 11 15.3 11.5 15.8C12 16.3 12.6 16.5 13.3 16.5ZM18.4 20.5L15.7 17.8C15.3 18 15 18.2 14.6 18.3C14.2 18.4 13.8 18.5 13.3 18.5C12.1 18.5 11 18.1 10.1 17.2C9.19999 16.3 8.79999 15.3 8.79999 14C8.79999 12.7 9.19999 11.7 10.1 10.8C11 9.9 12 9.5 13.3 9.5C14.6 9.5 15.6 9.9 16.5 10.8C17.4 11.7 17.8 12.7 17.8 14C17.8 14.4 17.7 14.9 17.6 15.3C17.5 15.7 17.3 16.1 17.1 16.4L19.8 19.1L18.4 20.5Z" fill="black"/>
</svg>
