<svg width="19" height="18" viewBox="0 0 19 18" fill="none" xmlns="http://www.w3.org/2000/svg">
<path d="M17.1 18L10.8 11.7C10.3 12.1 9.725 12.4167 9.075 12.65C8.425 12.8833 7.73333 13 7 13C5.18333 13 3.64583 12.3708 2.3875 11.1125C1.12917 9.85417 0.5 8.31667 0.5 6.5C0.5 4.68333 1.12917 3.14583 2.3875 1.8875C3.64583 0.629167 5.18333 0 7 0C8.81667 0 10.3542 0.629167 11.6125 1.8875C12.8708 3.14583 13.5 4.68333 13.5 6.5C13.5 7.23333 13.3833 7.925 13.15 8.575C12.9167 9.225 12.6 9.8 12.2 10.3L18.5 16.6L17.1 18ZM7 11C8.25 11 9.3125 10.5625 10.1875 9.6875C11.0625 8.8125 11.5 7.75 11.5 6.5C11.5 5.25 11.0625 4.1875 10.1875 3.3125C9.3125 2.4375 8.25 2 7 2C5.75 2 4.6875 2.4375 3.8125 3.3125C2.9375 4.1875 2.5 5.25 2.5 6.5C2.5 7.75 2.9375 8.8125 3.8125 9.6875C4.6875 10.5625 5.75 11 7 11Z" fill="black"/>
</svg>
