<?xml version="1.0" standalone="no"?>
<!DOCTYPE svg PUBLIC "-//W3C//DTD SVG 20010904//EN"
 "http://www.w3.org/TR/2001/REC-SVG-20010904/DTD/svg10.dtd">
<svg version="1.0" xmlns="http://www.w3.org/2000/svg"
 width="1674.000000pt" height="842.000000pt" viewBox="0 0 1674.000000 842.000000"
 preserveAspectRatio="xMidYMid meet">

<g transform="translate(0.000000,842.000000) scale(0.100000,-0.100000)"
fill="#000000" stroke="none">
<path d="M15486 8399 c10 -12 33 -28 51 -35 63 -27 146 -11 187 35 l19 21
-138 0 -138 0 19 -21z"/>
<path d="M346 7831 c-8 -12 21 -34 34 -26 8 5 8 11 -1 21 -13 16 -25 18 -33 5z"/>
<path d="M500 7826 c0 -2 11 -6 25 -8 13 -3 22 -1 19 3 -5 9 -44 13 -44 5z"/>
<path d="M582 7783 l1 -48 4 42 c3 29 9 43 21 46 12 3 11 5 -5 6 -21 1 -23 -3
-21 -46z"/>
<path d="M660 7823 c0 -6 8 -17 18 -24 16 -13 16 -13 2 6 -8 11 -16 22 -17 24
-2 2 -3 0 -3 -6z"/>
<path d="M863 7823 c9 -2 23 -2 30 0 6 3 -1 5 -18 5 -16 0 -22 -2 -12 -5z"/>
<path d="M920 7785 c0 -37 3 -45 18 -45 10 0 23 5 30 12 13 13 16 54 4 61 -4
3 -7 -9 -7 -26 0 -22 -5 -33 -17 -35 -14 -3 -18 4 -18 31 0 20 6 38 13 40 7 3
5 6 -5 6 -15 1 -18 -8 -18 -44z"/>
<path d="M1012 7818 c-7 -7 -11 -23 -11 -37 1 -24 2 -24 8 4 5 22 12 30 28 29
12 0 20 3 17 8 -7 12 -28 10 -42 -4z"/>
<path d="M627 7801 c-4 -17 -3 -21 5 -13 5 5 8 16 6 23 -3 8 -7 3 -11 -10z"/>
<path d="M282 7767 c-23 -23 -42 -48 -42 -55 0 -25 37 -10 78 31 33 33 39 46
30 55 -17 17 -20 16 -66 -31z"/>
<path d="M1174 7785 c-10 -24 4 -45 28 -44 l23 2 -24 4 c-18 4 -22 10 -18 29
5 27 -1 32 -9 9z"/>
<path d="M1450 7776 c0 -14 4 -27 8 -30 5 -3 6 8 4 25 -5 35 -12 38 -12 5z"/>
<path d="M1520 7770 c0 -16 2 -30 4 -30 2 0 6 14 8 30 3 17 1 30 -4 30 -4 0
-8 -13 -8 -30z"/>
<path d="M1596 7785 c-3 -8 -1 -15 4 -15 6 0 10 7 10 15 0 8 -2 15 -4 15 -2 0
-6 -7 -10 -15z"/>
<path d="M1772 7770 c0 -19 2 -27 5 -17 2 9 2 25 0 35 -3 9 -5 1 -5 -18z"/>
<path d="M1812 7770 c0 -19 2 -27 5 -17 2 9 2 25 0 35 -3 9 -5 1 -5 -18z"/>
<path d="M508 7783 c6 -2 18 -2 25 0 6 3 1 5 -13 5 -14 0 -19 -2 -12 -5z"/>
<path d="M858 7783 c6 -2 18 -2 25 0 6 3 1 5 -13 5 -14 0 -19 -2 -12 -5z"/>
<path d="M701 7763 c7 -12 15 -20 18 -17 3 2 -3 12 -13 22 -17 16 -18 16 -5
-5z"/>
<path d="M1386 7753 c-6 -14 -5 -15 5 -6 7 7 10 15 7 18 -3 3 -9 -2 -12 -12z"/>
<path d="M1560 7761 c0 -6 4 -13 10 -16 6 -3 7 1 4 9 -7 18 -14 21 -14 7z"/>
<path d="M863 7743 c9 -2 23 -2 30 0 6 3 -1 5 -18 5 -16 0 -22 -2 -12 -5z"/>
<path d="M1028 7743 c7 -3 16 -2 19 1 4 3 -2 6 -13 5 -11 0 -14 -3 -6 -6z"/>
<path d="M3483 7563 c-4 -10 -11 -22 -17 -26 -8 -6 -7 -10 2 -14 6 -2 12 -20
12 -39 0 -19 5 -34 10 -34 6 0 10 16 10 35 0 24 5 35 15 35 10 0 15 -11 15
-35 0 -19 5 -35 10 -35 6 0 10 20 10 45 0 41 -2 45 -25 45 -14 0 -25 5 -25 10
0 6 5 10 10 10 6 0 10 5 10 10 0 17 -30 11 -37 -7z"/>
<path d="M2722 7511 c-17 -50 -18 -61 -6 -61 8 0 14 7 14 15 0 21 40 19 56 -2
23 -32 26 -5 6 49 -27 74 -45 73 -70 -1z m48 2 c0 -7 -7 -13 -16 -13 -11 0
-14 5 -10 16 3 9 6 21 6 27 0 16 20 -14 20 -30z"/>
<path d="M3187 7552 c-37 -40 -10 -106 41 -100 35 4 39 24 5 23 -25 0 -28 3
-28 35 0 32 3 35 28 35 33 -1 30 19 -4 23 -15 2 -32 -5 -42 -16z"/>
<path d="M3530 7560 c0 -5 5 -10 10 -10 6 0 10 5 10 10 0 6 -4 10 -10 10 -5 0
-10 -4 -10 -10z"/>
<path d="M3980 7560 c0 -5 5 -10 10 -10 6 0 10 5 10 10 0 6 -4 10 -10 10 -5 0
-10 -4 -10 -10z"/>
<path d="M3067 7547 c-10 -26 8 -92 26 -95 9 -2 17 1 17 7 0 6 -4 11 -10 11
-14 0 -12 48 2 52 9 3 8 9 -4 21 -20 20 -24 21 -31 4z"/>
<path d="M3917 7547 c-10 -26 8 -92 26 -95 9 -2 17 1 17 7 0 6 -4 11 -10 11
-5 0 -10 11 -10 25 0 18 5 25 20 25 16 0 20 -7 20 -35 0 -19 5 -35 10 -35 6 0
10 20 10 45 0 43 -1 45 -30 45 -16 0 -30 5 -30 10 0 14 -17 12 -23 -3z"/>
<path d="M2823 7524 c-4 -11 2 -23 18 -36 l24 -20 -23 5 c-15 4 -22 1 -19 -6
2 -7 13 -13 25 -15 34 -5 40 26 11 50 l-24 20 23 -5 c15 -4 22 -1 19 6 -6 20
-46 20 -54 1z"/>
<path d="M2903 7524 c-4 -10 0 -22 10 -29 21 -15 22 -25 2 -25 -8 0 -15 -4
-15 -10 0 -16 36 -12 51 6 11 14 9 19 -11 36 -18 14 -20 18 -7 14 12 -4 17 -2
15 6 -7 20 -37 21 -45 2z"/>
<path d="M2982 7528 c-17 -17 -15 -53 3 -68 8 -7 25 -10 40 -6 32 8 33 25 1
19 -13 -3 -27 0 -30 6 -5 7 4 11 23 11 19 0 31 5 31 13 0 18 -21 37 -40 37 -9
0 -21 -5 -28 -12z m45 -14 c-3 -3 -12 -4 -19 -1 -8 3 -5 6 6 6 11 1 17 -2 13
-5z"/>
<path d="M3282 7528 c-17 -17 -15 -53 3 -68 8 -7 25 -10 40 -6 20 5 25 12 25
40 0 43 -39 63 -68 34z m48 -33 c0 -25 -23 -35 -35 -15 -10 16 2 40 20 40 9 0
15 -9 15 -25z"/>
<path d="M3370 7494 c0 -51 17 -60 22 -11 2 20 8 32 18 32 10 0 16 -12 18 -32
5 -49 24 -40 20 10 -3 41 -4 42 -40 44 l-38 1 0 -44z"/>
<path d="M3582 7528 c-5 -7 -9 -33 -8 -58 1 -41 4 -45 27 -48 27 -3 55 20 44
38 -3 5 -18 10 -33 11 -26 0 -26 1 -5 9 19 8 43 38 43 54 0 12 -58 6 -68 -6z
m38 -18 c0 -5 -7 -10 -15 -10 -8 0 -15 5 -15 10 0 6 7 10 15 10 8 0 15 -4 15
-10z m-3 -66 c-3 -3 -12 -4 -19 -1 -8 3 -5 6 6 6 11 1 17 -2 13 -5z"/>
<path d="M3660 7521 c0 -11 4 -31 10 -45 7 -19 16 -24 40 -24 29 1 30 3 30 45
0 50 -17 59 -22 11 -4 -46 -28 -49 -28 -4 0 25 -4 36 -15 36 -8 0 -15 -9 -15
-19z"/>
<path d="M3770 7493 c0 -24 5 -43 10 -43 6 0 10 16 10 35 0 24 5 35 15 35 8 0
15 4 15 10 0 5 -11 9 -25 8 -22 -2 -25 -7 -25 -45z"/>
<path d="M3830 7530 c0 -5 10 -10 23 -11 l22 0 -21 -9 c-48 -19 -36 -59 17
-58 26 1 29 5 29 33 0 17 -5 36 -12 43 -15 15 -58 16 -58 2z m45 -50 c-3 -5
-10 -10 -16 -10 -5 0 -9 5 -9 10 0 6 7 10 16 10 8 0 12 -4 9 -10z"/>
<path d="M4029 7519 c-16 -30 3 -69 34 -69 29 0 47 17 47 45 0 45 -60 63 -81
24z m59 -22 c4 -21 -27 -35 -38 -17 -12 19 0 42 19 38 9 -2 17 -11 19 -21z"/>
<path d="M4130 7493 c0 -50 17 -59 22 -11 4 46 28 49 28 4 0 -25 4 -36 15 -36
9 0 15 10 15 26 0 42 -17 63 -50 62 -29 -1 -30 -3 -30 -45z"/>
<path d="M290 7445 c-13 -14 -18 -25 -12 -25 7 0 12 -11 12 -25 0 -20 5 -25
25 -25 20 0 25 5 25 24 0 13 5 26 11 28 5 2 -1 13 -14 26 l-23 22 -24 -25z"/>
<path d="M508 7453 c7 -3 16 -2 19 1 4 3 -2 6 -13 5 -11 0 -14 -3 -6 -6z"/>
<path d="M545 7417 c0 -24 -5 -32 -25 -38 -21 -6 -22 -7 -4 -8 11 -1 25 4 32
11 13 13 16 54 4 61 -4 3 -7 -9 -7 -26z"/>
<path d="M15037 7430 c-3 -13 -14 -20 -30 -20 -51 0 -79 -29 -42 -44 19 -7 19
-30 -1 -50 -14 -14 -14 -18 0 -31 8 -8 27 -15 41 -15 18 0 29 -6 32 -20 8 -29
59 -28 66 1 5 18 11 20 32 15 22 -6 28 -3 32 14 3 11 10 20 15 20 5 0 2 7 -6
16 -21 20 -20 41 2 53 9 6 12 11 6 11 -7 0 -14 9 -17 20 -4 17 -10 20 -32 14
-21 -5 -27 -3 -32 15 -7 29 -58 30 -66 1z m67 -66 c3 -8 3 -27 0 -40 -5 -21
-12 -25 -38 -22 -24 2 -32 8 -34 26 -2 13 -1 30 2 38 7 19 62 18 70 -2z"/>
<path d="M716 7415 c-3 -8 -1 -15 4 -15 6 0 10 7 10 15 0 8 -2 15 -4 15 -2 0
-6 -7 -10 -15z"/>
<path d="M817 7409 c4 -13 8 -18 11 -10 2 7 -1 18 -6 23 -8 8 -9 4 -5 -13z"/>
<path d="M1022 7400 c0 -19 2 -27 5 -17 2 9 2 25 0 35 -3 9 -5 1 -5 -18z"/>
<path d="M1112 7400 c0 -19 2 -27 5 -17 2 9 2 25 0 35 -3 9 -5 1 -5 -18z"/>
<path d="M1177 7407 c4 -20 0 -26 -16 -30 -20 -4 -20 -5 1 -3 24 1 37 31 20
48 -6 6 -8 1 -5 -15z"/>
<path d="M1212 7400 c0 -19 2 -27 5 -17 2 9 2 25 0 35 -3 9 -5 1 -5 -18z"/>
<path d="M1252 7400 c0 -19 2 -27 5 -17 2 9 2 25 0 35 -3 9 -5 1 -5 -18z"/>
<path d="M680 7391 c0 -6 4 -13 10 -16 6 -3 7 1 4 9 -7 18 -14 21 -14 7z"/>
<path d="M1376 7383 c-6 -14 -5 -15 5 -6 7 7 10 15 7 18 -3 3 -9 -2 -12 -12z"/>
<path d="M4970 7345 c0 -30 5 -55 10 -55 6 0 10 12 10 26 0 32 22 27 31 -7 6
-21 7 -20 8 9 1 26 -4 35 -19 39 -11 3 -20 14 -20 24 0 11 -4 19 -10 19 -5 0
-10 -25 -10 -55z"/>
<path d="M5098 7377 c-9 -13 -13 -35 -10 -55 5 -37 22 -43 22 -8 0 13 6 27 13
29 9 4 8 8 -3 17 -11 9 -12 13 -2 17 6 2 12 9 12 14 0 17 -17 9 -32 -14z"/>
<path d="M5670 7381 c0 -10 -9 -21 -21 -24 -16 -4 -20 -12 -17 -34 2 -23 8
-28 31 -29 26 -1 27 1 27 52 0 30 -4 54 -10 54 -5 0 -10 -8 -10 -19z m0 -56
c0 -8 -4 -15 -9 -15 -13 0 -22 16 -14 24 11 11 23 6 23 -9z"/>
<path d="M6030 7345 c0 -30 5 -55 10 -55 6 0 10 25 10 55 0 30 -4 55 -10 55
-5 0 -10 -25 -10 -55z"/>
<path d="M6160 7347 c0 -48 2 -53 24 -55 47 -4 61 53 16 65 -11 3 -20 14 -20
24 0 11 -4 19 -10 19 -5 0 -10 -24 -10 -53z m42 -22 c0 -5 -5 -11 -11 -13 -6
-2 -11 4 -11 13 0 9 5 15 11 13 6 -2 11 -8 11 -13z"/>
<path d="M6320 7345 c0 -30 5 -55 10 -55 6 0 10 25 10 55 0 30 -4 55 -10 55
-5 0 -10 -25 -10 -55z"/>
<path d="M6810 7381 c0 -13 -8 -21 -22 -23 -18 -2 -23 -10 -23 -33 0 -27 3
-30 33 -32 l32 -1 0 54 c0 30 -4 54 -10 54 -5 0 -10 -9 -10 -19z m0 -56 c0 -8
-7 -15 -15 -15 -8 0 -15 7 -15 15 0 8 7 15 15 15 8 0 15 -7 15 -15z"/>
<path d="M4617 7383 c-14 -13 -6 -42 13 -48 11 -3 20 -11 20 -16 0 -5 -9 -9
-20 -9 -11 0 -20 -4 -20 -10 0 -11 20 -13 44 -4 23 9 20 41 -4 49 -23 7 -27
25 -5 25 8 0 15 5 15 10 0 11 -33 14 -43 3z"/>
<path d="M5326 7343 c-9 -25 -13 -49 -10 -52 4 -3 9 0 11 7 3 6 15 12 28 12
13 0 25 -6 28 -12 2 -7 7 -10 11 -7 10 9 -27 99 -40 99 -7 0 -19 -21 -28 -47z
m32 -12 c-15 -5 -19 4 -11 24 6 18 7 18 13 -1 4 -10 3 -21 -2 -23z"/>
<path d="M5430 7365 c-5 -14 -13 -37 -16 -51 -6 -24 -5 -25 15 -12 17 10 25
10 41 0 30 -18 31 -16 12 35 -20 55 -38 65 -52 28z m30 -20 c0 -8 -4 -15 -10
-15 -5 0 -10 7 -10 15 0 8 5 15 10 15 6 0 10 -7 10 -15z"/>
<path d="M5517 7383 c-14 -13 -6 -42 13 -48 11 -3 20 -11 20 -16 0 -5 -9 -9
-20 -9 -11 0 -20 -4 -20 -10 0 -11 20 -13 44 -4 23 9 20 41 -4 49 -23 7 -27
25 -5 25 8 0 15 5 15 10 0 11 -33 14 -43 3z"/>
<path d="M5590 7340 c0 -27 5 -50 10 -50 6 0 10 23 10 50 0 28 -4 50 -10 50
-5 0 -10 -22 -10 -50z"/>
<path d="M5942 7378 c-16 -16 -15 -63 2 -78 26 -20 61 -8 64 23 3 22 -1 27
-17 27 -23 0 -29 -16 -8 -23 6 -2 9 -8 5 -12 -14 -15 -39 5 -36 27 2 18 9 23
31 23 15 -1 26 4 24 10 -5 15 -50 18 -65 3z"/>
<path d="M6386 7381 c-15 -24 -34 -91 -26 -91 5 0 12 5 15 10 9 14 42 12 48
-2 2 -7 8 -10 12 -6 9 9 -18 91 -32 95 -6 2 -14 0 -17 -6z m24 -43 c0 -5 -6
-8 -14 -8 -9 0 -12 7 -9 21 4 16 8 17 14 7 5 -7 9 -16 9 -20z"/>
<path d="M6720 7340 c0 -27 5 -50 10 -50 6 0 10 23 10 50 0 28 -4 50 -10 50
-5 0 -10 -22 -10 -50z"/>
<path d="M6667 7366 c-7 -19 6 -69 19 -73 9 -3 11 35 5 80 -2 12 -19 8 -24 -7z"/>
<path d="M4689 7344 c-16 -20 -1 -48 30 -52 28 -4 27 15 -1 21 -20 4 -19 4 5
6 29 1 34 10 15 29 -16 16 -33 15 -49 -4z m38 -10 c-3 -3 -12 -4 -19 -1 -8 3
-5 6 6 6 11 1 17 -2 13 -5z"/>
<path d="M4770 7351 c0 -6 8 -11 18 -12 12 0 11 -3 -6 -10 -30 -12 -23 -33 12
-37 26 -3 27 -1 24 30 -2 25 -8 34 -25 36 -13 2 -23 -1 -23 -7z"/>
<path d="M4851 7320 c1 -24 3 -28 6 -12 3 13 11 26 19 29 21 8 17 22 -6 20
-16 -1 -20 -8 -19 -37z"/>
<path d="M4904 7346 c-10 -25 0 -51 20 -51 11 0 21 5 23 11 2 7 -2 11 -9 10
-7 0 -13 4 -13 9 0 6 6 9 13 9 19 -3 8 20 -11 24 -10 2 -20 -3 -23 -12z"/>
<path d="M5140 7340 c-9 -16 -8 -25 1 -36 26 -32 84 0 62 34 -16 26 -50 27
-63 2z m50 -9 c0 -14 -18 -23 -30 -16 -6 4 -8 11 -5 16 8 12 35 12 35 0z"/>
<path d="M5220 7324 c0 -19 5 -34 10 -34 6 0 10 11 10 25 0 16 6 25 15 25 8 0
15 4 15 9 0 5 -11 9 -25 9 -22 0 -25 -5 -25 -34z"/>
<path d="M5754 7346 c-9 -24 0 -51 19 -54 23 -5 47 15 47 38 0 29 -56 42 -66
16z m46 -21 c0 -8 -6 -15 -14 -15 -17 0 -28 14 -19 24 12 12 33 6 33 -9z"/>
<path d="M5840 7323 c0 -18 5 -33 10 -33 6 0 10 11 10 25 0 14 5 25 10 25 6 0
10 4 10 9 0 6 -9 9 -20 8 -16 -1 -20 -8 -20 -34z"/>
<path d="M6074 7346 c-9 -24 0 -51 19 -54 23 -5 47 15 47 38 0 29 -56 42 -66
16z m46 -21 c0 -8 -6 -15 -14 -15 -17 0 -28 14 -19 24 12 12 33 6 33 -9z"/>
<path d="M6245 7351 c-3 -7 3 -11 17 -12 l23 0 -23 -10 c-30 -12 -23 -33 12
-37 26 -3 27 -1 24 30 -2 25 -8 34 -25 36 -11 2 -24 -2 -28 -7z"/>
<path d="M6460 7340 c0 -11 5 -20 10 -20 6 0 10 -4 10 -10 0 -5 -7 -6 -17 -3
-11 4 -14 3 -9 -5 12 -20 46 -14 46 8 0 11 -4 20 -10 20 -5 0 -10 5 -10 11 0
5 5 7 10 4 6 -3 10 -1 10 4 0 6 -9 11 -20 11 -13 0 -20 -7 -20 -20z"/>
<path d="M6524 7348 c-4 -6 0 -16 9 -23 21 -15 22 -29 2 -21 -8 3 -15 1 -15
-4 0 -14 37 -12 46 2 4 6 0 16 -9 23 -22 16 -22 26 0 18 11 -4 14 -3 9 5 -9
15 -33 15 -42 0z"/>
<path d="M6589 7344 c-16 -20 -1 -48 30 -52 28 -4 27 15 -1 21 -20 4 -19 4 5
6 29 1 34 10 15 29 -16 16 -33 15 -49 -4z m38 -10 c-3 -3 -12 -4 -19 -1 -8 3
-5 6 6 6 11 1 17 -2 13 -5z"/>
<path d="M12908 7353 c6 -2 18 -2 25 0 6 3 1 5 -13 5 -14 0 -19 -2 -12 -5z"/>
<path d="M288 7343 c18 -2 45 -2 60 0 15 2 0 4 -33 4 -33 0 -45 -2 -27 -4z"/>
<path d="M12886 7324 c-9 -25 12 -56 37 -52 12 2 30 -6 40 -17 18 -19 18 -19
0 13 -10 18 -19 28 -21 22 -5 -15 -39 -12 -46 5 -3 8 -3 22 0 30 4 8 4 15 1
15 -3 0 -8 -7 -11 -16z"/>
<path d="M13193 7317 c16 -25 16 -29 2 -43 -23 -23 -18 -30 6 -8 20 18 21 18
35 -1 8 -10 14 -14 14 -9 0 6 -5 15 -11 21 -8 8 -8 17 0 31 16 29 14 39 -3 17
-14 -19 -15 -19 -37 0 l-23 20 17 -28z"/>
<path d="M15005 7198 c-5 -13 -25 -1610 -25 -1969 l0 -199 -2620 0 -2620 0 0
-1925 0 -1925 2960 0 2960 0 0 1925 0 1925 -316 0 -316 0 9 838 c12 1261 12
1336 -10 1340 -9 2 -19 -2 -22 -10z m30 -2348 c3 -11 10 -20 15 -20 5 0 12 9
15 20 3 11 15 20 26 20 23 0 23 -1 3 -44 -16 -33 -16 -36 4 -70 l21 -36 -24 0
c-15 0 -26 7 -30 20 -3 11 -9 20 -13 20 -4 0 -13 -9 -20 -20 -7 -11 -21 -20
-33 -20 -21 0 -21 0 2 36 21 34 21 37 5 70 -20 43 -20 44 3 44 11 0 23 -9 26
-20z m-4225 -177 c0 -9 -8 -11 -25 -7 -15 4 -25 2 -25 -5 0 -6 11 -11 25 -11
23 0 25 -4 25 -40 0 -29 -4 -40 -15 -40 -10 0 -15 10 -15 30 0 17 -4 30 -10
30 -5 0 -10 -13 -10 -30 0 -45 -27 -39 -32 8 -8 60 5 82 47 80 22 -1 35 -6 35
-15z m452 2 c0 -5 -5 -11 -11 -13 -6 -2 -11 4 -11 13 0 9 5 15 11 13 6 -2 11
-8 11 -13z m-1152 -10 c0 -8 8 -15 19 -15 11 0 21 -9 25 -22 l7 -23 9 23 c9
22 30 31 30 13 0 -5 -9 -30 -20 -55 -19 -45 -43 -66 -58 -51 -4 4 -1 10 6 12
29 11 -9 113 -43 113 -22 0 -18 -12 12 -36 24 -19 26 -24 14 -38 -17 -20 -71
-22 -71 -2 0 9 7 12 20 9 11 -3 20 0 20 5 0 6 -9 16 -20 22 -19 10 -27 40 -13
53 13 14 63 7 63 -8z m410 0 c0 -11 -7 -14 -24 -9 -32 8 -52 -24 -32 -51 16
-22 52 -13 59 15 6 25 29 34 62 26 20 -5 25 -13 25 -36 0 -24 -5 -31 -27 -36
-14 -4 -34 -2 -44 4 -12 8 -20 8 -24 2 -12 -19 -63 -11 -79 12 -21 30 -20 44
4 68 24 24 80 27 80 5z m698 -12 c12 -12 13 -18 4 -21 -14 -4 -16 -42 -2 -42
6 0 10 -5 10 -11 0 -6 -10 -9 -22 -7 -16 2 -24 12 -29 37 -12 57 6 77 39 44z
m-930 -45 c2 -29 0 -38 -12 -38 -11 0 -16 9 -16 30 0 17 -4 30 -10 30 -5 0
-10 -13 -10 -30 0 -20 -5 -30 -15 -30 -11 0 -15 11 -15 41 l0 40 38 -3 c35 -3
37 -5 40 -40z m82 28 c0 -8 -8 -13 -17 -12 -10 0 -18 -6 -18 -14 0 -8 8 -14
18 -14 9 1 17 -4 17 -12 0 -19 -44 -18 -60 1 -20 24 3 65 35 65 15 0 25 -6 25
-14z m334 -2 c11 -29 7 -64 -9 -64 -10 0 -15 10 -15 30 0 17 -4 30 -10 30 -5
0 -10 -13 -10 -30 0 -20 -5 -30 -15 -30 -11 0 -15 11 -15 40 0 39 1 40 34 40
22 0 36 -6 40 -16z m206 -32 c0 -26 -5 -53 -12 -60 -18 -18 -68 -15 -68 4 0 8
5 12 10 9 6 -4 19 -4 28 0 14 7 13 9 -8 14 -16 4 -26 15 -28 30 -6 38 5 51 43
51 l35 0 0 -48z m50 18 c0 -16 5 -30 10 -30 6 0 10 14 10 30 0 20 5 30 15 30
11 0 15 -11 15 -40 0 -39 0 -39 -37 -37 -36 2 -38 4 -41 40 -2 28 0 37 12 37
11 0 16 -9 16 -30z m120 21 c0 -5 -7 -11 -15 -15 -8 -3 -15 -17 -15 -31 0 -16
-6 -25 -15 -25 -11 0 -15 11 -15 40 0 38 2 40 30 40 17 0 30 -4 30 -9z m78
-34 l3 -38 -38 3 c-30 2 -38 7 -38 23 0 12 9 22 25 26 24 7 24 7 3 8 -13 1
-23 6 -23 12 0 6 14 9 33 7 29 -3 32 -6 35 -41z m112 3 c0 -29 -4 -40 -15 -40
-11 0 -15 11 -15 40 0 29 4 40 15 40 11 0 15 -11 15 -40z m94 18 c14 -23 -3
-52 -33 -56 -42 -6 -67 38 -39 66 17 17 58 11 72 -10z m94 -20 c2 -29 0 -38
-12 -38 -11 0 -16 9 -16 30 0 17 -4 30 -10 30 -5 0 -10 -13 -10 -30 0 -20 -5
-30 -15 -30 -11 0 -15 11 -15 40 0 39 0 39 38 37 35 -2 37 -4 40 -39z m2172
-603 l0 -185 -985 0 -985 0 0 185 0 185 985 0 985 0 0 -185z m-2510 60 c0 -8
-4 -15 -9 -15 -13 0 -22 16 -14 24 11 11 23 6 23 -9z m-900 -10 c0 -11 -7 -14
-24 -9 -18 4 -27 1 -34 -13 -16 -29 4 -56 35 -48 18 4 24 2 21 -7 -3 -7 -18
-14 -35 -16 -23 -2 -35 3 -47 20 -21 30 -20 44 4 68 24 24 80 27 80 5z m380 5
c0 -5 -9 -10 -20 -10 -11 0 -20 -4 -20 -10 0 -5 9 -10 20 -10 11 0 20 -4 20
-10 0 -5 -9 -10 -20 -10 -11 0 -20 -7 -20 -15 0 -8 6 -15 14 -15 8 0 21 -3 29
-6 19 -7 30 22 17 47 -12 22 8 27 28 7 9 -9 12 -9 12 0 0 9 19 12 63 10 56 -3
62 -5 65 -26 4 -28 -14 -52 -39 -52 -12 0 -19 -7 -19 -20 0 -11 -7 -20 -15
-20 -8 0 -15 9 -15 20 0 13 -7 20 -20 20 -11 0 -20 5 -20 12 0 9 -3 9 -12 0
-7 -7 -36 -12 -65 -12 l-53 0 0 55 0 55 35 0 c19 0 35 -4 35 -10z m-320 -30
c0 -5 -4 -10 -10 -10 -5 0 -10 -13 -10 -30 0 -20 -5 -30 -15 -30 -11 0 -15 11
-15 40 0 36 3 40 25 40 14 0 25 -4 25 -10z m90 -10 c21 -40 -17 -72 -64 -54
-19 7 -22 60 -3 67 28 12 57 6 67 -13z m98 -22 c2 -29 0 -38 -12 -38 -11 0
-16 9 -16 30 0 17 -4 30 -10 30 -5 0 -10 -13 -10 -30 0 -20 -5 -30 -15 -30
-11 0 -15 11 -15 41 l0 40 38 -3 c35 -3 37 -5 40 -40z m392 33 c0 -5 -7 -11
-15 -15 -8 -3 -15 -17 -15 -31 0 -16 -6 -25 -15 -25 -11 0 -15 11 -15 40 0 38
2 40 30 40 17 0 30 -4 30 -9z m78 -18 c3 -19 -2 -23 -25 -24 l-28 -2 28 -4
c35 -6 35 -23 -1 -23 -31 0 -52 16 -52 40 0 43 72 55 78 13z m72 17 c0 -5 -8
-10 -17 -10 -15 0 -15 -1 2 -14 25 -18 13 -46 -20 -46 -14 0 -25 5 -25 10 0 6
8 10 17 10 15 0 15 1 -2 14 -25 18 -13 46 20 46 14 0 25 -4 25 -10z m70 0 c0
-5 -8 -10 -17 -10 -15 0 -15 -1 2 -14 25 -18 13 -46 -20 -46 -14 0 -25 5 -25
10 0 6 8 10 17 10 15 0 15 1 -2 14 -25 18 -13 46 20 46 14 0 25 -4 25 -10z
m40 -30 c0 -29 -4 -40 -15 -40 -11 0 -15 11 -15 40 0 29 4 40 15 40 11 0 15
-11 15 -40z m84 34 c9 -4 16 -18 16 -34 0 -42 -60 -57 -80 -20 -21 40 17 72
64 54z m110 -10 c11 -29 7 -64 -9 -64 -10 0 -15 10 -15 30 0 17 -4 30 -10 30
-5 0 -10 -13 -10 -30 0 -20 -5 -30 -15 -30 -11 0 -15 11 -15 40 0 39 1 40 34
40 22 0 36 -6 40 -16z m786 -704 l0 -160 -240 0 -240 0 0 160 0 160 240 0 240
0 0 -160z m-1560 40 c0 -13 7 -20 19 -20 21 0 31 -19 31 -56 0 -15 -6 -24 -15
-24 -10 0 -15 10 -15 30 0 17 -4 30 -10 30 -5 0 -10 -13 -10 -30 0 -20 -5 -30
-15 -30 -12 0 -15 13 -15 60 0 47 3 60 15 60 8 0 15 -9 15 -20z m225 11 c7
-12 -12 -24 -25 -16 -11 7 -4 25 10 25 5 0 11 -4 15 -9z m-509 -26 c1 -11 5
-28 9 -38 11 -26 -12 -47 -51 -47 l-34 0 0 56 0 55 38 -3 c29 -2 37 -7 38 -23z
m464 11 c0 -9 -9 -12 -27 -9 l-28 4 28 -24 c39 -33 33 -62 -12 -62 -19 0 -36
6 -39 13 -3 9 3 11 22 6 17 -4 26 -2 26 6 0 6 -9 14 -19 17 -25 6 -35 31 -20
49 15 18 69 18 69 0z m-312 -13 c12 -12 13 -18 4 -21 -14 -4 -16 -42 -2 -42 6
0 10 -5 10 -11 0 -6 -10 -9 -22 -7 -16 2 -24 12 -29 38 -5 20 -3 40 3 47 13
17 16 16 36 -4z m-60 -45 c3 -37 3 -38 -32 -38 -30 0 -36 4 -36 20 0 12 10 24
23 30 l22 9 -22 0 c-13 1 -23 6 -23 12 0 6 14 9 33 7 29 -3 32 -6 35 -40z
m142 28 c0 -8 -8 -13 -17 -12 -10 0 -18 -6 -18 -14 0 -8 8 -14 18 -14 9 1 17
-4 17 -12 0 -8 -10 -14 -25 -14 -31 0 -50 32 -35 60 12 23 60 28 60 6z m280
-18 c0 -31 0 -31 21 -12 18 16 19 19 5 22 -30 6 -16 22 19 22 41 0 43 -5 13
-37 l-21 -23 21 0 c12 0 22 -4 22 -10 0 -5 -25 -10 -55 -10 l-55 0 0 40 c0 29
4 40 15 40 10 0 15 -10 15 -32z m158 5 c3 -19 -2 -23 -25 -24 l-28 -2 28 -4
c36 -6 35 -23 -3 -23 -37 0 -56 30 -40 61 16 28 64 23 68 -8z m1312 -453 l0
-180 -325 0 -325 0 0 180 0 180 325 0 325 0 0 -180z m-1890 35 c0 -8 -7 -15
-15 -15 -8 0 -15 7 -15 15 0 8 7 15 15 15 8 0 15 -7 15 -15z m-40 -5 c0 -5 -7
-10 -15 -10 -11 0 -15 -12 -15 -45 0 -33 -4 -45 -15 -45 -11 0 -15 12 -15 45
0 33 -4 45 -15 45 -8 0 -15 5 -15 10 0 6 20 10 45 10 25 0 45 -4 45 -10z m528
-17 c12 -12 13 -18 4 -21 -14 -4 -16 -42 -2 -42 6 0 10 -5 10 -11 0 -6 -10 -9
-22 -7 -16 2 -24 12 -29 38 -5 20 -3 40 3 47 13 17 16 16 36 -4z m-488 -43 c0
-29 -4 -40 -15 -40 -11 0 -15 11 -15 40 0 29 4 40 15 40 11 0 15 -11 15 -40z
m142 26 c14 -21 9 -66 -7 -66 -10 0 -15 10 -15 30 0 17 -4 30 -10 30 -5 0 -10
-13 -10 -30 0 -20 -5 -30 -15 -30 -10 0 -15 10 -15 30 0 17 -4 30 -10 30 -5 0
-10 -13 -10 -30 0 -20 -5 -30 -15 -30 -11 0 -15 11 -15 40 l0 40 58 -1 c31 -1
60 -7 64 -13z m86 2 c20 -20 13 -38 -15 -39 -24 -2 -25 -2 -5 -6 12 -2 22 -9
22 -14 0 -13 -44 -11 -58 3 -24 24 -7 68 28 68 9 0 21 -5 28 -12z m102 -8 c21
-40 -17 -72 -64 -54 -19 7 -22 60 -3 67 28 12 57 6 67 -13z m50 -10 c0 -16 5
-30 10 -30 6 0 10 14 10 30 0 20 5 30 15 30 11 0 15 -11 15 -40 0 -39 0 -39
-37 -37 -36 2 -38 4 -41 40 -2 28 0 37 12 37 11 0 16 -9 16 -30z m1570 -425
l0 -165 -375 0 -375 0 0 165 0 165 375 0 375 0 0 -165z m-1860 66 c0 -13 8
-21 23 -23 18 -2 22 -9 22 -38 0 -33 -2 -35 -37 -38 l-38 -3 0 60 c0 48 3 61
15 61 8 0 15 -9 15 -19z m190 4 c0 -8 -7 -15 -15 -15 -8 0 -15 7 -15 15 0 8 7
15 15 15 8 0 15 -7 15 -15z m-340 -38 c0 -24 -5 -48 -12 -55 -17 -17 -48 -15
-48 3 0 9 6 12 15 9 12 -5 15 3 15 40 0 34 4 46 15 46 11 0 15 -11 15 -43z
m300 33 c0 -5 -7 -10 -15 -10 -11 0 -15 -12 -15 -45 0 -33 -4 -45 -15 -45 -11
0 -15 12 -15 45 0 33 -4 45 -15 45 -8 0 -15 5 -15 10 0 6 20 10 45 10 25 0 45
-4 45 -10z m528 -17 c12 -12 13 -18 4 -21 -14 -4 -16 -42 -2 -42 6 0 10 -5 10
-11 0 -6 -10 -9 -22 -7 -16 2 -24 12 -29 37 -12 57 6 77 39 44z m-728 -23 c17
-33 -4 -62 -43 -58 -27 3 -33 8 -35 32 -2 16 2 32 10 37 23 15 57 10 68 -11z
m240 -20 c0 -29 -4 -40 -15 -40 -11 0 -15 11 -15 40 0 29 4 40 15 40 11 0 15
-11 15 -40z m144 16 c10 -36 7 -56 -9 -56 -9 0 -15 9 -15 24 0 14 -4 28 -10
31 -6 4 -10 -7 -10 -24 0 -21 -5 -31 -15 -31 -9 0 -15 9 -15 24 0 14 -4 28
-10 31 -6 4 -10 -7 -10 -24 0 -21 -5 -31 -15 -31 -11 0 -15 11 -15 40 l0 40
59 -1 c52 -1 60 -4 65 -23z m84 12 c20 -20 13 -38 -15 -39 -24 -2 -25 -2 -5
-6 27 -5 29 -23 3 -23 -34 0 -51 12 -51 34 0 26 18 46 40 46 9 0 21 -5 28 -12z
m102 -8 c17 -33 -4 -62 -43 -58 -27 3 -33 8 -35 32 -2 16 2 32 10 37 23 15 57
10 68 -11z m50 -10 c0 -16 5 -30 10 -30 6 0 10 14 10 30 0 20 5 30 15 30 11 0
15 -11 15 -40 0 -39 0 -39 -37 -37 -36 2 -38 4 -41 40 -2 28 0 37 12 37 11 0
16 -9 16 -30z m1290 -685 l0 -245 -1060 0 -1060 0 0 245 0 245 1060 0 1060 0
0 -245z"/>
<path d="M10555 4620 c-7 -12 2 -30 16 -30 5 0 9 9 9 20 0 21 -15 27 -25 10z"/>
<path d="M10855 4620 c-7 -12 2 -30 16 -30 5 0 9 9 9 20 0 21 -15 27 -25 10z"/>
<path d="M11115 4600 c-3 -5 -1 -10 4 -10 6 0 11 5 11 10 0 6 -2 10 -4 10 -3
0 -8 -4 -11 -10z"/>
<path d="M11310 4610 c0 -13 5 -20 13 -17 6 2 12 10 12 17 0 7 -6 15 -12 18
-8 2 -13 -5 -13 -18z"/>
<path d="M11710 4005 l0 -135 935 0 935 0 0 135 0 135 -935 0 -935 0 0 -135z
m132 10 c18 -40 0 -80 -36 -80 -36 0 -52 37 -37 78 14 37 57 37 73 2z m133
-24 c0 -31 -5 -47 -17 -55 -39 -24 -74 36 -48 84 8 15 19 20 38 18 25 -3 27
-7 27 -47z m115 38 c11 -7 12 -12 3 -15 -7 -3 -10 -11 -7 -19 9 -21 -30 -12
-39 9 -11 29 16 45 43 25z m120 -4 c8 -10 9 -15 2 -15 -6 0 -9 -6 -6 -14 4 -9
-3 -13 -21 -13 -18 0 -25 4 -21 13 3 8 1 14 -5 14 -6 0 -7 5 -4 10 4 6 11 8
16 5 5 -4 9 -1 9 4 0 16 16 13 30 -4z m100 4 c0 -5 4 -8 9 -4 5 3 12 1 16 -5
3 -5 1 -10 -4 -10 -6 0 -10 -5 -8 -11 1 -6 -9 -13 -22 -15 -17 -3 -22 0 -18
10 3 8 1 17 -6 20 -9 3 -8 8 3 15 19 14 30 14 30 0z"/>
<path d="M11794 4007 c-7 -20 -2 -47 11 -50 14 -3 19 43 6 56 -7 7 -12 6 -17
-6z"/>
<path d="M11930 3985 c0 -19 4 -35 9 -35 13 0 23 34 15 54 -11 28 -24 18 -24
-19z"/>
<path d="M10680 4014 c-11 -12 -10 -18 3 -32 16 -15 17 -14 17 16 0 36 -2 38
-20 16z"/>
<path d="M10735 4010 c-7 -12 2 -30 16 -30 5 0 9 9 9 20 0 21 -15 27 -25 10z"/>
<path d="M10320 4000 c0 -13 5 -20 13 -17 6 2 12 10 12 17 0 7 -6 15 -12 18
-8 2 -13 -5 -13 -18z"/>
<path d="M11164 4009 c-10 -17 13 -36 27 -22 12 12 4 33 -11 33 -5 0 -12 -5
-16 -11z"/>
<path d="M11670 3320 l0 -110 190 0 190 0 0 110 0 110 -190 0 -190 0 0 -110z
m118 27 c2 -11 -6 -30 -19 -43 l-22 -24 21 0 c12 0 22 -4 22 -10 0 -5 -18 -10
-40 -10 -36 0 -40 2 -31 18 5 10 17 24 25 32 23 19 20 43 -4 37 -11 -3 -20 -2
-20 2 0 28 63 26 68 -2z m91 9 c17 -20 10 -77 -11 -90 -26 -16 -52 4 -56 43
-4 36 12 61 38 61 10 0 23 -6 29 -14z"/>
<path d="M11840 3315 c0 -19 5 -35 10 -35 6 0 10 16 10 35 0 19 -4 35 -10 35
-5 0 -10 -16 -10 -35z"/>
<path d="M10210 3340 c0 -5 5 -10 10 -10 6 0 10 5 10 10 0 6 -4 10 -10 10 -5
0 -10 -4 -10 -10z"/>
<path d="M10210 3294 c0 -17 22 -14 28 4 2 7 -3 12 -12 12 -9 0 -16 -7 -16
-16z"/>
<path d="M10305 3290 c-3 -5 -1 -10 4 -10 6 0 11 5 11 10 0 6 -2 10 -4 10 -3
0 -8 -4 -11 -10z"/>
<path d="M10888 3313 c7 -3 16 -2 19 1 4 3 -2 6 -13 5 -11 0 -14 -3 -6 -6z"/>
<path d="M11640 2860 l0 -130 275 0 275 0 0 130 0 130 -275 0 -275 0 0 -130z
m152 28 c3 -24 3 -49 0 -55 -5 -15 -32 -17 -32 -3 0 6 -11 10 -25 10 -14 0
-25 5 -25 11 0 15 53 79 66 79 7 0 14 -19 16 -42z m83 -13 c0 -49 -1 -50 -32
-53 -24 -2 -33 1 -33 11 0 10 7 13 19 10 10 -3 22 0 26 7 4 7 -1 14 -14 17
-24 6 -28 23 -6 23 8 0 15 5 15 11 0 6 -9 9 -20 6 -11 -3 -20 -2 -20 2 0 15
15 22 40 19 23 -3 25 -7 25 -53z m93 43 c17 -17 15 -26 -14 -53 l-27 -25 27 0
c14 0 26 -4 26 -10 0 -5 -18 -10 -40 -10 -47 0 -52 15 -15 50 14 13 25 28 25
33 0 5 -11 6 -25 3 -24 -6 -33 3 -18 17 11 11 48 8 61 -5z m97 -37 c0 -31 -5
-47 -17 -55 -39 -24 -74 36 -48 84 8 15 19 20 38 18 25 -3 27 -7 27 -47z m96
25 c8 -16 8 -34 2 -53 -8 -22 -16 -28 -39 -28 -36 0 -54 40 -36 80 16 34 58
35 73 1z"/>
<path d="M11745 2870 c-3 -5 -1 -10 4 -10 6 0 11 5 11 10 0 6 -2 10 -4 10 -3
0 -8 -4 -11 -10z"/>
<path d="M12020 2875 c0 -19 4 -35 9 -35 13 0 23 34 15 54 -11 28 -24 18 -24
-19z"/>
<path d="M12114 2897 c-7 -20 -2 -47 11 -50 14 -3 19 43 6 56 -7 7 -12 6 -17
-6z"/>
<path d="M10630 2830 c0 -13 5 -20 13 -17 6 2 12 10 12 17 0 7 -6 15 -12 18
-8 2 -13 -5 -13 -18z"/>
<path d="M11600 2415 l0 -115 325 0 325 0 0 115 0 115 -325 0 -325 0 0 -115z
m187 5 c1 -25 -4 -48 -10 -52 -20 -13 -57 -9 -57 6 0 9 7 12 20 9 14 -4 20 0
20 11 0 9 -7 16 -15 16 -8 0 -15 5 -15 10 0 6 7 10 15 10 8 0 15 5 15 11 0 6
-9 9 -20 6 -11 -3 -20 -2 -20 2 0 15 15 22 40 19 22 -3 25 -8 27 -48z m93 41
c0 -5 -10 -12 -22 -16 l-23 -7 25 -7 c30 -8 34 -48 8 -65 -41 -26 -79 52 -43
88 17 17 55 22 55 7z m89 -5 c17 -20 10 -77 -11 -90 -26 -16 -52 4 -56 43 -4
36 12 61 38 61 10 0 23 -6 29 -14z m96 -35 c0 -31 -5 -47 -17 -55 -39 -24 -74
36 -48 84 8 15 19 20 38 18 25 -3 27 -7 27 -47z"/>
<path d="M11840 2395 c0 -8 5 -15 10 -15 6 0 10 7 10 15 0 8 -4 15 -10 15 -5
0 -10 -7 -10 -15z"/>
<path d="M11930 2415 c0 -19 5 -35 10 -35 6 0 10 16 10 35 0 19 -4 35 -10 35
-5 0 -10 -16 -10 -35z"/>
<path d="M12020 2415 c0 -19 4 -35 9 -35 13 0 23 34 15 54 -11 28 -24 18 -24
-19z"/>
<path d="M10440 2420 c0 -13 5 -20 13 -17 6 2 12 10 12 17 0 7 -6 15 -12 18
-8 2 -13 -5 -13 -18z"/>
<path d="M10334 2429 c-10 -17 13 -36 27 -22 12 12 4 33 -11 33 -5 0 -12 -5
-16 -11z"/>
<path d="M10904 2429 c-10 -17 13 -36 27 -22 12 12 4 33 -11 33 -5 0 -12 -5
-16 -11z"/>
<path d="M10230 1745 l0 -195 1010 0 1010 0 0 195 0 195 -1010 0 -1010 0 0
-195z m250 21 c0 -9 -7 -12 -20 -9 -27 7 -25 -11 4 -30 17 -12 32 -14 52 -7
25 7 26 8 7 9 -13 1 -23 6 -23 12 0 6 14 9 33 7 29 -3 32 -6 35 -40 3 -37 2
-38 -30 -38 -19 0 -39 5 -45 11 -8 8 -13 8 -17 0 -11 -16 -66 -14 -66 3 0 9 7
12 20 9 11 -3 20 0 20 5 0 6 -9 16 -20 22 -19 10 -27 40 -13 53 13 13 63 7 63
-7z m130 -36 c0 -11 5 -20 10 -20 6 0 10 9 10 20 0 11 7 20 15 20 18 0 18 -4
3 -47 -15 -43 -42 -43 -57 -2 -14 42 -14 49 4 49 8 0 15 -9 15 -20z m130 1
c15 -28 13 -31 -17 -32 -24 -2 -25 -2 -5 -6 34 -7 26 -25 -10 -21 -26 2 -34 8
-36 26 -2 13 -1 30 2 38 8 21 54 17 66 -5z"/>
<path d="M10525 1700 c-3 -5 -1 -10 4 -10 6 0 11 5 11 10 0 6 -2 10 -4 10 -3
0 -8 -4 -11 -10z"/>
<path d="M273 7107 c-33 -11 -33 -11 -33 -79 l0 -68 75 0 75 0 0 70 c0 68 -1
70 -24 70 -14 0 -28 5 -31 10 -7 12 -18 11 -62 -3z m65 -60 c4 -20 -25 -34
-40 -19 -15 15 -1 44 19 40 10 -2 19 -11 21 -21z m6 -43 c9 -3 16 -12 16 -20
0 -10 -14 -14 -50 -14 -51 0 -64 11 -32 29 20 12 44 14 66 5z"/>
<path d="M506 7081 c-4 -5 3 -7 14 -4 23 6 26 13 6 13 -8 0 -17 -4 -20 -9z"/>
<path d="M720 7035 c0 -19 4 -35 8 -35 4 0 6 16 4 35 -2 19 -6 35 -8 35 -2 0
-4 -16 -4 -35z"/>
<path d="M491 7044 c0 -11 3 -14 6 -6 3 7 2 16 -1 19 -3 4 -6 -2 -5 -13z"/>
<path d="M652 7030 c0 -19 2 -27 5 -17 2 9 2 25 0 35 -3 9 -5 1 -5 -18z"/>
<path d="M692 7030 c0 -19 2 -27 5 -17 2 9 2 25 0 35 -3 9 -5 1 -5 -18z"/>
<path d="M760 7030 c0 -16 2 -30 4 -30 2 0 6 14 8 30 3 17 1 30 -4 30 -4 0 -8
-13 -8 -30z"/>
<path d="M835 7040 c-3 -5 -1 -10 4 -10 6 0 11 5 11 10 0 6 -2 10 -4 10 -3 0
-8 -4 -11 -10z"/>
<path d="M800 7017 c0 -10 8 -17 18 -17 9 0 13 4 7 8 -5 4 -13 11 -17 16 -5 5
-8 2 -8 -7z"/>
<path d="M1006 7013 c-6 -14 -5 -15 5 -6 7 7 10 15 7 18 -3 3 -9 -2 -12 -12z"/>
<path d="M507 7008 c2 -5 13 -8 23 -8 10 0 21 3 23 8 3 4 -8 7 -23 7 -15 0
-26 -3 -23 -7z"/>
<path d="M2534 6787 c-3 -8 -4 -43 -2 -78 l3 -64 75 0 75 0 0 75 0 75 -73 3
c-55 2 -74 -1 -78 -11z m146 -67 l0 -70 -70 0 -70 0 0 70 0 70 70 0 70 0 0
-70z"/>
<path d="M7020 6735 c0 -30 5 -55 10 -55 6 0 10 25 10 55 0 30 -4 55 -10 55
-5 0 -10 -25 -10 -55z"/>
<path d="M7150 6737 c0 -48 2 -53 24 -55 47 -4 61 53 16 65 -11 3 -20 14 -20
24 0 11 -4 19 -10 19 -5 0 -10 -24 -10 -53z m42 -22 c0 -5 -5 -11 -11 -13 -6
-2 -11 4 -11 13 0 9 5 15 11 13 6 -2 11 -8 11 -13z"/>
<path d="M7310 6735 c0 -30 5 -55 10 -55 6 0 10 25 10 55 0 30 -4 55 -10 55
-5 0 -10 -25 -10 -55z"/>
<path d="M7800 6771 c0 -13 -8 -21 -22 -23 -18 -2 -23 -10 -23 -33 0 -27 3
-30 33 -32 l32 -1 0 54 c0 30 -4 54 -10 54 -5 0 -10 -9 -10 -19z m0 -56 c0 -8
-7 -15 -15 -15 -8 0 -15 7 -15 15 0 8 7 15 15 15 8 0 15 -7 15 -15z"/>
<path d="M6932 6768 c-16 -16 -15 -63 2 -78 26 -20 61 -8 64 23 3 22 -1 27
-17 27 -23 0 -29 -16 -8 -23 6 -2 9 -8 5 -12 -14 -15 -39 5 -36 27 2 18 9 23
31 23 15 -1 26 4 24 10 -5 15 -50 18 -65 3z"/>
<path d="M7370 6755 c-5 -14 -13 -37 -16 -51 -6 -24 -5 -25 13 -13 13 7 28 9
39 4 11 -5 34 -10 52 -12 27 -3 32 0 32 17 0 11 -4 20 -10 20 -5 0 -10 5 -10
11 0 5 5 7 10 4 6 -3 10 -1 10 4 0 6 -9 11 -20 11 -13 0 -20 -7 -20 -20 0 -11
5 -20 10 -20 6 0 10 -4 10 -9 0 -5 -8 -8 -17 -7 -11 0 -24 17 -33 40 -18 48
-37 56 -50 21z m30 -20 c0 -8 -4 -15 -10 -15 -5 0 -10 7 -10 15 0 8 5 15 10
15 6 0 10 -7 10 -15z"/>
<path d="M7710 6730 c0 -27 5 -50 10 -50 6 0 10 23 10 50 0 28 -4 50 -10 50
-5 0 -10 -22 -10 -50z"/>
<path d="M7657 6756 c-7 -19 6 -69 19 -73 9 -3 11 35 5 80 -2 12 -19 8 -24 -7z"/>
<path d="M3460 6731 c0 -13 -8 -21 -22 -23 -18 -2 -23 -10 -23 -33 0 -27 3
-30 33 -32 l32 -1 0 54 c0 30 -4 54 -10 54 -5 0 -10 -9 -10 -19z m0 -56 c0 -8
-7 -15 -15 -15 -8 0 -15 7 -15 15 0 8 7 15 15 15 8 0 15 -7 15 -15z"/>
<path d="M7064 6736 c-9 -24 0 -51 19 -54 23 -5 47 15 47 38 0 29 -56 42 -66
16z m46 -21 c0 -8 -6 -15 -14 -15 -17 0 -28 14 -19 24 12 12 33 6 33 -9z"/>
<path d="M7235 6741 c-3 -7 3 -11 17 -12 l23 0 -23 -10 c-30 -12 -23 -33 12
-37 26 -3 27 -1 24 30 -2 25 -8 34 -25 36 -11 2 -24 -2 -28 -7z"/>
<path d="M7514 6738 c-4 -6 0 -16 9 -23 21 -15 22 -29 2 -21 -8 3 -15 1 -15
-4 0 -14 37 -12 46 2 4 6 0 16 -9 23 -22 16 -22 26 0 18 11 -4 14 -3 9 5 -9
15 -33 15 -42 0z"/>
<path d="M7579 6734 c-16 -20 -1 -48 30 -52 28 -4 27 15 -1 21 -20 4 -19 4 5
6 29 1 34 10 15 29 -16 16 -33 15 -49 -4z m38 -10 c-3 -3 -12 -4 -19 -1 -8 3
-5 6 6 6 11 1 17 -2 13 -5z"/>
<path d="M250 6660 l0 -80 65 0 65 0 0 58 c0 74 -24 102 -88 102 l-42 0 0 -80z
m100 45 l23 -25 -26 0 c-22 0 -27 5 -27 25 0 14 1 25 3 25 2 0 14 -11 27 -25z
m0 -55 c0 -5 -16 -10 -35 -10 -19 0 -35 5 -35 10 0 6 16 10 35 10 19 0 35 -4
35 -10z m0 -30 c0 -5 -16 -10 -35 -10 -19 0 -35 5 -35 10 0 6 16 10 35 10 19
0 35 -4 35 -10z"/>
<path d="M2810 6715 l24 -25 23 22 c28 26 31 38 3 13 -19 -17 -21 -17 -38 -2
-29 26 -38 20 -12 -8z"/>
<path d="M3126 6731 c-15 -24 -34 -91 -26 -91 5 0 12 5 15 10 9 14 42 12 48
-2 2 -7 8 -10 12 -6 9 9 -18 91 -32 95 -6 2 -14 0 -17 -6z m24 -43 c0 -5 -6
-8 -14 -8 -9 0 -12 7 -9 21 4 16 8 17 14 7 5 -7 9 -16 9 -20z"/>
<path d="M3208 6693 c-9 -26 -14 -50 -11 -53 3 -3 8 1 10 8 3 6 15 12 28 12
13 0 25 -6 28 -12 2 -7 7 -10 11 -7 9 9 -24 99 -38 99 -6 0 -19 -21 -28 -47z
m42 -5 c0 -5 -6 -8 -14 -8 -9 0 -12 7 -9 21 4 16 8 17 14 7 5 -7 9 -16 9 -20z"/>
<path d="M3299 6724 c-12 -14 -10 -19 9 -34 28 -23 28 -34 1 -27 -13 3 -19 1
-16 -6 2 -7 14 -12 28 -12 33 0 38 33 8 58 l-24 19 23 -5 c15 -4 22 -1 19 6
-6 19 -33 19 -48 1z"/>
<path d="M3370 6690 c0 -27 5 -50 10 -50 6 0 10 23 10 50 0 28 -4 50 -10 50
-5 0 -10 -22 -10 -50z"/>
<path d="M11270 6687 c0 -48 2 -53 24 -55 47 -4 61 53 16 65 -11 3 -20 14 -20
24 0 11 -4 19 -10 19 -5 0 -10 -24 -10 -53z m42 -22 c0 -5 -5 -11 -11 -13 -6
-2 -11 4 -11 13 0 9 5 15 11 13 6 -2 11 -8 11 -13z"/>
<path d="M11350 6685 c0 -30 5 -55 10 -55 6 0 10 25 10 55 0 30 -4 55 -10 55
-5 0 -10 -25 -10 -55z"/>
<path d="M11561 6718 c-10 -27 -3 -88 10 -88 5 0 9 11 9 24 0 13 6 27 13 29 9
4 8 8 -3 17 -11 9 -12 13 -2 17 17 7 15 23 -3 23 -9 0 -19 -10 -24 -22z"/>
<path d="M12000 6715 c0 -16 -4 -23 -13 -19 -8 3 -20 -2 -27 -11 -19 -23 -1
-50 34 -51 25 -1 26 1 26 52 0 30 -4 54 -10 54 -5 0 -10 -11 -10 -25z m0 -50
c0 -8 -7 -15 -15 -15 -8 0 -15 7 -15 15 0 8 7 15 15 15 8 0 15 -7 15 -15z"/>
<path d="M13280 6687 c0 -48 2 -53 24 -55 47 -4 61 53 16 65 -11 3 -20 14 -20
24 0 11 -4 19 -10 19 -5 0 -10 -24 -10 -53z m42 -22 c0 -5 -5 -11 -11 -13 -6
-2 -11 4 -11 13 0 9 5 15 11 13 6 -2 11 -8 11 -13z"/>
<path d="M13360 6685 c0 -30 5 -55 10 -55 6 0 10 25 10 55 0 30 -4 55 -10 55
-5 0 -10 -25 -10 -55z"/>
<path d="M13571 6718 c-10 -27 -3 -88 10 -88 5 0 9 11 9 24 0 13 6 27 13 29 9
4 8 8 -3 17 -11 9 -12 13 -2 17 17 7 15 23 -3 23 -9 0 -19 -10 -24 -22z"/>
<path d="M13763 6685 c0 -33 2 -45 4 -27 2 18 2 45 0 60 -2 15 -4 0 -4 -33z"/>
<path d="M13880 6687 c0 -53 1 -54 30 -55 24 0 31 4 36 23 8 31 -3 48 -27 42
-15 -4 -19 0 -19 19 0 13 -4 24 -10 24 -5 0 -10 -24 -10 -53z m50 -22 c0 -8
-7 -15 -15 -15 -8 0 -15 7 -15 15 0 8 7 15 15 15 8 0 15 -7 15 -15z"/>
<path d="M14053 6685 c0 -33 2 -45 4 -27 2 18 2 45 0 60 -2 15 -4 0 -4 -33z"/>
<path d="M14530 6721 c0 -10 -9 -21 -21 -24 -16 -4 -20 -12 -17 -34 2 -23 8
-28 31 -29 26 -1 27 1 27 52 0 30 -4 54 -10 54 -5 0 -10 -8 -10 -19z m0 -56
c0 -8 -4 -15 -9 -15 -13 0 -22 16 -14 24 11 11 23 6 23 -9z"/>
<path d="M11196 6721 c-15 -24 -34 -91 -26 -91 5 0 12 5 15 10 9 14 42 12 48
-2 2 -7 8 -10 12 -6 9 9 -18 91 -32 95 -6 2 -14 0 -17 -6z m24 -43 c0 -5 -6
-8 -14 -8 -9 0 -12 7 -9 21 4 16 8 17 14 7 5 -7 9 -16 9 -20z"/>
<path d="M11656 6683 c-9 -25 -13 -49 -10 -52 4 -3 9 0 11 7 5 14 53 17 53 2
0 -5 9 -10 19 -10 11 0 23 5 26 10 9 14 42 12 48 -2 2 -7 8 -10 12 -6 11 11
-20 93 -36 93 -7 0 -21 -20 -30 -45 l-17 -45 -16 39 c-9 21 -16 42 -16 47 0 5
-6 9 -14 9 -8 0 -21 -21 -30 -47z m32 -12 c-15 -5 -19 4 -11 24 6 18 7 18 13
-1 4 -10 3 -21 -2 -23z m102 7 c0 -5 -6 -8 -14 -8 -9 0 -12 7 -9 21 4 16 8 17
14 7 5 -7 9 -16 9 -20z"/>
<path d="M11847 6724 c-13 -14 -7 -36 16 -56 l22 -19 -28 4 c-18 3 -26 0 -24
-7 6 -18 43 -18 58 0 12 14 10 19 -9 34 -26 21 -29 35 -6 26 10 -4 14 -1 12 6
-5 15 -31 22 -41 12z"/>
<path d="M11910 6680 c0 -27 5 -50 10 -50 6 0 10 23 10 50 0 28 -4 50 -10 50
-5 0 -10 -22 -10 -50z"/>
<path d="M13206 6721 c-15 -24 -34 -91 -26 -91 5 0 12 5 15 10 9 14 42 12 48
-2 2 -7 8 -10 12 -6 9 9 -18 91 -32 95 -6 2 -14 0 -17 -6z m24 -43 c0 -5 -6
-8 -14 -8 -9 0 -12 7 -9 21 4 16 8 17 14 7 5 -7 9 -16 9 -20z"/>
<path d="M13666 6715 c-34 -34 -6 -89 43 -83 20 2 27 9 29 31 3 22 -1 27 -17
27 -12 0 -21 -4 -21 -10 0 -5 5 -10 10 -10 6 0 10 -5 10 -11 0 -6 -10 -9 -22
-7 -17 2 -23 10 -23 28 0 22 4 25 33 25 17 0 31 4 29 10 -6 17 -54 17 -71 0z"/>
<path d="M14096 6683 c-9 -25 -13 -49 -10 -52 4 -3 9 0 11 7 3 6 15 12 28 12
13 0 25 -6 28 -12 2 -7 7 -10 11 -7 10 9 -27 99 -40 99 -7 0 -19 -21 -28 -47z
m32 -12 c-15 -5 -19 4 -11 24 6 18 7 18 13 -1 4 -10 3 -21 -2 -23z"/>
<path d="M14450 6680 c0 -27 5 -50 10 -50 6 0 10 23 10 50 0 28 -4 50 -10 50
-5 0 -10 -22 -10 -50z"/>
<path d="M14387 6706 c-9 -23 8 -71 26 -74 9 -2 17 1 17 7 0 6 -4 11 -10 11
-14 0 -12 28 2 32 9 3 8 9 -4 21 -20 21 -24 21 -31 3z"/>
<path d="M508 6703 c6 -2 18 -2 25 0 6 3 1 5 -13 5 -14 0 -19 -2 -12 -5z"/>
<path d="M643 6660 c0 -25 2 -35 4 -22 2 12 2 32 0 45 -2 12 -4 2 -4 -23z"/>
<path d="M11395 6691 c-3 -7 3 -11 17 -12 l23 0 -23 -10 c-30 -12 -23 -33 12
-37 26 -3 27 -1 24 30 -2 25 -8 34 -25 36 -11 2 -24 -2 -28 -7z"/>
<path d="M11472 6668 c3 -29 7 -33 36 -35 30 -1 32 1 32 33 0 37 -17 47 -22
12 -5 -32 -28 -35 -28 -4 0 14 -5 26 -11 26 -6 0 -9 -14 -7 -32z"/>
<path d="M13405 6691 c-3 -7 3 -11 17 -12 l23 0 -23 -10 c-30 -12 -23 -33 12
-37 26 -3 27 -1 24 30 -2 25 -8 34 -25 36 -11 2 -24 -2 -28 -7z"/>
<path d="M13482 6668 c3 -29 7 -33 36 -35 30 -1 32 1 32 33 0 37 -17 47 -22
12 -5 -32 -28 -35 -28 -4 0 14 -5 26 -11 26 -6 0 -9 -14 -7 -32z"/>
<path d="M13800 6685 c-18 -22 -1 -50 31 -50 20 0 24 5 24 30 0 23 -5 31 -21
33 -11 2 -27 -4 -34 -13z m43 -20 c1 -5 -6 -11 -15 -13 -11 -2 -18 3 -18 13 0
17 30 18 33 0z"/>
<path d="M13970 6690 c0 -5 10 -10 23 -11 21 -1 21 -1 -3 -8 -37 -10 -32 -36
8 -38 33 -1 41 13 26 51 -7 17 -54 22 -54 6z m37 -36 c-3 -3 -12 -4 -19 -1 -8
3 -5 6 6 6 11 1 17 -2 13 -5z"/>
<path d="M14184 6688 c-4 -6 0 -16 9 -23 21 -15 22 -29 2 -21 -8 3 -15 1 -15
-4 0 -14 37 -12 46 2 4 6 0 16 -9 23 -22 16 -22 26 0 18 11 -4 14 -3 9 5 -9
15 -33 15 -42 0z"/>
<path d="M14244 6688 c-4 -6 0 -16 9 -23 21 -15 22 -26 2 -19 -8 4 -15 1 -15
-6 0 -6 10 -10 22 -8 26 3 38 38 14 38 -9 0 -16 5 -16 11 0 6 7 9 15 5 8 -3
15 -1 15 4 0 14 -37 12 -46 -2z"/>
<path d="M14314 6686 c-11 -29 1 -51 29 -54 32 -4 37 15 5 21 l-23 4 23 2 c17
1 22 6 20 19 -4 22 -46 29 -54 8z"/>
<path d="M546 6673 c-6 -14 -5 -15 5 -6 7 7 10 15 7 18 -3 3 -9 -2 -12 -12z"/>
<path d="M694 6665 c-9 -23 3 -45 23 -44 17 1 17 2 0 6 -14 4 -18 12 -14 29 5
27 -1 32 -9 9z"/>
<path d="M1394 6665 c-10 -24 4 -45 28 -44 l23 2 -23 4 c-17 3 -21 10 -18 29
5 27 -1 32 -10 9z"/>
<path d="M1462 6650 c0 -19 2 -27 5 -17 2 9 2 25 0 35 -3 9 -5 1 -5 -18z"/>
<path d="M1502 6650 c0 -19 2 -27 5 -17 2 9 2 25 0 35 -3 9 -5 1 -5 -18z"/>
<path d="M1115 6660 c-3 -5 -1 -10 4 -10 6 0 11 5 11 10 0 6 -2 10 -4 10 -3 0
-8 -4 -11 -10z"/>
<path d="M1153 6645 c0 -8 4 -12 9 -9 5 3 6 10 3 15 -9 13 -12 11 -12 -6z"/>
<path d="M1080 6637 c0 -10 8 -17 18 -17 9 0 13 4 7 8 -5 4 -13 11 -17 16 -5
5 -8 2 -8 -7z"/>
<path d="M958 6623 c7 -3 16 -2 19 1 4 3 -2 6 -13 5 -11 0 -14 -3 -6 -6z"/>
<path d="M628 6523 c232 -2 612 -2 845 0 232 1 42 2 -423 2 -465 0 -655 -1
-422 -2z"/>
<path d="M7490 6341 c0 -13 -8 -21 -22 -23 -18 -2 -23 -10 -23 -33 0 -27 3
-30 33 -32 l32 -1 0 54 c0 30 -4 54 -10 54 -5 0 -10 -9 -10 -19z m0 -56 c0 -8
-7 -15 -15 -15 -8 0 -15 7 -15 15 0 8 7 15 15 15 8 0 15 -7 15 -15z"/>
<path d="M8341 6309 c-1 -55 -1 -56 27 -55 23 1 27 5 27 31 0 23 -5 31 -22 33
-13 2 -23 12 -26 25 -2 12 -5 -3 -6 -34z m44 -18 c7 -12 -12 -24 -25 -16 -11
7 -4 25 10 25 5 0 11 -4 15 -9z"/>
<path d="M8920 6335 c0 -16 -4 -23 -13 -19 -8 3 -20 -2 -27 -11 -19 -23 -1
-50 34 -51 25 -1 26 1 26 52 0 30 -4 54 -10 54 -5 0 -10 -11 -10 -25z m0 -50
c0 -8 -7 -15 -15 -15 -8 0 -15 7 -15 15 0 8 7 15 15 15 8 0 15 -7 15 -15z"/>
<path d="M9670 6335 c0 -16 -4 -23 -13 -19 -8 3 -20 -2 -27 -11 -19 -23 -1
-50 34 -51 25 -1 26 1 26 52 0 30 -4 54 -10 54 -5 0 -10 -11 -10 -25z m0 -50
c0 -8 -7 -15 -15 -15 -8 0 -15 7 -15 15 0 8 7 15 15 15 8 0 15 -7 15 -15z"/>
<path d="M9801 6338 c-10 -27 -3 -88 10 -88 5 0 9 10 10 23 1 12 2 37 4 55 3
37 -11 43 -24 10z"/>
<path d="M10170 6307 c0 -48 2 -53 24 -55 47 -4 61 53 16 65 -11 3 -20 14 -20
24 0 11 -4 19 -10 19 -5 0 -10 -24 -10 -53z m42 -22 c0 -5 -5 -11 -11 -13 -6
-2 -11 4 -11 13 0 9 5 15 11 13 6 -2 11 -8 11 -13z"/>
<path d="M10300 6335 c0 -16 -4 -23 -13 -19 -8 3 -20 -2 -27 -11 -19 -23 -1
-50 34 -51 25 -1 26 1 26 52 0 30 -4 54 -10 54 -5 0 -10 -11 -10 -25z m0 -50
c0 -8 -7 -15 -15 -15 -8 0 -15 7 -15 15 0 8 7 15 15 15 8 0 15 -7 15 -15z"/>
<path d="M4270 6297 c0 -48 2 -53 24 -55 47 -4 61 53 16 65 -11 3 -20 14 -20
24 0 11 -4 19 -10 19 -5 0 -10 -24 -10 -53z m42 -22 c0 -5 -5 -11 -11 -13 -6
-2 -11 4 -11 13 0 9 5 15 11 13 6 -2 11 -8 11 -13z"/>
<path d="M4441 6328 c-10 -27 -3 -88 10 -88 9 0 14 36 11 73 -1 9 3 17 9 17 5
0 7 5 4 10 -10 17 -25 11 -34 -12z"/>
<path d="M4530 6297 c0 -53 1 -54 30 -55 24 0 31 4 36 23 8 31 -3 48 -27 42
-15 -4 -19 0 -19 19 0 13 -4 24 -10 24 -5 0 -10 -24 -10 -53z m50 -22 c0 -8
-7 -15 -15 -15 -8 0 -15 7 -15 15 0 8 7 15 15 15 8 0 15 -7 15 -15z"/>
<path d="M5040 6296 l0 -54 33 1 c29 2 32 5 32 32 0 25 -4 30 -22 29 -18 0
-23 5 -23 23 0 13 -4 23 -10 23 -5 0 -10 -24 -10 -54z m50 -21 c0 -8 -7 -15
-15 -15 -8 0 -15 7 -15 15 0 8 7 15 15 15 8 0 15 -7 15 -15z"/>
<path d="M7570 6340 c0 -5 9 -10 20 -10 23 0 24 -6 5 -40 -17 -30 -18 -40 -5
-40 9 0 50 80 50 96 0 2 -16 4 -35 4 -19 0 -35 -4 -35 -10z"/>
<path d="M8047 6343 c-2 -4 -4 -26 -3 -48 1 -32 5 -41 21 -43 30 -3 49 13 40
34 -4 11 -8 28 -9 39 -1 20 -39 34 -49 18z m33 -23 c0 -5 -4 -10 -10 -10 -5 0
-10 5 -10 10 0 6 5 10 10 10 6 0 10 -4 10 -10z m10 -40 c0 -5 -7 -10 -15 -10
-8 0 -15 5 -15 10 0 6 7 10 15 10 8 0 15 -4 15 -10z"/>
<path d="M8132 6338 c-32 -32 1 -104 36 -81 26 16 21 46 -8 54 l-25 7 23 7
c12 4 22 11 22 16 0 13 -34 11 -48 -3z m38 -58 c0 -5 -7 -10 -15 -10 -8 0 -15
5 -15 10 0 6 7 10 15 10 8 0 15 -4 15 -10z"/>
<path d="M8250 6340 c0 -5 9 -10 20 -10 23 0 24 -6 5 -40 -17 -30 -18 -40 -5
-40 9 0 50 80 50 96 0 2 -16 4 -35 4 -19 0 -35 -4 -35 -10z"/>
<path d="M8431 6336 c-7 -8 -11 -30 -9 -48 2 -25 8 -34 24 -36 11 -2 26 3 33
11 15 19 4 47 -20 47 -10 0 -19 5 -19 10 0 6 9 10 20 10 11 0 20 5 20 10 0 15
-36 12 -49 -4z m39 -56 c0 -5 -7 -10 -15 -10 -8 0 -15 5 -15 10 0 6 7 10 15
10 8 0 15 -4 15 -10z"/>
<path d="M8504 6335 c-9 -23 3 -45 26 -45 12 0 18 -4 15 -10 -3 -5 -16 -10
-28 -10 -15 0 -18 -3 -10 -11 31 -31 75 29 53 71 -13 23 -48 27 -56 5z m41
-15 c3 -5 -1 -10 -9 -10 -9 0 -16 5 -16 10 0 6 4 10 9 10 6 0 13 -4 16 -10z"/>
<path d="M8646 6325 c-21 -33 -20 -55 3 -55 11 0 22 -6 24 -12 7 -18 29 12 22
30 -3 8 -5 25 -5 38 0 31 -23 31 -44 -1z m20 -32 c-10 -10 -19 5 -10 18 6 11
8 11 12 0 2 -7 1 -15 -2 -18z"/>
<path d="M8726 6325 c-21 -33 -20 -55 3 -55 11 0 22 -6 24 -12 7 -18 29 12 22
30 -3 8 -5 25 -5 38 0 31 -23 31 -44 -1z m20 -32 c-10 -10 -19 5 -10 18 6 11
8 11 12 0 2 -7 1 -15 -2 -18z"/>
<path d="M8807 6321 c-22 -38 -22 -51 2 -51 11 0 22 -6 24 -12 7 -18 29 12 22
30 -3 8 -5 25 -5 38 0 33 -22 30 -43 -5z m19 -28 c-10 -10 -19 5 -10 18 6 11
8 11 12 0 2 -7 1 -15 -2 -18z"/>
<path d="M9017 6343 c-2 -4 -4 -26 -3 -48 1 -30 6 -41 19 -43 22 -4 49 16 40
31 -3 5 -6 22 -7 36 -1 19 -7 27 -23 29 -11 2 -23 0 -26 -5z m33 -23 c0 -5 -4
-10 -10 -10 -5 0 -10 5 -10 10 0 6 5 10 10 10 6 0 10 -4 10 -10z m0 -40 c0 -5
-4 -10 -10 -10 -5 0 -10 5 -10 10 0 6 5 10 10 10 6 0 10 -4 10 -10z"/>
<path d="M9099 6333 c-10 -11 -10 -14 -1 -9 8 5 12 -2 12 -23 0 -17 -4 -31
-10 -31 -5 0 -10 -4 -10 -10 0 -5 14 -10 30 -10 17 0 30 5 30 10 0 6 -4 10
-10 10 -5 0 -10 18 -10 40 0 43 -9 50 -31 23z"/>
<path d="M9262 6338 c-32 -32 1 -104 36 -81 26 16 21 46 -8 54 l-25 7 23 7
c12 4 22 11 22 16 0 13 -34 11 -48 -3z m38 -58 c0 -5 -7 -10 -15 -10 -8 0 -15
5 -15 10 0 6 7 10 15 10 8 0 15 -4 15 -10z"/>
<path d="M9392 6338 c-32 -32 1 -104 36 -81 26 16 21 46 -8 54 l-25 7 23 7
c12 4 22 11 22 16 0 13 -34 11 -48 -3z m38 -58 c0 -5 -7 -10 -15 -10 -8 0 -15
5 -15 10 0 6 7 10 15 10 8 0 15 -4 15 -10z"/>
<path d="M9470 6326 c0 -16 7 -26 21 -29 13 -3 18 -10 14 -17 -4 -7 -16 -9
-27 -7 -12 4 -18 1 -15 -6 6 -18 42 -20 56 -3 17 20 8 44 -21 56 l-23 9 23 0
c30 1 28 21 -3 21 -20 0 -25 -5 -25 -24z"/>
<path d="M9550 6326 c0 -16 7 -26 21 -29 13 -3 18 -10 14 -17 -4 -7 -16 -9
-27 -7 -12 4 -18 1 -15 -6 6 -18 42 -20 56 -3 17 20 8 44 -21 56 l-23 9 23 0
c30 1 28 21 -3 21 -20 0 -25 -5 -25 -24z"/>
<path d="M9722 6338 c-18 -18 -15 -77 4 -85 24 -9 49 10 52 41 6 45 -29 71
-56 44z m33 -38 c0 -13 -6 -25 -12 -27 -9 -3 -13 6 -13 27 0 21 4 30 13 28 6
-3 12 -15 12 -28z"/>
<path d="M9854 6338 c-4 -6 -2 -14 4 -16 15 -5 16 -52 2 -52 -5 0 -10 -4 -10
-10 0 -5 14 -10 30 -10 17 0 30 5 30 10 0 6 -4 10 -10 10 -5 0 -10 18 -10 40
0 40 -19 55 -36 28z"/>
<path d="M9930 6326 c0 -16 7 -26 21 -29 13 -3 18 -10 14 -17 -4 -7 -16 -9
-27 -7 -12 4 -18 1 -15 -6 6 -18 42 -20 56 -3 17 20 8 44 -21 56 l-23 9 23 0
c30 1 28 21 -3 21 -20 0 -25 -5 -25 -24z"/>
<path d="M10023 6343 c-7 -2 -13 -9 -13 -14 0 -6 5 -7 10 -4 6 4 10 -7 10 -24
0 -17 -4 -31 -10 -31 -5 0 -10 -4 -10 -10 0 -5 14 -10 30 -10 17 0 30 5 30 10
0 6 -4 10 -10 10 -5 0 -10 18 -10 40 0 40 -3 43 -27 33z"/>
<path d="M10097 6344 c-12 -13 -7 -24 8 -18 8 4 15 1 15 -5 0 -6 -4 -11 -10
-11 -5 0 -10 -4 -10 -10 0 -5 7 -10 15 -10 24 0 18 -18 -7 -23 -20 -3 -21 -4
-5 -11 32 -15 45 0 43 46 -2 34 -6 44 -22 46 -11 2 -23 0 -27 -4z"/>
<path d="M11157 6343 c-13 -13 -7 -21 13 -16 23 6 25 0 10 -28 -7 -12 -7 -19
-1 -19 15 0 33 39 27 56 -6 14 -37 19 -49 7z"/>
<path d="M11237 6344 c-14 -15 -6 -46 13 -51 11 -3 20 -9 20 -14 0 -5 -9 -9
-20 -9 -11 0 -20 -4 -20 -10 0 -15 36 -12 49 4 20 24 10 80 -14 84 -12 2 -24
0 -28 -4z m33 -24 c0 -5 -4 -10 -10 -10 -5 0 -10 5 -10 10 0 6 5 10 10 10 6 0
10 -4 10 -10z"/>
<path d="M11362 6338 c-17 -17 -15 -63 4 -79 22 -18 48 0 52 35 6 45 -29 71
-56 44z m38 -38 c0 -20 -5 -30 -15 -30 -10 0 -15 10 -15 30 0 20 5 30 15 30
10 0 15 -10 15 -30z"/>
<path d="M11453 6343 c-7 -2 -13 -9 -13 -14 0 -6 5 -7 10 -4 6 4 10 -7 10 -24
0 -17 -4 -31 -10 -31 -5 0 -10 -4 -10 -10 0 -5 14 -10 30 -10 17 0 30 5 30 10
0 6 -4 10 -10 10 -5 0 -10 18 -10 40 0 40 -3 43 -27 33z"/>
<path d="M11567 6343 c-13 -13 -7 -21 13 -16 23 6 25 0 10 -28 -7 -12 -7 -19
-1 -19 15 0 33 39 27 56 -6 14 -37 19 -49 7z"/>
<path d="M11644 6336 c-3 -8 -4 -29 -2 -48 2 -25 8 -34 25 -36 30 -4 50 41 34
75 -12 26 -48 31 -57 9z m41 -36 c0 -27 -22 -39 -31 -16 -8 22 3 49 19 43 6
-2 12 -14 12 -27z"/>
<path d="M11727 6344 c-13 -14 -7 -22 13 -17 13 4 20 0 20 -9 0 -8 -9 -23 -20
-33 -29 -26 -25 -35 15 -35 19 0 35 5 35 10 0 6 -10 10 -22 10 -20 0 -20 1 -4
19 10 11 16 28 14 38 -3 18 -38 30 -51 17z"/>
<path d="M11800 6326 c0 -17 6 -26 20 -28 25 -4 22 -23 -3 -22 -10 0 -16 -4
-14 -10 2 -6 15 -11 28 -11 35 0 41 51 7 64 l-23 10 23 0 c34 1 26 21 -8 21
-25 0 -30 -4 -30 -24z"/>
<path d="M11924 6336 c-3 -8 -4 -29 -2 -48 2 -25 8 -34 25 -36 30 -4 50 41 34
75 -12 26 -48 31 -57 9z m41 -36 c0 -27 -22 -39 -31 -16 -8 22 3 49 19 43 6
-2 12 -14 12 -27z"/>
<path d="M12007 6343 c-2 -4 -4 -26 -3 -48 1 -32 5 -41 21 -43 30 -3 49 13 40
34 -4 11 -8 28 -9 39 -1 20 -39 34 -49 18z m33 -23 c0 -5 -4 -10 -10 -10 -5 0
-10 5 -10 10 0 6 5 10 10 10 6 0 10 -4 10 -10z m10 -40 c0 -5 -7 -10 -15 -10
-8 0 -15 5 -15 10 0 6 7 10 15 10 8 0 15 -4 15 -10z"/>
<path d="M12128 6326 c-16 -37 3 -79 35 -74 19 3 22 9 22 48 0 39 -3 45 -22
48 -16 2 -26 -4 -35 -22z m42 -26 c0 -16 -5 -30 -10 -30 -14 0 -24 26 -16 45
10 26 26 16 26 -15z"/>
<path d="M12208 6326 c-16 -37 3 -79 35 -74 19 3 22 9 22 48 0 39 -3 45 -22
48 -16 2 -26 -4 -35 -22z m42 -26 c0 -16 -5 -30 -10 -30 -14 0 -24 26 -16 45
10 26 26 16 26 -15z"/>
<path d="M12342 6338 c-18 -18 -15 -77 4 -85 24 -9 49 10 52 41 6 45 -29 71
-56 44z m33 -38 c0 -13 -6 -25 -12 -27 -9 -3 -13 6 -13 27 0 21 4 30 13 28 6
-3 12 -15 12 -28z"/>
<path d="M12422 6338 c-17 -17 -15 -63 4 -79 22 -18 48 0 52 35 6 45 -29 71
-56 44z m38 -38 c0 -20 -5 -30 -15 -30 -10 0 -15 10 -15 30 0 20 5 30 15 30
10 0 15 -10 15 -30z"/>
<path d="M2534 6327 c-3 -8 -4 -41 -2 -73 l3 -59 75 0 75 0 0 70 0 70 -73 3
c-55 2 -74 0 -78 -11z m146 -62 l0 -65 -70 0 -70 0 0 65 0 65 70 0 70 0 0 -65z"/>
<path d="M3207 6334 c-13 -14 -7 -22 13 -17 11 3 20 0 20 -6 0 -6 -7 -11 -15
-11 -8 0 -15 -4 -15 -10 0 -5 7 -10 15 -10 8 0 15 -5 15 -11 0 -7 -9 -9 -21
-6 -13 3 -19 1 -16 -6 2 -7 15 -12 28 -12 22 0 24 4 24 45 0 38 -3 45 -20 48
-12 2 -24 0 -28 -4z"/>
<path d="M3287 6333 c-2 -4 -4 -26 -3 -48 1 -32 5 -41 21 -43 30 -3 49 13 40
34 -4 11 -8 28 -9 39 -1 20 -39 34 -49 18z m33 -23 c0 -5 -4 -10 -10 -10 -5 0
-10 5 -10 10 0 6 5 10 10 10 6 0 10 -4 10 -10z m10 -40 c0 -5 -7 -10 -15 -10
-8 0 -15 5 -15 10 0 6 7 10 15 10 8 0 15 -4 15 -10z"/>
<path d="M3364 6325 c-9 -23 3 -45 26 -45 12 0 18 -4 15 -10 -3 -5 -16 -10
-28 -10 -15 0 -18 -3 -10 -11 31 -31 75 29 53 71 -13 23 -48 27 -56 5z m41
-15 c3 -5 -1 -10 -9 -10 -9 0 -16 5 -16 10 0 6 4 10 9 10 6 0 13 -4 16 -10z"/>
<path d="M3455 6331 c-3 -6 1 -11 9 -11 22 0 20 -23 -4 -45 -29 -26 -25 -35
15 -35 19 0 35 5 35 10 0 6 -10 10 -22 10 -20 0 -20 1 -4 19 10 11 16 28 14
38 -4 20 -33 30 -43 14z"/>
<path d="M3530 6326 c-17 -21 -7 -43 22 -49 l23 -4 -22 -8 c-30 -10 -30 -27
-1 -23 28 4 47 51 32 76 -15 23 -38 26 -54 8z m40 -16 c0 -5 -7 -10 -15 -10
-8 0 -15 5 -15 10 0 6 7 10 15 10 8 0 15 -4 15 -10z"/>
<path d="M3617 6311 c-22 -38 -22 -51 2 -51 11 0 22 -6 24 -12 7 -18 29 12 22
30 -3 8 -5 25 -5 38 0 33 -22 30 -43 -5z m19 -28 c-10 -10 -19 5 -10 18 6 11
8 11 12 0 2 -7 1 -15 -2 -18z"/>
<path d="M3688 6316 c-16 -37 3 -79 35 -74 19 3 22 9 22 48 0 39 -3 45 -22 48
-16 2 -26 -4 -35 -22z m42 -26 c0 -16 -5 -30 -10 -30 -14 0 -24 26 -16 45 10
26 26 16 26 -15z"/>
<path d="M3905 6331 c-3 -6 1 -11 9 -11 9 0 16 -4 16 -10 0 -5 -7 -10 -15 -10
-8 0 -15 -4 -15 -10 0 -5 6 -10 14 -10 8 0 18 -5 22 -11 5 -8 -1 -10 -20 -7
-17 4 -25 1 -23 -6 6 -17 42 -19 56 -2 7 9 9 21 5 28 -5 7 -8 22 -9 33 0 21
-29 33 -40 16z"/>
<path d="M4197 6311 c-22 -38 -22 -51 2 -51 11 0 22 -6 24 -12 7 -18 29 12 22
30 -3 8 -5 25 -5 38 0 33 -22 30 -43 -5z m19 -28 c-10 -10 -19 5 -10 18 6 11
8 11 12 0 2 -7 1 -15 -2 -18z"/>
<path d="M4354 6325 c-9 -23 3 -45 26 -45 12 0 18 -4 15 -10 -3 -5 -16 -10
-28 -10 -15 0 -18 -3 -10 -11 31 -31 75 29 53 71 -13 23 -48 27 -56 5z m41
-15 c3 -5 -1 -10 -9 -10 -9 0 -16 5 -16 10 0 6 4 10 9 10 6 0 13 -4 16 -10z"/>
<path d="M4687 6334 c-13 -14 -7 -22 13 -17 11 3 20 0 20 -6 0 -6 -7 -11 -15
-11 -8 0 -15 -4 -15 -10 0 -5 7 -10 15 -10 8 0 15 -5 15 -11 0 -7 -9 -9 -21
-6 -13 3 -19 1 -16 -6 6 -18 42 -20 56 -3 7 9 9 21 5 28 -5 7 -8 22 -9 33 0
20 -34 33 -48 19z"/>
<path d="M4772 6328 c-17 -17 -15 -63 4 -79 22 -18 48 0 52 35 6 45 -29 71
-56 44z m38 -38 c0 -20 -5 -30 -15 -30 -10 0 -15 10 -15 30 0 20 5 30 15 30
10 0 15 -10 15 -30z"/>
<path d="M4971 6326 c-7 -8 -11 -30 -9 -48 2 -25 8 -34 24 -36 11 -2 26 3 33
11 15 19 4 47 -20 47 -10 0 -19 5 -19 10 0 6 9 10 20 10 11 0 20 5 20 10 0 15
-36 12 -49 -4z m39 -56 c0 -5 -7 -10 -15 -10 -8 0 -15 5 -15 10 0 6 7 10 15
10 8 0 15 -4 15 -10z"/>
<path d="M5137 6334 c-12 -13 -7 -24 8 -18 8 4 15 1 15 -5 0 -6 -4 -11 -10
-11 -5 0 -10 -4 -10 -10 0 -5 7 -10 15 -10 24 0 18 -18 -7 -23 -20 -3 -21 -4
-5 -11 32 -15 45 0 43 46 -2 34 -6 44 -22 46 -11 2 -23 0 -27 -4z"/>
<path d="M5214 6326 c-3 -8 -4 -29 -2 -48 2 -25 8 -34 25 -36 30 -4 50 41 34
75 -12 26 -48 31 -57 9z m41 -36 c0 -27 -22 -39 -31 -16 -8 22 3 49 19 43 6
-2 12 -14 12 -27z"/>
<path d="M5294 6326 c-3 -8 -4 -29 -2 -48 2 -25 8 -34 25 -36 30 -4 50 41 34
75 -12 26 -48 31 -57 9z m41 -36 c0 -27 -22 -39 -31 -16 -8 22 3 49 19 43 6
-2 12 -14 12 -27z"/>
<path d="M5370 6315 c0 -18 5 -25 20 -25 12 0 20 -7 20 -16 0 -11 -6 -15 -20
-11 -11 3 -20 1 -20 -3 0 -15 19 -22 40 -15 28 9 27 53 -2 65 l-23 9 23 0 c34
1 26 21 -8 21 -25 0 -30 -4 -30 -25z"/>
<path d="M5466 6315 c-21 -33 -20 -55 3 -55 11 0 22 -6 24 -12 7 -18 29 12 22
30 -3 8 -5 25 -5 38 0 31 -23 31 -44 -1z m20 -32 c-10 -10 -19 5 -10 18 6 11
8 11 12 0 2 -7 1 -15 -2 -18z"/>
<path d="M5542 6328 c-18 -18 -15 -77 4 -85 24 -9 49 10 52 41 6 45 -29 71
-56 44z m33 -38 c0 -13 -6 -25 -12 -27 -9 -3 -13 6 -13 27 0 21 4 30 13 28 6
-3 12 -15 12 -28z"/>
<path d="M5620 6321 c-22 -43 -2 -87 37 -79 29 5 24 51 -7 59 l-25 7 23 7 c27
9 29 25 2 25 -10 0 -24 -9 -30 -19z m40 -51 c0 -5 -7 -10 -15 -10 -8 0 -15 5
-15 10 0 6 7 10 15 10 8 0 15 -4 15 -10z"/>
<path d="M5690 6330 c0 -5 11 -10 25 -10 l25 0 -20 -40 c-11 -22 -16 -40 -10
-40 10 0 50 71 50 90 0 5 -16 10 -35 10 -19 0 -35 -4 -35 -10z"/>
<path d="M5793 6333 c-7 -2 -13 -9 -13 -14 0 -6 5 -7 10 -4 6 4 10 -7 10 -24
0 -17 -4 -31 -10 -31 -5 0 -10 -4 -10 -10 0 -5 14 -10 30 -10 17 0 30 5 30 10
0 6 -4 10 -10 10 -5 0 -10 18 -10 40 0 40 -3 43 -27 33z"/>
<path d="M13227 6333 c-13 -13 -7 -21 13 -16 23 6 25 0 10 -28 -7 -12 -7 -19
-1 -19 15 0 33 39 27 56 -6 14 -37 19 -49 7z"/>
<path d="M13307 6334 c-14 -15 -6 -46 13 -51 11 -3 20 -9 20 -14 0 -5 -9 -9
-20 -9 -11 0 -20 -4 -20 -10 0 -15 36 -12 49 4 20 24 10 80 -14 84 -12 2 -24
0 -28 -4z m33 -24 c0 -5 -4 -10 -10 -10 -5 0 -10 5 -10 10 0 6 5 10 10 10 6 0
10 -4 10 -10z"/>
<path d="M13432 6328 c-17 -17 -15 -63 4 -79 22 -18 48 0 52 35 6 45 -29 71
-56 44z m38 -38 c0 -20 -5 -30 -15 -30 -10 0 -15 10 -15 30 0 20 5 30 15 30
10 0 15 -10 15 -30z"/>
<path d="M13523 6333 c-7 -2 -13 -9 -13 -14 0 -6 5 -7 10 -4 6 4 10 -7 10 -24
0 -17 -4 -31 -10 -31 -5 0 -10 -4 -10 -10 0 -5 14 -10 30 -10 17 0 30 5 30 10
0 6 -4 10 -10 10 -5 0 -10 18 -10 40 0 40 -3 43 -27 33z"/>
<path d="M13637 6333 c-13 -13 -7 -21 13 -16 23 6 25 0 10 -28 -7 -12 -7 -19
-1 -19 15 0 33 39 27 56 -6 14 -37 19 -49 7z"/>
<path d="M13714 6326 c-3 -8 -4 -29 -2 -48 2 -25 8 -34 25 -36 30 -4 50 41 34
75 -12 26 -48 31 -57 9z m41 -36 c0 -27 -22 -39 -31 -16 -8 22 3 49 19 43 6
-2 12 -14 12 -27z"/>
<path d="M13797 6334 c-13 -14 -7 -22 13 -17 13 4 20 0 20 -9 0 -8 -9 -23 -20
-33 -29 -26 -25 -35 15 -35 19 0 35 5 35 10 0 6 -10 10 -22 10 -20 0 -20 1 -4
19 10 11 16 28 14 38 -3 18 -38 30 -51 17z"/>
<path d="M13870 6316 c0 -17 6 -26 20 -28 25 -4 22 -23 -3 -22 -10 0 -16 -4
-14 -10 2 -6 15 -11 28 -11 35 0 41 51 7 64 l-23 10 23 0 c34 1 26 21 -8 21
-25 0 -30 -4 -30 -24z"/>
<path d="M13994 6326 c-3 -8 -4 -29 -2 -48 2 -25 8 -34 25 -36 30 -4 50 41 34
75 -12 26 -48 31 -57 9z m41 -36 c0 -27 -22 -39 -31 -16 -8 22 3 49 19 43 6
-2 12 -14 12 -27z"/>
<path d="M14077 6333 c-2 -4 -4 -26 -3 -48 1 -32 5 -41 21 -43 30 -3 49 13 40
34 -4 11 -8 28 -9 39 -1 20 -39 34 -49 18z m33 -23 c0 -5 -4 -10 -10 -10 -5 0
-10 5 -10 10 0 6 5 10 10 10 6 0 10 -4 10 -10z m10 -40 c0 -5 -7 -10 -15 -10
-8 0 -15 5 -15 10 0 6 7 10 15 10 8 0 15 -4 15 -10z"/>
<path d="M14198 6316 c-16 -37 3 -79 35 -74 19 3 22 9 22 48 0 39 -3 45 -22
48 -16 2 -26 -4 -35 -22z m42 -26 c0 -16 -5 -30 -10 -30 -14 0 -24 26 -16 45
10 26 26 16 26 -15z"/>
<path d="M14278 6316 c-16 -37 3 -79 35 -74 19 3 22 9 22 48 0 39 -3 45 -22
48 -16 2 -26 -4 -35 -22z m42 -26 c0 -16 -5 -30 -10 -30 -14 0 -24 26 -16 45
10 26 26 16 26 -15z"/>
<path d="M14412 6328 c-18 -18 -15 -77 4 -85 24 -9 49 10 52 41 6 45 -29 71
-56 44z m33 -38 c0 -13 -6 -25 -12 -27 -9 -3 -13 6 -13 27 0 21 4 30 13 28 6
-3 12 -15 12 -28z"/>
<path d="M14492 6328 c-17 -17 -15 -63 4 -79 22 -18 48 0 52 35 6 45 -29 71
-56 44z m38 -38 c0 -20 -5 -30 -15 -30 -10 0 -15 10 -15 30 0 20 5 30 15 30
10 0 15 -10 15 -30z"/>
<path d="M240 6240 l0 -80 65 0 65 0 0 58 c0 74 -24 102 -88 102 l-42 0 0 -80z
m100 45 l23 -25 -26 0 c-22 0 -27 5 -27 25 0 14 1 25 3 25 2 0 14 -11 27 -25z
m0 -55 c0 -5 -16 -10 -35 -10 -19 0 -35 5 -35 10 0 6 16 10 35 10 19 0 35 -4
35 -10z m0 -30 c0 -5 -16 -10 -35 -10 -19 0 -35 5 -35 10 0 6 16 10 35 10 19
0 35 -4 35 -10z"/>
<path d="M6962 6288 c3 -29 7 -33 36 -35 30 -1 32 1 32 33 0 37 -17 47 -22 12
-5 -32 -28 -35 -28 -4 0 14 -5 26 -11 26 -6 0 -9 -14 -7 -32z"/>
<path d="M7051 6280 c1 -24 3 -28 6 -12 3 13 11 26 19 29 21 8 17 22 -6 20
-16 -1 -20 -8 -19 -37z"/>
<path d="M7100 6284 c0 -37 17 -47 22 -12 5 32 28 35 28 4 0 -14 5 -26 11 -26
6 0 9 14 7 33 -3 28 -7 32 -35 34 -31 1 -33 -1 -33 -33z"/>
<path d="M7190 6310 c0 -5 5 -10 10 -10 6 0 10 5 10 10 0 6 -4 10 -10 10 -5 0
-10 -4 -10 -10z"/>
<path d="M7232 6288 c3 -29 7 -33 36 -35 30 -1 32 1 32 33 0 19 -4 34 -10 34
-5 0 -10 -11 -10 -25 0 -16 -6 -25 -15 -25 -9 0 -15 9 -15 25 0 14 -5 25 -11
25 -6 0 -9 -14 -7 -32z"/>
<path d="M7322 6288 c3 -28 7 -33 31 -34 24 -1 27 2 27 32 0 19 -4 34 -10 34
-5 0 -10 -11 -10 -25 0 -14 -4 -25 -10 -25 -5 0 -10 11 -10 25 0 14 -5 25 -11
25 -6 0 -9 -14 -7 -32z"/>
<path d="M7413 6285 c0 -22 2 -30 4 -17 2 12 2 30 0 40 -3 9 -5 -1 -4 -23z"/>
<path d="M7530 6310 c0 -5 5 -10 10 -10 6 0 10 5 10 10 0 6 -4 10 -10 10 -5 0
-10 -4 -10 -10z"/>
<path d="M7659 6304 c-16 -20 -1 -48 30 -52 28 -4 27 15 -1 21 -20 4 -19 4 5
6 29 1 34 10 15 29 -16 16 -33 15 -49 -4z m38 -10 c-3 -3 -12 -4 -19 -1 -8 3
-5 6 6 6 11 1 17 -2 13 -5z"/>
<path d="M7739 6304 c-16 -20 -1 -48 30 -52 28 -4 27 15 -1 21 -20 4 -19 4 5
6 29 1 34 10 15 29 -16 16 -33 15 -49 -4z m38 -10 c-3 -3 -12 -4 -19 -1 -8 3
-5 6 6 6 11 1 17 -2 13 -5z"/>
<path d="M7819 6304 c-16 -20 -1 -48 30 -52 28 -4 27 15 -1 21 -20 4 -19 4 5
6 29 1 34 10 15 29 -16 16 -33 15 -49 -4z m38 -10 c-3 -3 -12 -4 -19 -1 -8 3
-5 6 6 6 11 1 17 -2 13 -5z"/>
<path d="M7900 6310 c0 -5 10 -10 23 -11 21 -1 21 -1 -3 -8 -37 -10 -32 -36 8
-38 33 -1 41 13 26 51 -7 17 -54 22 -54 6z m37 -36 c-3 -3 -12 -4 -19 -1 -8 3
-5 6 6 6 11 1 17 -2 13 -5z"/>
<path d="M7980 6305 c-10 -12 -11 -21 -3 -33 12 -19 44 -23 50 -5 3 7 -3 9
-16 6 -15 -4 -21 -1 -21 12 0 13 6 16 21 12 13 -3 19 -1 16 6 -6 19 -33 19
-47 2z"/>
<path d="M9182 6311 c-8 -4 -12 -19 -10 -32 2 -18 10 -25 31 -27 32 -4 37 15
5 21 -20 4 -19 4 5 6 29 1 34 10 15 29 -14 14 -28 15 -46 3z m35 -17 c-3 -3
-12 -4 -19 -1 -8 3 -5 6 6 6 11 1 17 -2 13 -5z"/>
<path d="M12290 6310 c0 -5 5 -10 10 -10 6 0 10 5 10 10 0 6 -4 10 -10 10 -5
0 -10 -4 -10 -10z"/>
<path d="M1131 6288 c-10 -27 -3 -88 10 -88 5 0 9 11 9 25 0 14 5 25 10 25 6
0 10 -11 10 -25 0 -14 5 -25 10 -25 6 0 10 16 10 35 0 29 -4 35 -21 35 -16 0
-19 4 -14 20 9 28 -13 26 -24 -2z"/>
<path d="M3124 6296 c-11 -29 1 -51 29 -54 32 -4 37 15 5 21 l-23 4 23 2 c17
1 22 6 20 19 -4 22 -46 29 -54 8z"/>
<path d="M3820 6300 c0 -5 10 -10 23 -11 21 -1 21 -1 -3 -8 -37 -10 -32 -36 8
-38 33 -1 41 13 26 51 -7 17 -54 22 -54 6z m37 -36 c-3 -3 -12 -4 -19 -1 -8 3
-5 6 6 6 11 1 17 -2 13 -5z"/>
<path d="M3980 6300 c0 -5 10 -10 23 -11 21 -1 21 -1 -3 -8 -37 -10 -32 -36 8
-38 33 -1 41 13 26 51 -7 17 -54 22 -54 6z m37 -36 c-3 -3 -12 -4 -19 -1 -8 3
-5 6 6 6 11 1 17 -2 13 -5z"/>
<path d="M4060 6290 c-14 -27 2 -50 36 -50 33 0 30 18 -3 23 l-28 4 28 2 c21
1 28 5 25 19 -5 26 -44 27 -58 2z m37 -6 c-3 -3 -12 -4 -19 -1 -8 3 -5 6 6 6
11 1 17 -2 13 -5z"/>
<path d="M4620 6295 c-10 -12 -11 -21 -3 -33 12 -19 44 -23 50 -5 3 7 -3 9
-16 6 -15 -4 -21 -1 -21 12 0 13 6 16 21 12 13 -3 19 -1 16 6 -6 19 -33 19
-47 2z"/>
<path d="M4900 6295 c-10 -12 -11 -21 -3 -33 12 -19 44 -23 50 -5 3 7 -3 9
-16 6 -15 -4 -21 -1 -21 12 0 13 6 16 21 12 13 -3 19 -1 16 6 -6 19 -33 19
-47 2z"/>
<path d="M14360 6300 c0 -5 5 -10 10 -10 6 0 10 5 10 10 0 6 -4 10 -10 10 -5
0 -10 -4 -10 -10z"/>
<path d="M15220 6300 c0 -5 5 -10 10 -10 6 0 10 5 10 10 0 6 -4 10 -10 10 -5
0 -10 -4 -10 -10z"/>
<path d="M496 6291 c-15 -24 -34 -91 -26 -91 5 0 12 5 15 10 9 14 42 12 48 -2
2 -7 8 -10 12 -6 9 9 -18 91 -32 95 -6 2 -14 0 -17 -6z m24 -43 c0 -5 -6 -8
-14 -8 -9 0 -12 7 -9 21 4 16 8 17 14 7 5 -7 9 -16 9 -20z"/>
<path d="M876 6284 c-19 -18 -20 -38 -6 -65 11 -20 60 -27 60 -9 0 6 -9 10
-19 10 -11 0 -23 5 -26 10 -11 18 6 50 26 50 10 0 19 5 19 10 0 16 -37 12 -54
-6z"/>
<path d="M1170 6290 c0 -5 5 -10 10 -10 6 0 10 5 10 10 0 6 -4 10 -10 10 -5 0
-10 -4 -10 -10z"/>
<path d="M1560 6290 c0 -5 5 -10 10 -10 6 0 10 5 10 10 0 6 -4 10 -10 10 -5 0
-10 -4 -10 -10z"/>
<path d="M8200 6290 c0 -5 9 -10 20 -10 11 0 20 5 20 10 0 6 -9 10 -20 10 -11
0 -20 -4 -20 -10z"/>
<path d="M8580 6290 c0 -5 9 -10 20 -10 11 0 20 5 20 10 0 6 -9 10 -20 10 -11
0 -20 -4 -20 -10z"/>
<path d="M8960 6290 c0 -5 7 -10 15 -10 8 0 15 5 15 10 0 6 -7 10 -15 10 -8 0
-15 -4 -15 -10z"/>
<path d="M9330 6290 c0 -5 9 -10 20 -10 11 0 20 5 20 10 0 6 -9 10 -20 10 -11
0 -20 -4 -20 -10z"/>
<path d="M777 6276 c-7 -19 6 -69 19 -73 9 -3 11 35 5 80 -2 12 -19 8 -24 -7z"/>
<path d="M1508 6279 c-9 -24 3 -79 18 -79 16 0 19 16 4 25 -17 10 -11 25 10
25 15 0 20 -7 20 -25 0 -14 5 -25 10 -25 6 0 10 16 10 35 0 32 -2 35 -29 35
-16 0 -31 5 -33 12 -3 8 -6 7 -10 -3z"/>
<path d="M3760 6280 c0 -5 9 -10 20 -10 11 0 20 5 20 10 0 6 -9 10 -20 10 -11
0 -20 -4 -20 -10z"/>
<path d="M4130 6280 c0 -5 9 -10 20 -10 11 0 20 5 20 10 0 6 -9 10 -20 10 -11
0 -20 -4 -20 -10z"/>
<path d="M4480 6280 c0 -5 7 -10 15 -10 8 0 15 5 15 10 0 6 -7 10 -15 10 -8 0
-15 -4 -15 -10z"/>
<path d="M4840 6280 c0 -5 9 -10 20 -10 11 0 20 5 20 10 0 6 -9 10 -20 10 -11
0 -20 -4 -20 -10z"/>
<path d="M11150 6266 c0 -11 9 -16 30 -16 17 0 30 5 30 10 0 6 -6 10 -14 10
-8 0 -21 3 -30 6 -11 4 -16 1 -16 -10z"/>
<path d="M11560 6266 c0 -11 9 -16 30 -16 17 0 30 5 30 10 0 6 -6 10 -14 10
-8 0 -21 3 -30 6 -11 4 -16 1 -16 -10z"/>
<path d="M570 6250 c0 -11 5 -20 10 -20 6 0 10 -4 10 -10 0 -5 -7 -6 -17 -3
-11 4 -14 3 -9 -5 12 -20 46 -14 46 8 0 11 -4 20 -10 20 -5 0 -10 5 -10 11 0
5 5 7 10 4 6 -3 10 -1 10 4 0 6 -9 11 -20 11 -13 0 -20 -7 -20 -20z"/>
<path d="M634 6258 c-4 -6 0 -16 9 -23 21 -15 22 -29 2 -21 -8 3 -15 1 -15 -4
0 -14 37 -12 46 2 4 6 0 16 -9 23 -18 13 -24 30 -7 20 6 -3 10 -1 10 4 0 15
-27 14 -36 -1z"/>
<path d="M699 6254 c-16 -20 -1 -48 30 -52 28 -4 27 15 -1 21 -20 4 -19 4 5 6
29 1 34 10 15 29 -16 16 -33 15 -49 -4z m38 -10 c-3 -3 -12 -4 -19 -1 -8 3 -5
6 6 6 11 1 17 -2 13 -5z"/>
<path d="M954 6256 c-9 -24 0 -51 19 -54 23 -5 47 15 47 38 0 29 -56 42 -66
16z m46 -21 c0 -8 -6 -15 -14 -15 -17 0 -28 14 -19 24 12 12 33 6 33 -9z"/>
<path d="M1040 6234 c0 -19 5 -34 10 -34 6 0 10 12 10 26 0 32 22 27 32 -7 5
-19 6 -17 5 11 -2 31 -5 35 -29 36 -25 1 -28 -2 -28 -32z"/>
<path d="M1217 6263 c-3 -5 -7 -26 -8 -48 -4 -39 -3 -40 26 -40 37 0 41 26 5
36 -15 4 -18 7 -8 8 15 1 38 28 38 45 0 9 -48 7 -53 -1z m30 -69 c-3 -3 -12
-4 -19 -1 -8 3 -5 6 6 6 11 1 17 -2 13 -5z"/>
<path d="M1293 6240 c2 -31 5 -35 30 -36 24 -1 27 2 27 32 0 19 -4 34 -10 34
-5 0 -10 -12 -10 -26 0 -32 -22 -27 -32 7 -5 19 -6 17 -5 -11z"/>
<path d="M1370 6234 c0 -19 5 -34 10 -34 6 0 10 11 10 25 0 16 6 25 15 25 8 0
15 4 15 9 0 5 -11 9 -25 9 -22 0 -25 -5 -25 -34z"/>
<path d="M1430 6261 c0 -6 8 -11 18 -12 12 0 11 -3 -6 -10 -30 -12 -23 -33 12
-37 26 -3 27 -1 24 30 -2 25 -8 34 -25 36 -13 2 -23 -1 -23 -7z"/>
<path d="M1600 6250 c-9 -16 -8 -25 1 -36 26 -32 84 0 62 34 -16 26 -50 27
-63 2z m50 -9 c0 -14 -18 -23 -30 -16 -6 4 -8 11 -5 16 8 12 35 12 35 0z"/>
<path d="M1680 6234 c0 -37 17 -47 22 -12 5 32 28 35 28 4 0 -14 5 -26 11 -26
6 0 9 14 7 33 -3 28 -7 32 -35 34 -31 1 -33 -1 -33 -33z"/>
<path d="M7190 6260 c0 -5 5 -10 10 -10 6 0 10 5 10 10 0 6 -4 10 -10 10 -5 0
-10 -4 -10 -10z"/>
<path d="M7530 6260 c0 -5 5 -10 10 -10 6 0 10 5 10 10 0 6 -4 10 -10 10 -5 0
-10 -4 -10 -10z"/>
<path d="M11310 6260 c0 -5 5 -10 10 -10 6 0 10 5 10 10 0 6 -4 10 -10 10 -5
0 -10 -4 -10 -10z"/>
<path d="M11520 6260 c0 -5 5 -10 10 -10 6 0 10 5 10 10 0 6 -4 10 -10 10 -5
0 -10 -4 -10 -10z"/>
<path d="M12290 6260 c0 -5 5 -10 10 -10 6 0 10 5 10 10 0 6 -4 10 -10 10 -5
0 -10 -4 -10 -10z"/>
<path d="M13220 6256 c0 -11 9 -16 30 -16 17 0 30 5 30 10 0 6 -6 10 -14 10
-8 0 -21 3 -30 6 -11 4 -16 1 -16 -10z"/>
<path d="M13630 6256 c0 -11 9 -16 30 -16 17 0 30 5 30 10 0 6 -6 10 -14 10
-8 0 -21 3 -30 6 -11 4 -16 1 -16 -10z"/>
<path d="M13380 6250 c0 -5 5 -10 10 -10 6 0 10 5 10 10 0 6 -4 10 -10 10 -5
0 -10 -4 -10 -10z"/>
<path d="M13590 6250 c0 -5 5 -10 10 -10 6 0 10 5 10 10 0 6 -4 10 -10 10 -5
0 -10 -4 -10 -10z"/>
<path d="M14360 6250 c0 -5 5 -10 10 -10 6 0 10 5 10 10 0 6 -4 10 -10 10 -5
0 -10 -4 -10 -10z"/>
<path d="M15220 6250 c0 -5 5 -10 10 -10 6 0 10 5 10 10 0 6 -4 10 -10 10 -5
0 -10 -4 -10 -10z"/>
<path d="M15220 6200 c0 -5 5 -10 10 -10 6 0 10 5 10 10 0 6 -4 10 -10 10 -5
0 -10 -4 -10 -10z"/>
<path d="M618 6103 c232 -2 612 -2 845 0 232 1 42 2 -423 2 -465 0 -655 -1
-422 -2z"/>
<path d="M7081 5815 c-13 -36 -21 -69 -18 -72 6 -6 15 12 43 91 16 45 16 46 6
46 -5 0 -19 -29 -31 -65z"/>
<path d="M2534 5857 c-3 -8 -4 -41 -2 -73 l3 -59 75 0 75 0 0 70 0 70 -73 3
c-55 2 -74 0 -78 -11z m146 -62 l0 -65 -70 0 -70 0 0 65 0 65 70 0 70 0 0 -65z"/>
<path d="M3260 5831 c0 -13 -8 -21 -22 -23 -18 -2 -23 -10 -23 -33 0 -27 3
-30 33 -32 l32 -1 0 54 c0 30 -4 54 -10 54 -5 0 -10 -9 -10 -19z m-8 -56 c0
-5 -5 -11 -11 -13 -6 -2 -11 4 -11 13 0 9 5 15 11 13 6 -2 11 -8 11 -13z"/>
<path d="M3340 5831 c0 -10 -9 -21 -21 -24 -16 -4 -20 -12 -17 -34 2 -23 8
-28 31 -29 26 -1 27 1 27 52 0 30 -4 54 -10 54 -5 0 -10 -8 -10 -19z m0 -56
c0 -8 -4 -15 -9 -15 -13 0 -22 16 -14 24 11 11 23 6 23 -9z"/>
<path d="M4580 5796 l0 -54 33 1 c29 2 32 5 32 32 0 25 -4 30 -22 29 -18 0
-23 5 -23 23 0 13 -4 23 -10 23 -5 0 -10 -24 -10 -54z m50 -21 c0 -8 -7 -15
-15 -15 -8 0 -15 7 -15 15 0 8 7 15 15 15 8 0 15 -7 15 -15z"/>
<path d="M4830 5797 c0 -53 1 -54 30 -55 24 0 31 4 36 23 8 31 -3 48 -27 42
-15 -4 -19 0 -19 19 0 13 -4 24 -10 24 -5 0 -10 -24 -10 -53z m50 -22 c0 -8
-7 -15 -15 -15 -8 0 -15 7 -15 15 0 8 7 15 15 15 8 0 15 -7 15 -15z"/>
<path d="M5170 5825 c0 -16 -4 -23 -13 -19 -8 3 -20 -2 -27 -11 -19 -23 -1
-50 34 -51 25 -1 26 1 26 52 0 30 -4 54 -10 54 -5 0 -10 -11 -10 -25z m0 -50
c0 -8 -7 -15 -15 -15 -8 0 -15 7 -15 15 0 8 7 15 15 15 8 0 15 -7 15 -15z"/>
<path d="M5410 5831 c0 -13 -8 -21 -22 -23 -18 -2 -23 -10 -23 -33 0 -27 3
-30 33 -32 l32 -1 0 54 c0 30 -4 54 -10 54 -5 0 -10 -9 -10 -19z m-8 -56 c0
-5 -5 -11 -11 -13 -6 -2 -11 4 -11 13 0 9 5 15 11 13 6 -2 11 -8 11 -13z"/>
<path d="M3137 5834 c-14 -15 -6 -46 13 -51 11 -3 20 -9 20 -14 0 -5 -9 -9
-20 -9 -11 0 -20 -4 -20 -10 0 -15 36 -12 49 4 20 24 10 80 -14 84 -12 2 -24
0 -28 -4z m33 -24 c0 -5 -4 -10 -10 -10 -5 0 -10 5 -10 10 0 6 5 10 10 10 6 0
10 -4 10 -10z"/>
<path d="M3380 5830 c0 -5 9 -10 20 -10 23 0 24 -6 5 -40 -17 -30 -18 -40 -5
-40 9 0 50 80 50 96 0 2 -16 4 -35 4 -19 0 -35 -4 -35 -10z"/>
<path d="M3475 5831 c-3 -6 1 -11 9 -11 22 0 20 -23 -4 -45 -29 -26 -25 -35
15 -35 19 0 35 5 35 10 0 6 -10 10 -22 10 -20 0 -20 1 -4 19 10 11 16 28 14
38 -4 20 -33 30 -43 14z"/>
<path d="M3552 5828 c-17 -17 -15 -63 4 -79 22 -18 48 0 52 35 6 45 -29 71
-56 44z m38 -38 c0 -20 -5 -30 -15 -30 -10 0 -15 10 -15 30 0 20 5 30 15 30
10 0 15 -10 15 -30z"/>
<path d="M3635 5831 c-3 -6 1 -11 9 -11 22 0 20 -23 -4 -45 -29 -26 -25 -35
15 -35 19 0 35 5 35 10 0 6 -10 10 -22 10 -20 0 -20 1 -4 19 10 11 16 28 14
38 -4 20 -33 30 -43 14z"/>
<path d="M3717 5833 c-12 -11 -7 -23 7 -17 23 9 27 -12 6 -31 -29 -27 -25 -45
10 -45 17 0 30 5 30 10 0 6 -10 10 -22 10 l-21 0 23 24 c13 15 20 32 17 40 -6
16 -38 22 -50 9z"/>
<path d="M3847 5834 c-12 -13 -7 -24 8 -18 8 4 15 1 15 -5 0 -6 -4 -11 -10
-11 -5 0 -10 -4 -10 -10 0 -5 7 -10 15 -10 24 0 18 -18 -7 -23 -20 -3 -21 -4
-5 -11 32 -15 45 0 43 46 -2 34 -6 44 -22 46 -11 2 -23 0 -27 -4z"/>
<path d="M3931 5826 c-7 -8 -11 -30 -9 -48 2 -28 7 -33 28 -33 33 0 42 44 11
52 -27 7 -27 23 0 23 11 0 17 5 14 10 -9 14 -31 12 -44 -4z m29 -56 c0 -5 -4
-10 -10 -10 -5 0 -10 5 -10 10 0 6 5 10 10 10 6 0 10 -4 10 -10z"/>
<path d="M4004 5826 c-3 -8 -4 -29 -2 -48 2 -25 8 -34 25 -36 30 -4 50 41 34
75 -12 26 -48 31 -57 9z m41 -36 c0 -27 -22 -39 -31 -16 -8 22 3 49 19 43 6
-2 12 -14 12 -27z"/>
<path d="M4218 5809 c-23 -39 -23 -49 1 -49 11 0 22 -6 24 -12 7 -18 29 12 22
30 -3 8 -5 25 -5 38 0 33 -22 30 -42 -7z m22 -14 c0 -8 -4 -15 -10 -15 -5 0
-7 7 -4 15 4 8 8 15 10 15 2 0 4 -7 4 -15z"/>
<path d="M4297 5834 c-14 -15 -6 -46 13 -51 11 -3 20 -9 20 -14 0 -5 -9 -9
-20 -9 -11 0 -20 -4 -20 -10 0 -15 36 -12 49 4 20 24 10 80 -14 84 -12 2 -24
0 -28 -4z m33 -24 c0 -5 -4 -10 -10 -10 -5 0 -10 5 -10 10 0 6 5 10 10 10 6 0
10 -4 10 -10z"/>
<path d="M4457 5834 c-13 -14 -7 -22 13 -17 11 3 20 0 20 -6 0 -6 -7 -11 -15
-11 -8 0 -15 -4 -15 -10 0 -5 7 -10 15 -10 8 0 15 -5 15 -11 0 -7 -9 -9 -21
-6 -13 3 -19 1 -16 -6 6 -18 42 -20 56 -3 7 9 9 21 5 28 -5 7 -8 22 -9 33 0
20 -34 33 -48 19z"/>
<path d="M4668 5816 c-16 -37 3 -79 35 -74 19 3 22 9 22 48 0 39 -3 45 -22 48
-16 2 -26 -4 -35 -22z m42 -26 c0 -16 -5 -30 -10 -30 -14 0 -24 26 -16 45 10
26 26 16 26 -15z"/>
<path d="M4748 5816 c-16 -37 3 -79 35 -74 19 3 22 9 22 48 0 39 -3 45 -22 48
-16 2 -26 -4 -35 -22z m42 -26 c0 -16 -5 -30 -10 -30 -14 0 -24 26 -16 45 10
26 26 16 26 -15z"/>
<path d="M5055 5831 c-3 -6 1 -11 9 -11 9 0 16 -4 16 -10 0 -5 -7 -10 -15 -10
-8 0 -15 -4 -15 -10 0 -5 6 -10 14 -10 8 0 18 -5 22 -11 5 -8 -1 -10 -20 -7
-17 4 -25 1 -23 -6 6 -17 42 -19 56 -2 7 9 9 21 5 28 -5 7 -8 22 -9 33 0 21
-29 33 -40 16z"/>
<path d="M5226 5815 c-21 -33 -20 -55 3 -55 11 0 22 -6 24 -12 7 -18 29 12 22
30 -3 8 -5 25 -5 38 0 31 -23 31 -44 -1z m20 -32 c-10 -10 -19 5 -10 18 6 11
8 11 12 0 2 -7 1 -15 -2 -18z"/>
<path d="M5440 5830 c0 -5 11 -10 25 -10 l25 0 -20 -40 c-11 -22 -16 -40 -10
-40 10 0 50 71 50 90 0 5 -16 10 -35 10 -19 0 -35 -4 -35 -10z"/>
<path d="M5531 5827 c-15 -19 -4 -45 22 -50 l22 -4 -22 -8 c-28 -9 -30 -25 -4
-25 27 0 43 24 39 62 -2 25 -8 34 -24 36 -11 2 -26 -3 -33 -11z m39 -17 c0 -5
-7 -10 -15 -10 -8 0 -15 5 -15 10 0 6 7 10 15 10 8 0 15 -4 15 -10z"/>
<path d="M5614 5826 c-3 -8 -3 -20 1 -26 4 -6 2 -17 -4 -24 -14 -17 10 -39 36
-34 14 3 18 13 18 48 0 39 -3 45 -23 48 -13 2 -24 -3 -28 -12z m36 -16 c0 -5
-4 -10 -10 -10 -5 0 -10 5 -10 10 0 6 5 10 10 10 6 0 10 -4 10 -10z m0 -40 c0
-5 -7 -10 -15 -10 -8 0 -15 5 -15 10 0 6 7 10 15 10 8 0 15 -4 15 -10z"/>
<path d="M5699 5823 c-10 -11 -10 -14 -1 -9 8 5 12 -2 12 -23 0 -17 -4 -31
-10 -31 -5 0 -10 -4 -10 -10 0 -5 14 -10 30 -10 17 0 30 5 30 10 0 6 -4 10
-10 10 -5 0 -10 18 -10 40 0 43 -9 50 -31 23z"/>
<path d="M5854 5826 c-3 -8 -4 -29 -2 -48 2 -25 8 -34 25 -36 30 -4 50 41 34
75 -12 26 -48 31 -57 9z m41 -36 c0 -27 -22 -39 -31 -16 -8 22 3 49 19 43 6
-2 12 -14 12 -27z"/>
<path d="M13831 5775 c-13 -36 -21 -69 -18 -72 6 -6 15 12 43 91 16 45 16 46
6 46 -5 0 -19 -29 -31 -65z"/>
<path d="M15220 5830 c0 -5 5 -10 10 -10 6 0 10 5 10 10 0 6 -4 10 -10 10 -5
0 -10 -4 -10 -10z"/>
<path d="M6980 5794 c0 -19 5 -34 10 -34 6 0 10 11 10 25 0 16 6 25 15 25 9 0
15 -9 15 -25 0 -14 5 -25 10 -25 12 0 13 40 2 56 -4 7 -19 12 -34 12 -25 0
-28 -4 -28 -34z"/>
<path d="M7135 5821 c-3 -7 3 -11 17 -12 l23 0 -22 -9 c-35 -14 -29 -40 8 -40
28 0 30 2 27 33 -2 24 -8 33 -25 35 -11 2 -24 -2 -28 -7z"/>
<path d="M11167 5823 c-13 -13 -7 -21 13 -16 23 6 25 0 10 -28 -7 -12 -7 -19
-1 -19 15 0 33 39 27 56 -6 14 -37 19 -49 7z"/>
<path d="M11247 5824 c-14 -15 -6 -46 13 -51 11 -3 20 -9 20 -14 0 -5 -9 -9
-20 -9 -11 0 -20 -4 -20 -10 0 -15 36 -12 49 4 20 24 10 80 -14 84 -12 2 -24
0 -28 -4z m33 -24 c0 -5 -4 -10 -10 -10 -5 0 -10 5 -10 10 0 6 5 10 10 10 6 0
10 -4 10 -10z"/>
<path d="M11372 5818 c-17 -17 -15 -63 4 -79 22 -18 48 0 52 35 6 45 -29 71
-56 44z m38 -38 c0 -20 -5 -30 -15 -30 -10 0 -15 10 -15 30 0 20 5 30 15 30
10 0 15 -10 15 -30z"/>
<path d="M11463 5823 c-7 -2 -13 -9 -13 -14 0 -6 5 -7 10 -4 6 4 10 -7 10 -24
0 -17 -4 -31 -10 -31 -5 0 -10 -4 -10 -10 0 -5 14 -10 30 -10 17 0 30 5 30 10
0 6 -4 10 -10 10 -5 0 -10 18 -10 40 0 40 -3 43 -27 33z"/>
<path d="M11577 5823 c-13 -13 -7 -21 13 -16 23 6 25 0 10 -28 -7 -12 -7 -19
-1 -19 15 0 33 39 27 56 -6 14 -37 19 -49 7z"/>
<path d="M11654 5816 c-3 -8 -4 -29 -2 -48 2 -25 8 -34 25 -36 30 -4 50 41 34
75 -12 26 -48 31 -57 9z m41 -36 c0 -13 -6 -25 -12 -27 -16 -6 -27 21 -19 43
9 23 31 11 31 -16z"/>
<path d="M11737 5824 c-13 -14 -7 -22 13 -17 13 4 20 0 20 -9 0 -8 -9 -23 -20
-33 -29 -26 -25 -35 15 -35 19 0 35 5 35 10 0 6 -10 10 -22 10 -20 0 -20 1 -4
19 10 11 16 28 14 38 -3 18 -38 30 -51 17z"/>
<path d="M11810 5806 c0 -17 6 -26 20 -28 25 -4 22 -23 -3 -22 -10 0 -16 -4
-14 -10 2 -6 15 -11 28 -11 35 0 41 51 7 64 l-23 10 23 0 c34 1 26 21 -8 21
-25 0 -30 -4 -30 -24z"/>
<path d="M11934 5816 c-3 -8 -4 -29 -2 -48 2 -25 8 -34 25 -36 30 -4 50 41 34
75 -12 26 -48 31 -57 9z m41 -36 c0 -27 -22 -39 -31 -16 -8 22 3 49 19 43 6
-2 12 -14 12 -27z"/>
<path d="M12017 5823 c-2 -4 -4 -26 -3 -48 1 -32 5 -41 21 -43 30 -3 49 13 40
34 -4 11 -8 28 -9 39 -1 20 -39 34 -49 18z m33 -23 c0 -5 -4 -10 -10 -10 -5 0
-10 5 -10 10 0 6 5 10 10 10 6 0 10 -4 10 -10z m10 -40 c0 -5 -7 -10 -15 -10
-8 0 -15 5 -15 10 0 6 7 10 15 10 8 0 15 -4 15 -10z"/>
<path d="M12138 5806 c-16 -37 3 -79 35 -74 19 3 22 9 22 48 0 39 -3 45 -22
48 -16 2 -26 -4 -35 -22z m42 -26 c0 -31 -16 -41 -26 -15 -8 19 2 45 16 45 5
0 10 -13 10 -30z"/>
<path d="M12218 5806 c-16 -37 3 -79 35 -74 19 3 22 9 22 48 0 39 -3 45 -22
48 -16 2 -26 -4 -35 -22z m42 -26 c0 -31 -16 -41 -26 -15 -8 19 2 45 16 45 5
0 10 -13 10 -30z"/>
<path d="M12352 5818 c-18 -18 -15 -77 4 -85 24 -9 49 10 52 41 6 45 -29 71
-56 44z m33 -38 c0 -13 -6 -25 -12 -27 -9 -3 -13 6 -13 27 0 21 4 30 13 28 6
-3 12 -15 12 -28z"/>
<path d="M12432 5818 c-17 -17 -15 -63 4 -79 22 -18 48 0 52 35 6 45 -29 71
-56 44z m38 -38 c0 -20 -5 -30 -15 -30 -10 0 -15 10 -15 30 0 20 5 30 15 30
10 0 15 -10 15 -30z"/>
<path d="M4085 5801 c-3 -7 3 -11 17 -12 l23 0 -22 -9 c-35 -14 -29 -40 8 -40
28 0 30 2 27 33 -2 24 -8 33 -25 35 -11 2 -24 -2 -28 -7z"/>
<path d="M4374 5796 c-11 -29 1 -51 29 -54 32 -4 37 15 5 21 l-23 4 23 2 c17
1 22 6 20 19 -4 22 -46 29 -54 8z"/>
<path d="M4969 5794 c-16 -20 -1 -48 30 -52 28 -4 27 15 -1 21 -20 4 -19 4 5
6 29 1 34 10 15 29 -16 16 -33 15 -49 -4z m38 -10 c-3 -3 -12 -4 -19 -1 -8 3
-5 6 6 6 11 1 17 -2 13 -5z"/>
<path d="M5294 5796 c-10 -26 1 -51 24 -54 12 -2 22 1 22 7 0 6 -7 11 -15 11
-8 0 -15 7 -15 15 0 8 7 15 15 15 8 0 15 5 15 10 0 16 -40 12 -46 -4z"/>
<path d="M5775 5801 c-3 -7 3 -11 17 -12 l23 0 -22 -9 c-35 -14 -29 -40 8 -40
28 0 30 2 27 33 -2 24 -8 33 -25 35 -11 2 -24 -2 -28 -7z"/>
<path d="M12300 5790 c0 -5 5 -10 10 -10 6 0 10 5 10 10 0 6 -4 10 -10 10 -5
0 -10 -4 -10 -10z"/>
<path d="M3780 5780 c0 -5 9 -10 20 -10 11 0 20 5 20 10 0 6 -9 10 -20 10 -11
0 -20 -4 -20 -10z"/>
<path d="M4160 5780 c0 -5 7 -10 15 -10 8 0 15 5 15 10 0 6 -7 10 -15 10 -8 0
-15 -4 -15 -10z"/>
<path d="M4530 5780 c0 -5 9 -10 20 -10 11 0 20 5 20 10 0 6 -9 10 -20 10 -11
0 -20 -4 -20 -10z"/>
<path d="M4910 5780 c0 -5 9 -10 20 -10 11 0 20 5 20 10 0 6 -9 10 -20 10 -11
0 -20 -4 -20 -10z"/>
<path d="M13730 5754 c0 -19 5 -34 10 -34 6 0 10 11 10 25 0 16 6 25 15 25 9
0 15 -9 15 -25 0 -14 5 -25 10 -25 12 0 13 40 2 56 -4 7 -19 12 -34 12 -25 0
-28 -4 -28 -34z"/>
<path d="M13885 5781 c-3 -7 3 -11 17 -12 l23 0 -22 -9 c-35 -14 -29 -40 8
-40 28 0 30 2 27 33 -2 24 -8 33 -25 35 -11 2 -24 -2 -28 -7z"/>
<path d="M15220 5780 c0 -5 5 -10 10 -10 6 0 10 5 10 10 0 6 -4 10 -10 10 -5
0 -10 -4 -10 -10z"/>
<path d="M11160 5746 c0 -11 9 -16 30 -16 17 0 30 5 30 10 0 6 -6 10 -14 10
-8 0 -21 3 -30 6 -11 4 -16 1 -16 -10z"/>
<path d="M11570 5746 c0 -11 9 -16 30 -16 17 0 30 5 30 10 0 6 -6 10 -14 10
-8 0 -21 3 -30 6 -11 4 -16 1 -16 -10z"/>
<path d="M11320 5740 c0 -5 5 -10 10 -10 6 0 10 5 10 10 0 6 -4 10 -10 10 -5
0 -10 -4 -10 -10z"/>
<path d="M11530 5740 c0 -5 5 -10 10 -10 6 0 10 5 10 10 0 6 -4 10 -10 10 -5
0 -10 -4 -10 -10z"/>
<path d="M12300 5740 c0 -5 5 -10 10 -10 6 0 10 5 10 10 0 6 -4 10 -10 10 -5
0 -10 -4 -10 -10z"/>
<path d="M15220 5730 c0 -5 5 -10 10 -10 6 0 10 5 10 10 0 6 -4 10 -10 10 -5
0 -10 -4 -10 -10z"/>
<path d="M7490 5401 c0 -13 -8 -21 -22 -23 -18 -2 -23 -10 -23 -33 0 -27 3
-30 33 -32 l32 -1 0 54 c0 30 -4 54 -10 54 -5 0 -10 -9 -10 -19z m0 -56 c0 -8
-7 -15 -15 -15 -8 0 -15 7 -15 15 0 8 7 15 15 15 8 0 15 -7 15 -15z"/>
<path d="M9430 5367 c0 -48 2 -53 24 -55 47 -4 61 53 16 65 -11 3 -20 14 -20
24 0 11 -4 19 -10 19 -5 0 -10 -24 -10 -53z m42 -22 c0 -5 -5 -11 -11 -13 -6
-2 -11 4 -11 13 0 9 5 15 11 13 6 -2 11 -8 11 -13z"/>
<path d="M10040 5401 c0 -10 -9 -21 -21 -24 -16 -4 -20 -12 -17 -34 2 -23 8
-28 31 -29 26 -1 27 1 27 52 0 30 -4 54 -10 54 -5 0 -10 -8 -10 -19z m0 -56
c0 -8 -4 -15 -9 -15 -13 0 -22 16 -14 24 11 11 23 6 23 -9z"/>
<path d="M3251 5345 c-13 -36 -21 -69 -18 -72 6 -6 15 12 43 91 16 45 16 46 6
46 -5 0 -19 -29 -31 -65z"/>
<path d="M7582 5398 c-18 -18 -15 -77 4 -85 24 -9 49 10 52 41 6 45 -29 71
-56 44z m33 -38 c0 -13 -6 -25 -12 -27 -9 -3 -13 6 -13 27 0 21 4 30 13 28 6
-3 12 -15 12 -28z"/>
<path d="M7650 5400 c0 -5 11 -10 25 -10 l25 0 -20 -40 c-11 -22 -16 -40 -10
-40 10 0 50 71 50 90 0 5 -16 10 -35 10 -19 0 -35 -4 -35 -10z"/>
<path d="M7745 5401 c-3 -6 1 -11 9 -11 9 0 16 -4 16 -10 0 -5 -7 -10 -15 -10
-8 0 -15 -4 -15 -10 0 -5 6 -10 14 -10 8 0 18 -5 22 -11 5 -8 -1 -10 -20 -7
-17 4 -25 1 -23 -6 6 -17 42 -19 56 -2 7 9 9 21 5 28 -5 7 -8 22 -9 33 0 21
-29 33 -40 16z"/>
<path d="M7827 5404 c-12 -13 -7 -24 8 -18 8 4 15 1 15 -5 0 -6 -4 -11 -10
-11 -5 0 -10 -4 -10 -10 0 -5 7 -10 15 -10 24 0 18 -18 -7 -23 -20 -3 -21 -4
-5 -11 32 -15 45 0 43 46 -2 34 -6 44 -22 46 -11 2 -23 0 -27 -4z"/>
<path d="M7901 5397 c-15 -19 -4 -45 22 -50 l22 -4 -22 -8 c-28 -9 -30 -25 -4
-25 27 0 43 24 39 62 -2 25 -8 34 -24 36 -11 2 -26 -3 -33 -11z m39 -17 c0 -5
-7 -10 -15 -10 -8 0 -15 5 -15 10 0 6 7 10 15 10 8 0 15 -4 15 -10z"/>
<path d="M7990 5378 c-26 -42 -25 -48 4 -48 13 0 27 -6 29 -12 7 -18 29 12 22
30 -3 8 -5 25 -5 38 0 35 -26 30 -50 -8z m30 -13 c0 -8 -7 -15 -16 -15 -14 0
-14 3 -4 15 7 8 14 15 16 15 2 0 4 -7 4 -15z"/>
<path d="M8071 5396 c-7 -8 -11 -30 -9 -48 2 -25 8 -34 24 -36 11 -2 26 3 33
11 15 19 4 47 -20 47 -10 0 -19 5 -19 10 0 6 9 10 20 10 11 0 20 5 20 10 0 15
-36 12 -49 -4z m39 -56 c0 -5 -7 -10 -15 -10 -8 0 -15 5 -15 10 0 6 7 10 15
10 8 0 15 -4 15 -10z"/>
<path d="M8260 5385 c0 -18 5 -25 20 -25 27 0 25 -28 -2 -33 -20 -3 -21 -4 -5
-11 21 -10 47 9 47 36 0 10 -10 23 -22 28 -18 7 -19 9 -5 9 27 1 20 21 -8 21
-20 0 -25 -5 -25 -25z"/>
<path d="M8341 5397 c-15 -19 -4 -45 22 -50 l22 -4 -22 -8 c-28 -9 -30 -25 -4
-25 27 0 43 24 39 62 -2 25 -8 34 -24 36 -11 2 -26 -3 -33 -11z m39 -17 c0 -5
-7 -10 -15 -10 -8 0 -15 5 -15 10 0 6 7 10 15 10 8 0 15 -4 15 -10z"/>
<path d="M8501 5396 c-7 -8 -11 -30 -9 -48 2 -28 7 -33 28 -33 33 0 42 44 11
52 -27 7 -27 23 0 23 11 0 17 5 14 10 -9 14 -31 12 -44 -4z m29 -56 c0 -5 -4
-10 -10 -10 -5 0 -10 5 -10 10 0 6 5 10 10 10 6 0 10 -4 10 -10z"/>
<path d="M8628 5379 c-23 -39 -23 -49 1 -49 11 0 22 -6 24 -12 7 -18 29 12 22
30 -3 8 -5 25 -5 38 0 33 -22 30 -42 -7z m22 -14 c0 -8 -4 -15 -10 -15 -5 0
-7 7 -4 15 4 8 8 15 10 15 2 0 4 -7 4 -15z"/>
<path d="M8713 5403 c-7 -2 -13 -9 -13 -14 0 -6 5 -7 10 -4 6 4 10 -7 10 -24
0 -17 -4 -31 -10 -31 -5 0 -10 -4 -10 -10 0 -5 14 -10 30 -10 17 0 30 5 30 10
0 6 -4 10 -10 10 -5 0 -10 18 -10 40 0 40 -3 43 -27 33z"/>
<path d="M8991 5397 c-15 -19 -4 -45 22 -50 l22 -4 -22 -8 c-28 -9 -30 -25 -4
-25 27 0 43 24 39 62 -2 25 -8 34 -24 36 -11 2 -26 -3 -33 -11z m39 -17 c0 -5
-7 -10 -15 -10 -8 0 -15 5 -15 10 0 6 7 10 15 10 8 0 15 -4 15 -10z"/>
<path d="M9070 5385 c0 -18 5 -25 20 -25 27 0 25 -28 -2 -33 -20 -3 -21 -4 -5
-11 21 -10 47 9 47 36 0 10 -10 23 -22 28 -18 7 -19 9 -5 9 27 1 20 21 -8 21
-20 0 -25 -5 -25 -25z"/>
<path d="M9150 5400 c0 -5 9 -10 20 -10 23 0 24 -6 5 -40 -16 -29 -18 -40 -7
-40 10 0 42 65 42 85 0 10 -10 15 -30 15 -16 0 -30 -4 -30 -10z"/>
<path d="M9234 5396 c-3 -8 -4 -29 -2 -48 2 -25 8 -34 25 -36 30 -4 50 41 34
75 -12 26 -48 31 -57 9z m41 -36 c0 -27 -22 -39 -31 -16 -8 22 3 49 19 43 6
-2 12 -14 12 -27z"/>
<path d="M9526 5385 c-21 -33 -20 -55 3 -55 11 0 22 -6 24 -12 7 -18 29 12 22
30 -3 8 -5 25 -5 38 0 31 -23 31 -44 -1z m20 -32 c-10 -10 -19 5 -10 18 6 11
8 11 12 0 2 -7 1 -15 -2 -18z"/>
<path d="M9605 5401 c-3 -6 1 -11 9 -11 9 0 16 -4 16 -10 0 -5 -7 -10 -15 -10
-8 0 -15 -4 -15 -10 0 -5 6 -10 14 -10 8 0 18 -5 22 -11 5 -8 -1 -10 -20 -7
-17 4 -25 1 -23 -6 6 -17 42 -19 56 -2 7 9 9 21 5 28 -5 7 -8 22 -9 33 0 21
-29 33 -40 16z"/>
<path d="M9760 5391 c-22 -43 -2 -87 37 -79 29 5 24 51 -7 59 l-25 7 23 7 c27
9 29 25 2 25 -10 0 -24 -9 -30 -19z m40 -51 c0 -5 -7 -10 -15 -10 -8 0 -15 5
-15 10 0 6 7 10 15 10 8 0 15 -4 15 -10z"/>
<path d="M9928 5379 c-23 -39 -23 -49 1 -49 11 0 22 -6 24 -12 7 -18 29 12 22
30 -3 8 -5 25 -5 38 0 33 -22 30 -42 -7z m22 -14 c0 -8 -4 -15 -10 -15 -5 0
-7 7 -4 15 4 8 8 15 10 15 2 0 4 -7 4 -15z"/>
<path d="M10172 5398 c-18 -18 -15 -77 4 -85 24 -9 49 10 52 41 6 45 -29 71
-56 44z m33 -38 c0 -13 -6 -25 -12 -27 -9 -3 -13 6 -13 27 0 21 4 30 13 28 6
-3 12 -15 12 -28z"/>
<path d="M10254 5398 c-4 -6 -2 -14 4 -16 15 -5 16 -52 2 -52 -5 0 -10 -4 -10
-10 0 -5 14 -10 30 -10 17 0 30 5 30 10 0 6 -4 10 -10 10 -5 0 -10 18 -10 40
0 40 -19 55 -36 28z"/>
<path d="M2534 5387 c-3 -8 -4 -41 -2 -73 l3 -59 75 0 75 0 0 70 0 70 -73 3
c-55 2 -74 0 -78 -11z m146 -62 l0 -65 -70 0 -70 0 0 65 0 65 70 0 70 0 0 -65z"/>
<path d="M11711 5335 c-13 -36 -21 -69 -18 -72 6 -6 15 12 43 91 16 45 16 46
6 46 -5 0 -19 -29 -31 -65z"/>
<path d="M6962 5348 c3 -29 7 -33 36 -35 30 -1 32 1 32 33 0 37 -17 47 -22 12
-5 -32 -28 -35 -28 -4 0 14 -5 26 -11 26 -6 0 -9 -14 -7 -32z"/>
<path d="M7051 5340 c1 -24 3 -28 6 -12 3 13 11 26 19 29 21 8 17 22 -6 20
-16 -1 -20 -8 -19 -37z"/>
<path d="M7100 5344 c0 -37 17 -47 22 -12 5 32 28 35 28 4 0 -14 5 -26 11 -26
6 0 9 14 7 33 -3 28 -7 32 -35 34 -31 1 -33 -1 -33 -33z"/>
<path d="M7190 5370 c0 -5 5 -10 10 -10 6 0 10 5 10 10 0 6 -4 10 -10 10 -5 0
-10 -4 -10 -10z"/>
<path d="M7232 5348 c3 -29 7 -33 36 -35 30 -1 32 1 32 33 0 19 -4 34 -10 34
-5 0 -10 -11 -10 -25 0 -16 -6 -25 -15 -25 -9 0 -15 9 -15 25 0 14 -5 25 -11
25 -6 0 -9 -14 -7 -32z"/>
<path d="M7322 5348 c3 -28 7 -33 31 -34 24 -1 27 2 27 32 0 19 -4 34 -10 34
-5 0 -10 -11 -10 -25 0 -14 -4 -25 -10 -25 -5 0 -10 11 -10 25 0 14 -5 25 -11
25 -6 0 -9 -14 -7 -32z"/>
<path d="M7413 5345 c0 -22 2 -30 4 -17 2 12 2 30 0 40 -3 9 -5 -1 -4 -23z"/>
<path d="M7530 5370 c0 -5 5 -10 10 -10 6 0 10 5 10 10 0 6 -4 10 -10 10 -5 0
-10 -4 -10 -10z"/>
<path d="M8144 5366 c-10 -26 1 -51 24 -54 12 -2 22 1 22 7 0 6 -7 11 -15 11
-8 0 -15 7 -15 15 0 8 7 15 15 15 8 0 15 5 15 10 0 16 -40 12 -46 -4z"/>
<path d="M8424 5366 c-10 -25 0 -51 20 -51 11 0 21 5 23 11 2 7 -2 11 -9 10
-7 0 -13 4 -13 9 0 6 6 9 13 9 19 -3 8 20 -11 24 -10 2 -20 -3 -23 -12z"/>
<path d="M8785 5371 c-3 -7 3 -11 17 -12 l23 0 -22 -9 c-35 -14 -29 -40 8 -40
28 0 30 2 27 33 -2 24 -8 33 -25 35 -11 2 -24 -2 -28 -7z"/>
<path d="M8860 5360 c-14 -27 2 -50 36 -50 33 0 30 18 -3 23 l-28 4 28 2 c21
1 28 5 25 19 -5 26 -44 27 -58 2z m37 -6 c-3 -3 -12 -4 -19 -1 -8 3 -5 6 6 6
11 1 17 -2 13 -5z"/>
<path d="M9364 5366 c-10 -25 0 -51 20 -51 11 0 21 5 23 11 2 7 -2 11 -9 10
-7 0 -13 4 -13 9 0 6 6 9 13 9 19 -3 8 20 -11 24 -10 2 -20 -3 -23 -12z"/>
<path d="M9680 5371 c0 -6 8 -11 18 -12 12 0 11 -3 -6 -10 -30 -12 -23 -33 12
-37 26 -3 27 -1 24 30 -2 25 -8 34 -25 36 -13 2 -23 -1 -23 -7z"/>
<path d="M9839 5364 c-16 -20 -1 -48 30 -52 28 -4 27 15 -1 21 -20 4 -19 4 5
6 29 1 34 10 15 29 -16 16 -33 15 -49 -4z m38 -10 c-3 -3 -12 -4 -19 -1 -8 3
-5 6 6 6 11 1 17 -2 13 -5z"/>
<path d="M10085 5371 c-3 -7 3 -11 17 -12 l23 0 -23 -10 c-30 -12 -23 -33 12
-37 26 -3 27 -1 24 30 -2 25 -8 34 -25 36 -11 2 -24 -2 -28 -7z"/>
<path d="M15220 5360 c0 -5 5 -10 10 -10 6 0 10 5 10 10 0 6 -4 10 -10 10 -5
0 -10 -4 -10 -10z"/>
<path d="M3150 5324 c0 -19 5 -34 10 -34 6 0 10 11 10 25 0 16 6 25 15 25 9 0
15 -9 15 -25 0 -14 5 -25 10 -25 12 0 13 40 2 56 -4 7 -19 12 -34 12 -25 0
-28 -4 -28 -34z"/>
<path d="M3305 5351 c-3 -7 3 -11 17 -12 l23 0 -22 -9 c-35 -14 -29 -40 8 -40
28 0 30 2 27 33 -2 24 -8 33 -25 35 -11 2 -24 -2 -28 -7z"/>
<path d="M8200 5350 c0 -5 9 -10 20 -10 11 0 20 5 20 10 0 6 -9 10 -20 10 -11
0 -20 -4 -20 -10z"/>
<path d="M8560 5350 c0 -5 9 -10 20 -10 11 0 20 5 20 10 0 6 -9 10 -20 10 -11
0 -20 -4 -20 -10z"/>
<path d="M8930 5350 c0 -5 9 -10 20 -10 11 0 20 5 20 10 0 6 -9 10 -20 10 -11
0 -20 -4 -20 -10z"/>
<path d="M9310 5350 c0 -5 9 -10 20 -10 11 0 20 5 20 10 0 6 -9 10 -20 10 -11
0 -20 -4 -20 -10z"/>
<path d="M13227 5353 c-13 -13 -7 -21 13 -16 23 6 25 0 10 -28 -7 -12 -7 -19
-1 -19 15 0 33 39 27 56 -6 14 -37 19 -49 7z"/>
<path d="M13307 5354 c-14 -15 -6 -46 13 -51 11 -3 20 -9 20 -14 0 -5 -9 -9
-20 -9 -11 0 -20 -4 -20 -10 0 -15 36 -12 49 4 20 24 10 80 -14 84 -12 2 -24
0 -28 -4z m33 -24 c0 -5 -4 -10 -10 -10 -5 0 -10 5 -10 10 0 6 5 10 10 10 6 0
10 -4 10 -10z"/>
<path d="M13432 5348 c-17 -17 -15 -63 4 -79 22 -18 48 0 52 35 6 45 -29 71
-56 44z m38 -38 c0 -20 -5 -30 -15 -30 -10 0 -15 10 -15 30 0 20 5 30 15 30
10 0 15 -10 15 -30z"/>
<path d="M13523 5353 c-7 -2 -13 -9 -13 -14 0 -6 5 -7 10 -4 6 4 10 -7 10 -24
0 -17 -4 -31 -10 -31 -5 0 -10 -4 -10 -10 0 -5 14 -10 30 -10 17 0 30 5 30 10
0 6 -4 10 -10 10 -5 0 -10 18 -10 40 0 40 -3 43 -27 33z"/>
<path d="M13637 5353 c-13 -13 -7 -21 13 -16 23 6 25 0 10 -28 -7 -12 -7 -19
-1 -19 15 0 33 39 27 56 -6 14 -37 19 -49 7z"/>
<path d="M13714 5346 c-3 -8 -4 -29 -2 -48 2 -25 8 -34 25 -36 30 -4 50 41 34
75 -12 26 -48 31 -57 9z m41 -36 c0 -27 -22 -39 -31 -16 -8 22 3 49 19 43 6
-2 12 -14 12 -27z"/>
<path d="M13797 5354 c-13 -14 -7 -22 13 -17 13 4 20 0 20 -9 0 -8 -9 -23 -20
-33 -29 -26 -25 -35 15 -35 19 0 35 5 35 10 0 6 -10 10 -22 10 -20 0 -20 1 -4
19 10 11 16 28 14 38 -3 18 -38 30 -51 17z"/>
<path d="M13870 5336 c0 -17 6 -26 20 -28 25 -4 22 -23 -3 -22 -10 0 -16 -4
-14 -10 2 -6 15 -11 28 -11 35 0 41 51 7 64 l-23 10 23 0 c34 1 26 21 -8 21
-25 0 -30 -4 -30 -24z"/>
<path d="M13994 5346 c-3 -8 -4 -29 -2 -48 2 -25 8 -34 25 -36 30 -4 50 41 34
75 -12 26 -48 31 -57 9z m41 -36 c0 -27 -22 -39 -31 -16 -8 22 3 49 19 43 6
-2 12 -14 12 -27z"/>
<path d="M14077 5353 c-2 -4 -4 -26 -3 -48 1 -32 5 -41 21 -43 30 -3 49 13 40
34 -4 11 -8 28 -9 39 -1 20 -39 34 -49 18z m33 -23 c0 -5 -4 -10 -10 -10 -5 0
-10 5 -10 10 0 6 5 10 10 10 6 0 10 -4 10 -10z m10 -40 c0 -5 -7 -10 -15 -10
-8 0 -15 5 -15 10 0 6 7 10 15 10 8 0 15 -4 15 -10z"/>
<path d="M14198 5336 c-16 -37 3 -79 35 -74 19 3 22 9 22 48 0 39 -3 45 -22
48 -16 2 -26 -4 -35 -22z m42 -26 c0 -16 -5 -30 -10 -30 -14 0 -24 26 -16 45
10 26 26 16 26 -15z"/>
<path d="M14278 5336 c-16 -37 3 -79 35 -74 19 3 22 9 22 48 0 39 -3 45 -22
48 -16 2 -26 -4 -35 -22z m42 -26 c0 -16 -5 -30 -10 -30 -14 0 -24 26 -16 45
10 26 26 16 26 -15z"/>
<path d="M14412 5348 c-18 -18 -15 -77 4 -85 24 -9 49 10 52 41 6 45 -29 71
-56 44z m33 -38 c0 -13 -6 -25 -12 -27 -9 -3 -13 6 -13 27 0 21 4 30 13 28 6
-3 12 -15 12 -28z"/>
<path d="M14492 5348 c-17 -17 -15 -63 4 -79 22 -18 48 0 52 35 6 45 -29 71
-56 44z m38 -38 c0 -20 -5 -30 -15 -30 -10 0 -15 10 -15 30 0 20 5 30 15 30
10 0 15 -10 15 -30z"/>
<path d="M11610 5314 c0 -19 5 -34 10 -34 6 0 10 11 10 25 0 16 6 25 15 25 9
0 15 -9 15 -25 0 -14 5 -25 10 -25 12 0 13 40 2 56 -4 7 -19 12 -34 12 -25 0
-28 -4 -28 -34z"/>
<path d="M11765 5341 c-3 -7 3 -11 17 -12 l23 0 -22 -9 c-35 -14 -29 -40 8
-40 28 0 30 2 27 33 -2 24 -8 33 -25 35 -11 2 -24 -2 -28 -7z"/>
<path d="M7190 5320 c0 -5 5 -10 10 -10 6 0 10 5 10 10 0 6 -4 10 -10 10 -5 0
-10 -4 -10 -10z"/>
<path d="M7530 5320 c0 -5 5 -10 10 -10 6 0 10 5 10 10 0 6 -4 10 -10 10 -5 0
-10 -4 -10 -10z"/>
<path d="M14360 5320 c0 -5 5 -10 10 -10 6 0 10 5 10 10 0 6 -4 10 -10 10 -5
0 -10 -4 -10 -10z"/>
<path d="M15220 5310 c0 -5 5 -10 10 -10 6 0 10 5 10 10 0 6 -4 10 -10 10 -5
0 -10 -4 -10 -10z"/>
<path d="M13220 5276 c0 -11 9 -16 30 -16 17 0 30 5 30 10 0 6 -6 10 -14 10
-8 0 -21 3 -30 6 -11 4 -16 1 -16 -10z"/>
<path d="M13630 5276 c0 -11 9 -16 30 -16 17 0 30 5 30 10 0 6 -6 10 -14 10
-8 0 -21 3 -30 6 -11 4 -16 1 -16 -10z"/>
<path d="M13380 5270 c0 -5 5 -10 10 -10 6 0 10 5 10 10 0 6 -4 10 -10 10 -5
0 -10 -4 -10 -10z"/>
<path d="M13590 5270 c0 -5 5 -10 10 -10 6 0 10 5 10 10 0 6 -4 10 -10 10 -5
0 -10 -4 -10 -10z"/>
<path d="M14360 5270 c0 -5 5 -10 10 -10 6 0 10 5 10 10 0 6 -4 10 -10 10 -5
0 -10 -4 -10 -10z"/>
<path d="M15220 5260 c0 -5 5 -10 10 -10 6 0 10 5 10 10 0 6 -4 10 -10 10 -5
0 -10 -4 -10 -10z"/>
<path d="M2520 4720 l0 -240 885 0 885 0 0 240 0 240 -885 0 -885 0 0 -240z
m451 18 c0 -18 3 -27 6 -20 2 6 20 12 38 12 29 0 34 -4 37 -25 2 -14 8 -26 13
-26 6 0 11 12 13 26 5 42 32 31 32 -14 0 -38 -1 -39 -37 -39 -41 0 -53 10 -53
48 0 23 -1 23 -17 7 -16 -15 -16 -18 2 -37 18 -20 18 -20 -3 -20 -12 0 -22 6
-23 13 0 10 -2 10 -6 0 -2 -7 -11 -13 -19 -13 -10 0 -14 15 -14 60 0 47 3 60
15 60 10 0 15 -11 16 -32z m479 -28 c0 -47 -3 -60 -15 -60 -12 0 -15 13 -15
60 0 47 3 60 15 60 12 0 15 -13 15 -60z m410 -1 l0 -60 -37 3 c-36 3 -38 5
-38 38 0 29 4 36 23 38 14 2 22 10 22 23 0 10 7 19 15 19 12 0 15 -13 15 -61z
m-1170 6 c0 -38 3 -45 20 -45 11 0 20 -4 20 -10 0 -5 -16 -10 -35 -10 l-35 0
0 55 c0 42 3 55 15 55 11 0 15 -12 15 -45z m981 28 c1 -5 2 -27 3 -51 2 -34
-1 -42 -13 -40 -9 2 -17 15 -19 30 -3 22 -8 26 -30 25 -16 -2 -27 -8 -27 -17
0 -8 8 -14 18 -14 9 1 17 -5 17 -13 0 -20 -50 -13 -64 10 -17 26 5 51 48 55
20 2 36 7 36 13 0 11 30 12 31 2z m-851 -30 c10 -17 10 -17 20 0 21 34 80 18
80 -23 0 -41 -59 -58 -79 -22 -9 16 -11 16 -23 -1 -10 -13 -24 -18 -43 -15
-25 2 -31 8 -33 32 -2 16 2 32 10 37 22 14 56 10 68 -8z m386 -9 c7 -28 -10
-54 -37 -54 -12 0 -19 -7 -19 -20 0 -11 -7 -20 -15 -20 -12 0 -15 13 -15 59
l0 59 40 0 c34 1 41 -3 46 -24z m114 16 c0 -5 -8 -10 -17 -10 -17 -1 -17 -1 0
-11 15 -9 22 -7 34 11 20 29 67 24 71 -7 3 -19 -2 -23 -25 -24 l-28 -2 28 -4
c15 -2 27 -9 27 -14 0 -12 -57 -12 -65 1 -4 7 -12 7 -25 0 -24 -13 -60 -13
-60 0 0 6 10 10 23 11 l22 0 -22 11 c-23 11 -29 28 -16 41 10 11 53 8 53 -3z
m218 -17 c3 -19 -2 -23 -25 -24 l-28 -2 28 -4 c36 -6 35 -23 -3 -23 -37 0 -56
30 -40 61 16 28 64 23 68 -8z m220 15 c20 -20 13 -38 -15 -39 -24 -2 -25 -2
-5 -6 29 -6 29 -23 -1 -23 -27 0 -47 17 -47 40 0 9 5 21 12 28 7 7 19 12 28
12 9 0 21 -5 28 -12z"/>
<path d="M3805 4700 c-7 -12 2 -30 16 -30 5 0 9 9 9 20 0 21 -15 27 -25 10z"/>
<path d="M2764 4699 c-10 -17 13 -36 27 -22 12 12 4 33 -11 33 -5 0 -12 -5
-16 -11z"/>
<path d="M2864 4699 c-10 -17 13 -36 27 -22 12 12 4 33 -11 33 -5 0 -12 -5
-16 -11z"/>
<path d="M3157 4703 c-13 -12 -7 -33 8 -33 8 0 15 9 15 20 0 20 -11 26 -23 13z"/>
<path d="M3498 4703 c7 -3 16 -2 19 1 4 3 -2 6 -13 5 -11 0 -14 -3 -6 -6z"/>
<path d="M4610 4730 l0 -230 905 0 905 0 0 230 0 230 -905 0 -905 0 0 -230z
m720 10 c0 -47 -3 -60 -15 -60 -12 0 -15 13 -15 60 0 47 3 60 15 60 12 0 15
-13 15 -60z m420 1 l0 -60 -42 2 c-41 2 -43 4 -46 35 -3 29 0 33 27 38 21 5
31 12 31 25 0 11 7 19 15 19 12 0 15 -13 15 -59z m-920 34 c0 -8 8 -15 19 -15
11 0 21 -9 25 -22 l7 -23 9 23 c9 22 30 31 30 13 0 -5 -9 -30 -20 -55 -19 -45
-43 -66 -58 -51 -4 4 -1 10 6 12 29 11 -9 113 -43 113 -22 0 -18 -12 12 -36
24 -19 26 -24 14 -38 -17 -20 -71 -22 -71 -2 0 9 7 12 20 9 11 -3 20 0 20 5 0
6 -9 16 -20 22 -19 10 -27 40 -13 53 13 14 63 7 63 -8z m728 -12 c12 -12 13
-18 4 -21 -14 -4 -16 -42 -2 -42 6 0 10 -5 10 -11 0 -6 -10 -9 -22 -7 -16 2
-24 12 -29 37 -12 57 6 77 39 44z m-550 -45 c2 -29 0 -38 -12 -38 -11 0 -16 9
-16 30 0 17 -4 30 -10 30 -5 0 -10 -13 -10 -30 0 -20 -5 -30 -15 -30 -11 0
-15 11 -15 41 l0 40 38 -3 c35 -3 37 -5 40 -40z m82 28 c0 -8 -8 -13 -17 -12
-10 0 -18 -6 -18 -14 0 -8 8 -14 18 -14 9 1 17 -4 17 -12 0 -19 -44 -18 -60 1
-20 24 3 65 35 65 15 0 25 -6 25 -14z m120 4 c0 -5 -10 -10 -22 -11 -22 0 -22
-1 -3 -9 15 -6 24 -3 36 12 21 27 63 21 67 -9 3 -19 -2 -23 -25 -24 l-28 -2
28 -4 c37 -6 35 -23 -3 -23 -19 0 -33 6 -37 16 -5 15 -7 15 -15 0 -10 -17 -68
-23 -68 -6 0 6 10 10 22 10 l22 0 -22 16 c-18 13 -21 19 -11 30 13 16 59 19
59 4z m211 -6 c11 -14 13 -14 21 0 11 20 58 21 58 2 0 -8 -8 -13 -17 -12 -10
0 -18 -6 -18 -14 0 -8 8 -14 18 -14 9 1 17 -4 17 -12 0 -19 -44 -18 -60 1 -7
8 -24 14 -39 14 -23 -2 -24 -2 -3 -6 34 -7 26 -25 -10 -21 -28 3 -34 7 -36 32
-5 43 41 64 69 30z m227 -11 c3 -19 -2 -23 -25 -24 l-28 -2 28 -4 c35 -6 35
-23 -1 -23 -31 0 -52 16 -52 40 0 43 72 55 78 13z"/>
<path d="M5690 4720 c0 -13 5 -20 13 -17 6 2 12 10 12 17 0 7 -6 15 -12 18 -8
2 -13 -5 -13 -18z"/>
<path d="M5248 4733 c7 -3 16 -2 19 1 4 3 -2 6 -13 5 -11 0 -14 -3 -6 -6z"/>
<path d="M6690 4730 l0 -230 960 0 960 0 0 230 0 230 -960 0 -960 0 0 -230z
m605 51 c7 -12 -12 -24 -25 -16 -11 7 -4 25 10 25 5 0 11 -4 15 -9z m275 -51
c0 -47 -3 -60 -15 -60 -12 0 -15 13 -15 60 0 47 3 60 15 60 12 0 15 -13 15
-60z m140 36 c0 -19 4 -22 25 -19 19 4 25 0 31 -21 9 -35 -11 -56 -52 -56
l-34 0 0 60 c0 47 3 60 15 60 9 0 15 -9 15 -24z m192 -33 l3 -58 18 53 c25 71
47 70 74 -3 20 -53 20 -55 2 -55 -11 0 -19 5 -19 10 0 6 -9 10 -20 10 -11 0
-20 -4 -20 -10 0 -5 -16 -10 -35 -10 l-35 0 0 60 c0 46 3 60 15 60 10 0 15
-15 17 -57z m258 -3 l0 -59 -36 2 c-43 2 -65 27 -48 55 6 9 21 18 33 20 13 2
21 11 21 23 0 10 7 19 15 19 12 0 15 -13 15 -60z m-1300 35 c0 -8 8 -15 19
-15 11 0 21 -9 25 -22 l7 -23 9 23 c9 22 30 31 30 13 0 -5 -9 -30 -20 -55 -19
-45 -43 -66 -58 -51 -4 4 -1 10 6 12 29 11 -9 113 -43 113 -22 0 -18 -12 12
-36 24 -19 26 -24 14 -38 -17 -20 -71 -22 -71 -2 0 9 7 12 20 9 11 -3 20 0 20
5 0 6 -9 16 -20 22 -19 10 -27 40 -13 53 13 14 63 7 63 -8z m1200 -40 c0 -42
-3 -55 -15 -55 -12 0 -15 13 -15 55 0 42 3 55 15 55 12 0 15 -13 15 -55z
m-1022 -17 c2 -29 0 -38 -12 -38 -11 0 -16 9 -16 30 0 17 -4 30 -10 30 -5 0
-10 -13 -10 -30 0 -20 -5 -30 -15 -30 -11 0 -15 11 -15 41 l0 40 38 -3 c35 -3
37 -5 40 -40z m82 28 c0 -8 -8 -13 -17 -12 -10 0 -18 -6 -18 -14 0 -8 8 -14
18 -14 9 1 17 -4 17 -12 0 -19 -44 -18 -60 1 -20 24 3 65 35 65 15 0 25 -6 25
-14z m87 -13 l6 -28 10 28 c7 21 15 27 38 27 27 0 29 -2 29 -40 0 -29 -4 -40
-15 -40 -11 0 -15 11 -16 38 l0 37 -16 -37 c-19 -47 -40 -48 -59 -3 -17 43
-17 45 1 45 8 0 18 -12 22 -27z m171 -15 c3 -37 2 -38 -31 -38 -51 0 -60 41
-12 53 18 4 18 5 -2 6 -13 0 -23 6 -23 12 0 6 14 9 33 7 29 -3 32 -6 35 -40z
m142 -6 c0 -26 -5 -53 -12 -60 -17 -17 -68 -15 -68 2 0 9 8 12 25 8 14 -2 25
0 25 6 0 6 -10 12 -22 14 -15 2 -24 11 -26 26 -6 39 5 52 43 52 l35 0 0 -48z
m144 26 c14 -23 -3 -52 -33 -56 -42 -6 -67 38 -39 66 17 17 58 11 72 -10z
m184 -20 c3 -37 3 -38 -32 -38 -30 0 -36 4 -36 20 0 12 10 24 23 30 l22 9 -22
0 c-13 1 -23 6 -23 12 0 6 14 9 33 7 29 -3 32 -6 35 -40z"/>
<path d="M7717 4723 c-13 -12 -7 -33 8 -33 8 0 15 9 15 20 0 20 -11 26 -23 13z"/>
<path d="M7950 4726 c0 -9 5 -16 10 -16 6 0 10 4 10 9 0 6 -4 13 -10 16 -5 3
-10 -1 -10 -9z"/>
<path d="M8100 4709 c0 -24 23 -21 28 4 2 10 -3 17 -12 17 -10 0 -16 -9 -16
-21z"/>
<path d="M7335 4700 c-3 -5 -1 -10 4 -10 6 0 11 5 11 10 0 6 -2 10 -4 10 -3 0
-8 -4 -11 -10z"/>
<path d="M7470 4710 c0 -13 5 -20 13 -17 6 2 12 10 12 17 0 7 -6 15 -12 18 -8
2 -13 -5 -13 -18z"/>
<path d="M7610 4710 c0 -11 7 -20 15 -20 8 0 15 9 15 20 0 11 -7 20 -15 20 -8
0 -15 -9 -15 -20z"/>
<path d="M7805 4700 c-3 -5 -1 -10 4 -10 6 0 11 5 11 10 0 6 -2 10 -4 10 -3 0
-8 -4 -11 -10z"/>
<path d="M1980 4155 l-23 -25 23 -25 c27 -29 42 -25 15 5 -17 19 -17 21 0 40
27 30 12 34 -15 5z"/>
<path d="M13584 906 c-3 -8 -4 -29 -2 -48 3 -29 4 -27 8 15 5 48 3 58 -6 33z"/>
<path d="M12323 903 c9 -2 23 -2 30 0 6 3 -1 5 -18 5 -16 0 -22 -2 -12 -5z"/>
<path d="M13200 876 c0 -19 -6 -37 -12 -39 -7 -3 -4 -6 7 -6 18 -1 20 4 17 39
-5 49 -12 52 -12 6z"/>
<path d="M13440 876 c0 -19 -6 -37 -12 -39 -7 -3 -4 -6 7 -6 18 -1 20 4 17 39
-5 49 -12 52 -12 6z"/>
<path d="M13730 876 c0 -19 -6 -37 -12 -39 -7 -3 -4 -6 7 -6 18 -1 20 4 17 39
-5 49 -12 52 -12 6z"/>
<path d="M11293 860 c0 -25 2 -35 4 -22 2 12 2 32 0 45 -2 12 -4 2 -4 -23z"/>
<path d="M11332 860 c0 -19 2 -27 5 -17 2 9 2 25 0 35 -3 9 -5 1 -5 -18z"/>
<path d="M11633 840 c0 -25 2 -35 4 -22 2 12 2 32 0 45 -2 12 -4 2 -4 -23z"/>
<path d="M12678 868 c9 -9 15 -9 24 0 9 9 7 12 -12 12 -19 0 -21 -3 -12 -12z"/>
<path d="M13363 833 c9 -2 23 -2 30 0 6 3 -1 5 -18 5 -16 0 -22 -2 -12 -5z"/>
<path d="M13653 833 c9 -2 23 -2 30 0 6 3 -1 5 -18 5 -16 0 -22 -2 -12 -5z"/>
</g>
</svg>
