<?xml version="1.0" standalone="no"?>
<!DOCTYPE svg PUBLIC "-//W3C//DTD SVG 20010904//EN"
 "http://www.w3.org/TR/2001/REC-SVG-20010904/DTD/svg10.dtd">
<svg version="1.0" xmlns="http://www.w3.org/2000/svg"
 width="1602.000000pt" height="715.000000pt" viewBox="0 0 1602.000000 715.000000"
 preserveAspectRatio="xMidYMid meet">

<g transform="translate(0.000000,715.000000) scale(0.100000,-0.100000)"
fill="#000000" stroke="none">
<path d="M225 6780 l-29 -30 34 -33 c26 -24 28 -25 10 -4 l-23 27 51 0 c29 0
52 5 52 10 0 6 -23 10 -52 10 l-51 0 23 25 c13 14 21 25 19 25 -3 0 -18 -14
-34 -30z"/>
<path d="M443 6750 c0 -25 2 -34 4 -21 4 18 10 22 29 18 13 -2 21 0 18 4 -3 5
-14 9 -24 9 -10 0 -21 8 -23 18 -3 9 -5 -3 -4 -28z"/>
<path d="M487 6204 c-8 -8 1 -24 14 -24 5 0 9 7 9 15 0 15 -12 20 -23 9z"/>
<path d="M675 6201 c-7 -12 12 -24 25 -16 11 7 4 25 -10 25 -5 0 -11 -4 -15
-9z"/>
<path d="M930 6130 c0 -64 3 -80 15 -80 12 0 15 16 15 80 0 64 -3 80 -15 80
-12 0 -15 -16 -15 -80z"/>
<path d="M1340 6195 c0 -9 5 -15 11 -13 6 2 11 8 11 13 0 5 -5 11 -11 13 -6 2
-11 -4 -11 -13z"/>
<path d="M1970 6195 c0 -9 5 -15 11 -13 6 2 11 8 11 13 0 5 -5 11 -11 13 -6 2
-11 -4 -11 -13z"/>
<path d="M330 6125 l0 -75 39 0 c47 0 79 24 87 67 9 46 -30 83 -86 83 l-40 0
0 -75z m78 33 c27 -27 7 -78 -30 -78 -15 0 -18 8 -18 45 0 37 3 45 18 45 10 0
23 -5 30 -12z"/>
<path d="M1040 6185 c0 -8 9 -15 20 -15 18 0 20 -7 20 -60 0 -47 3 -60 15 -60
12 0 15 13 15 60 0 57 1 60 25 60 16 0 25 6 25 15 0 12 -13 15 -60 15 -47 0
-60 -3 -60 -15z"/>
<path d="M1590 6125 c0 -60 3 -75 15 -75 10 0 15 10 15 30 0 38 16 38 38 0 9
-16 25 -30 35 -30 17 0 17 3 -4 37 -16 25 -19 38 -11 41 18 6 15 59 -4 66 -9
3 -31 6 -50 6 l-34 0 0 -75z m68 33 c-7 -19 -38 -22 -38 -4 0 10 9 16 21 16
12 0 19 -5 17 -12z"/>
<path d="M2480 6125 l0 -75 38 0 c52 0 82 29 82 80 0 47 -27 70 -82 70 l-38 0
0 -75z m78 33 c27 -27 7 -78 -30 -78 -15 0 -18 8 -18 45 0 37 3 45 18 45 10 0
23 -5 30 -12z"/>
<path d="M748 6177 c-28 -29 -7 -127 28 -127 21 0 28 22 10 32 -20 11 -22 58
-1 58 8 0 15 5 15 10 0 6 -6 10 -14 10 -8 0 -16 8 -18 17 -3 15 -4 15 -20 0z"/>
<path d="M2130 6170 c-16 -14 -21 -23 -13 -28 6 -4 13 -25 15 -47 2 -33 7 -41
26 -43 15 -2 22 2 22 12 0 9 -4 16 -10 16 -15 0 -12 57 3 63 8 4 9 8 1 14 -6
4 -13 14 -15 21 -3 10 -11 8 -29 -8z"/>
<path d="M2758 6177 c-28 -29 -7 -127 28 -127 21 0 28 22 10 32 -20 11 -22 58
-1 58 8 0 15 5 15 10 0 6 -6 10 -14 10 -8 0 -16 8 -18 17 -3 15 -4 15 -20 0z"/>
<path d="M480 6105 c0 -42 3 -55 15 -55 12 0 15 13 15 55 0 42 -3 55 -15 55
-12 0 -15 -13 -15 -55z"/>
<path d="M551 6147 c-16 -16 -14 -72 4 -87 8 -6 23 -9 35 -5 18 6 21 3 18 -12
-2 -11 -13 -19 -31 -21 -36 -4 -35 -22 1 -22 45 0 62 27 62 97 l0 61 -39 0
c-21 0 -43 -4 -50 -11z m57 -39 c-4 -29 -38 -38 -38 -10 0 22 8 32 27 32 9 0
13 -8 11 -22z"/>
<path d="M670 6105 c0 -48 2 -55 20 -55 18 0 20 7 20 55 0 48 -2 55 -20 55
-18 0 -20 -7 -20 -55z"/>
<path d="M827 6153 c-14 -13 -6 -20 18 -15 15 2 25 0 25 -7 0 -6 -8 -11 -19
-11 -24 0 -44 -24 -39 -47 2 -14 14 -18 46 -20 l42 -2 0 43 c0 23 -5 47 -12
54 -13 13 -50 16 -61 5z m43 -63 c0 -5 -7 -10 -15 -10 -8 0 -15 5 -15 10 0 6
7 10 15 10 8 0 15 -4 15 -10z"/>
<path d="M1160 6150 c0 -5 5 -30 12 -55 16 -58 42 -61 55 -7 l10 37 8 -37 c11
-59 38 -51 57 17 13 45 13 55 2 55 -8 0 -16 -12 -20 -27 -10 -48 -11 -49 -21
-13 -13 49 -38 51 -49 3 l-8 -38 -10 38 c-5 20 -15 37 -23 37 -7 0 -13 -4 -13
-10z"/>
<path d="M1340 6105 c0 -42 3 -55 15 -55 12 0 15 13 15 55 0 42 -3 55 -15 55
-12 0 -15 -13 -15 -55z"/>
<path d="M1400 6105 c0 -41 4 -55 14 -55 10 0 16 13 18 38 2 25 8 37 18 37 10
0 16 -12 18 -37 5 -57 32 -51 32 6 0 53 -21 77 -51 58 -11 -7 -19 -8 -19 -2 0
5 -7 10 -15 10 -12 0 -15 -13 -15 -55z"/>
<path d="M1723 6134 c-15 -24 -15 -29 -2 -53 11 -19 23 -26 44 -26 15 0 30 6
33 13 2 7 -6 12 -22 12 -14 0 -26 5 -26 10 0 6 14 10 30 10 22 0 30 5 30 18 0
46 -60 57 -87 16z m57 -4 c0 -5 -7 -10 -15 -10 -8 0 -15 5 -15 10 0 6 7 10 15
10 8 0 15 -4 15 -10z"/>
<path d="M1846 6144 c-18 -18 -20 -47 -6 -75 12 -21 40 -25 58 -7 9 9 12 8 12
-4 0 -22 -27 -41 -50 -35 -13 3 -20 0 -20 -9 0 -21 57 -17 80 6 26 26 30 140
5 140 -8 0 -15 -5 -15 -12 0 -9 -3 -9 -12 0 -16 16 -33 15 -52 -4z m62 -37 c4
-20 -25 -34 -40 -19 -15 15 -1 44 19 40 10 -2 19 -11 21 -21z"/>
<path d="M1970 6105 c0 -42 3 -55 15 -55 12 0 15 13 15 55 0 42 -3 55 -15 55
-12 0 -15 -13 -15 -55z"/>
<path d="M2032 6148 c-19 -19 -14 -37 13 -50 33 -15 32 -26 -2 -30 -23 -4 -25
-6 -10 -12 9 -5 28 -5 42 -2 31 8 34 41 5 56 -26 14 -26 30 1 30 11 0 17 5 14
10 -9 14 -48 13 -63 -2z"/>
<path d="M2200 6105 c0 -48 2 -55 20 -55 17 0 20 7 20 40 0 29 4 40 15 40 8 0
15 6 15 13 0 9 -13 14 -35 15 l-35 1 0 -54z"/>
<path d="M2290 6155 c0 -2 8 -26 19 -52 19 -51 18 -73 -5 -73 -8 0 -14 -7 -14
-15 0 -18 33 -20 48 -2 6 6 22 43 36 80 22 59 23 68 9 65 -9 -2 -22 -19 -28
-38 l-12 -35 -12 38 c-7 20 -19 37 -27 37 -8 0 -14 -2 -14 -5z"/>
<path d="M2637 6153 c-14 -13 -6 -20 18 -15 14 2 25 0 25 -6 0 -6 -10 -12 -21
-14 -34 -5 -47 -34 -26 -55 14 -15 21 -16 37 -5 12 7 20 8 20 2 0 -5 7 -10 16
-10 14 0 16 8 11 46 -2 26 -11 50 -18 55 -17 10 -53 12 -62 2z m48 -63 c-3 -5
-13 -10 -21 -10 -8 0 -14 5 -14 10 0 6 9 10 21 10 11 0 17 -4 14 -10z"/>
<path d="M2837 6153 c-14 -13 -6 -20 18 -15 15 2 25 0 25 -7 0 -6 -8 -11 -19
-11 -24 0 -44 -24 -39 -47 2 -14 14 -18 46 -20 l42 -2 0 43 c0 23 -5 47 -12
54 -13 13 -50 16 -61 5z m43 -63 c0 -5 -7 -10 -15 -10 -8 0 -15 5 -15 10 0 6
7 10 15 10 8 0 15 -4 15 -10z"/>
<path d="M830 5547 c0 -18 -5 -23 -21 -23 -12 1 -26 -7 -33 -16 -16 -26 4 -53
43 -55 l31 -1 0 59 c0 33 -4 59 -10 59 -5 0 -10 -10 -10 -23z m0 -57 c0 -11
-7 -20 -15 -20 -8 0 -15 9 -15 20 0 11 7 20 15 20 8 0 15 -9 15 -20z"/>
<path d="M1760 5546 c0 -18 -4 -23 -18 -19 -24 6 -44 -19 -40 -49 2 -19 9 -23
41 -25 l37 -1 0 59 c0 33 -4 59 -10 59 -5 0 -10 -11 -10 -24z m-4 -47 c10 -17
-13 -36 -27 -22 -12 12 -4 33 11 33 5 0 12 -5 16 -11z"/>
<path d="M1860 5544 c0 -14 -4 -23 -10 -19 -6 3 -19 3 -31 0 -16 -5 -19 -14
-17 -38 3 -29 6 -32 41 -34 l37 -1 0 59 c0 33 -4 59 -10 59 -5 0 -10 -12 -10
-26z m-4 -45 c10 -17 -13 -36 -27 -22 -12 12 -4 33 11 33 5 0 12 -5 16 -11z"/>
<path d="M3280 5512 c0 -58 0 -59 29 -60 35 -1 54 18 49 50 -2 18 -9 23 -30
23 -23 -1 -28 4 -28 22 0 13 -4 23 -10 23 -6 0 -10 -26 -10 -58z m56 -13 c10
-17 -13 -36 -27 -22 -12 12 -4 33 11 33 5 0 12 -5 16 -11z"/>
<path d="M3560 5511 l0 -59 35 0 c25 0 39 6 46 19 14 27 -6 63 -32 56 -15 -4
-19 0 -19 19 0 15 -6 24 -15 24 -12 0 -15 -13 -15 -59z m60 -21 c0 -11 -7 -20
-15 -20 -8 0 -15 9 -15 20 0 11 7 20 15 20 8 0 15 -9 15 -20z"/>
<path d="M3960 5547 c0 -18 -5 -23 -21 -23 -12 1 -26 -7 -33 -16 -16 -26 4
-53 43 -55 l31 -1 0 59 c0 33 -4 59 -10 59 -5 0 -10 -10 -10 -23z m0 -57 c0
-11 -7 -20 -15 -20 -8 0 -15 9 -15 20 0 11 7 20 15 20 8 0 15 -9 15 -20z"/>
<path d="M4230 5546 c0 -18 -4 -23 -18 -19 -24 6 -44 -19 -40 -49 2 -19 9 -23
41 -25 l37 -1 0 59 c0 33 -4 59 -10 59 -5 0 -10 -11 -10 -24z m-4 -47 c10 -17
-13 -36 -27 -22 -12 12 -4 33 11 33 5 0 12 -5 16 -11z"/>
<path d="M423 5508 c-13 -35 -17 -54 -10 -57 6 -2 13 1 15 8 5 14 52 15 52 1
0 -5 14 -10 30 -10 17 0 30 5 30 10 0 14 43 13 58 -2 20 -20 22 -4 5 50 -22
68 -43 69 -67 1 -20 -55 -28 -54 -49 6 -20 58 -40 56 -64 -7z m47 -10 c0 -5
-7 -8 -15 -8 -17 0 -18 2 -9 25 5 13 8 14 15 3 5 -7 9 -16 9 -20z m110 6 c0
-8 -6 -14 -14 -14 -9 0 -12 7 -9 20 6 22 23 18 23 -6z"/>
<path d="M641 5546 c-15 -18 -5 -43 20 -49 29 -8 24 -30 -6 -24 -16 3 -24 0
-22 -7 5 -16 46 -20 63 -6 21 18 17 39 -11 52 -30 14 -33 28 -5 28 11 0 20 5
20 10 0 15 -46 12 -59 -4z"/>
<path d="M730 5505 c0 -30 5 -55 10 -55 6 0 10 25 10 55 0 30 -4 55 -10 55 -5
0 -10 -25 -10 -55z"/>
<path d="M1622 5551 c-8 -4 -12 -19 -10 -32 2 -18 9 -24 26 -23 28 1 23 -20
-6 -24 -32 -5 -27 -24 5 -20 36 4 57 45 43 82 -10 26 -33 33 -58 17z m38 -26
c0 -8 -7 -15 -15 -15 -8 0 -15 7 -15 15 0 8 7 15 15 15 8 0 15 -7 15 -15z"/>
<path d="M1900 5550 c0 -5 11 -10 25 -10 22 0 24 -3 15 -19 -23 -44 -30 -71
-17 -71 6 0 22 25 33 55 l21 55 -38 0 c-22 0 -39 -4 -39 -10z"/>
<path d="M2000 5551 c0 -6 9 -11 20 -11 27 0 25 -18 -5 -42 -36 -28 -32 -48
10 -48 19 0 35 5 35 10 0 6 -10 10 -22 10 l-21 0 22 24 c29 31 24 60 -12 64
-15 2 -27 -1 -27 -7z"/>
<path d="M2090 5541 c-23 -43 -6 -91 32 -91 33 0 52 72 26 98 -18 18 -46 14
-58 -7z m44 -17 c7 -19 -1 -54 -14 -54 -12 0 -21 31 -15 51 8 23 21 24 29 3z"/>
<path d="M2187 5553 c-13 -13 -7 -21 13 -16 28 7 25 -15 -5 -43 -35 -32 -31
-44 15 -44 22 0 40 5 40 10 0 6 -12 10 -26 10 l-27 0 27 25 c14 13 26 28 26
33 0 23 -46 42 -63 25z"/>
<path d="M2277 5554 c-13 -13 -7 -22 12 -17 30 8 33 -12 6 -37 -35 -33 -32
-50 10 -50 19 0 35 5 35 10 0 6 -12 10 -26 10 l-27 0 27 21 c34 27 32 63 -4
67 -14 2 -29 0 -33 -4z"/>
<path d="M2430 5551 c0 -6 9 -11 20 -11 11 0 20 -4 20 -10 0 -5 -7 -10 -15
-10 -8 0 -15 -4 -15 -10 0 -5 7 -10 15 -10 8 0 15 -7 15 -16 0 -12 -7 -15 -25
-11 -16 3 -24 0 -22 -7 2 -6 17 -11 33 -11 28 0 29 1 29 50 0 47 -2 50 -27 53
-16 2 -28 -1 -28 -7z"/>
<path d="M2532 5548 c-17 -17 -15 -73 3 -88 25 -20 50 -8 50 25 0 25 -4 30
-23 29 -28 -1 -23 20 6 24 12 2 22 8 22 13 0 13 -44 11 -58 -3z m38 -63 c0 -8
-7 -15 -15 -15 -8 0 -15 7 -15 15 0 8 7 15 15 15 8 0 15 -7 15 -15z"/>
<path d="M2622 5548 c-18 -18 -15 -87 4 -95 30 -11 49 11 49 58 0 36 -3 44
-20 47 -11 1 -26 -3 -33 -10z m33 -43 c0 -16 -6 -30 -12 -32 -9 -3 -13 7 -13
32 0 25 4 35 13 33 6 -3 12 -17 12 -33z"/>
<path d="M2873 5525 c-28 -43 -29 -55 -3 -55 11 0 20 -4 20 -10 0 -14 27 -12
32 3 8 22 -4 97 -16 97 -6 0 -21 -16 -33 -35z m17 -25 c0 -5 -5 -10 -11 -10
-5 0 -7 5 -4 10 3 6 8 10 11 10 2 0 4 -4 4 -10z"/>
<path d="M2950 5545 c-6 -8 -9 -23 -5 -35 5 -17 13 -21 31 -17 20 3 22 2 13
-9 -6 -8 -18 -14 -25 -14 -8 0 -14 -4 -14 -10 0 -16 37 -12 54 6 19 18 21 65
4 82 -16 16 -43 15 -58 -3z m40 -20 c0 -8 -4 -15 -9 -15 -13 0 -22 16 -14 24
11 11 23 6 23 -9z"/>
<path d="M3130 5551 c0 -6 7 -11 15 -11 8 0 15 -4 15 -10 0 -5 -7 -10 -15 -10
-22 0 -18 -17 6 -23 13 -3 18 -10 14 -17 -4 -7 -16 -10 -26 -7 -12 3 -19 0
-19 -9 0 -15 37 -19 57 -6 6 4 11 27 10 52 -2 41 -4 45 -29 48 -16 2 -28 -1
-28 -7z"/>
<path d="M3392 5548 c-18 -18 -15 -87 4 -95 30 -11 49 11 49 58 0 36 -3 44
-20 47 -11 1 -26 -3 -33 -10z m33 -43 c0 -16 -6 -30 -12 -32 -9 -3 -13 7 -13
32 0 25 4 35 13 33 6 -3 12 -17 12 -33z"/>
<path d="M3482 5548 c-17 -17 -15 -73 3 -88 20 -17 52 -4 59 25 13 53 -29 96
-62 63z m38 -44 c0 -24 -4 -34 -12 -32 -24 8 -22 68 2 68 5 0 10 -16 10 -36z"/>
<path d="M3820 5551 c0 -6 7 -11 15 -11 8 0 15 -4 15 -10 0 -5 -7 -10 -15 -10
-22 0 -18 -17 6 -23 13 -3 18 -10 14 -17 -4 -7 -16 -10 -26 -7 -12 3 -19 0
-19 -9 0 -15 37 -19 57 -6 6 4 11 27 10 52 -2 41 -4 45 -29 48 -16 2 -28 -1
-28 -7z"/>
<path d="M4023 5524 c-29 -45 -29 -54 1 -54 13 0 27 -6 29 -12 7 -18 29 12 22
30 -3 8 -5 27 -5 43 0 39 -20 36 -47 -7z m27 -19 c0 -8 -7 -15 -16 -15 -14 0
-14 3 -4 15 7 8 14 15 16 15 2 0 4 -7 4 -15z"/>
<path d="M4270 5550 c0 -5 11 -10 24 -10 25 0 25 -1 10 -35 -16 -39 -18 -55
-5 -55 4 0 17 21 27 47 11 27 21 51 22 55 2 5 -15 8 -37 8 -23 0 -41 -4 -41
-10z"/>
<path d="M4370 5545 c-6 -8 -9 -23 -5 -35 5 -17 13 -21 31 -17 20 3 22 2 13
-9 -6 -8 -18 -14 -25 -14 -8 0 -14 -4 -14 -10 0 -16 37 -12 54 6 19 18 21 65
4 82 -16 16 -43 15 -58 -3z m40 -20 c0 -8 -4 -15 -9 -15 -13 0 -22 16 -14 24
11 11 23 6 23 -9z"/>
<path d="M4464 5545 c-4 -8 -4 -21 -1 -29 3 -7 0 -19 -6 -25 -18 -18 16 -45
47 -37 22 5 25 11 23 44 -1 20 -6 43 -10 50 -11 17 -46 15 -53 -3z m41 -15 c3
-5 -1 -10 -9 -10 -9 0 -16 5 -16 10 0 6 4 10 9 10 6 0 13 -4 16 -10z m3 -48
c2 -7 -3 -12 -12 -12 -9 0 -16 7 -16 16 0 17 22 14 28 -4z"/>
<path d="M4568 5546 c-22 -16 -23 -30 -3 -22 12 4 15 -3 15 -34 0 -22 5 -40
10 -40 6 0 10 25 10 55 0 58 -4 63 -32 41z"/>
<path d="M4728 5535 c-23 -51 20 -106 57 -75 18 15 20 71 3 88 -20 20 -48 14
-60 -13z m47 -30 c0 -16 -6 -30 -12 -32 -9 -3 -13 7 -13 32 0 25 4 35 13 33 6
-3 12 -17 12 -33z"/>
<path d="M2705 5521 c-4 -7 5 -11 22 -12 28 -1 28 -1 3 -8 -15 -4 -26 -15 -28
-29 -3 -19 1 -21 33 -20 35 1 36 2 33 37 -3 31 -7 36 -30 39 -14 2 -29 -2 -33
-7z m40 -41 c-3 -5 -11 -10 -16 -10 -6 0 -7 5 -4 10 3 6 11 10 16 10 6 0 7 -4
4 -10z"/>
<path d="M3038 5505 c-14 -30 3 -55 38 -55 30 0 31 17 2 23 -20 4 -19 4 5 6
28 1 35 19 15 39 -20 20 -48 14 -60 -13z m49 -1 c-3 -3 -12 -4 -19 -1 -8 3 -5
6 6 6 11 1 17 -2 13 -5z"/>
<path d="M3728 5505 c-14 -30 3 -55 38 -55 30 0 31 17 2 23 -20 4 -19 4 5 6
28 1 35 19 15 39 -20 20 -48 14 -60 -13z m49 -1 c-3 -3 -12 -4 -19 -1 -8 3 -5
6 6 6 11 1 17 -2 13 -5z"/>
<path d="M4098 5505 c-8 -19 -8 -28 2 -40 14 -17 60 -21 60 -5 0 6 -9 10 -20
10 -13 0 -20 7 -20 20 0 13 7 20 20 20 11 0 20 5 20 10 0 6 -11 10 -25 10 -17
0 -29 -8 -37 -25z"/>
<path d="M4640 5520 c0 -5 10 -10 23 -11 l22 0 -22 -9 c-13 -5 -23 -18 -23
-29 0 -15 7 -19 35 -19 31 0 35 3 35 27 0 15 -5 32 -12 39 -15 15 -58 16 -58
2z m40 -40 c0 -5 -5 -10 -11 -10 -5 0 -7 5 -4 10 3 6 8 10 11 10 2 0 4 -4 4
-10z"/>
<path d="M2360 5490 c0 -5 9 -10 20 -10 11 0 20 5 20 10 0 6 -9 10 -20 10 -11
0 -20 -4 -20 -10z"/>
<path d="M2790 5490 c0 -5 9 -10 20 -10 11 0 20 5 20 10 0 6 -9 10 -20 10 -11
0 -20 -4 -20 -10z"/>
<path d="M3220 5490 c0 -5 9 -10 20 -10 11 0 20 5 20 10 0 6 -9 10 -20 10 -11
0 -20 -4 -20 -10z"/>
<path d="M3660 5490 c0 -5 11 -10 25 -10 14 0 25 5 25 10 0 6 -11 10 -25 10
-14 0 -25 -4 -25 -10z"/>
<path d="M400 5330 c0 -5 7 -10 15 -10 11 0 15 -12 15 -45 0 -33 4 -45 15 -45
11 0 15 12 15 45 0 33 4 45 15 45 8 0 15 5 15 10 0 6 -20 10 -45 10 -25 0 -45
-4 -45 -10z"/>
<path d="M500 5330 c0 -5 7 -10 15 -10 11 0 15 -12 15 -45 0 -33 4 -45 15 -45
11 0 15 12 15 45 0 33 4 45 15 45 8 0 15 5 15 10 0 6 -20 10 -45 10 -25 0 -45
-4 -45 -10z"/>
<path d="M600 5285 l0 -55 35 0 c19 0 35 5 35 10 0 6 -9 10 -20 10 -17 0 -20
7 -20 45 0 33 -4 45 -15 45 -12 0 -15 -13 -15 -55z"/>
<path d="M1617 5334 c-13 -13 -7 -22 12 -17 30 8 33 -12 6 -37 -35 -33 -32
-50 10 -50 19 0 35 5 35 10 0 6 -10 10 -22 10 l-21 0 22 24 c29 30 24 60 -9
64 -14 2 -29 0 -33 -4z"/>
<path d="M1711 5326 c-19 -22 -9 -49 19 -57 l25 -7 -22 -7 c-28 -9 -30 -25 -3
-25 30 0 55 45 44 78 -11 31 -45 40 -63 18z m39 -21 c0 -8 -4 -15 -9 -15 -13
0 -22 16 -14 24 11 11 23 6 23 -9z"/>
<path d="M1839 5313 c-20 -52 20 -103 56 -73 18 15 20 71 3 88 -20 20 -48 14
-59 -15z m46 -28 c0 -16 -6 -30 -12 -32 -9 -3 -13 7 -13 32 0 25 4 35 13 33 6
-3 12 -17 12 -33z"/>
<path d="M1958 5329 c-10 -5 -18 -15 -18 -20 0 -6 5 -7 10 -4 6 4 10 -10 10
-34 0 -30 4 -41 15 -41 12 0 15 13 15 55 0 57 -3 61 -32 44z"/>
<path d="M2075 5330 c-3 -5 3 -10 14 -10 28 0 26 -18 -4 -46 -35 -32 -31 -44
15 -44 22 0 40 5 40 10 0 6 -12 10 -26 10 l-27 0 27 25 c14 13 26 28 26 33 0
25 -52 43 -65 22z"/>
<path d="M2159 5313 c-20 -52 20 -103 56 -73 18 15 20 71 3 88 -20 20 -48 14
-59 -15z m46 -28 c0 -16 -6 -30 -12 -32 -9 -3 -13 7 -13 32 0 25 4 35 13 33 6
-3 12 -17 12 -33z"/>
<path d="M2257 5334 c-13 -13 -7 -22 12 -17 30 8 33 -12 6 -37 -35 -33 -32
-50 10 -50 19 0 35 5 35 10 0 6 -12 10 -26 10 l-27 0 27 21 c34 27 32 63 -4
67 -14 2 -29 0 -33 -4z"/>
<path d="M2350 5311 c0 -21 6 -30 21 -34 13 -3 18 -10 14 -17 -4 -7 -16 -10
-26 -7 -12 3 -19 0 -19 -9 0 -17 41 -19 58 -2 19 19 14 49 -8 55 -11 3 -20 9
-20 14 0 5 9 9 20 9 11 0 20 5 20 10 0 6 -13 10 -30 10 -26 0 -30 -3 -30 -29z"/>
<path d="M2479 5313 c-20 -52 20 -103 56 -73 18 15 20 71 3 88 -20 20 -48 14
-59 -15z m46 -28 c0 -16 -6 -30 -12 -32 -9 -3 -13 7 -13 32 0 25 4 35 13 33 6
-3 12 -17 12 -33z"/>
<path d="M2577 5333 c-2 -4 -4 -28 -3 -53 1 -43 2 -45 31 -45 29 0 30 1 30 50
0 47 -2 50 -27 53 -14 2 -28 0 -31 -5z m43 -23 c0 -5 -7 -10 -15 -10 -8 0 -15
5 -15 10 0 6 7 10 15 10 8 0 15 -4 15 -10z m0 -45 c0 -8 -7 -15 -15 -15 -16 0
-20 12 -8 23 11 12 23 8 23 -8z"/>
<path d="M2708 5315 c-23 -51 20 -106 57 -75 18 15 20 71 3 88 -20 20 -48 14
-60 -13z m47 -30 c0 -16 -6 -30 -12 -32 -9 -3 -13 7 -13 32 0 25 4 35 13 33 6
-3 12 -17 12 -33z"/>
<path d="M2798 5315 c-23 -51 20 -106 57 -75 18 15 20 71 3 88 -20 20 -48 14
-60 -13z m47 -30 c0 -16 -6 -30 -12 -32 -9 -3 -13 7 -13 32 0 25 4 35 13 33 6
-3 12 -17 12 -33z"/>
<path d="M2942 5328 c-17 -17 -15 -73 3 -88 22 -18 48 -8 59 22 19 53 -27 101
-62 66z m38 -44 c0 -24 -4 -34 -12 -32 -24 8 -22 68 2 68 5 0 10 -16 10 -36z"/>
<path d="M3030 5321 c-23 -43 -6 -91 32 -91 33 0 52 72 26 98 -18 18 -46 14
-58 -7z m44 -17 c7 -19 -1 -54 -14 -54 -12 0 -21 31 -15 51 8 23 21 24 29 3z"/>
<path d="M2660 5295 c0 -9 5 -15 11 -13 6 2 11 8 11 13 0 5 -5 11 -11 13 -6 2
-11 -4 -11 -13z"/>
<path d="M2890 5295 c0 -9 5 -15 11 -13 6 2 11 8 11 13 0 5 -5 11 -11 13 -6 2
-11 -4 -11 -13z"/>
<path d="M1797 5254 c-8 -8 1 -24 14 -24 5 0 9 7 9 15 0 15 -12 20 -23 9z"/>
<path d="M2020 5245 c0 -9 5 -15 11 -13 6 2 11 8 11 13 0 5 -5 11 -11 13 -6 2
-11 -4 -11 -13z"/>
<path d="M2660 5245 c0 -9 5 -15 11 -13 6 2 11 8 11 13 0 5 -5 11 -11 13 -6 2
-11 -4 -11 -13z"/>
<path d="M2890 5245 c0 -8 5 -15 10 -15 6 0 10 7 10 15 0 8 -4 15 -10 15 -5 0
-10 -7 -10 -15z"/>
<path d="M950 5117 c0 -18 -5 -23 -21 -23 -12 1 -26 -7 -33 -16 -16 -26 4 -53
43 -55 l31 -1 0 59 c0 33 -4 59 -10 59 -5 0 -10 -10 -10 -23z m0 -51 c0 -8 -5
-18 -11 -22 -14 -8 -33 11 -25 25 10 16 36 13 36 -3z"/>
<path d="M426 5114 c-23 -22 -20 -71 3 -84 25 -13 61 -13 61 0 0 6 -8 10 -19
10 -10 0 -24 7 -32 16 -16 20 -1 48 30 52 11 2 21 8 21 13 0 15 -47 10 -64 -7z"/>
<path d="M1622 5118 c-17 -17 -15 -73 3 -88 20 -17 52 -4 59 25 13 53 -29 96
-62 63z m38 -44 c0 -24 -4 -34 -12 -32 -24 8 -22 68 2 68 5 0 10 -16 10 -36z"/>
<path d="M1728 5119 c-10 -5 -18 -15 -18 -20 0 -6 5 -7 10 -4 6 4 10 -10 10
-34 0 -30 4 -41 15 -41 12 0 15 13 15 55 0 57 -3 61 -32 44z"/>
<path d="M1839 5103 c-20 -52 20 -103 56 -73 18 15 20 71 3 88 -20 20 -48 14
-59 -15z m46 -28 c0 -16 -6 -30 -12 -32 -9 -3 -13 7 -13 32 0 25 4 35 13 33 6
-3 12 -17 12 -33z"/>
<path d="M1958 5119 c-10 -5 -18 -15 -18 -20 0 -6 5 -7 10 -4 6 4 10 -10 10
-34 0 -30 4 -41 15 -41 12 0 15 13 15 55 0 57 -3 61 -32 44z"/>
<path d="M2075 5120 c-3 -5 3 -10 14 -10 28 0 26 -18 -4 -46 -35 -32 -31 -44
15 -44 22 0 40 5 40 10 0 6 -12 10 -26 10 l-27 0 27 25 c14 13 26 28 26 33 0
25 -52 43 -65 22z"/>
<path d="M2159 5103 c-20 -52 20 -103 56 -73 18 15 20 71 3 88 -20 20 -48 14
-59 -15z m46 -28 c0 -16 -6 -30 -12 -32 -9 -3 -13 7 -13 32 0 25 4 35 13 33 6
-3 12 -17 12 -33z"/>
<path d="M2257 5124 c-13 -13 -7 -22 12 -17 30 8 33 -12 6 -37 -35 -33 -32
-50 10 -50 19 0 35 5 35 10 0 6 -12 10 -26 10 l-27 0 27 21 c34 27 32 63 -4
67 -14 2 -29 0 -33 -4z"/>
<path d="M2350 5101 c0 -21 6 -30 21 -34 13 -3 18 -10 14 -17 -4 -7 -16 -10
-26 -7 -12 3 -19 0 -19 -9 0 -17 41 -19 58 -2 19 19 14 49 -8 55 -11 3 -20 9
-20 14 0 5 9 9 20 9 11 0 20 5 20 10 0 6 -13 10 -30 10 -26 0 -30 -3 -30 -29z"/>
<path d="M2479 5103 c-20 -52 20 -103 56 -73 18 15 20 71 3 88 -20 20 -48 14
-59 -15z m46 -28 c0 -16 -6 -30 -12 -32 -9 -3 -13 7 -13 32 0 25 4 35 13 33 6
-3 12 -17 12 -33z"/>
<path d="M2577 5123 c-2 -4 -4 -28 -3 -53 1 -43 2 -45 31 -45 29 0 30 1 30 50
0 47 -2 50 -27 53 -14 2 -28 0 -31 -5z m43 -23 c0 -5 -7 -10 -15 -10 -8 0 -15
5 -15 10 0 6 7 10 15 10 8 0 15 -4 15 -10z m0 -45 c0 -8 -7 -15 -15 -15 -16 0
-20 12 -8 23 11 12 23 8 23 -8z"/>
<path d="M2708 5105 c-23 -51 20 -106 57 -75 18 15 20 71 3 88 -20 20 -48 14
-60 -13z m47 -30 c0 -16 -6 -30 -12 -32 -9 -3 -13 7 -13 32 0 25 4 35 13 33 6
-3 12 -17 12 -33z"/>
<path d="M2798 5105 c-23 -51 20 -106 57 -75 18 15 20 71 3 88 -20 20 -48 14
-60 -13z m47 -30 c0 -16 -6 -30 -12 -32 -9 -3 -13 7 -13 32 0 25 4 35 13 33 6
-3 12 -17 12 -33z"/>
<path d="M2942 5118 c-17 -17 -15 -73 3 -88 22 -18 48 -8 59 22 19 53 -27 101
-62 66z m38 -44 c0 -24 -4 -34 -12 -32 -24 8 -22 68 2 68 5 0 10 -16 10 -36z"/>
<path d="M3030 5111 c-23 -43 -6 -91 32 -91 33 0 52 72 26 98 -18 18 -46 14
-58 -7z m44 -17 c7 -19 -1 -54 -14 -54 -12 0 -21 31 -15 51 8 23 21 24 29 3z"/>
<path d="M752 5107 c-14 -17 0 -81 19 -85 12 -2 15 7 13 40 -1 24 -2 46 -3 51
-2 11 -17 8 -29 -6z"/>
<path d="M510 5060 c0 -29 4 -40 15 -40 10 0 15 10 15 30 0 17 5 30 10 30 6 0
10 5 10 10 0 6 -11 10 -25 10 -22 0 -25 -4 -25 -40z"/>
<path d="M582 5088 c-27 -27 -6 -68 35 -68 32 0 29 18 -4 23 l-28 4 28 2 c23
1 28 5 25 24 -3 25 -36 35 -56 15z m35 -14 c-3 -3 -12 -4 -19 -1 -8 3 -5 6 6
6 11 1 17 -2 13 -5z"/>
<path d="M660 5090 c0 -5 10 -10 23 -11 l22 0 -22 -9 c-13 -5 -23 -18 -23 -29
0 -15 7 -19 35 -19 31 0 35 3 35 27 0 15 -5 32 -12 39 -15 15 -58 16 -58 2z
m40 -40 c0 -5 -5 -10 -11 -10 -5 0 -7 5 -4 10 3 6 8 10 11 10 2 0 4 -4 4 -10z"/>
<path d="M810 5080 c-15 -28 4 -60 35 -60 31 0 33 17 3 23 -20 4 -19 4 5 6 28
1 35 19 15 39 -18 18 -46 14 -58 -8z m47 -6 c-3 -3 -12 -4 -19 -1 -8 3 -5 6 6
6 11 1 17 -2 13 -5z"/>
<path d="M2660 5085 c0 -9 5 -15 11 -13 6 2 11 8 11 13 0 5 -5 11 -11 13 -6 2
-11 -4 -11 -13z"/>
<path d="M2890 5085 c0 -9 5 -15 11 -13 6 2 11 8 11 13 0 5 -5 11 -11 13 -6 2
-11 -4 -11 -13z"/>
<path d="M1797 5044 c-8 -8 1 -24 14 -24 5 0 9 7 9 15 0 15 -12 20 -23 9z"/>
<path d="M2020 5035 c0 -9 5 -15 11 -13 6 2 11 8 11 13 0 5 -5 11 -11 13 -6 2
-11 -4 -11 -13z"/>
<path d="M2660 5035 c0 -9 5 -15 11 -13 6 2 11 8 11 13 0 5 -5 11 -11 13 -6 2
-11 -4 -11 -13z"/>
<path d="M2890 5035 c0 -8 5 -15 10 -15 6 0 10 7 10 15 0 8 -4 15 -10 15 -5 0
-10 -7 -10 -15z"/>
<path d="M680 4907 c0 -18 -5 -23 -21 -23 -12 1 -26 -7 -33 -16 -16 -26 4 -53
43 -55 l31 -1 0 59 c0 33 -4 59 -10 59 -5 0 -10 -10 -10 -23z m0 -57 c0 -11
-7 -20 -15 -20 -8 0 -15 9 -15 20 0 11 7 20 15 20 8 0 15 -9 15 -20z"/>
<path d="M1010 4911 c0 -13 -8 -21 -22 -23 -19 -2 -23 -9 -23 -38 0 -33 2 -35
38 -37 l37 -2 0 59 c0 47 -3 60 -15 60 -8 0 -15 -9 -15 -19z m0 -61 c0 -11 -7
-20 -15 -20 -8 0 -15 9 -15 20 0 11 7 20 15 20 8 0 15 -9 15 -20z"/>
<path d="M410 4884 c0 -47 16 -74 43 -74 34 0 47 19 47 67 0 56 -18 56 -22 1
-2 -31 -8 -44 -20 -46 -15 -3 -18 4 -18 42 0 34 -4 46 -15 46 -11 0 -15 -11
-15 -36z"/>
<path d="M1638 4909 c-10 -5 -18 -15 -18 -20 0 -6 5 -7 10 -4 6 4 10 -10 10
-34 0 -30 4 -41 15 -41 12 0 15 13 15 55 0 57 -3 61 -32 44z"/>
<path d="M1710 4890 c0 -24 4 -30 21 -30 12 0 19 -5 16 -12 -2 -7 -14 -13 -26
-12 -11 0 -21 -3 -21 -7 0 -14 21 -21 46 -15 31 8 34 55 4 63 -11 3 -20 9 -20
14 0 5 9 9 20 9 11 0 20 5 20 10 0 6 -13 10 -30 10 -27 0 -30 -3 -30 -30z"/>
<path d="M1839 4893 c-20 -52 20 -103 56 -73 18 15 20 71 3 88 -20 20 -48 14
-59 -15z m46 -28 c0 -16 -6 -30 -12 -32 -9 -3 -13 7 -13 32 0 25 4 35 13 33 6
-3 12 -17 12 -33z"/>
<path d="M1958 4909 c-10 -5 -18 -15 -18 -20 0 -6 5 -7 10 -4 6 4 10 -10 10
-34 0 -30 4 -41 15 -41 12 0 15 13 15 55 0 57 -3 61 -32 44z"/>
<path d="M2075 4910 c-3 -5 3 -10 14 -10 28 0 26 -18 -4 -46 -35 -32 -31 -44
15 -44 22 0 40 5 40 10 0 6 -12 10 -26 10 l-27 0 27 25 c14 13 26 28 26 33 0
25 -52 43 -65 22z"/>
<path d="M2159 4893 c-20 -52 20 -103 56 -73 18 15 20 71 3 88 -20 20 -48 14
-59 -15z m46 -28 c0 -16 -6 -30 -12 -32 -9 -3 -13 7 -13 32 0 25 4 35 13 33 6
-3 12 -17 12 -33z"/>
<path d="M2257 4914 c-13 -13 -7 -22 12 -17 30 8 33 -12 6 -37 -35 -33 -32
-50 10 -50 19 0 35 5 35 10 0 6 -12 10 -26 10 l-27 0 27 21 c34 27 32 63 -4
67 -14 2 -29 0 -33 -4z"/>
<path d="M2350 4891 c0 -21 6 -30 21 -34 13 -3 18 -10 14 -17 -4 -7 -16 -10
-26 -7 -12 3 -19 0 -19 -9 0 -17 41 -19 58 -2 19 19 14 49 -8 55 -11 3 -20 9
-20 14 0 5 9 9 20 9 11 0 20 5 20 10 0 6 -13 10 -30 10 -26 0 -30 -3 -30 -29z"/>
<path d="M2479 4893 c-20 -52 20 -103 56 -73 18 15 20 71 3 88 -20 20 -48 14
-59 -15z m46 -28 c0 -16 -6 -30 -12 -32 -9 -3 -13 7 -13 32 0 25 4 35 13 33 6
-3 12 -17 12 -33z"/>
<path d="M2577 4913 c-2 -4 -4 -28 -3 -53 1 -43 2 -45 31 -45 29 0 30 1 30 50
0 47 -2 50 -27 53 -14 2 -28 0 -31 -5z m43 -23 c0 -5 -7 -10 -15 -10 -8 0 -15
5 -15 10 0 6 7 10 15 10 8 0 15 -4 15 -10z m0 -45 c0 -8 -7 -15 -15 -15 -16 0
-20 12 -8 23 11 12 23 8 23 -8z"/>
<path d="M2708 4895 c-23 -51 20 -106 57 -75 18 15 20 71 3 88 -20 20 -48 14
-60 -13z m47 -30 c0 -16 -6 -30 -12 -32 -9 -3 -13 7 -13 32 0 25 4 35 13 33 6
-3 12 -17 12 -33z"/>
<path d="M2798 4895 c-23 -51 20 -106 57 -75 18 15 20 71 3 88 -20 20 -48 14
-60 -13z m47 -30 c0 -16 -6 -30 -12 -32 -9 -3 -13 7 -13 32 0 25 4 35 13 33 6
-3 12 -17 12 -33z"/>
<path d="M2942 4908 c-17 -17 -15 -73 3 -88 22 -18 48 -8 59 22 19 53 -27 101
-62 66z m38 -44 c0 -24 -4 -34 -12 -32 -24 8 -22 68 2 68 5 0 10 -16 10 -36z"/>
<path d="M3030 4901 c-23 -43 -6 -91 32 -91 33 0 52 72 26 98 -18 18 -46 14
-58 -7z m44 -17 c7 -19 -1 -54 -14 -54 -12 0 -21 31 -15 51 8 23 21 24 29 3z"/>
<path d="M810 4893 c-10 -12 -11 -18 -2 -21 7 -2 12 -15 12 -28 0 -25 25 -43
38 -29 4 4 1 10 -5 12 -17 6 -17 40 -1 45 9 3 8 9 -4 21 -20 20 -19 20 -38 0z"/>
<path d="M530 4828 c0 -32 4 -58 10 -58 6 0 10 11 10 24 0 18 4 23 18 19 25
-6 46 21 38 52 -5 20 -12 24 -41 23 l-35 -1 0 -59z m55 21 c0 -7 -8 -15 -17
-17 -18 -3 -25 18 -11 32 10 10 28 1 28 -15z"/>
<path d="M730 4881 c0 -6 10 -11 23 -12 21 -1 21 -1 -3 -8 -16 -4 -25 -14 -25
-26 0 -16 7 -20 33 -22 32 -1 33 0 30 35 -3 32 -7 37 -30 40 -16 2 -28 -1 -28
-7z m40 -41 c0 -5 -7 -10 -16 -10 -8 0 -12 5 -9 10 3 6 10 10 16 10 5 0 9 -4
9 -10z"/>
<path d="M882 4878 c-30 -30 -9 -68 39 -68 29 0 23 18 -8 23 l-28 4 28 2 c23
1 28 5 25 24 -3 25 -36 35 -56 15z m35 -14 c-3 -3 -12 -4 -19 -1 -8 3 -5 6 6
6 11 1 17 -2 13 -5z"/>
<path d="M2660 4875 c0 -9 5 -15 11 -13 6 2 11 8 11 13 0 5 -5 11 -11 13 -6 2
-11 -4 -11 -13z"/>
<path d="M2890 4875 c0 -9 5 -15 11 -13 6 2 11 8 11 13 0 5 -5 11 -11 13 -6 2
-11 -4 -11 -13z"/>
<path d="M1797 4834 c-8 -8 1 -24 14 -24 5 0 9 7 9 15 0 15 -12 20 -23 9z"/>
<path d="M2020 4825 c0 -9 5 -15 11 -13 6 2 11 8 11 13 0 5 -5 11 -11 13 -6 2
-11 -4 -11 -13z"/>
<path d="M2660 4825 c0 -9 5 -15 11 -13 6 2 11 8 11 13 0 5 -5 11 -11 13 -6 2
-11 -4 -11 -13z"/>
<path d="M2890 4825 c0 -8 5 -15 10 -15 6 0 10 7 10 15 0 8 -4 15 -10 15 -5 0
-10 -7 -10 -15z"/>
<path d="M423 4658 c-13 -35 -17 -54 -10 -57 6 -2 13 1 15 8 5 14 52 15 52 1
0 -5 7 -10 15 -10 18 0 19 -5 -4 55 -26 68 -43 68 -68 3z m47 -10 c0 -5 -7 -8
-15 -8 -17 0 -18 2 -9 25 5 13 8 14 15 3 5 -7 9 -16 9 -20z"/>
<path d="M1623 4703 c-22 -8 -14 -43 12 -55 14 -6 25 -16 25 -21 0 -5 -11 -7
-25 -5 -17 4 -25 1 -25 -9 0 -10 10 -13 32 -11 44 4 49 33 11 65 l-28 24 28
-4 c18 -3 27 0 27 9 0 14 -32 18 -57 7z"/>
<path d="M600 4683 c-10 -12 -11 -18 -2 -21 7 -2 12 -17 12 -33 0 -22 5 -29
20 -29 11 0 20 5 20 10 0 6 -4 10 -10 10 -14 0 -12 38 2 42 9 3 8 9 -4 21 -20
20 -19 20 -38 0z"/>
<path d="M1857 4687 c-9 -25 8 -82 26 -85 9 -2 17 1 17 7 0 6 -4 11 -10 11
-14 0 -12 38 2 42 9 3 8 9 -4 21 -20 20 -24 21 -31 4z"/>
<path d="M532 4668 c-25 -25 -6 -68 30 -68 24 0 23 16 -2 23 -11 3 -20 10 -20
17 0 7 9 14 20 17 11 3 20 9 20 14 0 13 -34 11 -48 -3z"/>
<path d="M672 4668 c-30 -30 0 -75 43 -64 19 5 25 13 25 35 0 38 -41 56 -68
29z m44 -19 c10 -17 -13 -36 -27 -22 -12 12 -4 33 11 33 5 0 12 -5 16 -11z"/>
<path d="M760 4639 c0 -22 5 -39 10 -39 6 0 10 11 10 25 0 14 7 28 15 31 23 9
18 22 -10 22 -22 0 -25 -5 -25 -39z"/>
<path d="M1690 4675 c0 -3 7 -22 15 -43 15 -34 15 -38 -1 -49 -20 -15 -12 -28
10 -20 14 6 34 43 51 97 5 16 4 21 -6 18 -7 -2 -16 -15 -20 -29 l-6 -24 -11
28 c-10 23 -32 38 -32 22z"/>
<path d="M1783 4664 c-4 -11 1 -22 12 -30 17 -13 17 -14 2 -14 -9 0 -17 -5
-17 -11 0 -17 54 -6 58 12 1 8 -7 21 -20 27 -18 8 -19 11 -5 11 24 1 21 21 -3
21 -11 0 -23 -7 -27 -16z"/>
<path d="M1922 4668 c-27 -27 -6 -68 35 -68 30 0 30 17 1 23 -20 4 -19 4 5 6
30 1 32 4 17 32 -12 21 -40 25 -58 7z"/>
<path d="M2000 4639 c0 -28 4 -39 15 -39 10 0 15 10 15 30 0 17 5 30 10 30 6
0 10 -13 10 -30 0 -20 5 -30 15 -30 10 0 15 10 15 30 0 17 5 30 10 30 6 0 10
-13 10 -30 0 -20 5 -30 15 -30 16 0 19 20 9 57 -5 19 -13 21 -65 21 l-59 -1 0
-38z"/>
<path d="M1120 4410 c0 -33 4 -60 10 -60 6 0 10 8 10 18 1 16 1 16 14 0 21
-28 38 -23 24 7 -8 19 -8 28 2 40 10 12 10 15 0 15 -7 0 -19 -8 -26 -17 -12
-16 -13 -14 -14 20 0 20 -4 37 -10 37 -6 0 -10 -27 -10 -60z"/>
<path d="M430 4405 c0 -42 3 -55 15 -55 11 0 15 11 15 37 l0 38 25 -38 c14
-20 30 -37 35 -37 6 0 10 25 10 55 0 30 -4 55 -10 55 -5 0 -10 -17 -10 -37 l0
-38 -25 38 c-38 55 -55 49 -55 -18z"/>
<path d="M840 4405 l0 -55 35 0 c19 0 35 5 35 10 0 6 -9 10 -20 10 -17 0 -20
7 -20 45 0 33 -4 45 -15 45 -12 0 -15 -13 -15 -55z"/>
<path d="M740 4440 c0 -5 -11 -10 -24 -10 -13 0 -27 -6 -30 -12 -5 -10 -7 -10
-12 0 -3 6 -12 12 -20 12 -12 0 -12 -4 -4 -21 9 -16 8 -25 -6 -40 -14 -15 -14
-19 -3 -19 8 0 20 5 26 11 8 8 13 8 17 0 4 -6 14 -11 22 -11 11 0 12 4 3 19
-7 10 -9 26 -6 35 9 23 37 8 37 -20 0 -25 25 -43 38 -29 4 4 1 10 -5 12 -17 6
-17 40 -1 45 9 3 8 9 -4 21 -19 19 -28 21 -28 7z"/>
<path d="M558 4405 c-14 -30 3 -55 38 -55 30 0 31 17 2 23 -20 4 -19 4 5 6 28
1 35 19 15 39 -20 20 -48 14 -60 -13z m49 -1 c-3 -3 -12 -4 -19 -1 -8 3 -5 6
6 6 11 1 17 -2 13 -5z"/>
<path d="M933 4423 c-7 -2 -13 -18 -13 -34 0 -22 6 -30 25 -35 29 -7 55 10 55
35 0 33 -32 49 -67 34z m42 -34 c0 -7 -8 -15 -17 -17 -18 -3 -25 18 -11 32 10
10 28 1 28 -15z"/>
<path d="M1020 4411 c-16 -31 4 -63 37 -59 55 7 55 69 0 76 -18 2 -29 -3 -37
-17z m55 -21 c0 -8 -8 -16 -17 -18 -13 -2 -18 3 -18 18 0 15 5 20 18 18 9 -2
17 -10 17 -18z"/>
<path d="M1200 4409 c0 -37 18 -58 50 -57 28 1 30 4 30 40 0 43 -17 52 -22 11
-4 -39 -28 -42 -28 -4 0 21 -5 31 -15 31 -8 0 -15 -9 -15 -21z"/>
<path d="M1300 4370 c0 -47 3 -60 15 -60 8 0 15 9 15 19 0 13 8 21 23 23 18 2
22 9 22 38 0 33 -2 35 -37 37 l-38 2 0 -59z m60 20 c0 -11 -7 -20 -15 -20 -8
0 -15 9 -15 20 0 11 7 20 15 20 8 0 15 -9 15 -20z"/>
<path d="M1637 4403 c-13 -13 -7 -21 13 -16 11 3 20 0 20 -6 0 -6 -7 -11 -15
-11 -22 0 -18 -17 6 -23 13 -3 18 -10 14 -17 -4 -7 -16 -10 -26 -7 -12 3 -19
0 -19 -9 0 -17 44 -19 58 -1 11 13 10 66 -2 85 -8 13 -39 16 -49 5z"/>
<path d="M1732 4398 c-17 -17 -15 -73 3 -88 22 -18 48 -8 59 22 19 53 -27 101
-62 66z m38 -44 c0 -24 -4 -34 -12 -32 -24 8 -22 68 2 68 5 0 10 -16 10 -36z"/>
<path d="M1859 4383 c-20 -52 20 -103 56 -73 18 15 20 71 3 88 -20 20 -48 14
-59 -15z m46 -28 c0 -16 -6 -30 -12 -32 -9 -3 -13 7 -13 32 0 25 4 35 13 33 6
-3 12 -17 12 -33z"/>
<path d="M1978 4399 c-10 -5 -18 -15 -18 -20 0 -6 5 -7 10 -4 6 4 10 -10 10
-34 0 -30 4 -41 15 -41 12 0 15 13 15 55 0 57 -3 61 -32 44z"/>
<path d="M2095 4400 c-3 -5 3 -10 14 -10 28 0 26 -18 -4 -46 -35 -32 -31 -44
15 -44 22 0 40 5 40 10 0 6 -12 10 -26 10 l-27 0 27 25 c14 13 26 28 26 33 0
25 -52 43 -65 22z"/>
<path d="M2179 4383 c-20 -52 20 -103 56 -73 18 15 20 71 3 88 -20 20 -48 14
-59 -15z m46 -28 c0 -16 -6 -30 -12 -32 -9 -3 -13 7 -13 32 0 25 4 35 13 33 6
-3 12 -17 12 -33z"/>
<path d="M2277 4404 c-13 -13 -7 -22 12 -17 30 8 33 -12 6 -37 -35 -33 -32
-50 10 -50 19 0 35 5 35 10 0 6 -12 10 -26 10 l-27 0 27 21 c34 27 32 63 -4
67 -14 2 -29 0 -33 -4z"/>
<path d="M2370 4381 c0 -21 6 -30 21 -34 13 -3 18 -10 14 -17 -4 -7 -16 -10
-26 -7 -12 3 -19 0 -19 -9 0 -17 41 -19 58 -2 19 19 14 49 -8 55 -11 3 -20 9
-20 14 0 5 9 9 20 9 11 0 20 5 20 10 0 6 -13 10 -30 10 -26 0 -30 -3 -30 -29z"/>
<path d="M2499 4383 c-20 -52 20 -103 56 -73 18 15 20 71 3 88 -20 20 -48 14
-59 -15z m46 -28 c0 -16 -6 -30 -12 -32 -9 -3 -13 7 -13 32 0 25 4 35 13 33 6
-3 12 -17 12 -33z"/>
<path d="M2597 4403 c-2 -4 -4 -28 -3 -53 1 -43 2 -45 31 -45 29 0 30 1 30 50
0 47 -2 50 -27 53 -14 2 -28 0 -31 -5z m43 -23 c0 -5 -7 -10 -15 -10 -8 0 -15
5 -15 10 0 6 7 10 15 10 8 0 15 -4 15 -10z m0 -45 c0 -8 -7 -15 -15 -15 -16 0
-20 12 -8 23 11 12 23 8 23 -8z"/>
<path d="M2728 4385 c-23 -51 20 -106 57 -75 18 15 20 71 3 88 -20 20 -48 14
-60 -13z m47 -30 c0 -16 -6 -30 -12 -32 -9 -3 -13 7 -13 32 0 25 4 35 13 33 6
-3 12 -17 12 -33z"/>
<path d="M2818 4385 c-23 -51 20 -106 57 -75 18 15 20 71 3 88 -20 20 -48 14
-60 -13z m47 -30 c0 -16 -6 -30 -12 -32 -9 -3 -13 7 -13 32 0 25 4 35 13 33 6
-3 12 -17 12 -33z"/>
<path d="M2962 4398 c-17 -17 -15 -73 3 -88 22 -18 48 -8 59 22 19 53 -27 101
-62 66z m38 -44 c0 -24 -4 -34 -12 -32 -24 8 -22 68 2 68 5 0 10 -16 10 -36z"/>
<path d="M3050 4391 c-23 -43 -6 -91 32 -91 33 0 52 72 26 98 -18 18 -46 14
-58 -7z m44 -17 c7 -19 -1 -54 -14 -54 -12 0 -21 31 -15 51 8 23 21 24 29 3z"/>
<path d="M2680 4365 c0 -9 5 -15 11 -13 6 2 11 8 11 13 0 5 -5 11 -11 13 -6 2
-11 -4 -11 -13z"/>
<path d="M2910 4365 c0 -9 5 -15 11 -13 6 2 11 8 11 13 0 5 -5 11 -11 13 -6 2
-11 -4 -11 -13z"/>
<path d="M1817 4324 c-8 -8 1 -24 14 -24 5 0 9 7 9 15 0 15 -12 20 -23 9z"/>
<path d="M2040 4315 c0 -9 5 -15 11 -13 6 2 11 8 11 13 0 5 -5 11 -11 13 -6 2
-11 -4 -11 -13z"/>
<path d="M2680 4315 c0 -9 5 -15 11 -13 6 2 11 8 11 13 0 5 -5 11 -11 13 -6 2
-11 -4 -11 -13z"/>
<path d="M2910 4315 c0 -8 5 -15 10 -15 6 0 10 7 10 15 0 8 -4 15 -10 15 -5 0
-10 -7 -10 -15z"/>
<path d="M358 3849 c-29 -16 -21 -48 17 -70 40 -24 36 -44 -7 -35 -24 5 -29 3
-26 -12 4 -21 48 -28 78 -12 36 19 18 65 -33 83 -24 9 -12 27 19 27 15 0 24 6
24 15 0 17 -45 20 -72 4z"/>
<path d="M870 3785 l0 -75 39 0 c47 0 79 24 87 67 9 46 -30 83 -86 83 l-40 0
0 -75z m78 33 c27 -27 7 -78 -30 -78 -15 0 -18 8 -18 45 0 37 3 45 18 45 10 0
23 -5 30 -12z"/>
<path d="M1412 3835 c-16 -35 -15 -116 2 -137 25 -33 34 -19 17 27 -15 41 -15
49 0 90 12 33 13 45 4 45 -6 0 -17 -11 -23 -25z"/>
<path d="M1480 3785 c0 -60 3 -75 15 -75 12 0 15 15 15 75 0 60 -3 75 -15 75
-12 0 -15 -15 -15 -75z"/>
<path d="M1540 3785 c0 -60 3 -75 15 -75 10 0 15 10 15 30 0 38 16 38 38 0 9
-16 25 -30 35 -30 18 0 18 1 -1 33 -17 29 -17 36 -6 52 18 24 17 30 -2 49 -9
9 -32 16 -55 16 l-39 0 0 -75z m70 30 c0 -8 -9 -15 -20 -15 -11 0 -20 7 -20
15 0 8 9 15 20 15 11 0 20 -7 20 -15z"/>
<path d="M1686 3845 c-25 -25 -19 -44 19 -66 19 -12 35 -26 35 -31 0 -7 -14
-8 -35 -5 -42 7 -51 -19 -9 -29 67 -17 103 50 44 81 -39 20 -39 39 0 33 24 -4
30 -1 28 11 -4 22 -61 26 -82 6z"/>
<path d="M1808 3815 c13 -40 13 -50 0 -90 -16 -48 -9 -59 16 -23 29 42 12 158
-23 158 -5 0 -2 -20 7 -45z"/>
<path d="M1146 3835 c-23 -24 0 -125 28 -125 19 0 33 23 18 28 -16 5 -15 59 1
66 10 5 10 7 0 12 -7 3 -13 12 -13 20 0 18 -15 18 -34 -1z"/>
<path d="M450 3815 c0 -2 8 -26 19 -52 19 -51 18 -73 -5 -73 -8 0 -14 -7 -14
-15 0 -18 33 -20 48 -2 6 6 22 43 36 80 22 59 23 68 9 65 -9 -2 -22 -19 -28
-38 l-12 -35 -12 38 c-7 20 -19 37 -27 37 -8 0 -14 -2 -14 -5z"/>
<path d="M570 3765 c0 -48 2 -55 20 -55 17 0 20 7 20 40 0 29 4 40 15 40 11 0
15 -11 15 -40 0 -29 4 -40 16 -40 12 0 14 10 12 53 l-3 52 -47 2 -48 2 0 -54z"/>
<path d="M718 3809 c-12 -6 -18 -22 -18 -45 0 -27 5 -37 24 -46 26 -11 56 -5
56 11 0 5 -10 11 -22 13 -15 2 -23 10 -23 23 0 13 8 21 23 23 12 2 22 10 22
18 0 16 -37 18 -62 3z"/>
<path d="M1033 3813 c-22 -8 -14 -20 11 -16 13 3 27 0 30 -6 5 -7 -2 -11 -18
-11 -35 0 -54 -36 -32 -58 13 -14 20 -14 36 -4 12 7 20 8 20 2 0 -5 7 -10 15
-10 18 0 21 60 5 91 -10 18 -40 24 -67 12z m42 -63 c-3 -5 -13 -10 -21 -10 -8
0 -14 5 -14 10 0 6 9 10 21 10 11 0 17 -4 14 -10z"/>
<path d="M1227 3813 c-14 -13 -6 -20 18 -15 14 2 25 0 25 -6 0 -6 -10 -12 -21
-14 -34 -5 -47 -34 -26 -55 14 -15 21 -16 37 -5 12 7 20 8 20 2 0 -5 7 -10 16
-10 14 0 16 8 11 46 -2 26 -11 50 -18 55 -17 10 -53 12 -62 2z m48 -63 c-3 -5
-13 -10 -21 -10 -8 0 -14 5 -14 10 0 6 9 10 21 10 11 0 17 -4 14 -10z"/>
<path d="M2187 3344 c-8 -8 1 -24 14 -24 5 0 9 7 9 15 0 15 -12 20 -23 9z"/>
<path d="M2280 3331 c0 -13 -8 -21 -22 -23 -19 -2 -23 -9 -23 -38 0 -33 2 -35
38 -38 l37 -3 0 60 c0 48 -3 61 -15 61 -8 0 -15 -9 -15 -19z m5 -62 c0 -7 -8
-15 -17 -17 -18 -3 -25 18 -11 32 10 10 28 1 28 -15z"/>
<path d="M3230 3292 c0 -58 0 -59 29 -60 35 -1 54 18 49 50 -2 18 -9 23 -30
23 -23 -1 -28 4 -28 22 0 13 -4 23 -10 23 -6 0 -10 -26 -10 -58z m56 -13 c10
-17 -13 -36 -27 -22 -12 12 -4 33 11 33 5 0 12 -5 16 -11z"/>
<path d="M3910 3326 c0 -18 -4 -23 -18 -19 -24 6 -44 -19 -40 -49 2 -19 9 -23
41 -25 l37 -1 0 59 c0 33 -4 59 -10 59 -5 0 -10 -11 -10 -24z m-4 -47 c10 -17
-13 -36 -27 -22 -12 12 -4 33 11 33 5 0 12 -5 16 -11z"/>
<path d="M4770 3331 c0 -13 -8 -21 -22 -23 -19 -2 -23 -9 -23 -38 0 -33 2 -35
38 -37 l37 -2 0 59 c0 47 -3 60 -15 60 -8 0 -15 -9 -15 -19z m0 -61 c0 -11 -7
-20 -15 -20 -8 0 -15 9 -15 20 0 11 7 20 15 20 8 0 15 -9 15 -20z"/>
<path d="M4923 3333 c-4 -10 -11 -22 -17 -26 -8 -6 -7 -10 2 -14 6 -2 12 -18
12 -34 0 -16 5 -29 10 -29 6 0 10 13 10 29 0 16 6 32 13 34 9 4 8 8 -3 17 -11
9 -12 13 -2 17 17 7 15 23 -3 23 -9 0 -19 -8 -22 -17z"/>
<path d="M5340 3289 l0 -60 38 3 c35 3 37 5 37 38 0 30 -3 35 -22 34 -18 0
-23 5 -23 23 0 14 -6 23 -15 23 -12 0 -15 -13 -15 -61z m60 -13 c0 -8 -5 -18
-11 -22 -14 -8 -33 11 -25 25 10 16 36 13 36 -3z"/>
<path d="M5490 3331 c0 -13 -8 -21 -22 -23 -19 -2 -23 -9 -23 -38 0 -33 2 -35
38 -37 l37 -2 0 59 c0 47 -3 60 -15 60 -8 0 -15 -9 -15 -19z m0 -61 c0 -11 -7
-20 -15 -20 -8 0 -15 9 -15 20 0 11 7 20 15 20 8 0 15 -9 15 -20z"/>
<path d="M520 3280 c0 -47 3 -60 15 -60 12 0 15 13 15 60 0 47 -3 60 -15 60
-12 0 -15 -13 -15 -60z"/>
<path d="M670 3282 c0 -58 0 -59 29 -60 35 -1 54 18 49 50 -2 18 -9 23 -30 23
-23 -1 -28 4 -28 22 0 13 -4 23 -10 23 -6 0 -10 -26 -10 -58z m56 -13 c10 -17
-13 -36 -27 -22 -12 12 -4 33 11 33 5 0 12 -5 16 -11z"/>
<path d="M850 3280 c0 -47 3 -60 15 -60 12 0 15 13 15 60 0 47 -3 60 -15 60
-12 0 -15 -13 -15 -60z"/>
<path d="M1400 3321 c0 -13 -8 -21 -22 -23 -19 -2 -23 -9 -23 -38 0 -33 2 -35
38 -37 l37 -2 0 59 c0 47 -3 60 -15 60 -8 0 -15 -9 -15 -19z m0 -61 c0 -11 -7
-20 -15 -20 -8 0 -15 9 -15 20 0 11 7 20 15 20 8 0 15 -9 15 -20z"/>
<path d="M2370 3330 c0 -5 11 -10 24 -10 25 0 25 -1 10 -35 -16 -39 -18 -55
-5 -55 4 0 17 21 27 47 11 27 21 51 22 55 2 5 -15 8 -37 8 -23 0 -41 -4 -41
-10z"/>
<path d="M2894 3325 c-3 -8 -3 -19 1 -25 4 -6 1 -17 -5 -25 -18 -21 6 -47 39
-43 23 3 26 7 27 48 1 25 -4 48 -10 52 -18 13 -46 9 -52 -7z m46 -15 c0 -5 -7
-10 -15 -10 -8 0 -15 5 -15 10 0 6 7 10 15 10 8 0 15 -4 15 -10z m-2 -48 c2
-7 -3 -12 -12 -12 -9 0 -16 7 -16 16 0 17 22 14 28 -4z"/>
<path d="M2996 3324 c-19 -18 -21 -65 -4 -82 32 -32 80 7 54 43 -8 12 -19 16
-30 12 -12 -5 -16 -3 -14 5 3 7 14 14 26 16 12 2 22 8 22 13 0 15 -37 10 -54
-7z m34 -60 c0 -17 -22 -14 -28 4 -2 7 3 12 12 12 9 0 16 -7 16 -16z"/>
<path d="M3130 3330 c0 -5 11 -10 25 -10 30 0 29 2 9 -45 -8 -20 -13 -39 -10
-42 10 -10 25 8 31 37 4 16 11 32 16 35 5 4 9 13 9 21 0 10 -12 14 -40 14 -22
0 -40 -4 -40 -10z"/>
<path d="M3342 3328 c-17 -17 -15 -73 3 -88 25 -20 50 -8 50 25 0 25 -4 30
-23 29 -28 -1 -23 20 6 24 12 2 22 8 22 13 0 13 -44 11 -58 -3z m38 -63 c0 -8
-7 -15 -15 -15 -8 0 -15 7 -15 15 0 8 7 15 15 15 8 0 15 -7 15 -15z"/>
<path d="M3424 3326 c-11 -28 1 -51 24 -50 28 1 23 -20 -6 -24 -12 -2 -22 -8
-22 -13 0 -13 44 -11 58 3 18 18 15 85 -4 92 -26 10 -44 7 -50 -8z m46 -21 c0
-8 -7 -15 -15 -15 -8 0 -15 7 -15 15 0 8 7 15 15 15 8 0 15 -7 15 -15z"/>
<path d="M3596 3306 c-32 -43 -33 -56 -2 -56 13 0 27 -6 29 -12 7 -18 29 12
22 30 -3 8 -5 27 -5 43 0 38 -12 37 -44 -5z m24 -21 c0 -8 -7 -15 -16 -15 -14
0 -14 3 -4 15 7 8 14 15 16 15 2 0 4 -7 4 -15z"/>
<path d="M3688 3306 c-34 -43 -35 -56 -4 -56 13 0 27 -6 29 -12 7 -18 29 12
22 30 -3 8 -5 27 -5 43 0 38 -9 37 -42 -5z m18 -33 c-10 -10 -19 5 -10 18 6
11 8 11 12 0 2 -7 1 -15 -2 -18z"/>
<path d="M3776 3300 c-32 -48 -32 -50 -2 -50 13 0 26 -6 28 -12 3 -9 10 -7 24
6 13 14 15 21 6 24 -6 2 -12 19 -12 38 0 44 -11 43 -44 -6z m24 -15 c0 -8 -4
-15 -10 -15 -5 0 -7 7 -4 15 4 8 8 15 10 15 2 0 4 -7 4 -15z"/>
<path d="M4024 3325 c-4 -8 -4 -21 -1 -29 3 -7 0 -19 -6 -25 -18 -18 16 -45
47 -37 22 5 25 11 23 44 -1 20 -6 43 -10 50 -11 17 -46 15 -53 -3z m41 -15 c3
-5 -1 -10 -9 -10 -9 0 -16 5 -16 10 0 6 4 10 9 10 6 0 13 -4 16 -10z m3 -48
c2 -7 -3 -12 -12 -12 -9 0 -16 7 -16 16 0 17 22 14 28 -4z"/>
<path d="M4128 3326 c-22 -16 -23 -30 -3 -22 12 4 15 -3 15 -34 0 -22 5 -40
10 -40 6 0 10 25 10 55 0 58 -4 63 -32 41z"/>
<path d="M4302 3328 c-20 -20 -15 -86 7 -93 31 -10 52 5 49 34 -2 20 -8 26
-26 25 -28 -1 -23 20 6 24 12 2 22 8 22 13 0 13 -44 11 -58 -3z m38 -63 c0 -8
-7 -15 -15 -15 -8 0 -15 7 -15 15 0 8 7 15 15 15 8 0 15 -7 15 -15z"/>
<path d="M4454 3315 c-29 -45 4 -104 45 -78 26 16 20 56 -9 64 l-25 7 23 7
c27 9 29 25 2 25 -11 0 -27 -11 -36 -25z m38 -50 c0 -5 -5 -11 -11 -13 -6 -2
-11 4 -11 13 0 9 5 15 11 13 6 -2 11 -8 11 -13z"/>
<path d="M4540 3310 c0 -23 4 -30 20 -30 11 0 20 -7 20 -15 0 -8 -9 -15 -20
-15 -11 0 -20 -4 -20 -10 0 -17 49 -11 59 8 11 21 -3 52 -24 52 -8 0 -15 5
-15 10 0 6 9 10 20 10 11 0 20 5 20 10 0 6 -13 10 -30 10 -27 0 -30 -3 -30
-30z"/>
<path d="M4637 3333 c-4 -3 -7 -17 -7 -30 0 -16 6 -23 20 -23 11 0 20 -7 20
-15 0 -8 -9 -15 -20 -15 -11 0 -20 -4 -20 -10 0 -16 46 -12 60 5 16 19 6 45
-20 52 -26 7 -26 23 0 23 11 0 20 5 20 10 0 11 -43 14 -53 3z"/>
<path d="M4832 3328 c-18 -18 -15 -87 4 -95 30 -11 49 11 49 58 0 36 -3 44
-20 47 -11 1 -26 -3 -33 -10z m33 -43 c0 -16 -6 -30 -12 -32 -9 -3 -13 7 -13
32 0 25 4 35 13 33 6 -3 12 -17 12 -33z"/>
<path d="M4998 3329 c-10 -5 -18 -15 -18 -20 0 -6 5 -7 10 -4 6 4 10 -10 10
-34 0 -30 4 -41 15 -41 12 0 15 13 15 55 0 57 -3 61 -32 44z"/>
<path d="M5070 3310 c0 -23 4 -30 20 -30 11 0 20 -7 20 -15 0 -8 -9 -15 -20
-15 -11 0 -20 -4 -20 -10 0 -11 20 -13 44 -4 24 9 20 55 -4 61 -11 3 -20 9
-20 14 0 5 9 9 20 9 11 0 20 5 20 10 0 6 -13 10 -30 10 -27 0 -30 -3 -30 -30z"/>
<path d="M5178 3326 c-22 -16 -23 -30 -3 -22 12 4 15 -3 15 -34 0 -22 5 -40
10 -40 6 0 10 25 10 55 0 58 -4 63 -32 41z"/>
<path d="M5257 3334 c-13 -14 -7 -22 13 -17 11 3 20 0 20 -6 0 -6 -7 -11 -15
-11 -8 0 -15 -4 -15 -10 0 -5 7 -10 15 -10 8 0 15 -7 15 -15 0 -8 -9 -15 -20
-15 -11 0 -20 -4 -20 -10 0 -16 46 -12 60 5 7 8 9 22 5 32 -4 10 -8 27 -9 38
-1 20 -35 33 -49 19z"/>
<path d="M426 3314 c-9 -8 -16 -28 -16 -44 0 -32 23 -50 64 -50 22 0 26 4 26
30 0 23 -4 30 -20 30 -22 0 -27 -16 -7 -23 6 -2 9 -8 5 -12 -10 -11 -37 2 -44
20 -9 23 16 47 43 42 15 -3 23 1 23 9 0 19 -55 18 -74 -2z"/>
<path d="M916 3297 c-27 -65 -28 -77 -12 -77 9 0 16 5 16 10 0 6 11 10 25 10
14 0 25 -4 25 -10 0 -14 74 -12 88 2 9 9 12 9 12 0 0 -17 45 -15 59 2 10 11 7
17 -11 30 -18 13 -19 16 -5 16 9 0 17 5 17 10 0 15 -36 12 -49 -4 -10 -11 -7
-17 11 -30 19 -14 20 -16 4 -16 -10 0 -29 9 -43 20 -19 15 -21 20 -9 20 9 0
16 5 16 10 0 15 -36 12 -49 -4 -10 -11 -8 -17 9 -29 21 -14 21 -15 -4 -19 -23
-5 -27 0 -41 43 -19 57 -39 63 -59 16z m32 -36 c-15 -5 -21 7 -13 26 7 17 8
17 15 -2 4 -11 3 -22 -2 -24z"/>
<path d="M1300 3275 c0 -42 3 -55 15 -55 12 0 15 13 15 55 0 42 -3 55 -15 55
-12 0 -15 -13 -15 -55z"/>
<path d="M1242 3307 c-6 -7 -8 -27 -3 -47 5 -26 13 -36 29 -38 12 -2 22 1 22
7 0 6 -4 11 -10 11 -14 0 -12 38 2 42 9 3 8 9 -4 21 -20 20 -23 21 -36 4z"/>
<path d="M1692 3273 c3 -36 5 -38 41 -40 37 -2 37 -2 37 37 0 29 -4 40 -15 40
-10 0 -15 -10 -15 -31 0 -38 -24 -35 -28 4 -5 42 -24 32 -20 -10z"/>
<path d="M1790 3269 c0 -22 5 -39 10 -39 6 0 10 11 10 25 0 14 7 28 15 31 23
9 18 22 -10 22 -22 0 -25 -5 -25 -39z"/>
<path d="M1850 3270 c0 -29 4 -40 15 -40 10 0 15 10 15 30 0 17 5 30 10 30 6
0 10 -13 10 -30 0 -21 5 -30 16 -30 12 0 14 9 12 38 -3 35 -5 37 -40 39 -38 2
-38 2 -38 -37z"/>
<path d="M1950 3295 c0 -8 5 -15 10 -15 6 0 10 7 10 15 0 8 -4 15 -10 15 -5 0
-10 -7 -10 -15z"/>
<path d="M1992 3273 c3 -36 5 -38 41 -40 37 -2 37 -2 37 37 0 29 -4 40 -15 40
-10 0 -15 -10 -15 -30 0 -16 -4 -30 -10 -30 -5 0 -10 14 -10 30 0 21 -5 30
-16 30 -12 0 -14 -9 -12 -37z"/>
<path d="M2092 3273 c3 -35 6 -38 36 -40 31 -1 32 0 32 38 0 21 -4 39 -10 39
-5 0 -10 -13 -10 -30 0 -20 -5 -30 -15 -30 -10 0 -15 10 -15 30 0 17 -5 30
-11 30 -6 0 -9 -16 -7 -37z"/>
<path d="M2190 3270 c0 -22 5 -40 10 -40 6 0 10 18 10 40 0 22 -4 40 -10 40
-5 0 -10 -18 -10 -40z"/>
<path d="M2330 3295 c0 -9 5 -15 11 -13 6 2 11 8 11 13 0 5 -5 11 -11 13 -6 2
-11 -4 -11 -13z"/>
<path d="M2472 3298 c-27 -27 -6 -68 35 -68 30 0 30 17 1 23 -20 4 -19 4 5 6
41 2 29 51 -13 51 -9 0 -21 -5 -28 -12z"/>
<path d="M2562 3298 c-30 -30 -9 -68 39 -68 29 0 23 18 -8 23 l-28 4 28 2 c23
1 28 5 25 24 -3 25 -36 35 -56 15z m35 -14 c-3 -3 -12 -4 -19 -1 -8 3 -5 6 6
6 11 1 17 -2 13 -5z"/>
<path d="M2640 3290 c-15 -28 4 -60 35 -60 31 0 33 17 3 23 -20 4 -19 4 5 6
28 1 35 19 15 39 -18 18 -46 14 -58 -8z m47 -6 c-3 -3 -12 -4 -19 -1 -8 3 -5
6 6 6 11 1 17 -2 13 -5z"/>
<path d="M2730 3301 c0 -6 10 -11 23 -12 21 -1 21 -1 -3 -8 -16 -4 -25 -14
-25 -26 0 -16 7 -20 33 -22 32 -1 33 0 30 35 -3 32 -7 37 -30 40 -16 2 -28 -1
-28 -7z m40 -41 c0 -5 -7 -10 -16 -10 -8 0 -12 5 -9 10 3 6 10 10 16 10 5 0 9
-4 9 -10z"/>
<path d="M2823 3303 c-7 -2 -13 -17 -13 -33 0 -27 15 -40 46 -40 21 0 17 17
-6 23 -11 3 -20 10 -20 17 0 7 9 14 20 17 11 3 20 9 20 14 0 10 -27 11 -47 2z"/>
<path d="M4212 3301 c-8 -4 -12 -21 -10 -37 2 -25 8 -29 36 -32 39 -4 43 15 5
21 l-28 4 28 2 c23 1 28 5 25 24 -3 23 -33 34 -56 18z m35 -17 c-3 -3 -12 -4
-19 -1 -8 3 -5 6 6 6 11 1 17 -2 13 -5z"/>
<path d="M582 3291 c-8 -4 -12 -21 -10 -37 2 -25 7 -29 32 -29 36 0 56 27 40
53 -13 19 -43 26 -62 13z m43 -31 c0 -8 -8 -16 -17 -18 -13 -2 -18 3 -18 18 0
15 5 20 18 18 9 -2 17 -10 17 -18z"/>
<path d="M770 3291 c0 -6 10 -11 23 -12 21 -1 21 -1 -3 -8 -16 -4 -25 -14 -25
-26 0 -16 7 -20 33 -22 32 -1 33 0 30 35 -3 32 -7 37 -30 40 -16 2 -28 -1 -28
-7z m40 -41 c0 -5 -7 -10 -16 -10 -8 0 -12 5 -9 10 3 6 10 10 16 10 5 0 9 -4
9 -10z"/>
<path d="M1162 3291 c-8 -4 -12 -21 -10 -37 2 -25 8 -29 36 -32 39 -4 43 15 5
21 l-28 4 28 2 c23 1 28 5 25 24 -3 23 -33 34 -56 18z m35 -17 c-3 -3 -12 -4
-19 -1 -8 3 -5 6 6 6 11 1 17 -2 13 -5z"/>
<path d="M3070 3270 c0 -5 11 -10 25 -10 14 0 25 5 25 10 0 6 -11 10 -25 10
-14 0 -25 -4 -25 -10z"/>
<path d="M3510 3270 c0 -5 11 -10 25 -10 14 0 25 5 25 10 0 6 -11 10 -25 10
-14 0 -25 -4 -25 -10z"/>
<path d="M3950 3270 c0 -5 11 -10 25 -10 14 0 25 5 25 10 0 6 -11 10 -25 10
-14 0 -25 -4 -25 -10z"/>
<path d="M4380 3270 c0 -5 9 -10 20 -10 11 0 20 5 20 10 0 6 -9 10 -20 10 -11
0 -20 -4 -20 -10z"/>
<path d="M1950 3245 c0 -8 5 -15 10 -15 6 0 10 7 10 15 0 8 -4 15 -10 15 -5 0
-10 -7 -10 -15z"/>
<path d="M2330 3245 c0 -8 5 -15 10 -15 6 0 10 7 10 15 0 8 -4 15 -10 15 -5 0
-10 -7 -10 -15z"/>
<path d="M1697 3114 c-13 -13 -7 -22 12 -17 30 8 33 -12 6 -37 -35 -33 -32
-50 10 -50 19 0 35 5 35 10 0 6 -10 10 -22 10 l-21 0 22 24 c29 30 24 60 -9
64 -14 2 -29 0 -33 -4z"/>
<path d="M1791 3106 c-19 -22 -9 -49 19 -57 l25 -7 -22 -7 c-28 -9 -30 -25 -3
-25 30 0 55 45 44 78 -11 31 -45 40 -63 18z m39 -21 c0 -8 -4 -15 -9 -15 -13
0 -22 16 -14 24 11 11 23 6 23 -9z"/>
<path d="M1919 3093 c-20 -52 20 -103 56 -73 18 15 20 71 3 88 -20 20 -48 14
-59 -15z m46 -28 c0 -16 -6 -30 -12 -32 -9 -3 -13 7 -13 32 0 25 4 35 13 33 6
-3 12 -17 12 -33z"/>
<path d="M2017 3114 c-13 -13 -7 -22 12 -17 30 8 33 -12 6 -37 -35 -33 -32
-50 10 -50 19 0 35 5 35 10 0 6 -10 10 -22 10 l-21 0 22 24 c29 30 24 60 -9
64 -14 2 -29 0 -33 -4z"/>
<path d="M2155 3110 c-3 -5 3 -10 14 -10 28 0 26 -18 -4 -46 -35 -32 -31 -44
15 -44 22 0 40 5 40 10 0 6 -12 10 -26 10 l-27 0 27 25 c14 13 26 28 26 33 0
25 -52 43 -65 22z"/>
<path d="M2239 3093 c-20 -52 20 -103 56 -73 18 15 20 71 3 88 -20 20 -48 14
-59 -15z m46 -28 c0 -16 -6 -30 -12 -32 -9 -3 -13 7 -13 32 0 25 4 35 13 33 6
-3 12 -17 12 -33z"/>
<path d="M2337 3114 c-13 -13 -7 -22 12 -17 30 8 33 -12 6 -37 -35 -33 -32
-50 10 -50 19 0 35 5 35 10 0 6 -12 10 -26 10 l-27 0 27 21 c34 27 32 63 -4
67 -14 2 -29 0 -33 -4z"/>
<path d="M2430 3091 c0 -21 6 -30 21 -34 13 -3 18 -10 14 -17 -4 -7 -16 -10
-26 -7 -12 3 -19 0 -19 -9 0 -17 41 -19 58 -2 19 19 14 49 -8 55 -11 3 -20 9
-20 14 0 5 9 9 20 9 11 0 20 5 20 10 0 6 -13 10 -30 10 -26 0 -30 -3 -30 -29z"/>
<path d="M2559 3093 c-20 -52 20 -103 56 -73 18 15 20 71 3 88 -20 20 -48 14
-59 -15z m46 -28 c0 -16 -6 -30 -12 -32 -9 -3 -13 7 -13 32 0 25 4 35 13 33 6
-3 12 -17 12 -33z"/>
<path d="M2657 3113 c-2 -4 -4 -28 -3 -53 1 -43 2 -45 31 -45 29 0 30 1 30 50
0 47 -2 50 -27 53 -14 2 -28 0 -31 -5z m43 -23 c0 -5 -7 -10 -15 -10 -8 0 -15
5 -15 10 0 6 7 10 15 10 8 0 15 -4 15 -10z m0 -45 c0 -8 -7 -15 -15 -15 -16 0
-20 12 -8 23 11 12 23 8 23 -8z"/>
<path d="M2788 3095 c-23 -51 20 -106 57 -75 18 15 20 71 3 88 -20 20 -48 14
-60 -13z m47 -30 c0 -16 -6 -30 -12 -32 -9 -3 -13 7 -13 32 0 25 4 35 13 33 6
-3 12 -17 12 -33z"/>
<path d="M2878 3095 c-23 -51 20 -106 57 -75 18 15 20 71 3 88 -20 20 -48 14
-60 -13z m47 -30 c0 -16 -6 -30 -12 -32 -9 -3 -13 7 -13 32 0 25 4 35 13 33 6
-3 12 -17 12 -33z"/>
<path d="M3022 3108 c-17 -17 -15 -73 3 -88 22 -18 48 -8 59 22 19 53 -27 101
-62 66z m38 -44 c0 -24 -4 -34 -12 -32 -24 8 -22 68 2 68 5 0 10 -16 10 -36z"/>
<path d="M3110 3101 c-23 -43 -6 -91 32 -91 33 0 52 72 26 98 -18 18 -46 14
-58 -7z m44 -17 c7 -19 -1 -54 -14 -54 -12 0 -21 31 -15 51 8 23 21 24 29 3z"/>
<path d="M400 3100 c0 -5 7 -10 15 -10 11 0 15 -12 15 -45 0 -33 4 -45 15 -45
11 0 15 12 15 45 0 33 4 45 15 45 8 0 15 5 15 10 0 6 -20 10 -45 10 -25 0 -45
-4 -45 -10z"/>
<path d="M500 3100 c0 -5 7 -10 15 -10 11 0 15 -12 15 -45 0 -33 4 -45 15 -45
11 0 15 12 15 45 0 33 4 45 15 45 8 0 15 5 15 10 0 6 -20 10 -45 10 -25 0 -45
-4 -45 -10z"/>
<path d="M600 3055 l0 -55 35 0 c19 0 35 5 35 10 0 6 -9 10 -20 10 -17 0 -20
7 -20 45 0 33 -4 45 -15 45 -12 0 -15 -13 -15 -55z"/>
<path d="M2740 3075 c0 -9 5 -15 11 -13 6 2 11 8 11 13 0 5 -5 11 -11 13 -6 2
-11 -4 -11 -13z"/>
<path d="M2970 3075 c0 -9 5 -15 11 -13 6 2 11 8 11 13 0 5 -5 11 -11 13 -6 2
-11 -4 -11 -13z"/>
<path d="M1877 3034 c-8 -8 1 -24 14 -24 5 0 9 7 9 15 0 15 -12 20 -23 9z"/>
<path d="M2100 3025 c0 -9 5 -15 11 -13 6 2 11 8 11 13 0 5 -5 11 -11 13 -6 2
-11 -4 -11 -13z"/>
<path d="M2740 3025 c0 -9 5 -15 11 -13 6 2 11 8 11 13 0 5 -5 11 -11 13 -6 2
-11 -4 -11 -13z"/>
<path d="M2970 3025 c0 -8 5 -15 10 -15 6 0 10 7 10 15 0 8 -4 15 -10 15 -5 0
-10 -7 -10 -15z"/>
<path d="M680 2887 c0 -18 -5 -23 -21 -23 -12 1 -26 -7 -33 -16 -16 -26 4 -53
43 -55 l31 -1 0 59 c0 33 -4 59 -10 59 -5 0 -10 -10 -10 -23z m0 -57 c0 -11
-7 -20 -15 -20 -8 0 -15 9 -15 20 0 11 7 20 15 20 8 0 15 -9 15 -20z"/>
<path d="M1010 2891 c0 -13 -8 -21 -22 -23 -19 -2 -23 -9 -23 -38 0 -33 2 -35
38 -37 l37 -2 0 59 c0 47 -3 60 -15 60 -8 0 -15 -9 -15 -19z m0 -61 c0 -11 -7
-20 -15 -20 -8 0 -15 9 -15 20 0 11 7 20 15 20 8 0 15 -9 15 -20z"/>
<path d="M1718 2899 c-10 -5 -18 -15 -18 -20 0 -6 5 -7 10 -4 6 4 10 -10 10
-34 0 -30 4 -41 15 -41 12 0 15 13 15 55 0 57 -3 61 -32 44z"/>
<path d="M1794 2884 c-23 -35 -9 -79 25 -79 28 0 47 25 37 50 -4 12 -14 16
-31 13 -20 -4 -23 -3 -14 8 6 8 18 14 25 14 8 0 14 5 14 10 0 20 -40 9 -56
-16z m38 -49 c0 -5 -5 -11 -11 -13 -6 -2 -11 4 -11 13 0 9 5 15 11 13 6 -2 11
-8 11 -13z"/>
<path d="M1919 2883 c-20 -52 20 -103 56 -73 18 15 20 71 3 88 -20 20 -48 14
-59 -15z m46 -28 c0 -16 -6 -30 -12 -32 -9 -3 -13 7 -13 32 0 25 4 35 13 33 6
-3 12 -17 12 -33z"/>
<path d="M2038 2899 c-10 -5 -18 -15 -18 -20 0 -6 5 -7 10 -4 6 4 10 -10 10
-34 0 -30 4 -41 15 -41 12 0 15 13 15 55 0 57 -3 61 -32 44z"/>
<path d="M2155 2900 c-3 -5 3 -10 14 -10 28 0 26 -18 -4 -46 -35 -32 -31 -44
15 -44 22 0 40 5 40 10 0 6 -12 10 -26 10 l-27 0 27 25 c14 13 26 28 26 33 0
25 -52 43 -65 22z"/>
<path d="M2239 2883 c-20 -52 20 -103 56 -73 18 15 20 71 3 88 -20 20 -48 14
-59 -15z m46 -28 c0 -16 -6 -30 -12 -32 -9 -3 -13 7 -13 32 0 25 4 35 13 33 6
-3 12 -17 12 -33z"/>
<path d="M2337 2904 c-13 -13 -7 -22 12 -17 30 8 33 -12 6 -37 -35 -33 -32
-50 10 -50 19 0 35 5 35 10 0 6 -12 10 -26 10 l-27 0 27 21 c34 27 32 63 -4
67 -14 2 -29 0 -33 -4z"/>
<path d="M2430 2881 c0 -21 6 -30 21 -34 13 -3 18 -10 14 -17 -4 -7 -16 -10
-26 -7 -12 3 -19 0 -19 -9 0 -17 41 -19 58 -2 19 19 14 49 -8 55 -11 3 -20 9
-20 14 0 5 9 9 20 9 11 0 20 5 20 10 0 6 -13 10 -30 10 -26 0 -30 -3 -30 -29z"/>
<path d="M2559 2883 c-20 -52 20 -103 56 -73 18 15 20 71 3 88 -20 20 -48 14
-59 -15z m46 -28 c0 -16 -6 -30 -12 -32 -9 -3 -13 7 -13 32 0 25 4 35 13 33 6
-3 12 -17 12 -33z"/>
<path d="M2657 2903 c-2 -4 -4 -28 -3 -53 1 -43 2 -45 31 -45 29 0 30 1 30 50
0 47 -2 50 -27 53 -14 2 -28 0 -31 -5z m43 -23 c0 -5 -7 -10 -15 -10 -8 0 -15
5 -15 10 0 6 7 10 15 10 8 0 15 -4 15 -10z m0 -45 c0 -8 -7 -15 -15 -15 -16 0
-20 12 -8 23 11 12 23 8 23 -8z"/>
<path d="M2788 2885 c-23 -51 20 -106 57 -75 18 15 20 71 3 88 -20 20 -48 14
-60 -13z m47 -30 c0 -16 -6 -30 -12 -32 -9 -3 -13 7 -13 32 0 25 4 35 13 33 6
-3 12 -17 12 -33z"/>
<path d="M2878 2885 c-23 -51 20 -106 57 -75 18 15 20 71 3 88 -20 20 -48 14
-60 -13z m47 -30 c0 -16 -6 -30 -12 -32 -9 -3 -13 7 -13 32 0 25 4 35 13 33 6
-3 12 -17 12 -33z"/>
<path d="M3022 2898 c-17 -17 -15 -73 3 -88 22 -18 48 -8 59 22 19 53 -27 101
-62 66z m38 -44 c0 -24 -4 -34 -12 -32 -24 8 -22 68 2 68 5 0 10 -16 10 -36z"/>
<path d="M3110 2891 c-23 -43 -6 -91 32 -91 33 0 52 72 26 98 -18 18 -46 14
-58 -7z m44 -17 c7 -19 -1 -54 -14 -54 -12 0 -21 31 -15 51 8 23 21 24 29 3z"/>
<path d="M410 2864 c0 -47 16 -74 43 -74 34 0 47 19 47 67 0 56 -18 56 -22 1
-2 -31 -8 -44 -20 -46 -15 -3 -18 4 -18 42 0 34 -4 46 -15 46 -11 0 -15 -11
-15 -36z"/>
<path d="M810 2873 c-10 -12 -11 -18 -2 -21 7 -2 12 -15 12 -28 0 -25 25 -43
38 -29 4 4 1 10 -5 12 -17 6 -17 40 -1 45 9 3 8 9 -4 21 -20 20 -19 20 -38 0z"/>
<path d="M2740 2865 c0 -9 5 -15 11 -13 6 2 11 8 11 13 0 5 -5 11 -11 13 -6 2
-11 -4 -11 -13z"/>
<path d="M2970 2865 c0 -9 5 -15 11 -13 6 2 11 8 11 13 0 5 -5 11 -11 13 -6 2
-11 -4 -11 -13z"/>
<path d="M530 2808 c0 -32 4 -58 10 -58 6 0 10 11 10 24 0 18 4 23 18 19 25
-6 46 21 38 52 -5 20 -12 24 -41 23 l-35 -1 0 -59z m55 21 c0 -7 -8 -15 -17
-17 -18 -3 -25 18 -11 32 10 10 28 1 28 -15z"/>
<path d="M730 2861 c0 -6 10 -11 23 -12 21 -1 21 -1 -3 -8 -16 -4 -25 -14 -25
-26 0 -16 7 -20 33 -22 32 -1 33 0 30 35 -3 32 -7 37 -30 40 -16 2 -28 -1 -28
-7z m40 -41 c0 -5 -7 -10 -16 -10 -8 0 -12 5 -9 10 3 6 10 10 16 10 5 0 9 -4
9 -10z"/>
<path d="M882 2858 c-30 -30 -9 -68 39 -68 29 0 23 18 -8 23 l-28 4 28 2 c23
1 28 5 25 24 -3 25 -36 35 -56 15z m35 -14 c-3 -3 -12 -4 -19 -1 -8 3 -5 6 6
6 11 1 17 -2 13 -5z"/>
<path d="M1877 2824 c-8 -8 1 -24 14 -24 5 0 9 7 9 15 0 15 -12 20 -23 9z"/>
<path d="M2100 2815 c0 -9 5 -15 11 -13 6 2 11 8 11 13 0 5 -5 11 -11 13 -6 2
-11 -4 -11 -13z"/>
<path d="M2740 2815 c0 -9 5 -15 11 -13 6 2 11 8 11 13 0 5 -5 11 -11 13 -6 2
-11 -4 -11 -13z"/>
<path d="M2970 2815 c0 -8 5 -15 10 -15 6 0 10 7 10 15 0 8 -4 15 -10 15 -5 0
-10 -7 -10 -15z"/>
<path d="M1860 2686 c0 -18 -4 -23 -18 -19 -24 6 -44 -19 -40 -49 2 -19 9 -23
41 -25 l37 -1 0 59 c0 33 -4 59 -10 59 -5 0 -10 -11 -10 -24z m-4 -47 c10 -17
-13 -36 -27 -22 -12 12 -4 33 11 33 5 0 12 -5 16 -11z"/>
<path d="M2050 2695 c0 -9 5 -15 11 -13 6 2 11 8 11 13 0 5 -5 11 -11 13 -6 2
-11 -4 -11 -13z"/>
<path d="M1703 2648 c-13 -35 -17 -54 -10 -57 6 -2 13 1 15 8 5 14 52 15 52 1
0 -5 7 -10 15 -10 18 0 19 -5 -4 55 -26 68 -43 68 -68 3z m47 -10 c0 -5 -7 -8
-15 -8 -17 0 -18 2 -9 25 5 13 8 14 15 3 5 -7 9 -16 9 -20z"/>
<path d="M423 2638 c-13 -35 -17 -54 -10 -57 6 -2 13 1 15 8 5 14 52 15 52 1
0 -5 7 -10 15 -10 18 0 19 -5 -4 55 -26 68 -43 68 -68 3z m47 -10 c0 -5 -7 -8
-15 -8 -17 0 -18 2 -9 25 5 13 8 14 15 3 5 -7 9 -16 9 -20z"/>
<path d="M600 2663 c-10 -12 -11 -18 -2 -21 7 -2 12 -17 12 -33 0 -22 5 -29
20 -29 11 0 20 5 20 10 0 6 -4 10 -10 10 -14 0 -12 38 2 42 9 3 8 9 -4 21 -20
20 -19 20 -38 0z"/>
<path d="M1900 2629 c0 -28 4 -39 15 -39 10 0 15 10 15 30 0 17 5 30 10 30 6
0 10 -13 10 -30 0 -20 5 -30 15 -30 10 0 15 10 15 30 0 17 5 30 10 30 6 0 10
-13 10 -30 0 -20 5 -30 15 -30 16 0 21 46 7 66 -4 5 -33 11 -64 11 l-58 1 0
-39z"/>
<path d="M2050 2630 c0 -22 5 -40 10 -40 6 0 10 18 10 40 0 22 -4 40 -10 40
-5 0 -10 -18 -10 -40z"/>
<path d="M2090 2630 c0 -29 4 -40 15 -40 10 0 15 10 15 31 0 38 24 35 28 -4 5
-42 24 -32 20 11 -3 35 -5 37 -40 39 -38 2 -38 2 -38 -37z"/>
<path d="M532 2648 c-25 -25 -6 -68 30 -68 24 0 23 16 -2 23 -11 3 -20 10 -20
17 0 7 9 14 20 17 11 3 20 9 20 14 0 13 -34 11 -48 -3z"/>
<path d="M672 2648 c-30 -30 0 -75 43 -64 19 5 25 13 25 35 0 38 -41 56 -68
29z m44 -19 c10 -17 -13 -36 -27 -22 -12 12 -4 33 11 33 5 0 12 -5 16 -11z"/>
<path d="M760 2619 c0 -22 5 -39 10 -39 6 0 10 11 10 25 0 14 7 28 15 31 23 9
18 22 -10 22 -22 0 -25 -5 -25 -39z"/>
<path d="M1697 2483 c-13 -13 -7 -21 13 -16 11 3 20 0 20 -6 0 -6 -7 -11 -15
-11 -22 0 -18 -17 6 -23 13 -3 18 -10 14 -17 -4 -7 -16 -10 -26 -7 -12 3 -19
0 -19 -9 0 -17 44 -19 58 -1 11 13 10 66 -2 85 -8 13 -39 16 -49 5z"/>
<path d="M1792 2478 c-17 -17 -15 -73 3 -88 22 -18 48 -8 59 22 19 53 -27 101
-62 66z m38 -44 c0 -24 -4 -34 -12 -32 -24 8 -22 68 2 68 5 0 10 -16 10 -36z"/>
<path d="M1919 2463 c-20 -52 20 -103 56 -73 18 15 20 71 3 88 -20 20 -48 14
-59 -15z m46 -28 c0 -16 -6 -30 -12 -32 -9 -3 -13 7 -13 32 0 25 4 35 13 33 6
-3 12 -17 12 -33z"/>
<path d="M2017 2484 c-13 -13 -7 -22 12 -17 30 8 33 -12 6 -37 -35 -33 -32
-50 10 -50 19 0 35 5 35 10 0 6 -10 10 -22 10 l-21 0 22 24 c29 30 24 60 -9
64 -14 2 -29 0 -33 -4z"/>
<path d="M2155 2480 c-3 -5 3 -10 14 -10 28 0 26 -18 -4 -46 -35 -32 -31 -44
15 -44 22 0 40 5 40 10 0 6 -12 10 -26 10 l-27 0 27 25 c14 13 26 28 26 33 0
25 -52 43 -65 22z"/>
<path d="M2239 2463 c-20 -52 20 -103 56 -73 18 15 20 71 3 88 -20 20 -48 14
-59 -15z m46 -28 c0 -16 -6 -30 -12 -32 -9 -3 -13 7 -13 32 0 25 4 35 13 33 6
-3 12 -17 12 -33z"/>
<path d="M2337 2484 c-13 -13 -7 -22 12 -17 30 8 33 -12 6 -37 -35 -33 -32
-50 10 -50 19 0 35 5 35 10 0 6 -12 10 -26 10 l-27 0 27 21 c34 27 32 63 -4
67 -14 2 -29 0 -33 -4z"/>
<path d="M2430 2461 c0 -21 6 -30 21 -34 13 -3 18 -10 14 -17 -4 -7 -16 -10
-26 -7 -12 3 -19 0 -19 -9 0 -17 41 -19 58 -2 19 19 14 49 -8 55 -11 3 -20 9
-20 14 0 5 9 9 20 9 11 0 20 5 20 10 0 6 -13 10 -30 10 -26 0 -30 -3 -30 -29z"/>
<path d="M2559 2463 c-20 -52 20 -103 56 -73 18 15 20 71 3 88 -20 20 -48 14
-59 -15z m46 -28 c0 -16 -6 -30 -12 -32 -9 -3 -13 7 -13 32 0 25 4 35 13 33 6
-3 12 -17 12 -33z"/>
<path d="M2657 2483 c-2 -4 -4 -28 -3 -53 1 -43 2 -45 31 -45 29 0 30 1 30 50
0 47 -2 50 -27 53 -14 2 -28 0 -31 -5z m43 -23 c0 -5 -7 -10 -15 -10 -8 0 -15
5 -15 10 0 6 7 10 15 10 8 0 15 -4 15 -10z m0 -45 c0 -8 -7 -15 -15 -15 -16 0
-20 12 -8 23 11 12 23 8 23 -8z"/>
<path d="M2788 2465 c-23 -51 20 -106 57 -75 18 15 20 71 3 88 -20 20 -48 14
-60 -13z m47 -30 c0 -16 -6 -30 -12 -32 -9 -3 -13 7 -13 32 0 25 4 35 13 33 6
-3 12 -17 12 -33z"/>
<path d="M2878 2465 c-23 -51 20 -106 57 -75 18 15 20 71 3 88 -20 20 -48 14
-60 -13z m47 -30 c0 -16 -6 -30 -12 -32 -9 -3 -13 7 -13 32 0 25 4 35 13 33 6
-3 12 -17 12 -33z"/>
<path d="M3022 2478 c-17 -17 -15 -73 3 -88 22 -18 48 -8 59 22 19 53 -27 101
-62 66z m38 -44 c0 -24 -4 -34 -12 -32 -24 8 -22 68 2 68 5 0 10 -16 10 -36z"/>
<path d="M3110 2471 c-23 -43 -6 -91 32 -91 33 0 52 72 26 98 -18 18 -46 14
-58 -7z m44 -17 c7 -19 -1 -54 -14 -54 -12 0 -21 31 -15 51 8 23 21 24 29 3z"/>
<path d="M410 2425 c0 -42 3 -55 15 -55 11 0 15 11 15 37 l0 38 25 -38 c14
-20 30 -37 35 -37 6 0 10 25 10 55 0 30 -4 55 -10 55 -5 0 -10 -17 -10 -37 l0
-38 -25 38 c-38 55 -55 49 -55 -18z"/>
<path d="M827 2473 c-14 -13 -6 -43 13 -53 11 -6 20 -15 20 -20 0 -6 -9 -10
-20 -10 -11 0 -20 -4 -20 -10 0 -11 30 -13 54 -4 25 9 19 43 -9 56 -30 14 -33
28 -5 28 12 0 28 -13 40 -32 21 -35 27 -78 10 -78 -5 0 -10 -4 -10 -10 0 -5 7
-10 15 -10 16 0 29 21 50 81 16 44 1 55 -16 12 l-11 -28 -10 28 c-5 15 -16 27
-24 27 -8 0 -14 7 -14 15 0 15 -50 22 -63 8z"/>
<path d="M720 2460 c0 -5 -11 -10 -24 -10 -13 0 -27 -6 -30 -12 -5 -10 -7 -10
-12 0 -3 6 -12 12 -20 12 -12 0 -12 -4 -4 -21 9 -16 8 -25 -6 -40 -14 -15 -14
-19 -3 -19 8 0 20 5 26 11 8 8 13 8 17 0 4 -6 14 -11 22 -11 11 0 12 4 3 19
-7 10 -9 26 -6 35 9 23 37 8 37 -20 0 -25 25 -43 38 -29 4 4 1 10 -5 12 -17 6
-17 40 -1 45 9 3 8 9 -4 21 -19 19 -28 21 -28 7z"/>
<path d="M2740 2445 c0 -9 5 -15 11 -13 6 2 11 8 11 13 0 5 -5 11 -11 13 -6 2
-11 -4 -11 -13z"/>
<path d="M2970 2445 c0 -9 5 -15 11 -13 6 2 11 8 11 13 0 5 -5 11 -11 13 -6 2
-11 -4 -11 -13z"/>
<path d="M538 2425 c-14 -30 3 -55 38 -55 30 0 31 17 2 23 -20 4 -19 4 5 6 28
1 35 19 15 39 -20 20 -48 14 -60 -13z m49 -1 c-3 -3 -12 -4 -19 -1 -8 3 -5 6
6 6 11 1 17 -2 13 -5z"/>
<path d="M990 2409 c0 -28 4 -39 15 -39 10 0 15 10 15 30 0 17 5 30 10 30 6 0
10 -13 10 -30 0 -20 5 -30 15 -30 10 0 15 10 15 28 0 38 -10 49 -47 50 -32 1
-33 -1 -33 -39z"/>
<path d="M1088 2425 c-8 -19 -8 -28 2 -40 14 -17 60 -21 60 -5 0 6 -9 10 -20
10 -13 0 -20 7 -20 20 0 13 7 20 20 20 11 0 20 5 20 10 0 6 -11 10 -25 10 -17
0 -29 -8 -37 -25z"/>
<path d="M1877 2404 c-8 -8 1 -24 14 -24 5 0 9 7 9 15 0 15 -12 20 -23 9z"/>
<path d="M2100 2395 c0 -9 5 -15 11 -13 6 2 11 8 11 13 0 5 -5 11 -11 13 -6 2
-11 -4 -11 -13z"/>
<path d="M2740 2395 c0 -9 5 -15 11 -13 6 2 11 8 11 13 0 5 -5 11 -11 13 -6 2
-11 -4 -11 -13z"/>
<path d="M2970 2395 c0 -8 5 -15 10 -15 6 0 10 7 10 15 0 8 -4 15 -10 15 -5 0
-10 -7 -10 -15z"/>
</g>
</svg>
