<?xml version="1.0" encoding="us-ascii" standalone="no"?><svg xmlns="http://www.w3.org/2000/svg" xmlns:xlink="http://www.w3.org/1999/xlink" contentStyleType="text/css" height="663px" preserveAspectRatio="none" style="width:1093px;height:663px;background:#FFFFFF;" version="1.1" viewBox="0 0 1093 663" width="1093px" zoomAndPan="magnify"><defs/><g><text fill="#000000" font-family="Architects daughter" font-size="16" font-weight="bold" lengthAdjust="spacing" textLength="215" x="440.5" y="30.7813">Endpoint POST /contracts</text><rect fill="#FFFFFF" height="439.0386" style="stroke:#181818;stroke-width:1.0;" width="10" x="491.5" y="148.2427"/><rect fill="#FFFFFF" height="28" style="stroke:#181818;stroke-width:1.0;" width="10" x="496.5" y="346.668"/><rect fill="#FFFFFF" height="28" style="stroke:#181818;stroke-width:1.0;" width="10" x="496.5" y="513.2158"/><rect fill="#FFFFFF" height="32.0654" style="stroke:#181818;stroke-width:1.0;" width="10" x="938.5" y="192.3408"/><rect fill="#FFFFFF" height="32.0654" style="stroke:#181818;stroke-width:1.0;" width="10" x="1051.5" y="274.5371"/><rect fill="#FFFFFF" height="32.0654" style="stroke:#181818;stroke-width:1.0;" width="10" x="1051.5" y="441.085"/><rect fill="none" height="159.5479" style="stroke:#000000;stroke-width:1.5;" width="639" x="448" y="396.668"/><line style="stroke:#181818;stroke-width:0.5;stroke-dasharray:5.0,5.0;" x1="191" x2="191" y1="102.1445" y2="605.2813"/><line style="stroke:#181818;stroke-width:0.5;stroke-dasharray:5.0,5.0;" x1="496" x2="496" y1="102.1445" y2="605.2813"/><line style="stroke:#181818;stroke-width:0.5;stroke-dasharray:5.0,5.0;" x1="943" x2="943" y1="102.1445" y2="605.2813"/><line style="stroke:#181818;stroke-width:0.5;stroke-dasharray:5.0,5.0;" x1="1056" x2="1056" y1="102.1445" y2="605.2813"/><rect fill="#E3E3E3" height="52.9102" rx="2.5" ry="2.5" style="stroke:#181818;stroke-width:0.5;" width="81" x="151" y="48.2344"/><text fill="#000000" font-family="Architects daughter" font-size="14" lengthAdjust="spacing" textLength="53" x="162" y="69.043">Trace-X</text><text fill="#000000" font-family="Architects daughter" font-size="14" lengthAdjust="spacing" textLength="61" x="164" y="88.498">Frontend</text><rect fill="#E3E3E3" height="52.9102" rx="2.5" ry="2.5" style="stroke:#181818;stroke-width:0.5;" width="81" x="151" y="604.2813"/><text fill="#000000" font-family="Architects daughter" font-size="14" lengthAdjust="spacing" textLength="53" x="162" y="625.0898">Trace-X</text><text fill="#000000" font-family="Architects daughter" font-size="14" lengthAdjust="spacing" textLength="61" x="164" y="644.5449">Frontend</text><rect fill="#E3E3E3" height="52.9102" rx="2.5" ry="2.5" style="stroke:#181818;stroke-width:0.5;" width="77" x="458" y="48.2344"/><text fill="#000000" font-family="Architects daughter" font-size="14" lengthAdjust="spacing" textLength="53" x="467" y="69.043">Trace-X</text><text fill="#000000" font-family="Architects daughter" font-size="14" lengthAdjust="spacing" textLength="57" x="471" y="88.498">Backend</text><rect fill="#E3E3E3" height="52.9102" rx="2.5" ry="2.5" style="stroke:#181818;stroke-width:0.5;" width="77" x="458" y="604.2813"/><text fill="#000000" font-family="Architects daughter" font-size="14" lengthAdjust="spacing" textLength="53" x="467" y="625.0898">Trace-X</text><text fill="#000000" font-family="Architects daughter" font-size="14" lengthAdjust="spacing" textLength="57" x="471" y="644.5449">Backend</text><rect fill="#E3E3E3" height="52.9102" rx="2.5" ry="2.5" style="stroke:#181818;stroke-width:0.5;" width="79" x="904" y="48.2344"/><text fill="#000000" font-family="Architects daughter" font-size="14" lengthAdjust="spacing" textLength="53" x="914" y="69.043">Trace-X</text><text fill="#000000" font-family="Architects daughter" font-size="14" lengthAdjust="spacing" textLength="59" x="917" y="88.498">Database</text><rect fill="#E3E3E3" height="52.9102" rx="2.5" ry="2.5" style="stroke:#181818;stroke-width:0.5;" width="79" x="904" y="604.2813"/><text fill="#000000" font-family="Architects daughter" font-size="14" lengthAdjust="spacing" textLength="53" x="914" y="625.0898">Trace-X</text><text fill="#000000" font-family="Architects daughter" font-size="14" lengthAdjust="spacing" textLength="59" x="917" y="644.5449">Database</text><rect fill="#E3E3E3" height="33.4551" rx="2.5" ry="2.5" style="stroke:#181818;stroke-width:0.5;" width="41" x="1036" y="67.6895"/><text fill="#000000" font-family="Architects daughter" font-size="14" lengthAdjust="spacing" textLength="27" x="1043" y="88.498">EDC</text><rect fill="#E3E3E3" height="33.4551" rx="2.5" ry="2.5" style="stroke:#181818;stroke-width:0.5;" width="41" x="1036" y="604.2813"/><text fill="#000000" font-family="Architects daughter" font-size="14" lengthAdjust="spacing" textLength="27" x="1043" y="625.0898">EDC</text><rect fill="#FFFFFF" height="439.0386" style="stroke:#181818;stroke-width:1.0;" width="10" x="491.5" y="148.2427"/><rect fill="#FFFFFF" height="28" style="stroke:#181818;stroke-width:1.0;" width="10" x="496.5" y="346.668"/><rect fill="#FFFFFF" height="28" style="stroke:#181818;stroke-width:1.0;" width="10" x="496.5" y="513.2158"/><rect fill="#FFFFFF" height="32.0654" style="stroke:#181818;stroke-width:1.0;" width="10" x="938.5" y="192.3408"/><rect fill="#FFFFFF" height="32.0654" style="stroke:#181818;stroke-width:1.0;" width="10" x="1051.5" y="274.5371"/><rect fill="#FFFFFF" height="32.0654" style="stroke:#181818;stroke-width:1.0;" width="10" x="1051.5" y="441.085"/><polygon fill="#181818" points="479.5,144.2427,489.5,148.2427,479.5,152.2427,483.5,148.2427" style="stroke:#181818;stroke-width:1.0;"/><line style="stroke:#181818;stroke-width:1.0;" x1="191.5" x2="485.5" y1="148.2427" y2="148.2427"/><text fill="#000000" font-family="Architects daughter" font-size="13" font-weight="bold" lengthAdjust="spacing" textLength="23" x="198.5" y="140.9995">[01]</text><text fill="#000000" font-family="Architects daughter" font-size="13" lengthAdjust="spacing" textLength="99" x="225.5" y="140.9995">POST contracts</text><path d="M5,117.1445 L5,163.1445 L187,163.1445 L187,127.1445 L177,117.1445 L5,117.1445 " fill="#FAFAFA" style="stroke:#181818;stroke-width:0.5;"/><path d="M177,117.1445 L177,127.1445 L187,127.1445 L177,117.1445 " fill="#FAFAFA" style="stroke:#181818;stroke-width:0.5;"/><text fill="#000000" font-family="Architects daughter" font-size="13" lengthAdjust="spacing" textLength="142" x="11" y="134.9668">api endpoint is pageable,</text><text fill="#000000" font-family="Architects daughter" font-size="13" lengthAdjust="spacing" textLength="161" x="11" y="153.0322">filterable, limitable, sortable</text><polygon fill="#181818" points="926.5,188.3408,936.5,192.3408,926.5,196.3408,930.5,192.3408" style="stroke:#181818;stroke-width:1.0;"/><line style="stroke:#181818;stroke-width:1.0;" x1="501.5" x2="932.5" y1="192.3408" y2="192.3408"/><text fill="#000000" font-family="Architects daughter" font-size="13" font-weight="bold" lengthAdjust="spacing" textLength="28" x="508.5" y="185.0977">[02]</text><text fill="#000000" font-family="Architects daughter" font-size="13" lengthAdjust="spacing" textLength="288" x="540.5" y="185.0977">fetch requested distinct contractAgreementIds</text><polygon fill="#181818" points="512.5,220.4063,502.5,224.4063,512.5,228.4063,508.5,224.4063" style="stroke:#181818;stroke-width:1.0;"/><line style="stroke:#181818;stroke-width:1.0;stroke-dasharray:2.0,2.0;" x1="506.5" x2="942.5" y1="224.4063" y2="224.4063"/><text fill="#000000" font-family="Architects daughter" font-size="13" lengthAdjust="spacing" textLength="176" x="518.5" y="217.1631">list of contractAgreementIds</text><polygon fill="#181818" points="1039.5,270.5371,1049.5,274.5371,1039.5,278.5371,1043.5,274.5371" style="stroke:#181818;stroke-width:1.0;"/><line style="stroke:#181818;stroke-width:1.0;" x1="501.5" x2="1045.5" y1="274.5371" y2="274.5371"/><text fill="#000000" font-family="Architects daughter" font-size="13" font-weight="bold" lengthAdjust="spacing" textLength="28" x="508.5" y="258.2612">[03]</text><text fill="#000000" font-family="Architects daughter" font-size="13" lengthAdjust="spacing" textLength="344" x="540.5" y="249.2285">POST edc/management/v2/contractagreements/request</text><text fill="#000000" font-family="Architects daughter" font-size="13" lengthAdjust="spacing" textLength="204" x="540.5" y="267.2939">filtered by contractAgreementIds</text><polygon fill="#181818" points="512.5,302.6025,502.5,306.6025,512.5,310.6025,508.5,306.6025" style="stroke:#181818;stroke-width:1.0;"/><line style="stroke:#181818;stroke-width:1.0;stroke-dasharray:2.0,2.0;" x1="506.5" x2="1055.5" y1="306.6025" y2="306.6025"/><text fill="#000000" font-family="Architects daughter" font-size="13" lengthAdjust="spacing" textLength="208" x="518.5" y="299.3594">list of contractAgreement objects</text><line style="stroke:#181818;stroke-width:1.0;" x1="506.5" x2="548.5" y1="338.668" y2="338.668"/><line style="stroke:#181818;stroke-width:1.0;" x1="548.5" x2="548.5" y1="338.668" y2="351.668"/><line style="stroke:#181818;stroke-width:1.0;" x1="507.5" x2="548.5" y1="351.668" y2="351.668"/><polygon fill="#181818" points="517.5,347.668,507.5,351.668,517.5,355.668,513.5,351.668" style="stroke:#181818;stroke-width:1.0;"/><text fill="#000000" font-family="Architects daughter" font-size="13" font-weight="bold" lengthAdjust="spacing" textLength="30" x="513.5" y="331.4248">[04]</text><text fill="#000000" font-family="Architects daughter" font-size="13" lengthAdjust="spacing" textLength="211" x="547.5" y="331.4248">extract contractSigningDate, policy</text><path d="M448,396.668 L516,396.668 L516,406.7334 L506,416.7334 L448,416.7334 L448,396.668 " fill="#EEEEEE" style="stroke:#000000;stroke-width:1.5;"/><rect fill="none" height="159.5479" style="stroke:#000000;stroke-width:1.5;" width="639" x="448" y="396.668"/><text fill="#000000" font-family="Architects daughter" font-size="13" font-weight="bold" lengthAdjust="spacing" textLength="23" x="463" y="410.4902">loop</text><text fill="#000000" font-family="Architects daughter" font-size="11" font-weight="bold" lengthAdjust="spacing" textLength="164" x="531" y="409.5176">[for all contractAgreementIds]</text><polygon fill="#181818" points="1039.5,437.085,1049.5,441.085,1039.5,445.085,1043.5,441.085" style="stroke:#181818;stroke-width:1.0;"/><line style="stroke:#181818;stroke-width:1.0;" x1="501.5" x2="1045.5" y1="441.085" y2="441.085"/><text fill="#000000" font-family="Architects daughter" font-size="13" font-weight="bold" lengthAdjust="spacing" textLength="30" x="508.5" y="433.8418">[05]</text><text fill="#000000" font-family="Architects daughter" font-size="13" lengthAdjust="spacing" textLength="497" x="542.5" y="433.8418">GET edc/management/v2/contractagreements/{contractAgreementId}/negotiation</text><polygon fill="#181818" points="512.5,469.1504,502.5,473.1504,512.5,477.1504,508.5,473.1504" style="stroke:#181818;stroke-width:1.0;"/><line style="stroke:#181818;stroke-width:1.0;stroke-dasharray:2.0,2.0;" x1="506.5" x2="1055.5" y1="473.1504" y2="473.1504"/><text fill="#000000" font-family="Architects daughter" font-size="13" lengthAdjust="spacing" textLength="224" x="518.5" y="465.9072">contractAgreementNegotiation object</text><line style="stroke:#181818;stroke-width:1.0;" x1="506.5" x2="548.5" y1="505.2158" y2="505.2158"/><line style="stroke:#181818;stroke-width:1.0;" x1="548.5" x2="548.5" y1="505.2158" y2="518.2158"/><line style="stroke:#181818;stroke-width:1.0;" x1="507.5" x2="548.5" y1="518.2158" y2="518.2158"/><polygon fill="#181818" points="517.5,514.2158,507.5,518.2158,517.5,522.2158,513.5,518.2158" style="stroke:#181818;stroke-width:1.0;"/><text fill="#000000" font-family="Architects daughter" font-size="13" font-weight="bold" lengthAdjust="spacing" textLength="29" x="513.5" y="497.9727">[06]</text><text fill="#000000" font-family="Architects daughter" font-size="13" lengthAdjust="spacing" textLength="390" x="546.5" y="497.9727">extract attributes of response (id, counterPartyAddress, state)</text><polygon fill="#181818" points="202.5,583.2813,192.5,587.2813,202.5,591.2813,198.5,587.2813" style="stroke:#181818;stroke-width:1.0;"/><line style="stroke:#181818;stroke-width:1.0;stroke-dasharray:2.0,2.0;" x1="196.5" x2="495.5" y1="587.2813" y2="587.2813"/><text fill="#000000" font-family="Architects daughter" font-size="13" lengthAdjust="spacing" textLength="276" x="208.5" y="580.0381">pageable result of contractResponse objects</text><!--SRC=[dLF1RjD04BtlLuno0gbLGhbLj59C4iIbLBG79E0mzexjfUjTipikH8X_P-pOYQCqROGljhLltfltPfODMr8WpzKLB9sklN4Cjv_kxc6QUSS1CuwAd0Rka2e-65TZm0egxtnM1byHS6XeT19BrFwNSGNaQEFuH5EEZUMLCD-W54xc8IiDauY0ngOecS9aXBV64Qzh0X-uz4fXmzurLKe19k-Iww-psVU9Ke9bavaQfVN9lRHCvr_WcuDL41tfVG8OORKK4Ys5iwFu1BE70PuCy3T7uGjaJ35IXryaFVvY7xzSlE_EvTq3tYeblPnVYyJb9kbTqE0y4rZAkPi9rWPe68g9K6D1c5ewwqvpOoMkxb-2gWnlFgDarNwfjhGZbDmoDeyerCbI9Ptu8hc4d3Wh8T3FXYAJ1cqY6vVnjg5v4OWgSlnHnnt78XdF8RAlbRW_xnrP8G6V7-7OrGMAJKLAqvYtRqx2wgCXdKqhTEAxfPW-Ncot4WVUEEqTo4msaOYLTFs22P4uSD7Ew4KRuDCVxRu-xwMbJxPJfjyTnvRipXHEheSiaCohzjPawxqHZOZaJrdlQyXz0BJsQLkZs3uiJqpjpnDCVwUE2iy6sNXtUbW7J3SxbZwl_uaBcOD96wROJaAgQkyYmIkZpqIoaRiTRkMkhUTQos6KrMSXU_rCb78Zr86JLbYKLw8yNB2kHRkt09y7-PFcBrh_0000]--></g></svg>