<?xml version="1.0" encoding="UTF-8"?>
<svg width="317px" height="219px" viewBox="0 0 317 219" version="1.1" xmlns="http://www.w3.org/2000/svg" xmlns:xlink="http://www.w3.org/1999/xlink">
    <title>Car components</title>
    <g id="Page-1" stroke="none" stroke-width="1" fill="none" fill-rule="evenodd">
        <g id="Car-component_2" transform="translate(-42.000000, -81.000000)" fill="#000000">
            <g id="Car-components" transform="translate(42.000000, 81.000000)">
                <path d="M27.3842661,196.35144 L8.29377875,195.41919 C4.86082574,194.890308 2.55111993,193.768397 1.36466132,192.05346 C0.178202703,190.338523 -0.234611183,186.82505 0.126219655,181.51304 L5.83763908,134.740137 C6.293875,132.065015 7.11258822,130.215939 8.29377875,129.19291 C9.47496927,128.169882 12.0521293,127.479509 16.0252589,127.121793 L35.4335934,127.121793 L77.5695224,104.17965 C84.4051276,101.189346 89.9291916,99.295821 94.1417143,98.4990761 C98.3542371,97.7023313 105.268862,97.243237 114.885588,97.1217933 C124.372072,96.9594022 132.181451,96.9594022 138.313726,97.1217933 C141.537086,97.2071524 145.602977,97.5006871 150.702297,97.7500018 C153.770212,97.8999976 159.167802,98.149689 166.895068,98.4990761 C173.97868,99.2424732 179.693542,100.425095 184.039656,102.04694 C188.385769,103.668785 194.767675,107.000333 203.185375,112.041584 L248.433593,140.121793 C258.745436,141.018906 266.11694,141.765877 270.548106,142.362707 C274.979271,142.959537 280.484049,143.946861 287.062439,145.32468 C292.656497,147.023588 296.847994,149.000438 299.636929,151.255228 C302.425864,153.510019 305.747057,157.913778 309.600507,164.466505 C311.807116,169.255061 313.322073,172.968059 314.145378,175.605497 C314.968684,178.242935 315.61973,182.188119 316.098519,187.44105 C316.209184,190.159434 315.795908,192.153789 314.858693,193.424113 C313.921478,194.694436 311.745943,195.593663 308.33209,196.121793 L287.570724,196.121793 M61.4335934,154.121793 C84.6295529,154.121793 97.5213966,173.155481 97.5213966,196.35144 L97.5213966,196.35144 L27.3842661,196.35144 C27.3842661,173.155481 38.2376339,154.121793 61.4335934,154.121793 Z M251.482921,154.121793 C274.67888,154.121793 287.570724,172.925834 287.570724,196.121793 L287.570724,196.121793 L217.472787,196.121793 C217.472787,172.925834 228.286961,154.121793 251.482921,154.121793 Z M156.433593,104.121793 L157.11323,104.124569 C169.715218,104.228288 177.626576,107.2446 188.433593,114.121793 L188.433593,114.121793 L218.433593,133.121793 L147.433593,128.121793 L147.433593,104.121793 L156.433593,104.121793 Z" id="Shape"></path>
                <path d="M252.433593,158.121793 C269.741286,158.121793 282.433593,170.814101 282.433593,188.121793 C282.433593,204.275639 269.741286,218.121793 252.433593,218.121793 C236.279747,218.121793 222.433593,204.275639 222.433593,188.121793 C222.433593,170.814101 236.279747,158.121793 252.433593,158.121793 Z M252.353593,173.121793 C260.473593,173.121793 267.433593,180.081793 267.433593,188.201793 C267.433593,196.321793 260.473593,202.121793 252.353593,202.121793 C244.233593,202.121793 238.433593,196.321793 238.433593,188.201793 C238.433593,180.081793 244.233593,173.121793 252.353593,173.121793 Z" id="Shape"></path>
                <path d="M61.4335934,158.121793 C78.7412857,158.121793 91.4335934,170.814101 91.4335934,188.121793 C91.4335934,204.275639 78.7412857,218.121793 61.4335934,218.121793 C45.2797472,218.121793 31.4335934,204.275639 31.4335934,188.121793 C31.4335934,170.814101 45.2797472,158.121793 61.4335934,158.121793 Z M61.3535934,173.121793 C69.4735934,173.121793 76.4335934,180.081793 76.4335934,188.201793 C76.4335934,196.321793 69.4735934,202.121793 61.3535934,202.121793 C53.2335934,202.121793 47.4335934,196.321793 47.4335934,188.201793 C47.4335934,180.081793 53.2335934,173.121793 61.3535934,173.121793 Z" id="Shape"></path>
                <path d="M105,25 L136,43 L136,79 L105,97 L74,79 L74,43 L105,25 Z M105.5,32 L81,46.2418 L81,74.7582 L105.5,89 L130,74.7582 L130,46.2418 L105.5,32 Z M105,74 C97.8202983,74 92,68.1797017 92,61 C92,53.8202983 97.8202983,48 105,48 C112.179702,48 118,53.8202983 118,61 C118,68.1797017 112.179702,74 105,74 Z M105.5,67 C109.089851,67 112,64.0898509 112,60.5 C112,56.9101491 109.089851,54 105.5,54 C101.910149,54 99,56.9101491 99,60.5 C99,64.0898509 101.910149,67 105.5,67 Z" id="Shape" fill-rule="nonzero"></path>
                <path d="M261,61 L292,79 L292,115 L261,133 L230,115 L230,79 L261,61 Z M261.5,68 L237,82.2418 L237,110.7582 L261.5,125 L286,110.7582 L286,82.2418 L261.5,68 Z M261,110 C253.820298,110 248,104.179702 248,97 C248,89.8202983 253.820298,84 261,84 C268.179702,84 274,89.8202983 274,97 C274,104.179702 268.179702,110 261,110 Z M261.5,103 C265.089851,103 268,100.089851 268,96.5 C268,92.9101491 265.089851,90 261.5,90 C257.910149,90 255,92.9101491 255,96.5 C255,100.089851 257.910149,103 261.5,103 Z" id="Shape" fill-rule="nonzero"></path>
                <path d="M144.5663,68.9959157 C142.592569,65.6338415 141.058302,62.0394379 140,58.2982157 C144.696431,55.9452916 147.655089,51.1952866 147.65706,46.0051191 C147.659031,40.8149516 144.703981,36.0627677 140.009338,33.7063835 C142.119902,26.1889568 146.138497,19.3245176 151.686553,13.7597262 C156.104891,16.5892864 161.761618,16.736496 166.325465,14.1406864 C170.889313,11.5448768 173.587784,6.64542579 173.308778,1.46151046 C180.975818,-0.490281099 189.021099,-0.487115553 196.686553,1.47070882 C196.410015,6.65450833 199.110541,11.5525248 203.675274,14.1463358 C208.240006,16.7401469 213.896374,16.5907562 218.313447,13.7597262 C221.016808,16.4732442 223.416684,19.5592961 225.4337,23.0040843 C227.455385,26.4488725 228.968147,30.0408345 230,33.7017843 C225.303569,36.0547084 222.344911,40.8047134 222.34294,45.9948809 C222.340969,51.1850484 225.296019,55.9372323 229.990662,58.2936165 C227.880098,65.8110432 223.861503,72.6754824 218.313447,78.2402738 C213.895109,75.4107136 208.238382,75.263504 203.674535,77.8593136 C199.110687,80.4551232 196.412216,85.3545742 196.691222,90.5384895 C189.024182,92.4902811 180.978901,92.4871156 173.313447,90.5292912 C173.589985,85.3454917 170.889459,80.4474752 166.324726,77.8536642 C161.759994,75.2598531 156.103626,75.4092438 151.686553,78.2402738 C148.927121,75.4667142 146.534735,72.3606342 144.5663,68.9959157 Z M170.975526,70.0262323 C175.957145,72.8682657 179.702699,77.4293129 181.493881,82.834674 C183.826619,83.0520014 186.168706,83.0566254 188.501444,82.839298 C190.293784,77.4331798 194.041093,72.8720223 199.024474,70.0308563 C204.004178,67.1810271 209.872512,66.250658 215.503231,67.4183041 C216.85893,65.5317177 218.027636,63.5202837 219,61.41637 C215.163977,57.1782142 213.044818,51.6884715 213.048948,46 C213.048948,40.1737774 215.246116,34.7313456 219,30.58363 C218.020759,28.480401 216.84706,26.4712088 215.493881,24.5816959 C209.866716,25.7483687 204.002192,24.8197222 199.024474,21.9737677 C194.042855,19.1317343 190.297301,14.5706871 188.506119,9.16532595 C186.173381,8.9479986 183.831294,8.94337461 181.498556,9.16070197 C179.706216,14.5668202 175.958907,19.1279777 170.975526,21.9691437 C165.995822,24.8189729 160.127488,25.749342 154.496769,24.5816959 C153.143714,26.4696029 151.972979,28.479078 151,30.58363 C154.836023,34.8217858 156.955182,40.3115285 156.951052,46 C156.951052,51.8262226 154.753884,57.2686544 151,61.41637 C151.979241,63.519599 153.15294,65.5287912 154.506119,67.4183041 C160.133284,66.2516313 165.997808,67.1802778 170.975526,70.0262323 Z M185,60 C177.268014,60 171,53.7319865 171,46 C171,38.2680135 177.268014,32 185,32 C192.731986,32 199,38.2680135 199,46 C199,53.7319865 192.731986,60 185,60 Z M185.5,51 C187.985281,51 190,48.9852814 190,46.5 C190,44.0147186 187.985281,42 185.5,42 C183.014719,42 181,44.0147186 181,46.5 C181,48.9852814 183.014719,51 185.5,51 Z" id="Shape" fill-rule="nonzero"></path>
            </g>
        </g>
    </g>
</svg>