<?xml version="1.0" encoding="UTF-8"?>
<svg width="318px" height="123px" viewBox="0 0 318 123" version="1.1" xmlns="http://www.w3.org/2000/svg" xmlns:xlink="http://www.w3.org/1999/xlink">
    <title>Car</title>
    <g id="Page-1" stroke="none" stroke-width="1" fill="none" fill-rule="evenodd">
        <g id="Car-icon" transform="translate(-41.000000, -138.000000)" fill="#000000">
            <g id="Car" transform="translate(41.566407, 138.878207)">
                <path d="M27.3842661,99.35144 L8.29377875,98.4191905 C4.86082574,97.8903075 2.55111993,96.7683974 1.36466132,95.0534603 C0.178202703,93.3385231 -0.234611183,89.8250496 0.126219655,84.5130397 L5.83763908,37.740137 C6.293875,35.0650147 7.11258822,33.2159392 8.29377875,32.1929104 C9.47496927,31.1698817 12.0521293,30.4795093 16.0252589,30.1217933 L35.4335934,30.1217933 L77.5695224,7.17965047 C84.4051276,4.18934577 89.9291916,2.29582099 94.1417143,1.49907612 C98.3542371,0.702331253 105.268862,0.243236989 114.885588,0.121793328 C124.372072,-0.0405977761 132.181451,-0.0405977761 138.313726,0.121793328 C141.537086,0.207152358 145.602977,0.500687065 150.702297,0.750001837 C153.770212,0.899997562 159.167802,1.14968899 166.895068,1.49907612 C173.97868,2.24247324 179.693542,3.42509454 184.039656,5.04694001 C188.385769,6.66878549 194.767675,10.0003333 203.185375,15.0415835 L248.433593,43.1217933 C258.745436,44.0189057 266.11694,44.7658768 270.548106,45.3627067 C274.979271,45.9595367 280.484049,46.946861 287.062439,48.3246798 C292.656497,50.0235882 296.847994,52.0004377 299.636929,54.2552285 C302.425864,56.5100192 305.747057,60.9137779 309.600507,67.4665045 C311.807116,72.2550614 313.322073,75.9680587 314.145378,78.6054967 C314.968684,81.2429347 315.61973,85.188119 316.098519,90.4410497 C316.209184,93.1594345 315.795908,95.1537887 314.858693,96.4241125 C313.921478,97.6944363 311.745943,98.5936633 308.33209,99.1217933 L287.570724,99.1217933 M61.4335934,57.1217933 C84.6295529,57.1217933 97.5213966,76.1554805 97.5213966,99.35144 L97.5213966,99.35144 L27.3842661,99.35144 C27.3842661,76.1554805 38.2376339,57.1217933 61.4335934,57.1217933 Z M251.482921,57.1217933 C274.67888,57.1217933 287.570724,75.9258338 287.570724,99.1217933 L287.570724,99.1217933 L217.472787,99.1217933 C217.472787,75.9258338 228.286961,57.1217933 251.482921,57.1217933 Z M156.433593,7.12179333 L157.11323,7.12456881 C169.715218,7.22828763 177.626576,10.2446003 188.433593,17.1217933 L188.433593,17.1217933 L218.433593,36.1217933 L147.433593,31.1217933 L147.433593,7.12179333 L156.433593,7.12179333 Z" id="Shape"></path>
                <path d="M252.433593,61.1217933 C269.741286,61.1217933 282.433593,73.814101 282.433593,91.1217933 C282.433593,107.275639 269.741286,121.121793 252.433593,121.121793 C236.279747,121.121793 222.433593,107.275639 222.433593,91.1217933 C222.433593,73.814101 236.279747,61.1217933 252.433593,61.1217933 Z M252.353593,76.1217933 C260.473593,76.1217933 267.433593,83.0817933 267.433593,91.2017933 C267.433593,99.3217933 260.473593,105.121793 252.353593,105.121793 C244.233593,105.121793 238.433593,99.3217933 238.433593,91.2017933 C238.433593,83.0817933 244.233593,76.1217933 252.353593,76.1217933 Z" id="Shape"></path>
                <path d="M61.4335934,61.1217933 C78.7412857,61.1217933 91.4335934,73.814101 91.4335934,91.1217933 C91.4335934,107.275639 78.7412857,121.121793 61.4335934,121.121793 C45.2797472,121.121793 31.4335934,107.275639 31.4335934,91.1217933 C31.4335934,73.814101 45.2797472,61.1217933 61.4335934,61.1217933 Z M61.3535934,76.1217933 C69.4735934,76.1217933 76.4335934,83.0817933 76.4335934,91.2017933 C76.4335934,99.3217933 69.4735934,105.121793 61.3535934,105.121793 C53.2335934,105.121793 47.4335934,99.3217933 47.4335934,91.2017933 C47.4335934,83.0817933 53.2335934,76.1217933 61.3535934,76.1217933 Z" id="Shape"></path>
            </g>
        </g>
    </g>
</svg>