<?xml version="1.0" encoding="utf-8"?>
<!-- Generator: Adobe Illustrator 15.0.0, SVG Export Plug-In . SVG Version: 6.00 Build 0)  -->
<!DOCTYPE svg PUBLIC "-//W3C//DTD SVG 1.1//EN" "http://www.w3.org/Graphics/SVG/1.1/DTD/svg11.dtd">
<svg version="1.1" id="Ebene_1" xmlns="http://www.w3.org/2000/svg" xmlns:xlink="http://www.w3.org/1999/xlink" x="0px" y="0px"
	 width="500px" height="500px" viewBox="0 0 500 500" enable-background="new 0 0 500 500" xml:space="preserve">
<g id="Layer_3">
</g>
<g id="Layer_2">
</g>
<g>
	<path fill="#444444" d="M434.651,57.54c-9.665,0-17.5,7.835-17.5,17.5v162.804L287.542,106.021v288.027l129.609-131.821v162.805
		c0,9.665,7.835,17.5,17.5,17.5s17.5-7.835,17.5-17.5V75.04C452.151,65.375,444.316,57.54,434.651,57.54z"/>
	<path fill="#444444" d="M82.916,75.04c0-9.665-7.835-17.5-17.5-17.5s-17.5,7.835-17.5,17.5v349.991c0,9.665,7.835,17.5,17.5,17.5
		s17.5-7.835,17.5-17.5V262.124l129.697,131.924V106.009L82.916,237.921V75.04z"/>
</g>
</svg>
