<?xml version="1.0" encoding="UTF-8"?>
<svg width="24px" height="24px" viewBox="0 0 24 24" version="1.1" xmlns="http://www.w3.org/2000/svg" xmlns:xlink="http://www.w3.org/1999/xlink">
    <title>D25DAFB7-2FA6-47C9-B65B-5B80A3748043@1x</title>
    <g id="🛠-Symbols" stroke="none" stroke-width="1" fill="none" fill-rule="evenodd">
        <g id="ic-alert">
            <polygon id="Path" points="0 0 24 0 24 24 0 24"></polygon>
            <path d="M4,20 L4,14 C4,9.581722 7.581722,6 12,6 C16.418278,6 20,9.581722 20,14 L20,20 L21,20 L21,22 L3,22 L3,20 L4,20 Z M6,20 L18,20 L18,14 C18,10.6862915 15.3137085,8 12,8 C8.6862915,8 6,10.6862915 6,14 L6,20 Z M11,2 L13,2 L13,5 L11,5 L11,2 Z M19.778,4.808 L21.192,6.222 L19.072,8.343 L17.657,6.929 L19.778,4.808 Z M2.808,6.222 L4.222,4.808 L6.343,6.928 L4.93,8.344 L2.808,6.222 Z M7,14 C7,11.2385763 9.23857625,9 12,9 L12,11 C10.3431458,11 9,12.3431458 9,14 L7,14 Z" id="Shape" fill="#444444"></path>
        </g>
    </g>
</svg>