<?xml version="1.0" encoding="UTF-8"?>
<svg width="24px" height="24px" viewBox="0 0 24 24" version="1.1" xmlns="http://www.w3.org/2000/svg" xmlns:xlink="http://www.w3.org/1999/xlink">
    <title>44FEF154-9A38-4DDA-86C9-F1E68479E250@1x</title>
    <g id="🛠-Symbols" stroke="none" stroke-width="1" fill="none" fill-rule="evenodd">
        <g id="ic-all_parts_available">
            <g id="Group">
                <polygon id="Path" points="0 0 24 0 24 24 0 24"></polygon>
                <path d="M12,1 L21.5,6.5 L21.5,13 L19.5,13 L19.5,7.653 L12,3.311 L4.5,7.653 L4.5,16.347 L12,20.689 L12,23 L2.5,17.5 L2.5,6.5 L12,1 Z M12,8 C14.209139,8 16,9.790861 16,12 C16,14.209139 14.209139,16 12,16 C9.790861,16 8,14.209139 8,12 C8,9.790861 9.790861,8 12,8 Z M12,10 C10.8954305,10 10,10.8954305 10,12 C10,13.1045695 10.8954305,14 12,14 C13.1045695,14 14,13.1045695 14,12 C14,10.8954305 13.1045695,10 12,10 Z" id="Combined-Shape" fill="#444444"></path>
            </g>
            <g id="ic-warning" transform="translate(12.000000, 13.000000)">
                <polygon id="Path" points="0 0 12 0 12 12 0 12"></polygon>
                <path d="M6,11 C3.2385,11 1,8.7615 1,6 C1,3.2385 3.2385,1 6,1 C8.7615,1 11,3.2385 11,6 C11,8.7615 8.7615,11 6,11 Z M6,10 C8.209139,10 10,8.209139 10,6 C10,3.790861 8.209139,2 6,2 C3.790861,2 2,3.790861 2,6 C2,8.209139 3.790861,10 6,10 Z M5.5015,8 L3.38,5.8785 L4.087,5.1715 L5.5015,6.586 L8.3295,3.7575 L9.037,4.4645 L5.5015,8 Z" id="Shape" fill="#3DB014"></path>
            </g>
        </g>
    </g>
</svg>