<svg xmlns="http://www.w3.org/2000/svg" width="24" height="24"><g fill="none" fill-rule="evenodd"><path d="M0 0h24v24H0z"/><path fill="#444" d="M12.75955 6.82182v1.48471c-1.24827-.1796-3.0553-.0801-4.4392.16044L8.963 9.75H12.5c.41421 0 .75.33579.75.75 0 .3797-.28215.6935-.64823.74315L12.5 11.25l-4.06224-.00255-.10942-.01734-.08688-.02608-.0985-.0444-.09714-.06272-.05525-.0462-.05364-.05504-.05611-.0723-.04307-.07102-1.00299-2.00252c-.72752.2957-1.036.47323-1.6026.93277l-.48914.40697-.20183.16101a5.72415 5.72415 0 0 1-.09775.07328c-.35625.26117-.77955.46166-1.2681.60504l-.14834.0391v2.888l.4282-.00024C3.86636 12.95483 4.85087 12.25 6 12.25c1.25894 0 2.3203.84596 2.6466 2.00044h6.7068C15.6797 13.09596 16.74105 12.25 18 12.25c1.14913 0 2.13364.70483 2.5448 1.70576l.5602.00024.0001-2.00429c0-.312-.3214-.55531-1.20988-.85233l-.49264-.15354-.33109-.09433V9.39975l.85991.1383c1.84329.54746 2.61362 1.04745 2.6703 2.26375l.0034.14991v2.75446c0 .3797-.28215.69349-.64822.74315l-.10177.00685-1.14284.00044C20.49477 16.75808 19.36322 17.75 18 17.75c-1.25858 0-2.31968-.84548-2.64633-1.99945H8.64633C8.31968 16.90452 7.25858 17.75 6 17.75c-1.36322 0-2.49477-.99192-2.71227-2.29339l-1.01059-.00044c-.3797 0-.69349-.28216-.74315-.64823l-.00685-.10177V10.4607c0-.36916.26865-.68343.63331-.74087.60927-.09596 1.0726-.26853 1.39611-.50571l.15258-.11716.17907-.1478c.9472-.79963 1.32867-1.06092 2.38175-1.48894 1.4442-.587 4.44157-.93307 6.4896-.63841ZM6 13.75c-.69036 0-1.25.55964-1.25 1.25s.55964 1.25 1.25 1.25 1.25-.55964 1.25-1.25-.55964-1.25-1.25-1.25Zm12 0c-.69036 0-1.25.55964-1.25 1.25s.55964 1.25 1.25 1.25 1.25-.55964 1.25-1.25-.55964-1.25-1.25-1.25ZM17.43525 3l2.68053 1.55189v3.10377L18.861 8.381l.00006 1.06711L16.18053 11 13.5 9.44811V6.34434l1.254-.72634.00072-1.06611L17.43525 3Zm-1.25472 2.44453-2.1162 1.22514v2.45311l2.1162 1.22515 2.11621-1.22515v-2.4531l-2.1162-1.22515Zm0 1.32305c.62334 0 1.12865.50531 1.12865 1.12865 0 .62333-.50531 1.12864-1.12865 1.12864-.62333 0-1.12864-.50531-1.12864-1.12864 0-.62334.5053-1.12865 1.12864-1.12865Zm0 .56432c-.31167 0-.56432.25266-.56432.56433 0 .31166.25265.56432.56432.56432.31167 0 .56432-.25266.56432-.56432 0-.31167-.25265-.56433-.56432-.56433Zm1.25472-3.67983L15.319 4.87722V5.291l.86153-.49855 2.68053 1.55189L18.861 7.729l.69046-.39867V4.87722l-2.11621-1.22515Z"/></g></svg>