<?xml version="1.0" encoding="UTF-8"?>
<svg width="24px" height="24px" viewBox="0 0 24 24" version="1.1" xmlns="http://www.w3.org/2000/svg" xmlns:xlink="http://www.w3.org/1999/xlink">
    <title>4013DF7C-78FD-4E74-8F70-79F467FE0E6C@1x</title>
    <g id="🛠-Symbols" stroke="none" stroke-width="1" fill="none" fill-rule="evenodd">
        <g id="ic-co2">
            <polygon id="Path" points="0 0 24 0 24 24 0 24"></polygon>
            <g id="Group">
                <polygon id="Path" points="0 0 24 0 24 24 0 24"></polygon>
                <path d="M17.5524659,17.727268 C17.9008477,17.727268 18.1710669,17.8133422 18.3631235,17.9854905 C18.5551801,18.1576388 18.6512084,18.4022495 18.6512084,18.7193227 C18.6512084,18.9162924 18.5980579,19.1160645 18.4917568,19.318639 C18.4031725,19.4874511 18.2547256,19.6887913 18.0464162,19.9226594 L17.914247,20.0668837 L17.4131132,20.7082362 L18.7396438,20.7082362 L18.7396438,21.2727226 L16.4403241,21.2727226 L16.4403241,20.7923087 L17.4961888,19.5888719 L17.5900677,19.4677925 C17.6773306,19.3505415 17.7447458,19.2447754 17.7923134,19.1504942 C17.8557367,19.0247859 17.8874484,18.9042821 17.8874484,18.7889827 C17.8874484,18.6336489 17.8575233,18.511944 17.7976731,18.4238682 C17.7378229,18.3357923 17.6516207,18.2917543 17.5390666,18.2917543 C17.415793,18.2917543 17.3179782,18.3429985 17.2456219,18.4454868 C17.187737,18.5274774 17.153006,18.636115 17.141429,18.7713996 L17.1370876,18.8778593 L16.3760074,18.8778593 L16.3853032,18.7203736 C16.4038947,18.5663409 16.4503735,18.4226671 16.5247397,18.2893523 C16.6238945,18.1115991 16.7632472,17.9734801 16.9427978,17.8749953 C17.1223484,17.7765104 17.3255711,17.727268 17.5524659,17.727268 Z M8.13119713,12.9999953 C8.86944576,12.9999953 9.43011147,13.2101314 9.81319427,13.6304037 C10.1537123,14.003979 10.3637214,14.5223655 10.4432216,15.1855631 L10.4669165,15.4410502 L9.09433242,15.4410502 L9.08680792,15.2656364 C9.06255021,14.8728409 8.99138861,14.5955683 8.87332311,14.4338188 C8.73839112,14.2489622 8.49101579,14.1565339 8.13119713,14.1565339 C7.7651747,14.1565339 7.5061673,14.2868815 7.35417494,14.5475767 C7.22118162,14.775685 7.14281056,15.1326226 7.11906175,15.6183896 L7.11222791,15.834463 L7.11222791,17.1379389 L7.11501386,17.3585496 C7.12987227,17.9256226 7.20416433,18.322917 7.33789004,18.5504328 C7.48833146,18.8063881 7.74656339,18.9343657 8.11258582,18.9343657 C8.47240448,18.9343657 8.72055528,18.8450974 8.85703822,18.6665607 C8.97646079,18.5103411 9.05076063,18.2434371 9.07993773,17.8658487 L9.08967959,17.6972486 L10.4576109,17.6972486 L10.4418843,17.9275609 C10.3782336,18.6012921 10.1663439,19.1201703 9.80621502,19.4841956 C9.40607186,19.8886681 8.84152879,20.0909044 8.11258582,20.0909044 C7.34642023,20.0909044 6.75938849,19.8341591 6.35149061,19.3206686 C5.98067436,18.853859 5.77841095,18.2062016 5.74470039,17.3776962 L5.7396438,17.1237192 L5.7396438,15.9624406 L5.74487342,15.7092862 C5.77973759,14.8833923 5.98892256,14.2370406 6.37242834,13.7702311 C6.7942847,13.2567405 7.38054096,12.9999953 8.13119713,12.9999953 Z M14.0123711,12.9999953 C14.7417217,12.9999953 15.3164981,13.2614805 15.7367001,13.7844508 C16.1187019,14.2598784 16.3295471,14.9096251 16.3692356,15.7336909 L16.3760074,15.9861402 L16.3760074,17.1663784 L16.3708541,17.4137548 C16.3364988,18.2212374 16.1303666,18.8576653 15.7524577,19.3230386 C15.3367578,19.8349491 14.7597304,20.0909044 14.0213754,20.0909044 C13.2860219,20.0909044 12.7082441,19.8373191 12.2880421,19.3301484 C11.9060402,18.8690842 11.6951951,18.2402297 11.6555066,17.4435849 L11.6487347,17.1995578 L11.6487347,16.0193195 L11.6539066,15.7659301 C11.688386,14.9384693 11.8952623,14.2827162 12.2745356,13.7986705 C12.6917362,13.2662204 13.2710147,12.9999953 14.0123711,12.9999953 Z M14.0149347,14.1818135 C13.6150135,14.1818135 13.3193454,14.3268459 13.1279301,14.6169107 C12.9604418,14.8707174 12.8636126,15.2403664 12.8374426,15.7258575 L12.8305529,15.9410175 L12.8305529,17.1592897 L12.8351193,17.3765076 C12.8564292,17.8661145 12.9523237,18.2350775 13.1228029,18.4833965 C13.3176363,18.7671896 13.6184317,18.9090862 14.0251891,18.9090862 C14.4182739,18.9090862 14.710524,18.7703255 14.9019392,18.492804 C15.0694275,18.2499727 15.1649482,17.8900987 15.1885013,17.4131822 L15.1941893,17.2016235 L15.1941893,16.0115738 L15.189703,15.787337 C15.1687669,15.2814385 15.0745547,14.8967841 14.9070664,14.6333739 C14.7156512,14.3323336 14.4182739,14.1818135 14.0149347,14.1818135 Z M16.2782886,4.48011958 C17.6769809,5.59074893 18.4873905,7.17524054 18.5514587,8.83608801 L18.5546438,9.05199529 L18.656025,9.05498059 C20.972749,9.16234023 22.8319316,11.0215229 22.9392912,13.3382469 L22.9441892,13.5500826 C22.9441892,16.0997057 21.9986053,17.6204122 19.7231281,18.0339654 C19.1797446,18.1327219 18.6591873,17.7722804 18.5604309,17.2288969 C18.4616745,16.6855134 18.8221159,16.1649562 19.3654994,16.0661998 C20.5563077,15.8497781 20.9441892,15.2259794 20.9441892,13.5500826 C20.9441892,12.2245992 19.9126533,11.1400439 18.6085649,11.0554003 L18.4441893,11.0500826 L17.4441893,11.0500826 C16.8035643,11.0500826 16.3281604,10.4561367 16.4684682,9.83106553 C16.7798435,8.44388889 16.2427223,7.00570891 15.0345908,6.04639411 C13.790864,5.05881483 12.0353233,4.73962562 10.4459936,5.22041856 C8.88162432,5.69366064 7.73559842,6.86270903 7.41991028,8.26909966 C7.31743262,8.72563764 6.91208732,9.05008259 6.44418925,9.05008259 C4.80206365,9.05008259 3.37695061,10.6560337 3.13191019,12.1607285 C2.83042493,14.0120284 3.05165626,15.3506605 4.07114725,16.0448642 L4.21514252,16.1355216 C4.69257816,16.413143 4.85455957,17.0252377 4.57693814,17.5026734 C4.29931671,17.980109 3.68722201,18.1420904 3.20978638,17.864469 C1.11998029,16.6492791 0.722301325,14.5141871 1.1579144,11.8392621 C1.50109021,9.73195728 3.2180127,7.60052997 5.52386948,7.14087057 L5.6806438,7.11299529 L5.75829403,6.91336716 C6.42741607,5.28821759 7.83285307,3.99882859 9.62074501,3.38550738 L9.86688582,3.30609513 C12.0779297,2.63722556 14.5155653,3.08043203 16.2782886,4.48011958 Z" id="Shape" fill="#444444"></path>
            </g>
        </g>
    </g>
</svg>