<?xml version="1.0" encoding="UTF-8"?>
<svg width="24px" height="24px" viewBox="0 0 24 24" version="1.1" xmlns="http://www.w3.org/2000/svg" xmlns:xlink="http://www.w3.org/1999/xlink">
    <title>CC20CEFD-FE27-4E3E-909C-7575071DA8E6@1x</title>
    <g id="🛠-Symbols" stroke="none" stroke-width="1" fill="none" fill-rule="evenodd">
        <g id="ic-car-v2">
            <polygon id="Path" points="0 0 24 0 24 24 0 24"></polygon>
            <path d="M12.9731658,6.82182033 C14.4150613,7.02927266 15.8341643,7.68408631 17.2283453,8.77271229 L17.388,8.901 L19.4480184,9.39974873 L19.9314018,9.53804642 C21.7746904,10.0855123 22.5450188,10.5854962 22.6017077,11.801795 L22.605108,11.9517103 L22.605108,14.7061688 C22.605108,15.0858645 22.3229541,15.3996597 21.9568785,15.4493222 L21.855108,15.4561688 L20.7122655,15.4566127 C20.4947724,16.7580778 19.3632241,17.75 18,17.75 C16.7414242,17.75 15.6803202,16.9045229 15.353673,15.7505538 L8.64632705,15.7505538 C8.31967982,16.9045229 7.25857578,17.75 6,17.75 C4.63677588,17.75 3.50522761,16.7580778 3.28773452,15.4566127 L2.27714348,15.4561688 C1.89744771,15.4561688 1.58365252,15.1740149 1.53399009,14.8079393 L1.52714348,14.7061688 L1.52714348,10.4607114 C1.52714348,10.0915481 1.79578574,9.77728161 2.1604534,9.71984469 C2.76971744,9.62388267 3.23304055,9.4513073 3.55656193,9.21412794 L3.70913962,9.09697209 L3.88820587,8.94917935 C4.83541575,8.1495412 5.21688314,7.8882459 6.26996311,7.46022664 C7.71416381,6.87323825 10.9251463,6.52716205 12.9731658,6.82182033 Z M6,13.75 C5.30964406,13.75 4.75,14.3096441 4.75,15 C4.75,15.6903559 5.30964406,16.25 6,16.25 C6.69035594,16.25 7.25,15.6903559 7.25,15 C7.25,14.3096441 6.69035594,13.75 6,13.75 Z M18,13.75 C17.3096441,13.75 16.75,14.3096441 16.75,15 C16.75,15.6903559 17.3096441,16.25 18,16.25 C18.6903559,16.25 19.25,15.6903559 19.25,15 C19.25,14.3096441 18.6903559,13.75 18,13.75 Z M8.32034656,8.46697274 L8.963,9.75 L12.5,9.75 C12.9142136,9.75 13.25,10.0857864 13.25,10.5 C13.25,10.8796958 12.9678461,11.193491 12.6017706,11.2431534 L12.5,11.25 L8.43776392,11.2474546 L8.32834285,11.2301109 L8.24145648,11.2040301 L8.14295586,11.1596327 L8.04581736,11.0969079 L7.99057171,11.0507154 L7.93692563,10.9956678 L7.88081658,10.9233747 L7.83775342,10.8523522 L6.83476145,8.84983192 C6.10724109,9.14552906 5.79875405,9.32306212 5.23216141,9.78259742 L4.74302447,10.1895714 L4.54119454,10.3505795 L4.44343807,10.4238596 C4.08719272,10.6850295 3.66388964,10.8855245 3.17534786,11.028903 L3.027,11.068 L3.027,13.956 L3.45519526,13.9557559 C3.86635705,12.9548278 4.85086784,12.25 6,12.25 C7.25857578,12.25 8.31967982,13.0954771 8.64632705,14.2494462 L15.353673,14.2494462 C15.6803202,13.0954771 16.7414242,12.25 18,12.25 C19.1491322,12.25 20.133643,12.9548278 20.5448047,13.9557559 L21.105108,13.956 L21.105108,11.9517103 C21.105108,11.6397175 20.7837017,11.3963983 19.895218,11.0993844 L19.4025823,10.9458364 L19.4025823,10.9458364 L19.0714924,10.8515143 L16.8722599,10.3194554 C16.7615076,10.2926611 16.6583165,10.2409834 16.5705222,10.1683462 C15.281382,9.10176772 14.0119321,8.48671797 12.7595533,8.30653231 C11.5112803,8.12693736 9.70424425,8.22643451 8.32034656,8.46697274 Z" id="Shape" fill="#444444"></path>
        </g>
    </g>
</svg>