<?xml version="1.0" encoding="UTF-8"?>
<svg width="24px" height="24px" viewBox="0 0 24 24" version="1.1" xmlns="http://www.w3.org/2000/svg" xmlns:xlink="http://www.w3.org/1999/xlink">
    <title>CD08D4D9-B52F-4D1F-89D3-2B039547855E@1x</title>
    <g id="🛠-Symbols" stroke="none" stroke-width="1" fill="none" fill-rule="evenodd">
        <g id="ic-missing_some_parts">
            <g id="ic-warning" transform="translate(12.000000, 13.000000)">
                <polygon id="Path" points="0 0 12 0 12 12 0 12"></polygon>
                <path d="M6.433,1.5 L11.196,9.75 C11.2853153,9.90469857 11.2853165,10.0952948 11.1960032,10.2499945 C11.1066899,10.4046942 10.9416305,10.5 10.763,10.5 L1.237,10.5 C1.05836947,10.5 0.893310122,10.4046942 0.803996824,10.2499945 C0.714683526,10.0952948 0.714684737,9.90469857 0.804,9.75 L5.567,1.5 C5.65631972,1.34531186 5.82137628,1.250022 6,1.250022 C6.17862372,1.250022 6.34368028,1.34531186 6.433,1.5 Z M2.103,9.5 L9.897,9.5 L6,2.75 L2.103,9.5 Z M5.5,8 L6.5,8 L6.5,9 L5.5,9 L5.5,8 Z M5.5,4.5 L6.5,4.5 L6.5,7 L5.5,7 L5.5,4.5 Z" id="Shape" fill="#FFAD1F"></path>
            </g>
            <g id="Group">
                <polygon id="Path" points="0 0 24 0 24 24 0 24"></polygon>
                <path d="M12,1 L21.5,6.5 L21.5,13 L19.5,13 L19.5,7.653 L12,3.311 L4.5,7.653 L4.5,16.347 L12,20.689 L12,23 L2.5,17.5 L2.5,6.5 L12,1 Z M12,8 C14.209139,8 16,9.790861 16,12 C16,14.209139 14.209139,16 12,16 C9.790861,16 8,14.209139 8,12 C8,9.790861 9.790861,8 12,8 Z M12,10 C10.8954305,10 10,10.8954305 10,12 C10,13.1045695 10.8954305,14 12,14 C13.1045695,14 14,13.1045695 14,12 C14,10.8954305 13.1045695,10 12,10 Z" id="Combined-Shape" fill="#444444"></path>
            </g>
        </g>
    </g>
</svg>