<?xml version="1.0" encoding="UTF-8"?>
<svg width="24px" height="24px" viewBox="0 0 24 24" version="1.1" xmlns="http://www.w3.org/2000/svg" xmlns:xlink="http://www.w3.org/1999/xlink">
    <title>03A9A30C-4785-4F57-AE30-67BB0609C853@1x</title>
    <g id="🛠-Symbols" stroke="none" stroke-width="1" fill="none" fill-rule="evenodd">
        <g id="ic-parent">
            <polygon id="Path" points="0 0 24 0 24 24 0 24"></polygon>
            <path d="M13.7472725,0.84 L21.224545,5.16894724 L21.224545,13.8268417 L17.724,15.852 L17.724545,18.8268417 L10.2472725,23.1557889 L2.77,18.8268417 L2.77,10.1689472 L6.269,8.142 L6.27,5.16894724 L13.7472725,0.84 Z M10.2472725,7.65894492 L4.34416263,11.076452 L4.34416263,17.919337 L10.2472725,21.336844 L16.1503824,17.919337 L16.1503824,11.076452 L10.2472725,7.65894492 Z M10.2472725,11.3495692 C11.9860445,11.3495692 13.3955978,12.7591224 13.3955978,14.4978945 C13.3955978,16.2366665 11.9860445,17.6462197 10.2472725,17.6462197 C8.50850047,17.6462197 7.09894724,16.2366665 7.09894724,14.4978945 C7.09894724,12.7591224 8.50850047,11.3495692 10.2472725,11.3495692 Z M10.2472725,12.9237318 C9.37788648,12.9237318 8.67310987,13.6285085 8.67310987,14.4978945 C8.67310987,15.3672805 9.37788648,16.0720571 10.2472725,16.0720571 C11.1166585,16.0720571 11.8214351,15.3672805 11.8214351,14.4978945 C11.8214351,13.6285085 11.1166585,12.9237318 10.2472725,12.9237318 Z M13.7472725,2.65894492 L7.84416263,6.07645199 L7.844,7.231 L10.2472725,5.84 L17.724545,10.1689472 L17.724,14.033 L19.6503824,12.919337 L19.6503824,6.07645199 L13.7472725,2.65894492 Z" id="Combined-Shape" fill="#444444"></path>
        </g>
    </g>
</svg>