<?xml version="1.0" encoding="UTF-8"?>
<svg width="24px" height="24px" viewBox="0 0 24 24" version="1.1" xmlns="http://www.w3.org/2000/svg" xmlns:xlink="http://www.w3.org/1999/xlink">
    <title>F52F0753-7F23-4561-A6E7-9729319EFB7A@1x</title>
    <g id="🛠-Symbols" stroke="none" stroke-width="1" fill="none" fill-rule="evenodd">
        <g id="ic-quality-type">
            <polygon id="Path" points="0 0 24 0 24 24 0 24"></polygon>
            <g id="Group">
                <polygon id="Path" points="0 0 24 0 24 24 0 24"></polygon>
            </g>
            <g id="Group">
                <polygon id="Path" points="0 0 24 0 24 24 0 24"></polygon>
                <path d="M12,1 C16.418278,1 20,4.581722 20,9 C20,10.3043034 19.6878646,11.5357037 19.1342166,12.623578 L22.4636813,18.3924175 C22.8440124,19.0511703 22.3789552,19.8604441 21.645289,19.8916197 L21.5332965,19.8903443 L18.6001704,19.7006204 L17.297913,22.3356441 C16.9607673,23.017509 16.0294435,23.0794624 15.596539,22.4863083 L15.535478,22.3924175 L12.4155846,16.9893915 C12.2779465,16.9964351 12.1393896,17 12,17 C11.8602729,17 11.7213825,16.9964178 11.5834156,16.9893403 L8.46452197,22.3924175 C8.08419083,23.0511703 7.15081063,23.0530559 6.75697858,22.4332701 L6.70208696,22.3356441 L5.39982959,19.7006204 L2.46670346,19.8903443 C1.7076182,19.9393 1.18830313,19.1637266 1.48553738,18.4922432 L1.53631874,18.3924175 L4.86578342,12.623578 C4.31213543,11.5357037 4,10.3043034 4,9 C4,4.581722 7.581722,1 12,1 Z M17.8703625,14.4350191 C16.959419,15.4184596 15.8044079,16.1725766 14.5016053,16.6010936 L16.3326196,19.7731072 L17.10317,18.2171401 C17.2622198,17.8954678 17.5793283,17.6868468 17.9307774,17.6627058 L18.063939,17.6624399 L19.7972212,17.7739732 Z M6.1296375,14.4350191 L4.20191276,17.7734732 L5.93606104,17.6624399 C6.29416228,17.6393449 6.63338761,17.8096584 6.83001894,18.1019518 L6.89682996,18.2171401 L7.66651437,19.7726072 L9.49839471,16.6010936 C8.19559213,16.1725766 7.04058095,15.4184596 6.1296375,14.4350191 Z M12,3 C8.6862915,3 6,5.6862915 6,9 C6,12.3137085 8.6862915,15 12,15 C15.3137085,15 18,12.3137085 18,9 C18,5.6862915 15.3137085,3 12,3 Z" id="Combined-Shape" fill="#444444"></path>
            </g>
        </g>
    </g>
</svg>