<?xml version="1.0" encoding="utf-8"?>
<!-- Generator: Adobe Illustrator 15.0.0, SVG Export Plug-In . SVG Version: 6.00 Build 0)  -->
<!DOCTYPE svg PUBLIC "-//W3C//DTD SVG 1.1//EN" "http://www.w3.org/Graphics/SVG/1.1/DTD/svg11.dtd">
<svg version="1.1" id="Ebene_1" xmlns="http://www.w3.org/2000/svg" xmlns:xlink="http://www.w3.org/1999/xlink" x="0px" y="0px"
	 width="500px" height="500px" viewBox="0 0 500 500" enable-background="new 0 0 500 500" xml:space="preserve">
<g id="Layer_3">
</g>
<g id="Layer_1">
	<g>
		<path fill="#6C7C97" d="M403.646,42.104H172.424c-0.076,0-0.139,0.042-0.215,0.043c-4.59-0.299-9.202,1.437-12.45,4.941
			l-83.405,89.65c-3.17,3.405-4.597,7.98-4.072,12.456c-0.006,0.191-0.109,0.351-0.109,0.544v297.119
			c0,8.627,6.999,15.625,15.625,15.625h315.846c8.628,0,15.625-6.998,15.625-15.625V57.729
			C419.271,49.103,412.272,42.104,403.646,42.104z M155.579,97.463v34.292h-31.901L155.579,97.463z M388.021,431.233H103.424
			V163.004h67.779c8.626,0,15.625-6.999,15.625-15.625V73.354H388.02v357.879H388.021z"/>
		<rect x="145.713" y="197.613" fill="#6C7C97" width="146.982" height="30"/>
		<rect x="145.713" y="274.641" fill="#6C7C97" width="208.982" height="30"/>
		<rect x="145.713" y="351.641" fill="#6C7C97" width="208.982" height="30"/>
	</g>
</g>
<g id="Layer_2">
</g>
</svg>
