<?xml version="1.0" encoding="UTF-8"?>
<svg width="50px" height="50px" viewBox="0 0 338 338" version="1.1" xmlns="http://www.w3.org/2000/svg" xmlns:xlink="http://www.w3.org/1999/xlink">
    <title>Group</title>
    <g id="Page-1" stroke="none" stroke-width="1" fill="none" fill-rule="evenodd">
        <g id="noun_Chain_3120614" fill="#000000" fill-rule="nonzero">
            <g id="Group" transform="translate(169.035996, 168.893345) rotate(45.000000) translate(-169.035996, -168.893345) translate(57.035996, 42.393345)">
                <path d="M207.507788,30.293078 L193.044667,15.8352722 C172.179837,-5.02189017 137.800288,-5.25890338 116.935458,15.8352722 L73.0718957,59.9197292 C51.9699656,81.0139048 52.2070659,115.143807 73.0718957,136.000969 L87.5350164,150.458775 C92.2770231,155.199039 100.101334,155.436052 105.080441,150.458775 C109.822448,145.718511 109.822448,137.660062 105.080441,132.919798 L90.6173208,118.461992 C79.2365045,107.085358 79.2365045,88.8353407 90.6173208,77.4587066 L134.717984,33.3742497 C146.0988,21.9976157 164.355526,21.9976157 175.736342,33.3742497 L190.199463,47.8320555 C201.580279,59.2086895 201.580279,77.4587066 190.199463,88.8353407 L177.870245,100.923014 C181.663851,110.640556 183.323553,120.832124 182.849352,131.260705 L207.507788,106.611331 C228.609718,85.5171557 228.609718,51.3872536 207.507788,30.293078 Z" id="Path"></path>
                <path d="M136.402535,74.9475339 C131.667291,70.1837997 123.617378,70.1837997 118.882134,74.9475339 C114.146891,79.711268 114.146891,87.8096161 118.882134,92.5733502 L133.324626,107.102739 C144.68921,118.535701 144.68921,136.876078 133.324626,148.30904 L89.0501011,192.611767 C77.6855171,204.044729 59.4548302,204.044729 48.0902461,192.611767 L33.6477539,178.082378 C22.2831699,166.649416 22.2831699,148.30904 33.6477539,136.876078 L45.7226245,124.728556 C41.9344298,114.962901 40.2770946,104.482686 40.9873811,94.2406572 L16.1273535,119.488448 C-4.94447935,140.687065 -4.70771718,174.985951 16.1273535,195.946381 L30.5698458,210.475771 C51.6416787,231.674387 85.7354308,231.674387 106.570501,210.475771 L150.608265,166.173043 C171.680098,144.974426 171.680098,110.67554 150.608265,89.7151097 L136.402535,74.9475339 Z" id="Path"></path>
                <g id="noun_line_3037177" transform="translate(140.991089, 184.456642)">
                    <path d="M64.5836979,50.7167543 L17.355923,3.47655437 C13.4790161,-0.401372496 7.27596509,-0.401372496 3.3990582,3.47655437 C-0.477848694,7.35448123 -0.477848694,13.5591642 3.3990582,17.4370911 L50.6268331,64.677291 C52.5300419,66.5810006 55.0676537,67.5681092 57.6052655,67.5681092 C60.1428772,67.5681092 62.680489,66.5810006 64.5836979,64.677291 C68.4606048,60.7993642 68.4606048,54.5946812 64.5836979,50.7167543 Z" id="Path"></path>
                </g>
            </g>
        </g>
    </g>
</svg>