<?xml version="1.0" encoding="UTF-8"?>
<svg width="250px" height="250px" viewBox="0 0 250 250" version="1.1" xmlns="http://www.w3.org/2000/svg" xmlns:xlink="http://www.w3.org/1999/xlink">
    <title>noun_traceability_2183995</title>
    <g id="Page-1" stroke="none" stroke-width="1" fill="none" fill-rule="evenodd">
        <g id="Trace-app-logo" transform="translate(-75.000000, -75.000000)" fill="#000000" fill-rule="nonzero">
            <g id="noun_traceability_2183995" transform="translate(75.000000, 75.000000)">
                <path d="M155.691331,124.390244 C155.709008,108.669015 143.639142,95.5558625 127.922889,94.2215717 C112.206636,92.8872809 98.0854842,103.776848 95.4351725,119.274569 C92.7848609,134.77229 102.489288,149.709559 117.761586,153.639878 L117.761586,177.317073 C117.776217,189.838462 127.956687,199.985417 140.519433,200 L182.242153,200 C194.804899,199.985417 204.985369,189.838462 205,177.317073 L205,67.6829268 C204.985369,55.1615376 194.804899,45.0145828 182.242153,45 L121.554561,45 C117.364957,45 113.968612,48.3851641 113.968612,52.5609756 C113.968612,56.7367871 117.364957,60.1219512 121.554561,60.1219512 L182.242153,60.1219512 C186.431757,60.1219512 189.828102,63.5071153 189.828102,67.6829268 L189.828102,177.317073 C189.828102,181.492885 186.431757,184.878049 182.242153,184.878049 L140.519433,184.878049 C136.329829,184.878049 132.933484,181.492885 132.933484,177.317073 L132.933484,153.639878 C146.313148,150.187025 155.666492,138.165593 155.691331,124.390244 Z M110.175612,124.390244 C110.160706,116.075447 116.883715,109.308461 125.225719,109.241714 C133.567723,109.174967 140.398864,115.833503 140.517865,124.147466 C140.636866,132.46143 133.999079,139.311484 125.658559,139.481951 C125.552356,139.481951 125.453739,139.451707 125.347535,139.451707 C125.241332,139.451707 125.142715,139.478171 125.036511,139.481951 C116.7908,139.313448 110.190399,132.610524 110.175612,124.390244 Z" id="Shape"></path>
                <path d="M8,250 C12.418278,250 16,246.617263 16,242.444444 L16,223.555556 C16,219.382737 12.418278,216 8,216 C3.581722,216 0,219.382737 0,223.555556 L0,242.444444 C0,246.617263 3.581722,250 8,250 Z" id="Path"></path>
                <path d="M226.363636,0 L22.6363636,0 C10.1406782,0.0145635819 0.0145528471,10.1481584 0,22.6530612 L0,177.44898 C0,181.619293 3.37821513,185 7.54545455,185 C11.712694,185 15.090909,181.619293 15.0909091,177.44898 L15.0909091,22.6530612 C15.0909091,18.4827478 18.4691242,15.1020408 22.6363636,15.1020408 L226.363636,15.1020408 C230.530876,15.1020408 233.909091,18.4827478 233.909091,22.6530612 L233.909091,37.7551021 C233.909091,41.9254155 237.287306,45.3061225 241.454545,45.3061225 C245.621785,45.3061225 249,41.9254155 249,37.7551021 L249,22.6530612 C248.985447,10.1481584 238.859322,0.0145635819 226.363636,0 Z" id="Path"></path>
                <path d="M242.407407,75.3703704 C238.214134,75.3703704 234.814815,78.7696899 234.814815,82.962963 L234.814815,227.222222 C234.814815,231.415495 231.415495,234.814815 227.222222,234.814815 L67.7777778,234.814815 C63.5845047,234.814815 60.1851852,231.415495 60.1851852,227.222222 L60.1851852,67.7777778 C60.1851852,63.5845047 63.5845047,60.1851852 67.7777778,60.1851852 L75.3703704,60.1851852 C79.5636435,60.1851852 82.962963,56.7858657 82.962963,52.5925926 C82.962963,48.3993195 79.5636435,45 75.3703704,45 L67.7777778,45 C55.2040291,45.0146438 45.0146438,55.2040291 45,67.7777778 L45,227.222222 C45.0146438,239.795971 55.2040291,249.985356 67.7777778,250 L227.222222,250 C239.795971,249.985356 249.985356,239.795971 250,227.222222 L250,82.962963 C250,78.7696899 246.600681,75.3703704 242.407407,75.3703704 Z" id="Path"></path>
                <circle id="Oval" cx="8" cy="200" r="8"></circle>
                <circle id="Oval" cx="242" cy="60" r="8"></circle>
                <circle id="Oval" cx="99" cy="53" r="8"></circle>
            </g>
        </g>
    </g>
</svg>