<svg id="flag-icon-css-ag" viewBox="0 0 512 512" xmlns="http://www.w3.org/2000/svg">
    <defs>
        <clipPath id="a">
            <path d="M109 47.6h464.8v464.9H109z" fill="#25ff01"/>
        </clipPath>
    </defs>
    <g clip-path="url(#a)" fill-rule="evenodd" transform="translate(-120 -52.4) scale(1.1014)">
        <path d="M0 47.6h693V512H0z" fill="#fff"/>
        <path d="M1.5 48.2h690.9v196.2H1.5z"/>
        <path d="M128.3 232.1h458.5v103.4H128.3z" fill="#0061ff"/>
        <path d="M692.5 49.2v463.3H347L692.5 49.2zm-691.3 0v463.3h345.7L1.2 49.2z" fill="#e20000"/>
        <path d="M508.8 232.2l-69.3-17.6 59-44.4-72.5 10.3 37.3-63-64.1 37.2 11.3-73.5-43.4 58-17.6-67.3-19.6 69.3-43.4-59 12.4 75.6-64.1-39.3 37.2 63-70.3-11.3 57.9 43.4-72.4 18.6h321.6z"
              fill="#ffd600"/>
    </g>
</svg>
