<svg id="flag-icon-css-ai" viewBox="0 0 512 512" xmlns="http://www.w3.org/2000/svg">
    <defs id="defs1837">
        <clipPath id="a">
            <path d="M0 0h640v480H0z" fill-opacity=".7" id="path1834"/>
        </clipPath>
    </defs>
    <path d="M0 0h512v512H0z" fill="#012169" fill-opacity="1" id="rect4120" stroke-width="4.1"/>
    <path d="M384 212.7l2 2z" fill="#49497d" id="path1855"/>
    <path d="M386 212.7l2 2z" fill="#0e0e6e" id="path1857"/>
    <path d="M379.9 214.7l2 2z" fill="#262678" id="path1859"/>
    <path d="M382 214.7l2 2z" fill="#808067" id="path1861"/>
    <path d="M388 214.7l2 2z" fill="#58587b" id="path1863"/>
    <path d="M312.9 216.8l2 2z" fill="#0e0e6e" id="path1865"/>
    <path d="M375.9 216.8l2 2z" fill="#1b1b74" id="path1867"/>
    <path d="M377.9 216.8l2 2z" fill="#6e6c70" id="path1869"/>
    <path d="M316.5 220.4c0 52.5-6 111.6 33 152.7 8 8.4 23.4 27.7 36.5 27 13.7-.8 31.4-21.1 39.2-31 34-44.8 28.7-98.2 29.8-150.2-15.3 6.9-23 9.2-36.4 9-10 1-25.3-5.5-34.5-10-6 4-14.7 8.9-30.4 9.4-18 .8-23.8-2.3-37.2-7z" fill="#cc3"
          id="path1871"/>
    <path d="M390 216.8l2 2z" fill="#99994e" id="path1873"/>
    <path d="M392 216.8l2 2z" fill="#49497d" id="path1875"/>
    <path d="M455 216.8l2 2z" fill="#0e0e6e" id="path1877"/>
    <path d="M315 218.8l2 2z" fill="#a4a43d" id="path1879"/>
    <path d="M317 218.8l2 2z" fill="#6e6c70" id="path1881"/>
    <path d="M319 218.8l2 2z" fill="#3a3a7c" id="path1883"/>
    <path d="M371.8 218.8l2 2z" fill="#1b1b74" id="path1885"/>
    <path d="M373.8 218.8l2 2z" fill="#6e6c70" id="path1887"/>
    <path d="M375.9 218.8l2 2z" fill="#a4a43d" id="path1889"/>
    <path d="M384 218.8l2 2z" fill="#d0d045" id="path1891"/>
    <path d="M392 218.8l2 2z" fill="#a4a43d" id="path1893"/>
    <path d="M394 218.8l2 2z" fill="#8d8d5b" id="path1895"/>
    <path d="M396.2 218.8l2 2z" fill="#3a3a7c" id="path1897"/>
    <path d="M448.9 218.8l2 2z" fill="#262678" id="path1899"/>
    <path d="M451 218.8l2 2z" fill="#53527c" id="path1901"/>
    <path d="M453 218.8l2 2z" fill="#8d8d5b" id="path1903"/>
    <path d="M323 220.9l2 2z" fill="#737370" id="path1905"/>
    <path d="M325 220.9l2 2z" fill="#53527c" id="path1907"/>
    <path d="M327 220.9l2 2z" fill="#1b1b74" id="path1909"/>
    <path d="M367.7 220.9l2 2z" fill="#262678" id="path1911"/>
    <path d="M369.8 220.9l2 2z" fill="#6e6c70" id="path1913"/>
    <path d="M371.8 220.9l2 2z" fill="#a4a43d" id="path1915"/>
    <path d="M382 220.9l2 2z" fill="#e5e59d" id="path1917"/>
    <path d="M320.6 226a509 509 0 004 88.2c4.9 15.4 4.2 23.9 11.3 33l99-.7c6-9.7 10.5-24.4 11-30.3 5.6-29.7 5.7-62.6 5.9-92a62 62 0 01-35.7 7.4 69 69 0 01-30.5-9.2c-9.5 5.6-12.8 8.2-28.4 8.9-12.2.6-22 1.6-36.6-5.2z" fill="#fff"
          id="path1919"/>
    <path d="M386 220.9l2 2z" fill="#f2f1d7" id="path1921"/>
    <path d="M388 220.9l2 2z" fill="#d9d868" id="path1923"/>
    <path d="M396.2 220.9l2 2z" fill="#a4a43d" id="path1925"/>
    <path d="M398.2 220.9l2 2z" fill="#99994e" id="path1927"/>
    <path d="M400.2 220.9l2 2z" fill="#49497d" id="path1929"/>
    <path d="M402.2 220.9l2 2z" fill="#0e0e6e" id="path1931"/>
    <path d="M442.9 220.9l2 2z" fill="#3a3a7c" id="path1933"/>
    <path d="M444.9 220.9l2 2z" fill="#667" id="path1935"/>
    <path d="M446.9 220.9l2 2z" fill="#99994e" id="path1937"/>
    <path d="M448.9 220.9l2 2-2-2m-121.8 2l2 2z" fill="#a4a43d" id="path1939"/>
    <path d="M329.2 222.9l2 2z" fill="#99994e" id="path1941"/>
    <path d="M331.2 222.9l2 2z" fill="#6e6c70" id="path1943"/>
    <path d="M333.2 222.9l2 2z" fill="#49497d" id="path1945"/>
    <path d="M335.2 222.9l2 2-2-2m26.4 0l2 2z" fill="#1b1b74" id="path1947"/>
    <path d="M363.6 222.9l2 2-2-2z" fill="#53527c" id="path1949"/>
    <path d="M365.7 222.9l2 2z" fill="#8d8d5b" id="path1951"/>
    <path d="M367.7 222.9l2 2z" fill="#a4a43d" id="path1953"/>
    <path d="M377.9 222.9l2 2z" fill="#e5e59d" id="path1955"/>
    <path d="M379.9 222.9l2 2z" fill="#fbfaf2" id="path1957"/>
    <path d="M390 222.9l2 2z" fill="#f2f1d2" id="path1959"/>
    <path d="M392 222.9l2 2z" fill="#d9d868" id="path1961"/>
    <path d="M402.2 222.9l2 2z" fill="#a4a43d" id="path1963"/>
    <path d="M404.3 222.9l2 2z" fill="#6e6c70" id="path1965"/>
    <path d="M406.3 222.9l2 2z" fill="#3a3a7c" id="path1967"/>
    <path d="M432.7 222.9l2 2z" fill="#0e0e6e" id="path1969"/>
    <path d="M434.7 222.9l2 2z" fill="#32327b" id="path1971"/>
    <path d="M436.8 222.9l2 2z" fill="#58587b" id="path1973"/>
    <path d="M438.8 222.9l2 2z" fill="#808067" id="path1975"/>
    <path d="M442.2 223.5l1.3.7z" fill="#a4a43d" id="path1977"/>
    <path d="M319 224.9l2 2z" fill="#dddc7a" id="path1979"/>
    <path d="M321 224.9l2 2z" fill="#d0d045" id="path1981"/>
    <path d="M336.6 225.5l1.4.7z" fill="#a4a43d" id="path1983"/>
    <path d="M339.3 224.9l2 2z" fill="#808067" id="path1985"/>
    <path d="M341.3 224.9l2 2z" fill="#667" id="path1987"/>
    <path d="M343.4 224.9l2 2z" fill="#58587b" id="path1989"/>
    <path d="M345.4 224.9l2 2z" fill="#49497d" id="path1991"/>
    <path d="M357.6 224.9l2 2z" fill="#737370" id="path1993"/>
    <path d="M359.6 224.9l2 2z" fill="#99994e" id="path1995"/>
    <path d="M361.6 224.9l2 2z" fill="#a4a43d" id="path1997"/>
    <path d="M373.8 224.9l2 2z" fill="#e5e59d" id="path1999"/>
    <path d="M375.9 224.9l2 2z" fill="#fbfaf2" id="path2001"/>
    <path d="M394 224.9l2 2z" fill="#f2f1d2" id="path2003"/>
    <path d="M396.2 224.9l2 2z" fill="#d9d868" id="path2005"/>
    <path d="M407.6 225.5l1.4.7-1.3-.7z" fill="#a4a43d" id="path2007"/>
    <path d="M410.4 224.9l2 2z" fill="#808067" id="path2009"/>
    <path d="M412.4 224.9l2 2z" fill="#667" id="path2011"/>
    <path d="M414.4 224.9l2 2z" fill="#58587b" id="path2013"/>
    <path d="M416.5 224.9l2 2z" fill="#3a3a7c" id="path2015"/>
    <path d="M425.9 225.5l1.4.7z" fill="#58587b" id="path2017"/>
    <path d="M428.6 224.9l2 2z" fill="#737370" id="path2019"/>
    <path d="M430.6 224.9l2 2-2-2z" fill="#99994e" id="path2021"/>
    <path d="M432.7 224.9l2 2z" fill="#a4a43d" id="path2023"/>
    <path d="M448.9 224.9l2 2z" fill="#dddc7a" id="path2025"/>
    <path d="M451 224.9l2 2z" fill="#d0d045" id="path2027"/>
    <path d="M323 226.9l2 2z" fill="#f2f1d7" id="path2029"/>
    <path d="M325 226.9l2 2z" fill="#e0dea1" id="path2031"/>
    <path d="M327 226.9l2 2z" fill="#dddc7a" id="path2033"/>
    <path d="M367.7 226.9l2 2z" fill="#d9d868" id="path2035"/>
    <path d="M369.8 226.9l2 2z" fill="#e5e3af" id="path2037"/>
    <path d="M398.2 226.9l2 2z" fill="#f6f6e4" id="path2039"/>
    <path d="M400.2 226.9l2 2z" fill="#e1e18c" id="path2041"/>
    <path d="M440.8 226.9l2 2z" fill="#d4d456" id="path2043"/>
    <path d="M442.9 226.9l2 2z" fill="#e1e18c" id="path2045"/>
    <path d="M444.9 226.9l2 2z" fill="#eeedc1" id="path2047"/>
    <path d="M331.2 228.9l2 2z" fill="#f2f1d2" id="path2049"/>
    <path d="M333.2 228.9l2 2z" fill="#e0dea1" id="path2051"/>
    <path d="M335.2 228.9l2 2z" fill="#dddc7a" id="path2053"/>
    <path d="M337.3 228.9l2 2z" fill="#d0d045" id="path2055"/>
    <path d="M361.6 228.9l2 2z" fill="#dddc7a" id="path2057"/>
    <path d="M363.6 228.9l2 2-2-2z" fill="#e5e3af" id="path2059"/>
    <path d="M365.7 228.9l2 2z" fill="#f6f6e4" id="path2061"/>
    <path d="M404.3 228.9l2 2z" fill="#eeedc1" id="path2063"/>
    <path d="M406.3 228.9l2 2z" fill="#e1e18c" id="path2065"/>
    <path d="M408.3 228.9l2 2z" fill="#d4d456" id="path2067"/>
    <path d="M432.7 228.9l2 2z" fill="#d9d868" id="path2069"/>
    <path d="M434.7 228.9l2 2z" fill="#e1e18c" id="path2071"/>
    <path d="M436.8 228.9l2 2z" fill="#eeedc1" id="path2073"/>
    <path d="M438.8 228.9l2 2z" fill="#f6f6e4" id="path2075"/>
    <path d="M341.3 230.9l2 2-2-2z" fill="#f2f1d7" id="path2077"/>
    <path d="M343.4 230.9l2 2-2-2z" fill="#f2f1d2" id="path2079"/>
    <path d="M345.4 230.9l2 2-2-2z" fill="#eeedc1" id="path2081"/>
    <path d="M354.9 231.6l1.3.7z" fill="#f2f1d2" id="path2083"/>
    <path d="M357.6 230.9l2 2-2-2z" fill="#fbfaf2" id="path2085"/>
    <path d="M367.7 230.9l4 4v-4h-4z" fill="#fef8f1" id="path2087"/>
    <path d="M412.4 230.9l2 2-2-2z" fill="#f2f1d7" id="path2089"/>
    <path d="M414.4 230.9l2 2-2-2z" fill="#f2f1d2" id="path2091"/>
    <path d="M416.5 230.9l2 2-2-2z" fill="#e5e3af" id="path2093"/>
    <path d="M419.9 231.6l1.3.7-1.4-.7z" fill="#e5e59d" id="path2095"/>
    <path d="M422.6 230.9l2 2-2-2z" fill="#e0dea1" id="path2097"/>
    <path d="M425.9 231.6l1.4.7z" fill="#f2f1d2" id="path2099"/>
    <path d="M428.6 230.9l2 2-2-2z" fill="#fbfaf2" id="path2101"/>
    <path d="M363.6 233l2 2-2-2z" fill="#fef8f1" id="path2103"/>
    <path d="M365.7 233l2 2z" fill="#fbbe66" id="path2105"/>
    <path d="M363.6 235l2 2-2-2z" fill="#fbc477" id="path2107"/>
    <path d="M367.7 235l2 2z" fill="#fcb144" id="path2109"/>
    <path d="M363.6 237l2 2-2-2z" fill="#fe9f11" id="path2111"/>
    <path d="M367.7 237l2 2z" fill="#fea522" id="path2113"/>
    <path d="M361.6 239l2 2-2-2m8.2 0l2 2z" fill="#fae3c9" id="path2115"/>
    <path d="M379.9 239l2 2z" fill="#fbead6" id="path2117"/>
    <path d="M382 239l2 2z" fill="#f9d6aa" id="path2119"/>
    <path d="M390 239l2 2z" fill="#fae3c9" id="path2121"/>
    <path d="M392 239l2 2z" fill="#fef8f1" id="path2123"/>
    <path d="M361.6 241l2 2z" fill="#f9d099" id="path2125"/>
    <path d="M369.8 241l2 2z" fill="#fdab33" id="path2127"/>
    <path d="M373.8 241l2 2z" fill="#fcf1e4" id="path2129"/>
    <path d="M375.9 241l2 2z" fill="#fbc477" id="path2131"/>
    <path d="M377.9 241l2 2z" fill="#fea522" id="path2133"/>
    <path d="M394 241l2 2z" fill="#fcb755" id="path2135"/>
    <path d="M396.2 241l2 2z" fill="#f9d6aa" id="path2137"/>
    <path d="M361.6 243.2l2 2z" fill="#faca88" id="path2139"/>
    <path d="M371.8 243.2l2 2-2-2m26.4 0l2 2z" fill="#fea522" id="path2141"/>
    <path d="M400.2 243.2l2 2z" fill="#f8dcbb" id="path2143"/>
    <path d="M319 245.2l2 2z" fill="#f6f6e4" id="path2145"/>
    <path d="M361.6 245.2l2 2z" fill="#fbc477" id="path2147"/>
    <path d="M402.2 245.2l2 2z" fill="#fbbe66" id="path2149"/>
    <path d="M404.3 245.2l2 2z" fill="#f8dcbb" id="path2151"/>
    <path d="M361.6 247.2l2 2z" fill="#faca88" id="path2153"/>
    <path d="M408.3 247.2l2 2z" fill="#fcb755" id="path2155"/>
    <path d="M410.4 247.2l2 2z" fill="#f8dcbb" id="path2157"/>
    <path d="M359.6 249.3l2 2z" fill="#fef8f1" id="path2159"/>
    <path d="M361.6 249.3l2 2z" fill="#fe9f11" id="path2161"/>
    <path d="M418.5 249.3l2 2z" fill="#fdab33" id="path2163"/>
    <path d="M420.6 249.3l2 2z" fill="#fcb144" id="path2165"/>
    <path d="M422.6 249.3l2 2z" fill="#fbc477" id="path2167"/>
    <path d="M424.6 249.3l4 4z" fill="#f9d6aa" id="path2169"/>
    <path d="M426.6 249.3l2 2z" fill="#fef8f1" id="path2171"/>
    <path d="M359.6 251.3l2 2z" fill="#fcb144" id="path2173"/>
    <path d="M388 251.3l2 2z" fill="#fdab33" id="path2175"/>
    <path d="M390 251.3l2 2zm8 0l2.2 2-2-2z" fill="#fbc477" id="path2177"/>
    <path d="M400.2 251.3l2 2z" fill="#fea522" id="path2179"/>
    <path d="M357.6 253.3l2 2z" fill="#fae3c9" id="path2181"/>
    <path d="M384 253.3l2 2z" fill="#fcb144" id="path2183"/>
    <path d="M386 253.3l2 2z" fill="#fae3c9" id="path2185"/>
    <path d="M402.2 253.3l2 2z" fill="#f8dcbb" id="path2187"/>
    <path d="M404.3 253.3l2 2z" fill="#fdab33" id="path2189"/>
    <path d="M416.5 253.3l2 2z" fill="#fe9f11" id="path2191"/>
    <path d="M418.5 253.3l2 2z" fill="#fcb755" id="path2193"/>
    <path d="M420.6 253.3l2 2z" fill="#f9d099" id="path2195"/>
    <path d="M422.6 253.3l2 2z" fill="#fbead6" id="path2197"/>
    <path d="M357.6 255.3l2 2z" fill="#fcb144" id="path2199"/>
    <path d="M382 255.3l2 2z" fill="#fbbe66" id="path2201"/>
    <path d="M406.3 255.3l2 2z" fill="#f9d099" id="path2203"/>
    <path d="M414.4 255.3l2 2z" fill="#fbead6" id="path2205"/>
    <path d="M355.6 257.4l2 2z" fill="#fcf1e4" id="path2207"/>
    <path d="M379.9 257.4l2 2z" fill="#fbbe66" id="path2209"/>
    <path d="M408.3 257.4l2 2z" fill="#f9d099" id="path2211"/>
    <path d="M414.4 257.4l2 2z" fill="#fae3c9" id="path2213"/>
    <path d="M355.6 259.4l2 2z" fill="#fbc477" id="path2215"/>
    <path d="M377.9 259.4l2 2-2-2m32.5 0l2 2z" fill="#fcb144" id="path2217"/>
    <path d="M414.4 259.4l2 2z" fill="#fbbe66" id="path2219"/>
    <path d="M319 261.4l2 2z" fill="#f6f6e4" id="path2221"/>
    <path d="M355.6 261.4l2 2z" fill="#fea522" id="path2223"/>
    <path d="M377.9 261.4l2 2z" fill="#fbead6" id="path2225"/>
    <path d="M410.4 261.4l2 2z" fill="#fcf1e4" id="path2227"/>
    <path d="M416.5 261.4l2 2z" fill="#fef8f1" id="path2229"/>
    <path d="M353.6 263.5l2 2z" fill="#fcf1e4" id="path2231"/>
    <path d="M375.9 263.5l2 2z" fill="#fbbe66" id="path2233"/>
    <path d="M412.4 263.5l2 2z" fill="#faca88" id="path2235"/>
    <path d="M416.5 263.5l2 2z" fill="#f9d099" id="path2237"/>
    <path d="M353.6 265.5l2 2z" fill="#f9d6aa" id="path2239"/>
    <path d="M375.9 265.5l2 2z" fill="#fcf1e4" id="path2241"/>
    <path d="M386 265.5l2 2z" fill="#fae3c9" id="path2243"/>
    <path d="M388 265.5l2 2z" fill="#fea522" id="path2245"/>
    <path d="M390 265.5l2 2z" fill="#fcb144" id="path2247"/>
    <path d="M392 265.5l2 2z" fill="#f9d6aa" id="path2249"/>
    <path d="M412.4 265.5l2 2z" fill="#fef8f1" id="path2251"/>
    <path d="M414.4 265.5l2 2z" fill="#fea522" id="path2253"/>
    <path d="M416.5 265.5l2 2z" fill="#fdab33" id="path2255"/>
    <path d="M353.6 267.5l-2.1 6 2-6z" fill="#faca88" id="path2257"/>
    <path d="M373.8 267.5l2 2z" fill="#fea522" id="path2259"/>
    <path d="M375.9 267.5l2 2z" fill="#fef8f1" id="path2261"/>
    <path d="M386 267.5l2 2z" fill="#f9d099" id="path2263"/>
    <path d="M394 267.5l2 2z" fill="#fdab33" id="path2265"/>
    <path d="M396.2 267.5l2 2z" fill="#fae3c9" id="path2267"/>
    <path d="M414.4 267.5l2 2z" fill="#f8dcbb" id="path2269"/>
    <path d="M416.5 267.5l2 2z" fill="#f90" id="path2271"/>
    <path d="M419.2 268.9l.6 1.3z" fill="#fbead6" id="path2273"/>
    <path d="M377.9 269.5l2 2z" fill="#fea522" id="path2275"/>
    <path d="M379.9 269.5l2 2z" fill="#fbbe66" id="path2277"/>
    <path d="M382 269.5l2 2z" fill="#faca88" id="path2279"/>
    <path d="M384 269.5l2 2z" fill="#fcb144" id="path2281"/>
    <path d="M386 269.5l2 2z" fill="#fae3c9" id="path2283"/>
    <path d="M388 269.5l2 2z" fill="#fe9f11" id="path2285"/>
    <path d="M398.2 269.5l2 2z" fill="#fdab33" id="path2287"/>
    <path d="M400.2 269.5l2 2z" fill="#fbc477" id="path2289"/>
    <path d="M402.2 269.5l2 2z" fill="#faca88" id="path2291"/>
    <path d="M404.3 269.5l2 2z" fill="#f9d6aa" id="path2293"/>
    <path d="M407.6 270.2l1.4.7-1.3-.7z" fill="#fae3c9" id="path2295"/>
    <path d="M410.4 269.5l2 2z" fill="#fef8f1" id="path2297"/>
    <path d="M416.5 269.5l2 2z" fill="#fbc477" id="path2299"/>
    <path d="M329.2 271.6l2 2z" fill="#fef8f1" id="path2301"/>
    <path d="M331.2 271.6l2 2z" fill="#fcf1e4" id="path2303"/>
    <path d="M384 271.6l2 2z" fill="#fcb755" id="path2305"/>
    <path d="M388 271.6l2 2z" fill="#fbead6" id="path2307"/>
    <path d="M390 271.6l2 2z" fill="#fea522" id="path2309"/>
    <path d="M406.3 271.6l2 2z" fill="#fe9f11" id="path2311"/>
    <path d="M408.3 271.6l-2 4z" fill="#fcb144" id="path2313"/>
    <path d="M412.4 271.6l2 2z" fill="#fe9f11" id="path2315"/>
    <path d="M414.4 271.6l2 2z" fill="#fbbe66" id="path2317"/>
    <path d="M416.5 271.6l2 2z" fill="#fcf1e4" id="path2319"/>
    <path d="M329.2 273.6l2 2z" fill="#fae3c9" id="path2321"/>
    <path d="M331.2 273.6l4 4z" fill="#fe9f11" id="path2323"/>
    <path d="M333.2 273.6l2 2zm18.3 0l2 2z" fill="#fbead6" id="path2325"/>
    <path d="M353.6 273.6l2 2z" fill="#fae3c9" id="path2327"/>
    <path d="M371.8 273.6l2 2z" fill="#fe9f11" id="path2329"/>
    <path d="M373.8 273.6l2 2z" fill="#fbc477" id="path2331"/>
    <path d="M375.9 273.6l2 2z" fill="#fea522" id="path2333"/>
    <path d="M382 273.6l2 2z" fill="#fbc477" id="path2335"/>
    <path d="M384 273.6l2 2z" fill="#fef8f1" id="path2337"/>
    <path d="M392 273.6l2 2z" fill="#fbc477" id="path2339"/>
    <path d="M408.3 273.6l2 2z" fill="#fff" id="path2341"/>
    <path d="M410.4 273.6l2 2z" fill="#fdab33" id="path2343"/>
    <path d="M418.5 273.6l2 2z" fill="#fbc477" id="path2345"/>
    <path d="M329.2 275.6l2 2z" fill="#fef8f1" id="path2347"/>
    <path d="M335.2 275.6l2 2z" fill="#fbead6" id="path2349"/>
    <path d="M345.4 275.6l2 2z" fill="#f9d6aa" id="path2351"/>
    <path d="M355.6 275.6l2 2z" fill="#fe9f11" id="path2353"/>
    <path d="M358.9 276.3l1.4.7z" fill="#f9d6aa" id="path2355"/>
    <path d="M371.8 275.6l2 2z" fill="#f8dcbb" id="path2357"/>
    <path d="M377.9 275.6l2 2z" fill="#fcf1e4" id="path2359"/>
    <path d="M394 275.6l2 2z" fill="#f9d6aa" id="path2361"/>
    <path d="M408.3 275.6l2 2z" fill="#fdab33" id="path2363"/>
    <path d="M420.6 275.6l2 2z" fill="#fcb755" id="path2365"/>
    <path d="M422.6 275.6l2 2z" fill="#fef8f1" id="path2367"/>
    <path d="M312.9 277.7l2 2z" fill="#53527c" id="path2369"/>
    <path d="M331.2 277.7l2 2z" fill="#fcb755" id="path2371"/>
    <path d="M335.2 277.7l2 2z" fill="#fea522" id="path2373"/>
    <path d="M343.4 277.7l2 2z" fill="#fbead6" id="path2375"/>
    <path d="M347.4 277.7l2 2z" fill="#fe9f11" id="path2377"/>
    <path d="M349.5 277.7l2 2z" fill="#fcf1e4" id="path2379"/>
    <path d="M355.6 277.7l2 2z" fill="#fbbe66" id="path2381"/>
    <path d="M357.6 277.7l2 2z" fill="#fbc477" id="path2383"/>
    <path d="M359.6 277.7l2 2z" fill="#fbbe66" id="path2385"/>
    <path d="M369.8 277.7l2 2z" fill="#fea522" id="path2387"/>
    <path d="M396.2 277.7l2 2z" fill="#f9d6aa" id="path2389"/>
    <path d="M422.6 277.7l2 2z" fill="#fcb144" id="path2391"/>
    <path d="M455 277.7l2 2z" fill="#8d8d5b" id="path2393"/>
    <path d="M319 279.7l2 2z" fill="#e5e3af" id="path2395"/>
    <path d="M331.2 279.7l2 2z" fill="#f8dcbb" id="path2397"/>
    <path d="M337.3 279.7l2 2z" fill="#fdab33" id="path2399"/>
    <path d="M343.4 279.7l2 2z" fill="#fe9f11" id="path2401"/>
    <path d="M347.4 279.7l2 2z" fill="#faca88" id="path2403"/>
    <path d="M355.6 279.7l2 2z" fill="#fcf1e4" id="path2405"/>
    <path d="M369.8 279.7l2 2-2-2m28.4 0l2 2z" fill="#f9d099" id="path2407"/>
    <path d="M424.6 279.7l2 2z" fill="#fbbe66" id="path2409"/>
    <path d="M333.2 281.7l2 2z" fill="#fea522" id="path2411"/>
    <path d="M339.3 281.7l2 2z" fill="#fdab33" id="path2413"/>
    <path d="M341.3 281.7l2 2z" fill="#fea522" id="path2415"/>
    <path d="M345.4 281.7l2 2z" fill="#fe9f11" id="path2417"/>
    <path d="M347.4 281.7l2 2z" fill="#fef8f1" id="path2419"/>
    <path d="M357.6 281.7l2 2z" fill="#fbbe66" id="path2421"/>
    <path d="M369.8 281.7l2 2z" fill="#fef8f1" id="path2423"/>
    <path d="M400.2 281.7l2 2z" fill="#fbbe66" id="path2425"/>
    <path d="M426.6 281.7l2 2z" fill="#f9d099" id="path2427"/>
    <path d="M333.2 283.8l2 2z" fill="#f9d6aa" id="path2429"/>
    <path d="M345.4 283.8l2 2z" fill="#f9d099" id="path2431"/>
    <path d="M357.6 283.8l2 2z" fill="#fcf1e4" id="path2433"/>
    <path d="M367.7 283.8l2 2-2-2m34.5 0l2 2z" fill="#fdab33" id="path2435"/>
    <path d="M428.6 283.8l2 2z" fill="#fbead6" id="path2437"/>
    <path d="M335.2 285.8l2 2z" fill="#fea522" id="path2439"/>
    <path d="M343.4 285.8l2 2z" fill="#fe9f11" id="path2441"/>
    <path d="M359.6 285.8l2 2z" fill="#fcb144" id="path2443"/>
    <path d="M367.7 285.8l2 2z" fill="#faca88" id="path2445"/>
    <path d="M402.2 285.8l2 2z" fill="#f8dcbb" id="path2447"/>
    <path d="M428.6 285.8l2 2z" fill="#fcb144" id="path2449"/>
    <path d="M319 287.9l2 2z" fill="#d3d079" id="path2451"/>
    <path d="M335.2 287.9l2 2zm24.4 0l2 2z" fill="#faca88" id="path2453"/>
    <path d="M367.7 287.9l2 2-2-2m34.5 0l2 2z" fill="#fae3c9" id="path2455"/>
    <path d="M430.6 287.9l2 2-2-2z" fill="#f8dcbb" id="path2457"/>
    <path d="M448.9 287.9l2 2z" fill="#f2f1d7" id="path2459"/>
    <path d="M455.7 289.2l.7 1.3z" fill="#58587b" id="path2461"/>
    <path d="M319.6 291.2l.8 1.4-.7-1.4z" fill="#d9d868" id="path2463"/>
    <path d="M335.2 289.9l2 2z" fill="#f8dcbb" id="path2465"/>
    <path d="M400.2 289.9l2 2z" fill="#f9d6aa" id="path2467"/>
    <path d="M402.2 289.9l2 2z" fill="#fe9f11" id="path2469"/>
    <path d="M430.6 289.9l2 2-2-2z" fill="#fcb144" id="path2471"/>
    <path d="M449.6 291.2l.7 1.4z" fill="#f2f1d2" id="path2473"/>
    <path d="M335.2 291.9l2 2z" fill="#fcf1e4" id="path2475"/>
    <path d="M398.2 291.9l2 2z" fill="#fef8f1" id="path2477"/>
    <path d="M400.2 291.9l2 2z" fill="#fe9f11" id="path2479"/>
    <path d="M406.3 291.9l-2 4z" fill="#fdab33" id="path2481"/>
    <path d="M408.3 291.9l2 2z" fill="#fcb755" id="path2483"/>
    <path d="M432.7 291.9l2 2z" fill="#fea522" id="path2485"/>
    <path d="M434.7 291.9l2 2z" fill="#f9d099" id="path2487"/>
    <path d="M455 291.9l2 2z" fill="#53527c" id="path2489"/>
    <path d="M315.6 295.3l.7 1.3z" fill="#808067" id="path2491"/>
    <path d="M337.3 293.9l2 2-2-2m6 0l2 2-2-2z" fill="#fea522" id="path2493"/>
    <path d="M365.7 293.9l2 2z" fill="#fe9f11" id="path2495"/>
    <path d="M398.2 293.9l2 2z" fill="#fae3c9" id="path2497"/>
    <path d="M406.3 293.9l2 2z" fill="#fef8f1" id="path2499"/>
    <path d="M410.4 293.9l2 2z" fill="#fcb144" id="path2501"/>
    <path d="M436.8 293.9l2 2z" fill="#fcb755" id="path2503"/>
    <path d="M438.8 293.9l4 4z" fill="#fef8f1" id="path2505"/>
    <path d="M449.6 295.3l.7 1.3z" fill="#e5e59d" id="path2507"/>
    <path d="M455.7 295.3l.7 1.3z" fill="#32327b" id="path2509"/>
    <path d="M338 297.3l.6 1.4z" fill="#fcb755" id="path2511"/>
    <path d="M345.4 295.9l2 2z" fill="#fef8f1" id="path2513"/>
    <path d="M365.7 295.9l2 2z" fill="#fbbe66" id="path2515"/>
    <path d="M398.2 295.9l2 2z" fill="#fbead6" id="path2517"/>
    <path d="M402.2 295.9l2 2z" fill="#fe9f11" id="path2519"/>
    <path d="M404.3 295.9l2 2z" fill="#fcf1e4" id="path2521"/>
    <path d="M410.4 295.9l2 2z" fill="#fbead6" id="path2523"/>
    <path d="M438.8 295.9l2 2z" fill="#fdab33" id="path2525"/>
    <path d="M315 297.9l2 2-2-2z" fill="#667" id="path2527"/>
    <path d="M321 297.9l2 2-2-2z" fill="#f6f6e4" id="path2529"/>
    <path d="M345.4 297.9l2 2-2-2z" fill="#f9d6aa" id="path2531"/>
    <path d="M361.6 297.9l2 2-2-2z" fill="#fdab33" id="path2533"/>
    <path d="M363.6 297.9l2 2-2-2z" fill="#fe9f11" id="path2535"/>
    <path d="M365.7 297.9l2 2-2-2z" fill="#fcf1e4" id="path2537"/>
    <path d="M400.2 297.9l2 2-2-2z" fill="#fea522" id="path2539"/>
    <path d="M402.2 297.9l2 2-2-2m10.2 0l2 2z" fill="#faca88" id="path2541"/>
    <path d="M440.8 297.9l2 2-2-2z" fill="#fcb144" id="path2543"/>
    <path d="M448.9 297.9l2 2-2-2z" fill="#dddc7a" id="path2545"/>
    <path d="M315 300l2 2z" fill="#58587b" id="path2547"/>
    <path d="M321 300l2 2z" fill="#f2f1d2" id="path2549"/>
    <path d="M338 301.4l.6 1.3z" fill="#fcb144" id="path2551"/>
    <path d="M345.4 300l2 2z" fill="#fea522" id="path2553"/>
    <path d="M365.7 300l2 2z" fill="#fef8f1" id="path2555"/>
    <path d="M367.7 300l2 2z" fill="#fea522" id="path2557"/>
    <path d="M371.8 300l2 2z" fill="#fcb144" id="path2559"/>
    <path d="M373.8 300l2 2z" fill="#fbead6" id="path2561"/>
    <path d="M400.2 300l2 2z" fill="#f8dcbb" id="path2563"/>
    <path d="M402.2 300l2 2z" fill="#fcf1e4" id="path2565"/>
    <path d="M412.4 300l2 2z" fill="#fef8f1" id="path2567"/>
    <path d="M414.4 300l2 2z" fill="#fe9f11" id="path2569"/>
    <path d="M442.9 300l2 2z" fill="#fbead6" id="path2571"/>
    <path d="M448.9 300l2 2z" fill="#d9d868" id="path2573"/>
    <path d="M315 302l2 2z" fill="#3a3a7c" id="path2575"/>
    <path d="M321 302l2 2z" fill="#e5e3af" id="path2577"/>
    <path d="M347.4 302l2 2z" fill="#faca88" id="path2579"/>
    <path d="M367.7 302l2 2z" fill="#fbead6" id="path2581"/>
    <path d="M373.8 302l2 2z" fill="#fe9f11" id="path2583"/>
    <path d="M375.9 302l2 2z" fill="#fcf1e4" id="path2585"/>
    <path d="M398.2 302l2 2z" fill="#fbead6" id="path2587"/>
    <path d="M400.2 302l2 2z" fill="#fae3c9" id="path2589"/>
    <path d="M402.2 302l2 2z" fill="#fbead6" id="path2591"/>
    <path d="M414.4 302l2 2-2-2m16.3 0l2 2z" fill="#fbbe66" id="path2593"/>
    <path d="M432.7 302l2 2z" fill="#fcf1e4" id="path2595"/>
    <path d="M434.7 302l2 2z" fill="#fef8f1" id="path2597"/>
    <path d="M436.8 302l2 2z" fill="#f8dcbb" id="path2599"/>
    <path d="M438.8 302l2 2z" fill="#fcb755" id="path2601"/>
    <path d="M442.9 302l2 2z" fill="#fae3c9" id="path2603"/>
    <path d="M453 302l2 2z" fill="#808067" id="path2605"/>
    <path d="M315 304l2 2z" fill="#32327b" id="path2607"/>
    <path d="M317.6 305.4l.7 1.4-.6-1.4z" fill="#a4a43d" id="path2609"/>
    <path d="M321 304l2 2z" fill="#e5e59d" id="path2611"/>
    <path d="M337.3 304l2 2z" fill="#fbc477" id="path2613"/>
    <path d="M349.5 304l2 2z" fill="#f9d6aa" id="path2615"/>
    <path d="M369.8 304l2 2z" fill="#fbbe66" id="path2617"/>
    <path d="M375.9 304l2 2z" fill="#f9d099" id="path2619"/>
    <path d="M394 304l2 2z" fill="#fae3c9" id="path2621"/>
    <path d="M396.2 304l2 2z" fill="#fcb144" id="path2623"/>
    <path d="M404.3 304l2 2z" fill="#fae3c9" id="path2625"/>
    <path d="M414.4 304l2 2z" fill="#f8dcbb" id="path2627"/>
    <path d="M430.6 304l2 2-2-2z" fill="#f9d099" id="path2629"/>
    <path d="M440.8 304l2 2z" fill="#fbc477" id="path2631"/>
    <path d="M442.9 304l2 2z" fill="#fbead6" id="path2633"/>
    <path d="M453 304l2 2z" fill="#737370" id="path2635"/>
    <path d="M321 306l2 2z" fill="#d9d868" id="path2637"/>
    <path d="M337.3 306l2 2z" fill="#f9d099" id="path2639"/>
    <path d="M351.5 306l2 2-2-2m18.3 0l2 2z" fill="#f9d6aa" id="path2641"/>
    <path d="M375.9 306l2 2z" fill="#fbc477" id="path2643"/>
    <path d="M386 306l2 2z" fill="#fef8f1" id="path2645"/>
    <path d="M388 306l2 2z" fill="#f8dcbb" id="path2647"/>
    <path d="M390 306l2 2z" fill="#fbc477" id="path2649"/>
    <path d="M392 306l2 2z" fill="#fea522" id="path2651"/>
    <path d="M404.3 306l2 2z" fill="#fbead6" id="path2653"/>
    <path d="M446.9 306l2 2z" fill="#f2f1d2" id="path2655"/>
    <path d="M453 306l2 2z" fill="#58587b" id="path2657"/>
    <path d="M317 308l2 2z" fill="#99994e" id="path2659"/>
    <path d="M321 308l2 2z" fill="#d0d045" id="path2661"/>
    <path d="M353.6 308l2 2z" fill="#fcb144" id="path2663"/>
    <path d="M355.6 308l2 2z" fill="#fae3c9" id="path2665"/>
    <path d="M369.8 308l2 2z" fill="#fef8f1" id="path2667"/>
    <path d="M377.9 308l2 2z" fill="#fcb755" id="path2669"/>
    <path d="M379.9 308l2 2z" fill="#fbc477" id="path2671"/>
    <path d="M382 308l2 2z" fill="#fcb144" id="path2673"/>
    <path d="M384 308l2 2z" fill="#fea522" id="path2675"/>
    <path d="M400.2 308l2 2z" fill="#fe9f11" id="path2677"/>
    <path d="M402.2 308l2 2z" fill="#f9d6aa" id="path2679"/>
    <path d="M430.6 308l2 2-2-2z" fill="#fef8f1" id="path2681"/>
    <path d="M446.9 308l2 2z" fill="#e0dea1" id="path2683"/>
    <path d="M453 308l2 2z" fill="#3a3a7c" id="path2685"/>
    <path d="M317 310.2l2 2z" fill="#737370" id="path2687"/>
    <path d="M323 310.2l2 2z" fill="#fbfaf2" id="path2689"/>
    <path d="M339.3 310.2l2 2z" fill="#fea522" id="path2691"/>
    <path d="M357.6 310.2l2 2z" fill="#fe9f11" id="path2693"/>
    <path d="M359.6 310.2l2 2z" fill="#fcb144" id="path2695"/>
    <path d="M361.6 310.2l2 2z" fill="#fbc477" id="path2697"/>
    <path d="M363.6 310.2l2 2-2-2z" fill="#faca88" id="path2699"/>
    <path d="M365.7 310.2l2 2z" fill="#fbc477" id="path2701"/>
    <path d="M367.7 310.2l2 2z" fill="#fcb144" id="path2703"/>
    <path d="M369.8 310.2l2 2z" fill="#fdab33" id="path2705"/>
    <path d="M398.2 310.2l2 2z" fill="#fbc477" id="path2707"/>
    <path d="M400.2 310.2l2 2z" fill="#fef8f1" id="path2709"/>
    <path d="M428.6 310.2l2 2z" fill="#fdab33" id="path2711"/>
    <path d="M446.9 310.2l2 2z" fill="#e1e18c" id="path2713"/>
    <path d="M451.6 311.5l.7 1.4z" fill="#a4a43d" id="path2715"/>
    <path d="M453 310.2l2 2z" fill="#262678" id="path2717"/>
    <path d="M317 312.2l2 2z" fill="#58587b" id="path2719"/>
    <path d="M323 312.2l2 2z" fill="#f2f1d2" id="path2721"/>
    <path d="M339.3 312.2l2 2z" fill="#faca88" id="path2723"/>
    <path d="M394 312.2l2 2z" fill="#fe9f11" id="path2725"/>
    <path d="M396.2 312.2l2 2z" fill="#fbead6" id="path2727"/>
    <path d="M414.4 312.2l2 2z" fill="#fbc477" id="path2729"/>
    <path d="M428.6 312.2l2 2z" fill="#faca88" id="path2731"/>
    <path d="M446.9 312.2l2 2z" fill="#d4d456" id="path2733"/>
    <path d="M317 314.2l2 2z" fill="#32327b" id="path2735"/>
    <path d="M323 314.2l2 2z" fill="#e5e59d" id="path2737"/>
    <path d="M339.3 314.2l2 2z" fill="#fef8f1" id="path2739"/>
    <path d="M341.3 314.2l2 2z" fill="#fe9f11" id="path2741"/>
    <path d="M394 314.2l2 2z" fill="#fbead6" id="path2743"/>
    <path d="M414.4 314.2l2 2z" fill="#fea522" id="path2745"/>
    <path d="M428.6 314.2l2 2z" fill="#fcf1e4" id="path2747"/>
    <path d="M451 314.2l2 2z" fill="#808067" id="path2749"/>
    <path d="M317 316.2l2 2z" fill="#0e0e6e" id="path2751"/>
    <path d="M319 316.2l2 2z" fill="#a4a43d" id="path2753"/>
    <path d="M323 316.2l2 2z" fill="#d9d868" id="path2755"/>
    <path d="M341.3 316.2l2 2z" fill="#f8dcbb" id="path2757"/>
    <path d="M412.4 316.2l2 2z" fill="#f9d6aa" id="path2759"/>
    <path d="M426.6 316.2l2 2z" fill="#faca88" id="path2761"/>
    <path d="M444.9 316.2l2 2z" fill="#f2f1d2" id="path2763"/>
    <path d="M451 316.2l2 2z" fill="#58587b" id="path2765"/>
    <path d="M319 318.3l2 2z" fill="#8d8d5b" id="path2767"/>
    <path d="M343.4 318.3l2 2z" fill="#f9d6aa" id="path2769"/>
    <path d="M384 318.3l2 2z" fill="#fdab33" id="path2771"/>
    <path d="M386 318.3l2 2z" fill="#fff" id="path2773"/>
    <path d="M389.4 318.9l1.4.7z" fill="#fcb144" id="path2775"/>
    <path d="M410.4 318.3l-2 4z" fill="#fef8f1" id="path2777"/>
    <path d="M412.4 318.3l2 2z" fill="#fe9f11" id="path2779"/>
    <path d="M424.6 318.3l-2 4z" fill="#fdab33" id="path2781"/>
    <path d="M444.9 318.3l2 2z" fill="#e5e59d" id="path2783"/>
    <path d="M451 318.3l2 2z" fill="#3a3a7c" id="path2785"/>
    <path d="M319 320.3l2 2z" fill="#667" id="path2787"/>
    <path d="M325 320.3l2 2z" fill="#f2f1d2" id="path2789"/>
    <path d="M345.4 320.3l2 2z" fill="#f9d6aa" id="path2791"/>
    <path d="M384 320.3l2 2z" fill="#fe9f11" id="path2793"/>
    <path d="M386 320.3l2 2z" fill="#faca88" id="path2795"/>
    <path d="M388 320.3l2 2z" fill="#fea522" id="path2797"/>
    <path d="M390 320.3l2 2z" fill="#fcf1e4" id="path2799"/>
    <path d="M410.4 320.3l2 2z" fill="#fdab33" id="path2801"/>
    <path d="M424.6 320.3l2 2z" fill="#fef8f1" id="path2803"/>
    <path d="M444.9 320.3l2 2z" fill="#d9d868" id="path2805"/>
    <path d="M448.9 320.3l2 2z" fill="#a4a43d" id="path2807"/>
    <path d="M451 320.3l2 2z" fill="#0e0e6e" id="path2809"/>
    <path d="M319 322.3l2 2z" fill="#3a3a7c" id="path2811"/>
    <path d="M325 322.3l2 2z" fill="#e5e59d" id="path2813"/>
    <path d="M347.4 322.3l4 4z" fill="#fae3c9" id="path2815"/>
    <path d="M349.5 322.3l2 2z" fill="#fe9f11" id="path2817"/>
    <path d="M388 322.3l2 2z" fill="#f8dcbb" id="path2819"/>
    <path d="M406.3 322.3l2 2z" fill="#fcf1e4" id="path2821"/>
    <path d="M408.3 322.3l2 2z" fill="#fdab33" id="path2823"/>
    <path d="M420.6 322.3l2 2z" fill="#fcb144" id="path2825"/>
    <path d="M422.6 322.3l2 2z" fill="#fef8f1" id="path2827"/>
    <path d="M442.9 322.3l2 2z" fill="#fbfaf2" id="path2829"/>
    <path d="M448.9 322.3l2 2z" fill="#8d8d5b" id="path2831"/>
    <path d="M319 324.4l2 2z" fill="#0e0e6e" id="path2833"/>
    <path d="M321 324.4l2 2z" fill="#a4a43d" id="path2835"/>
    <path d="M325 324.4l2 2z" fill="#d4d456" id="path2837"/>
    <path d="M386 324.4l2 2z" fill="#f9d6aa" id="path2839"/>
    <path d="M404.3 324.4l2 2z" fill="#f9d099" id="path2841"/>
    <path d="M406.3 324.4l2 2z" fill="#fe9f11" id="path2843"/>
    <path d="M418.5 324.4l2 2z" fill="#faca88" id="path2845"/>
    <path d="M442.9 324.4l2 2z" fill="#eeedc1" id="path2847"/>
    <path d="M448.9 324.4l2 2z" fill="#58587b" id="path2849"/>
    <path d="M321 326.4l2 2z" fill="#737370" id="path2851"/>
    <path d="M327 326.4l2 2z" fill="#f6f6e4" id="path2853"/>
    <path d="M349.5 326.4l2 2z" fill="#fbbe66" id="path2855"/>
    <path d="M382 326.4l2 2z" fill="#fcb144" id="path2857"/>
    <path d="M384.6 327.8l.7 1.3z" fill="#f8dcbb" id="path2859"/>
    <path d="M400.2 326.4l2 2z" fill="#fbbe66" id="path2861"/>
    <path d="M402.2 326.4l2 2z" fill="#fe9f11" id="path2863"/>
    <path d="M414.4 326.4l2 2z" fill="#fbc477" id="path2865"/>
    <path d="M416.5 326.4l2 2z" fill="#fcf1e4" id="path2867"/>
    <path d="M442.9 326.4l2 2z" fill="#d3d079" id="path2869"/>
    <path d="M446.9 326.4l2 2z" fill="#a4a43d" id="path2871"/>
    <path d="M448.9 326.4l2 2z" fill="#262678" id="path2873"/>
    <path d="M321 328.4l2 2z" fill="#49497d" id="path2875"/>
    <path d="M327 328.4l2 2z" fill="#e0dea1" id="path2877"/>
    <path d="M347.4 328.4l2 2z" fill="#fae3c9" id="path2879"/>
    <path d="M375.9 328.4l2 2z" fill="#fdab33" id="path2881"/>
    <path d="M377.9 328.4l2 2z" fill="#fbc477" id="path2883"/>
    <path d="M379.9 328.4l2 2z" fill="#fbead6" id="path2885"/>
    <path d="M386 328.4l2 2z" fill="#fcb144" id="path2887"/>
    <path d="M412.4 328.4l2 2z" fill="#f9d6aa" id="path2889"/>
    <path d="M446.9 328.4l2 2z" fill="#99994e" id="path2891"/>
    <path d="M321 330.5l2 2z" fill="#0e0e6e" id="path2893"/>
    <path d="M323 330.5l2 2z" fill="#a4a43d" id="path2895"/>
    <path d="M327 330.5l2 2z" fill="#d4d456" id="path2897"/>
    <path d="M345.4 330.5l2 2z" fill="#f9d099" id="path2899"/>
    <path d="M347.4 330.5l2 2-2-2m10.2 0l2 2z" fill="#fe9f11" id="path2901"/>
    <path d="M359.6 330.5l2 2z" fill="#f9d6aa" id="path2903"/>
    <path d="M361.6 330.5l2 2z" fill="#f9d099" id="path2905"/>
    <path d="M369.8 330.5l2 2z" fill="#f9d6aa" id="path2907"/>
    <path d="M371.8 330.5l2 2z" fill="#fae3c9" id="path2909"/>
    <path d="M373.8 330.5l2 2z" fill="#fef8f1" id="path2911"/>
    <path d="M390 330.5l2 2z" fill="#fbead6" id="path2913"/>
    <path d="M392 330.5l2 2z" fill="#fae3c9" id="path2915"/>
    <path d="M394 330.5l2 2z" fill="#faca88" id="path2917"/>
    <path d="M396.2 330.5l2 2z" fill="#fbc477" id="path2919"/>
    <path d="M398.2 330.5l2 2z" fill="#fdab33" id="path2921"/>
    <path d="M408.3 330.5l2 2z" fill="#fe9f11" id="path2923"/>
    <path d="M410.4 330.5l2 2z" fill="#f9d6aa" id="path2925"/>
    <path d="M440.8 330.5l2 2z" fill="#e5e3af" id="path2927"/>
    <path d="M446.9 330.5l2 2z" fill="#667" id="path2929"/>
    <path d="M323 332.5l2 2z" fill="#737370" id="path2931"/>
    <path d="M329.2 332.5l2 2z" fill="#f2f1d7" id="path2933"/>
    <path d="M343.4 332.5l2 2z" fill="#fea522" id="path2935"/>
    <path d="M353.6 332.5l2 2z" fill="#fe9f11" id="path2937"/>
    <path d="M355.6 332.5l2 2z" fill="#fbbe66" id="path2939"/>
    <path d="M357.6 332.5l2 2z" fill="#fcf1e4" id="path2941"/>
    <path d="M406.3 332.5l2 2z" fill="#fea522" id="path2943"/>
    <path d="M408.3 332.5l2 2z" fill="#fbead6" id="path2945"/>
    <path d="M440.8 332.5l2 2z" fill="#dddc7a" id="path2947"/>
    <path d="M444.9 332.5l2 2z" fill="#a4a43d" id="path2949"/>
    <path d="M446.9 332.5l2 2z" fill="#262678" id="path2951"/>
    <path d="M323 334.5l2 2z" fill="#49497d" id="path2953"/>
    <path d="M325.8 335.9l.7 1.3z" fill="#a4a43d" id="path2955"/>
    <path d="M329.2 334.5l2 2z" fill="#d3d079" id="path2957"/>
    <path d="M345.4 334.5l2 2z" fill="#f9d099" id="path2959"/>
    <path d="M347.4 334.5l2 2z" fill="#fcb144" id="path2961"/>
    <path d="M349.5 334.5l2 2z" fill="#faca88" id="path2963"/>
    <path d="M351.5 334.5l2 2z" fill="#f8dcbb" id="path2965"/>
    <path d="M353.6 334.5l2 2z" fill="#fef8f1" id="path2967"/>
    <path d="M398.2 334.5l2 2z" fill="#f8dcbb" id="path2969"/>
    <path d="M406.3 334.5l2 2z" fill="#fcf1e4" id="path2971"/>
    <path d="M438.8 334.5l2 2z" fill="#f6f6e4" id="path2973"/>
    <path d="M444.9 334.5l2 2z" fill="#8d8d5b" id="path2975"/>
    <path d="M331.2 336.5l2 2z" fill="#fbfaf2" id="path2977"/>
    <path d="M398.2 336.5l2 2z" fill="#fbbe66" id="path2979"/>
    <path d="M404.3 336.5l2 2z" fill="#faca88" id="path2981"/>
    <path d="M438.8 336.5l2 2z" fill="#e1e18c" id="path2983"/>
    <path d="M444.9 336.5l2 2z" fill="#49497d" id="path2985"/>
    <path d="M325 338.6l2 2z" fill="#58587b" id="path2987"/>
    <path d="M331.2 338.6l2 2z" fill="#e5e59d" id="path2989"/>
    <path d="M398.2 338.6l2 2z" fill="#fe9f11" id="path2991"/>
    <path d="M402.2 338.6l2 2z" fill="#fdab33" id="path2993"/>
    <path d="M436.8 338.6l2 2z" fill="#fbfaf2" id="path2995"/>
    <path d="M442.9 338.6l2 2z" fill="#a4a43d" id="path2997"/>
    <path d="M444.9 338.6l2 2z" fill="#0e0e6e" id="path2999"/>
    <path d="M325 340.6l2 2z" fill="#1b1b74" id="path3001"/>
    <path d="M327 340.6l2 2z" fill="#a4a43d" id="path3003"/>
    <path d="M331.2 340.6l2 2z" fill="#d0d045" id="path3005"/>
    <path d="M396.2 340.6l2 2z" fill="#fbead6" id="path3007"/>
    <path d="M400.2 340.6l2 2z" fill="#fe9f11" id="path3009"/>
    <path d="M402.2 340.6l2 2z" fill="#fbead6" id="path3011"/>
    <path d="M436.8 340.6l2 2z" fill="#e5e59d" id="path3013"/>
    <path d="M442.9 340.6l2 2z" fill="#667" id="path3015"/>
    <path d="M327 342.6l2 2z" fill="#6e6c70" id="path3017"/>
    <path d="M333.2 342.6l2 2z" fill="#e5e3af" id="path3019"/>
    <path d="M396.8 344l.7 1.4z" fill="#faca88" id="path3021"/>
    <path d="M400.2 342.6l2 2z" fill="#fae3c9" id="path3023"/>
    <path d="M434.7 342.6l2 2z" fill="#fbfaf2" id="path3025"/>
    <path d="M440.8 342.6l2 2z" fill="#a4a43d" id="path3027"/>
    <path d="M442.9 342.6l2 2-2-2m-115.8 2l2 2z" fill="#1b1b74" id="path3029"/>
    <path d="M329.2 344.7l2 2z" fill="#a4a43d" id="path3031"/>
    <path d="M333.2 344.7l2 2z" fill="#d0d045" id="path3033"/>
    <path d="M335.2 344.7l2 2z" fill="#fbfaf2" id="path3035"/>
    <path d="M398.2 344.7l2 2z" fill="#f9d6aa" id="path3037"/>
    <path d="M434.7 344.7l2 2z" fill="#e5e59d" id="path3039"/>
    <path d="M440.8 344.7l2 2-2-2m-111.6 2l2 2z" fill="#6e6c70" id="path3041"/>
    <path d="M335.2 346.7l2 2z" fill="#8cbf84" id="path3043"/>
    <path d="M336 346.7c7 14.8 32 49.8 51 49.2 18.7-.7 39.6-35 47.7-49.2z" fill="#0cf" id="path3045"/>
    <path d="M438.8 346.7l2 2z" fill="#a4a43d" id="path3047"/>
    <path d="M440.8 346.7l2 2-2-2m-111.6 2l2 2z" fill="#1b1b74" id="path3049"/>
    <path d="M331.2 348.7l2 2z" fill="#a4a43d" id="path3051"/>
    <path d="M335.2 348.7l2 2z" fill="#adb333" id="path3053"/>
    <path d="M337.3 348.7l2 2z" fill="#1ac5b5" id="path3055"/>
    <path d="M432.7 348.7l2 2z" fill="#68b070" id="path3057"/>
    <path d="M438.8 348.7l2 2z" fill="#667" id="path3059"/>
    <path d="M331.2 350.8l2 2z" fill="#58587b" id="path3061"/>
    <path d="M337.3 350.8l2 2z" fill="#7fb15c" id="path3063"/>
    <path d="M430.6 350.8l2 2-2-2z" fill="#27c2aa" id="path3065"/>
    <path d="M436.8 350.8l-2 4z" fill="#a4a43d" id="path3067"/>
    <path d="M438.8 350.8l2 2-2-2m-107.6 2l2 2z" fill="#0e0e6e" id="path3069"/>
    <path d="M333.2 352.8l4 4z" fill="#a4a43d" id="path3071"/>
    <path d="M339.3 352.8l2 2z" fill="#34be9e" id="path3073"/>
    <path d="M430.6 352.8l2 2-2-2z" fill="#96b247" id="path3075"/>
    <path d="M436.8 352.8l2 2z" fill="#53527c" id="path3077"/>
    <path d="M333.2 354.9l2 2z" fill="#3a3a7c" id="path3079"/>
    <path d="M339.3 354.9l2 2z" fill="#a2b23d" id="path3081"/>
    <path d="M341.3 354.9l2 2z" fill="#0dc9c1" id="path3083"/>
    <path d="M428.6 354.9l2 2z" fill="#5bb47c" id="path3085"/>
    <path d="M434.7 354.9l2 2z" fill="#8d8d5b" id="path3087"/>
    <path d="M335.2 356.9l2 2z" fill="#737370" id="path3089"/>
    <path d="M341.3 356.9l2 2z" fill="#74b166" id="path3091"/>
    <path d="M426.6 356.9l2 2z" fill="#27c2aa" id="path3093"/>
    <path d="M432.7 356.9l-2 4z" fill="#a4a43d" id="path3095"/>
    <path d="M434.7 356.9l2 2z" fill="#262678" id="path3097"/>
    <path d="M335.2 358.9l2 2z" fill="#0e0e6e" id="path3099"/>
    <path d="M337.3 358.9l4 4z" fill="#a4a43d" id="path3101"/>
    <path d="M343.4 358.9l2 2z" fill="#42bb92" id="path3103"/>
    <path d="M424.6 358.9l2 2z" fill="#0dc9c1" id="path3105"/>
    <path d="M426.6 358.9l2 2z" fill="#96b247" id="path3107"/>
    <path d="M432.7 358.9l2 2z" fill="#58587b" id="path3109"/>
    <path d="M337.3 360.9l2 2z" fill="#3a3a7c" id="path3111"/>
    <path d="M343.4 360.9l2 2z" fill="#adb333" id="path3113"/>
    <path d="M345.4 360.9l2 2z" fill="#27c2aa" id="path3115"/>
    <path d="M424.6 360.9l2 2z" fill="#74b166" id="path3117"/>
    <path d="M430.6 360.9l2 2-2-2z" fill="#8d8d5b" id="path3119"/>
    <path d="M339.3 362.9l2 2z" fill="#6e6c70" id="path3121"/>
    <path d="M345.4 362.9l2 2z" fill="#96b247" id="path3123"/>
    <path d="M347.4 362.9l2 2z" fill="#0dc9c1" id="path3125"/>
    <path d="M422.6 362.9l2 2z" fill="#42bb92" id="path3127"/>
    <path d="M428.6 362.9l-4 6 4-6z" fill="#a4a43d" id="path3129"/>
    <path d="M430.6 362.9l2 2-2-2z" fill="#1b1b74" id="path3131"/>
    <path d="M339.3 364.9l2 2-2-2z" fill="#0e0e6e" id="path3133"/>
    <path d="M341.3 364.9l2 2-2-2z" fill="#8d8d5b" id="path3135"/>
    <path d="M347.4 364.9l2 2-2-2z" fill="#7fb15c" id="path3137"/>
    <path d="M420.6 364.9l2 2-2-2z" fill="#34be9e" id="path3139"/>
    <path d="M428.6 364.9l2 2-2-2z" fill="#3a3a7c" id="path3141"/>
    <path d="M341.3 367l2 2z" fill="#1b1b74" id="path3143"/>
    <path d="M343.4 367l22.3 22.3z" fill="#a4a43d" id="path3145"/>
    <path d="M349.5 367l2 2z" fill="#74b166" id="path3147"/>
    <path d="M418.5 367l2 2z" fill="#27c2aa" id="path3149"/>
    <path d="M420.6 367l2 2z" fill="#adb333" id="path3151"/>
    <path d="M426.6 367l2 2z" fill="#667" id="path3153"/>
    <path d="M343.4 369l2 2z" fill="#32327b" id="path3155"/>
    <path d="M351.5 369l2 2z" fill="#42bb92" id="path3157"/>
    <path d="M416.5 369l-8.2 10.2 8.3-10.3z" fill="#0dc9c1" id="path3159"/>
    <path d="M418.5 369l2 2z" fill="#adb333" id="path3161"/>
    <path d="M424.6 369l2 2z" fill="#737370" id="path3163"/>
    <path d="M345.4 371l2 2z" fill="#49497d" id="path3165"/>
    <path d="M353.6 371l2 2z" fill="#42bb92" id="path3167"/>
    <path d="M416.5 371l2 2z" fill="#96b247" id="path3169"/>
    <path d="M422.6 371l-2 4z" fill="#8d8d5b" id="path3171"/>
    <path d="M424.6 371l2 2z" fill="#0e0e6e" id="path3173"/>
    <path d="M347.4 373l2 2z" fill="#53527c" id="path3175"/>
    <path d="M355.6 373l2 2z" fill="#42bb92" id="path3177"/>
    <path d="M414.4 373l2 2z" fill="#96b247" id="path3179"/>
    <path d="M422.6 373l2 2z" fill="#0e0e6e" id="path3181"/>
    <path d="M349.5 375l2 2z" fill="#6e6c70" id="path3183"/>
    <path d="M357.6 375l2 2z" fill="#42bb92" id="path3185"/>
    <path d="M412.4 375l2 2z" fill="#96b247" id="path3187"/>
    <path d="M418.5 375l-4 6.2 4-6z" fill="#a4a43d" id="path3189"/>
    <path d="M420.6 375l2 2z" fill="#262678" id="path3191"/>
    <path d="M351.5 377.2l2 2z" fill="#6e6c70" id="path3193"/>
    <path d="M359.6 377.2l2 2z" fill="#42bb92" id="path3195"/>
    <path d="M410.4 377.2l2 2z" fill="#96b247" id="path3197"/>
    <path d="M418.5 377.2l2 2z" fill="#262678" id="path3199"/>
    <path d="M353.6 379.2l2 2z" fill="#6e6c70" id="path3201"/>
    <path d="M361.6 379.2l2 2z" fill="#68b070" id="path3203"/>
    <path d="M406.3 379.2l2 2z" fill="#27c2aa" id="path3205"/>
    <path d="M408.3 379.2l2 2z" fill="#adb333" id="path3207"/>
    <path d="M416.5 379.2l2 2z" fill="#262678" id="path3209"/>
    <path d="M355.6 381.2l2 2z" fill="#667" id="path3211"/>
    <path d="M363.6 381.2l2 2-2-2z" fill="#74b166" id="path3213"/>
    <path d="M404.3 381.2l2 2z" fill="#34be9e" id="path3215"/>
    <path d="M406.3 381.2l2 2z" fill="#adb333" id="path3217"/>
    <path d="M412.4 381.2l-2 4z" fill="#8d8d5b" id="path3219"/>
    <path d="M414.4 381.2l2 2z" fill="#262678" id="path3221"/>
    <path d="M357.6 383.2l2 2z" fill="#49497d" id="path3223"/>
    <path d="M365.7 383.2l2 2z" fill="#96b247" id="path3225"/>
    <path d="M367.7 383.2l2 2z" fill="#0dc9c1" id="path3227"/>
    <path d="M402.2 383.2l2 2z" fill="#42bb92" id="path3229"/>
    <path d="M412.4 383.2l2 2z" fill="#0e0e6e" id="path3231"/>
    <path d="M359.6 385.3l2 2z" fill="#49497d" id="path3233"/>
    <path d="M367.7 385.3l2 2z" fill="#a2b23d" id="path3235"/>
    <path d="M369.8 385.3l2 2z" fill="#27c2aa" id="path3237"/>
    <path d="M400.2 385.3l2 2z" fill="#74b166" id="path3239"/>
    <path d="M406.3 385.3l-6 8z" fill="#a4a43d" id="path3241"/>
    <path d="M408.3 385.3l2 2z" fill="#808067" id="path3243"/>
    <path d="M410.4 385.3l2 2z" fill="#0e0e6e" id="path3245"/>
    <path d="M361.6 387.3l2 2z" fill="#262678" id="path3247"/>
    <path d="M369.8 387.3l2 2z" fill="#adb333" id="path3249"/>
    <path d="M371.8 387.3l2 2z" fill="#42bb92" id="path3251"/>
    <path d="M396.2 387.3l2 2z" fill="#0dc9c1" id="path3253"/>
    <path d="M398.2 387.3l2 2z" fill="#96b247" id="path3255"/>
    <path d="M406.3 387.3l2 2z" fill="#6e6c70" id="path3257"/>
    <path d="M363.6 389.3l2 2-2-2z" fill="#1b1b74" id="path3259"/>
    <path d="M365.7 389.3l2 2z" fill="#8d8d5b" id="path3261"/>
    <path d="M373.8 389.3l2 2z" fill="#74b166" id="path3263"/>
    <path d="M375.9 389.3l2 2z" fill="#0dc9c1" id="path3265"/>
    <path d="M394 389.3l2 2z" fill="#34be9e" id="path3267"/>
    <path d="M396.2 389.3l2 2z" fill="#adb333" id="path3269"/>
    <path d="M404.3 389.3l2 2z" fill="#49497d" id="path3271"/>
    <path d="M365.7 391.4l2 2z" fill="#0e0e6e" id="path3273"/>
    <path d="M367.7 391.4l2 2z" fill="#6e6c70" id="path3275"/>
    <path d="M369.8 391.4l4 4z" fill="#a4a43d" id="path3277"/>
    <path d="M375.9 391.4l2 2z" fill="#96b247" id="path3279"/>
    <path d="M377.9 391.4l2 2z" fill="#27c2aa" id="path3281"/>
    <path d="M392 391.4l2 2z" fill="#68b070" id="path3283"/>
    <path d="M402.2 391.4l2 2z" fill="#32327b" id="path3285"/>
    <path d="M369.8 393.4l2 2z" fill="#49497d" id="path3287"/>
    <path d="M379.9 393.4l2 2z" fill="#5bb47c" id="path3289"/>
    <path d="M388 393.4l2 2z" fill="#27c2aa" id="path3291"/>
    <path d="M390 393.4l2 2z" fill="#96b247" id="path3293"/>
    <path d="M396.2 393.4l-2 4z" fill="#a4a43d" id="path3295"/>
    <path d="M398.2 393.4l2 2z" fill="#808067" id="path3297"/>
    <path d="M400.2 393.4l2 2z" fill="#0e0e6e" id="path3299"/>
    <path d="M371.8 395.4l2 2z" fill="#262678" id="path3301"/>
    <path d="M373.8 395.4l2 2z" fill="#8d8d5b" id="path3303"/>
    <path d="M382 395.4l2 2z" fill="#8bb252" id="path3305"/>
    <path d="M384 395.4l2 2z" fill="#1ac5b5" id="path3307"/>
    <path d="M386 395.4l2 2z" fill="#5bb47c" id="path3309"/>
    <path d="M396.2 395.4l2 2z" fill="#58587b" id="path3311"/>
    <path d="M373.8 397.5l2 2z" fill="#0e0e6e" id="path3313"/>
    <path d="M375.9 397.5l2 2z" fill="#667" id="path3315"/>
    <path d="M377.9 397.5l2 2z" fill="#a4a43d" id="path3317"/>
    <path d="M392 397.5l2 2z" fill="#99994e" id="path3319"/>
    <path d="M394 397.5l2 2-2-2m-16.1 2l2 2z" fill="#32327b" id="path3321"/>
    <path d="M379.9 399.5l2 2z" fill="#99994e" id="path3323"/>
    <path d="M388 399.5l2 2z" fill="#a4a43d" id="path3325"/>
    <path d="M390 399.5l2 2z" fill="#667" id="path3327"/>
    <path d="M392 399.5l2 2-2-2m-12.1 2l2 2z" fill="#0e0e6e" id="path3329"/>
    <path d="M382 401.5l2 2z" fill="#667" id="path3331"/>
    <path d="M384 401.5l2 2z" fill="#a4a43d" id="path3333"/>
    <path d="M386 401.5l2 2z" fill="#99994e" id="path3335"/>
    <path d="M388 401.5l2 2z" fill="#32327b" id="path3337"/>
    <path d="M384 403.5l2 2z" fill="#262678" id="path3339"/>
    <path d="M386 403.5l2 2z" fill="#0e0e6e" id="path3341"/>
    <path d="M388 267.5c3.2 7.4 13.2 15.5 16 19.5-3.5 4-4.2 3.6-3.8 11 6-6.4 6.2-7 10.2-6.1 8.6 8.6 1.5 27-5.6 31-7.1 4.3-5.8-.1-16.5 5.2 4.9 4.2 10.6-.6 15.2.7 2.5 3-1.2 8.4.7 13.6 4-.4 3.6-8.7 4.6-11.7 3-11 21-18.6 21.9-28.7 3.8-1.7 7.5-.5 12 2-2.2-9.4-9.7-9.3-11.8-12.2-4.8-7.4-9.1-15.8-19.4-18-8-1.7-7.3.5-12.3-3-3.2-2.4-12.7-7-11.2-3.3z" fill="#f90"
          id="path3343"/>
    <path d="M410.6 275.9a1.6 1.6 0 11-3.3 0 1.6 1.6 0 013.3 0z" fill="#fff" fill-rule="evenodd" id="path3345"/>
    <path d="M362.9 298.8c5-6.2 7.6-19 9.8-23.2 5.2 1.2 5 2 11.5-1.8-8.5-2.4-9.2-2.2-10.2-6.1 3.6-11.7 23.2-14 30-9.6 7.2 4.3 2.7 5.2 12.4 12 1.4-6.2-5.5-9-6.5-13.6 1.5-3.7 8-3 11.6-7-2.2-3.5-9.3.8-12.4 1.4-11 2.5-26.3-9.8-35.6-6-3.3-2.5-4-6.4-4-11.7-7.1 6.5-3.5 13-5.2 16.3-4.2 7.7-9.7 15.5-6.8 25.6 2.2 7.8 3.8 6.2 3.2 12.3-.7 3.9-.4 14.5 2.2 11.4z" fill="#f90"
          id="path3347"/>
    <path d="M359.8 274.9c.8-.4 1.8-.1 2.2.7a1.6 1.6 0 11-2.2-.7z" fill="#fff" fill-rule="evenodd" id="path3349"/>
    <path d="M404 303c-8-1-20.1 3.4-25 3.8-1.5-5.1-.8-5.5-7.4-9 2.3 8.6 2.8 9 0 12-11.8 2.9-24-12.7-23.8-20.8 0-8.3 3.2-5 4-17-6 2-4.8 9.5-8.3 12.8-4 .6-6.6-5.3-12-6.3-1.8 3.7 5.5 7.5 7.6 9.9 7.9 8.2 5.2 27.5 13.3 33.5-.4 4.2-3.4 6.8-8 9.4 9.3 2.9 13-3.7 16.7-4 8.8-.2 18.3.4 25.5-7.3 5.4-6 3.3-6.5 8.8-9 3.7-1.4 12.6-7.2 8.6-8z" fill="#f90"
          id="path3351"/>
    <path d="M385.2 318.2a1.6 1.6 0 111.7-2.8 1.6 1.6 0 01-1.7 2.8z" fill="#fff" fill-rule="evenodd" id="path3353"/>
    <path d="M0 0h256v256H0z" fill="#012169" id="path6674" stroke-width=".5"/>
    <path d="M256 0v32l-95 96 95 93.5V256h-33.5L127 162l-93 94H0v-34l93-93.5L0 37V0h31l96 94 93-94z" fill="#fff" id="path6676"
          stroke-width=".5"/>
    <path d="M92 162l5.5 17L21 256H0v-1.5zm62-6l27 4 75 73.5V256zM256 0l-96 98-2-22 75-76zM0 .5L96.5 95 67 91 0 24.5z" fill="#c8102e" id="path6678"
          stroke-width=".5"/>
    <path d="M88 0v256h80V0zM0 88v80h256V88z" fill="#fff" id="path6680" stroke-width=".5"/>
    <path d="M0 104v48h256v-48zM104 0v256h48V0z" fill="#c8102e" id="path6682" stroke-width=".5"/>
</svg>
