<svg id="flag-icon-css-aw" viewBox="0 0 512 512" xmlns="http://www.w3.org/2000/svg">
    <defs>
        <clipPath id="a">
            <path d="M0 0h512v512H0z" fill="gray"/>
        </clipPath>
    </defs>
    <g clip-path="url(#a)">
        <path d="M0 0v512h768V0H0z" fill="#39c"/>
        <path d="M0 341.3v28.5h768v-28.5H0zm0 57v28.4h768v-28.5H0z" fill="#ff0"/>
        <path d="M122 28l2.4 2.5-2.3-2.4zm-2.3 4.8l2.4 2.4-2.4-2.4m4.7 0l2.4 2.4-2.3-2.4z" fill="#9cc"/>
        <path d="M119.7 35.2l2.4 2.4-2.4-2.4m4.7 0l2.4 2.4-2.3-2.4z" fill="#ccf"/>
        <path d="M117.3 40l2.4 2.3-2.4-2.3z" fill="#6cc"/>
        <path d="M122 40l2.4 2.3-2.3-2.3z" fill="#c66"/>
        <path d="M126.8 40l2.4 2.3-2.4-2.3z" fill="#6cc"/>
        <path d="M117.3 42.4l2.4 2.3-2.4-2.3zm9.5 0l2.4 2.3-2.4-2.3z" fill="#ccf"/>
        <path d="M119.7 44.7l2.4 2.4-2.4-2.4m4.7 0l2.4 2.4-2.3-2.4z" fill="#fcc"/>
        <path d="M115 47.1l2.3 2.4-2.4-2.4z" fill="#6cc"/>
        <path d="M121.7 32.9L105 96.2l-63.5 17.2 63.3 16.5 16.9 63.3 16.9-63.3 63.2-16.9-63.3-16.8-16.8-63.3z" fill="#c00" stroke="#fff"
              stroke-width="3"/>
        <path d="M129.2 47.1l2.4 2.4-2.4-2.4z" fill="#6cc"/>
        <path d="M115 49.5l2.3 2.4-2.4-2.4m14.3 0l2.4 2.4-2.4-2.4z" fill="#9cf"/>
        <path d="M117.3 51.9l2.4 2.3-2.4-2.3m9.5 0l2.4 2.3-2.4-2.3z" fill="#fcc"/>
        <path d="M112.5 54.3l2.4 2.3-2.4-2.3z" fill="#69c"/>
        <path d="M118.1 55.8l.8 1.6-.8-1.6m9.5 0l.8 1.6-.8-1.6z" fill="#c33"/>
        <path d="M131.6 54.3l2.4 2.3-2.4-2.3z" fill="#69c"/>
        <path d="M112.5 56.6L115 59l-2.4-2.4m19 0L134 59l-2.4-2.4z" fill="#9cf"/>
        <path d="M115 59l2.3 2.4-2.4-2.4m14.3 0l2.4 2.4-2.4-2.4z" fill="#fcc"/>
        <path d="M110.2 61.4l2.3 2.4-2.3-2.4zm23.8 0l2.4 2.4-2.4-2.4z" fill="#69c"/>
        <path d="M110.2 63.8l2.3 2.4-2.3-2.4m23.8 0l2.4 2.4-2.4-2.4z" fill="#9cc"/>
        <path d="M110.2 66.2l2.3 2.3-2.3-2.3m23.8 0l2.4 2.3-2.4-2.3z" fill="#cff"/>
        <path d="M107.8 68.5l2.4 2.4-2.4-2.4z" fill="#69c"/>
        <path d="M112.5 68.5L115 71l-2.4-2.4m19 0L134 71l-2.4-2.4z" fill="#fcc"/>
        <path d="M136.3 68.5l2.4 2.4-2.3-2.4z" fill="#69c"/>
        <path d="M107.8 71l2.4 2.3-2.4-2.4z" fill="#9cc"/>
        <path d="M113.3 72.5l.8 1.6-.8-1.6m19 0l.9 1.6-.8-1.6z" fill="#c33"/>
        <path d="M136.3 71l2.4 2.3-2.3-2.4z" fill="#9cc"/>
        <path d="M107.8 73.3l2.4 2.4-2.4-2.4m28.6 0l2.3 2.4-2.3-2.4z" fill="#cff"/>
        <path d="M110.2 75.7l2.3 2.3-2.3-2.3m23.8 0l2.4 2.3-2.4-2.3z" fill="#fcc"/>
        <path d="M105.4 78l2.4 2.4-2.4-2.3z" fill="#9cc"/>
        <path d="M111 79.6l.7 1.6-.8-1.6m23.9 0l.8 1.6-.8-1.6z" fill="#c33"/>
        <path d="M138.7 78l2.4 2.4-2.4-2.3z" fill="#9cc"/>
        <path d="M105.4 80.4l2.4 2.4-2.4-2.4m33.3 0l2.4 2.4-2.4-2.4z" fill="#ccf"/>
        <path d="M107.8 82.8l2.4 2.4-2.4-2.4m28.6 0l2.3 2.4-2.3-2.4z" fill="#fcc"/>
        <path d="M103 85.2l2.4 2.4-2.4-2.4z" fill="#9cc"/>
        <path d="M108.6 86.8l.8 1.6-.8-1.6m28.5 0l.8 1.6-.8-1.6z" fill="#c33"/>
        <path d="M141.1 85.2l2.4 2.4-2.4-2.4z" fill="#9cc"/>
        <path d="M103 87.6l2.4 2.4-2.4-2.4m38.1 0l2.4 2.4-2.4-2.4z" fill="#ccf"/>
        <path d="M105.4 90l2.4 2.3-2.4-2.3m33.3 0l2.4 2.3-2.4-2.3z" fill="#fcc"/>
        <path d="M100.6 92.3l2.4 2.4-2.4-2.4z" fill="#9cc"/>
        <path d="M105.4 92.3l2.4 2.4-2.4-2.4m33.3 0l2.4 2.4-2.4-2.4z" fill="#c33"/>
        <path d="M143.5 92.3l2.4 2.4-2.4-2.4m-50 2.4l2.4 2.4-2.4-2.4z" fill="#9cc"/>
        <path d="M95.9 94.7l2.4 2.4-2.4-2.4m52.3 0l2.4 2.4-2.3-2.4z" fill="#ccf"/>
        <path d="M150.6 94.7l2.4 2.4-2.4-2.4m-64.2 2.4l2.3 2.4-2.3-2.4z" fill="#9cc"/>
        <path d="M88.7 97.1l2.4 2.4-2.4-2.4z" fill="#ccf"/>
        <path d="M98.3 97.1l2.3 2.4-2.3-2.4z" fill="#fcc"/>
        <path d="M100.6 97.1l2.4 2.4-2.4-2.4m42.9 0l2.4 2.4-2.4-2.4z" fill="#c33"/>
        <path d="M145.9 97.1l2.3 2.4L146 97z" fill="#fcc"/>
        <path d="M155.4 97.1l2.4 2.4-2.4-2.4z" fill="#ccf"/>
        <path d="M157.8 97.1l2.3 2.4-2.3-2.4z" fill="#9cc"/>
        <path d="M76.8 99.5l2.4 2.4-2.4-2.4z" fill="#69c"/>
        <path d="M79.2 99.5l2.4 2.4-2.4-2.4z" fill="#9cc"/>
        <path d="M81.6 99.5l2.4 2.4-2.4-2.4z" fill="#cff"/>
        <path d="M91.1 99.5l2.4 2.4-2.4-2.4z" fill="#fcc"/>
        <path d="M95 100.3l1.7.8-1.6-.8m54.7 0l1.6.8-1.6-.8z" fill="#c33"/>
        <path d="M153 99.5l2.4 2.4-2.4-2.4z" fill="#fcc"/>
        <path d="M162.5 99.5l2.4 2.4-2.4-2.4z" fill="#cff"/>
        <path d="M165 99.5l2.3 2.4-2.4-2.4z" fill="#9cc"/>
        <path d="M167.3 99.5l2.4 2.4-2.4-2.4m-97.6 2.4l2.4 2.3-2.4-2.3z" fill="#69c"/>
        <path d="M72 101.9l2.5 2.3L72 102z" fill="#9cc"/>
        <path d="M74.5 101.9l2.3 2.3-2.3-2.3z" fill="#cff"/>
        <path d="M84 101.9l2.4 2.3L84 102z" fill="#fcc"/>
        <path d="M88 102.7l1.5.8-1.5-.8m69 0l1.6.8-1.6-.8z" fill="#c33"/>
        <path d="M160.2 101.9l2.3 2.3-2.3-2.3z" fill="#fcc"/>
        <path d="M169.7 101.9l2.3 2.3-2.3-2.3z" fill="#cff"/>
        <path d="M172 101.9l2.4 2.3-2.3-2.3z" fill="#9cc"/>
        <path d="M174.4 101.9l2.4 2.3-2.4-2.3m-111.8 2.3l2.3 2.4-2.3-2.4z" fill="#69c"/>
        <path d="M65 104.2l2.3 2.4-2.4-2.4z" fill="#9cf"/>
        <path d="M76.8 104.2l2.4 2.4-2.4-2.4z" fill="#fcc"/>
        <path d="M80.8 105l1.6.8-1.6-.8m83.3 0l1.6.8-1.6-.8z" fill="#c33"/>
        <path d="M167.3 104.2l2.4 2.4-2.4-2.4z" fill="#fcc"/>
        <path d="M179.2 104.2l2.4 2.4-2.4-2.4z" fill="#9cf"/>
        <path d="M181.6 104.2l2.3 2.4-2.3-2.4z" fill="#69c"/>
        <path d="M55.4 106.6l2.4 2.4-2.4-2.4z" fill="#6cc"/>
        <path d="M57.8 106.6l2.4 2.4-2.4-2.4z" fill="#9cf"/>
        <path d="M67.3 106.6l2.4 2.4-2.4-2.4zm109.5 0l2.4 2.4-2.4-2.4z" fill="#fcc"/>
        <path d="M186.3 106.6l2.4 2.4-2.4-2.4z" fill="#9cf"/>
        <path d="M188.7 106.6l2.4 2.4-2.4-2.4M48.3 109l2.4 2.4-2.4-2.4z" fill="#6cc"/>
        <path d="M50.6 109l2.4 2.4-2.3-2.4z" fill="#ccf"/>
        <path d="M60.2 109l2.3 2.4-2.3-2.4z" fill="#fcc"/>
        <path d="M64.1 109.8l1.6.8-1.6-.8m116.7 0l1.6.8-1.6-.8z" fill="#c33"/>
        <path d="M184 109l2.3 2.4-2.3-2.4z" fill="#fcc"/>
        <path d="M193.5 109l2.4 2.4-2.4-2.4z" fill="#ccf"/>
        <path d="M195.9 109l2.3 2.4-2.3-2.4z" fill="#6cc"/>
        <path d="M41.1 111.4l2.4 2.4-2.4-2.4z" fill="#9cc"/>
        <path d="M43.5 111.4l2.4 2.4-2.4-2.4z" fill="#ccf"/>
        <path d="M53 111.4l2.4 2.4-2.4-2.4zm138.1 0l2.4 2.4-2.4-2.4z" fill="#fcc"/>
        <path d="M200.6 111.4l2.4 2.4-2.4-2.4z" fill="#ccf"/>
        <path d="M203 111.4l2.4 2.4-2.4-2.4m-166.6 2.4l2.4 2.3-2.4-2.3z" fill="#9cc"/>
        <path d="M48.3 113.8l2.4 2.3-2.4-2.3zm147.6 0l2.3 2.3-2.3-2.3z" fill="#c66"/>
        <path d="M207.8 113.8l2.3 2.3-2.3-2.3M41 116l2.4 2.4L41 116z" fill="#9cc"/>
        <path d="M43.5 116.1l2.4 2.4-2.4-2.4z" fill="#ccf"/>
        <path d="M53 116.1l2.4 2.4-2.4-2.4m138.1 0l2.4 2.4-2.4-2.4z" fill="#fcc"/>
        <path d="M200.6 116.1l2.4 2.4-2.4-2.4z" fill="#ccf"/>
        <path d="M203 116.1l2.4 2.4-2.4-2.4z" fill="#9cc"/>
        <path d="M48.3 118.5l2.4 2.4-2.4-2.4z" fill="#6cc"/>
        <path d="M50.6 118.5L53 121l-2.3-2.4z" fill="#ccf"/>
        <path d="M60.2 118.5l2.3 2.4-2.3-2.4z" fill="#fcc"/>
        <path d="M64.1 119.3l1.6.8-1.6-.8m116.7 0l1.6.8-1.6-.8z" fill="#c33"/>
        <path d="M184 118.5l2.3 2.4-2.3-2.4z" fill="#fcc"/>
        <path d="M193.5 118.5l2.4 2.4-2.4-2.4z" fill="#ccf"/>
        <path d="M195.9 118.5l2.3 2.4-2.3-2.4M55.4 121l2.4 2.4-2.4-2.4z" fill="#6cc"/>
        <path d="M57.8 120.9l2.4 2.4-2.4-2.4z" fill="#9cf"/>
        <path d="M67.3 120.9l2.4 2.4-2.4-2.4zm109.5 0l2.4 2.4-2.4-2.4z" fill="#fcc"/>
        <path d="M186.3 120.9l2.4 2.4-2.4-2.4z" fill="#9cf"/>
        <path d="M188.7 120.9l2.4 2.4-2.4-2.4z" fill="#6cc"/>
        <path d="M62.5 123.3l2.4 2.4-2.3-2.4z" fill="#69c"/>
        <path d="M65 123.3l2.3 2.4-2.4-2.4z" fill="#9cf"/>
        <path d="M76.8 123.3l2.4 2.4-2.4-2.4z" fill="#fcc"/>
        <path d="M80.8 124l1.6.9-1.6-.8m83.3 0l1.6.8-1.6-.8z" fill="#c33"/>
        <path d="M167.3 123.3l2.4 2.4-2.4-2.4z" fill="#fcc"/>
        <path d="M179.2 123.3l2.4 2.4-2.4-2.4z" fill="#9cf"/>
        <path d="M181.6 123.3l2.3 2.4-2.3-2.4m-111.9 2.4l2.4 2.3-2.4-2.3z" fill="#69c"/>
        <path d="M72 125.7l2.5 2.3-2.4-2.3z" fill="#9cc"/>
        <path d="M74.5 125.7l2.3 2.3-2.3-2.3z" fill="#cff"/>
        <path d="M84 125.7l2.4 2.3-2.4-2.3z" fill="#fcc"/>
        <path d="M88 126.5l1.5.7-1.5-.8m69 0l1.6.8-1.6-.8z" fill="#c33"/>
        <path d="M160.2 125.7l2.3 2.3-2.3-2.3z" fill="#fcc"/>
        <path d="M169.7 125.7l2.3 2.3-2.3-2.3z" fill="#cff"/>
        <path d="M172 125.7l2.4 2.3-2.3-2.3z" fill="#9cc"/>
        <path d="M174.4 125.7l2.4 2.3-2.4-2.3M76.8 128l2.4 2.4-2.4-2.4z" fill="#69c"/>
        <path d="M79.2 128l2.4 2.4-2.4-2.4z" fill="#9cc"/>
        <path d="M81.6 128l2.4 2.4-2.4-2.4z" fill="#cff"/>
        <path d="M91.1 128l2.4 2.4-2.4-2.4z" fill="#fcc"/>
        <path d="M95 128.8l1.7.8-1.6-.8m54.7 0l1.6.8-1.6-.8z" fill="#c33"/>
        <path d="M153 128l2.4 2.4-2.4-2.4z" fill="#fcc"/>
        <path d="M162.5 128l2.4 2.4-2.4-2.4z" fill="#cff"/>
        <path d="M165 128l2.3 2.4-2.4-2.4z" fill="#9cc"/>
        <path d="M167.3 128l2.4 2.4-2.4-2.4z" fill="#69c"/>
        <path d="M86.4 130.4l2.3 2.4-2.3-2.4z" fill="#9cc"/>
        <path d="M88.7 130.4l2.4 2.4-2.4-2.4z" fill="#ccf"/>
        <path d="M98.3 130.4l2.3 2.4-2.3-2.4z" fill="#fcc"/>
        <path d="M100.6 130.4l2.4 2.4-2.4-2.4m42.9 0l2.4 2.4-2.4-2.4z" fill="#c33"/>
        <path d="M145.9 130.4l2.3 2.4-2.3-2.4z" fill="#fcc"/>
        <path d="M155.4 130.4l2.4 2.4-2.4-2.4z" fill="#ccf"/>
        <path d="M157.8 130.4l2.3 2.4-2.3-2.4m-64.3 2.4l2.4 2.4-2.4-2.4z" fill="#9cc"/>
        <path d="M95.9 132.8l2.4 2.4-2.4-2.4m52.3 0l2.4 2.4-2.3-2.4z" fill="#ccf"/>
        <path d="M150.6 132.8l2.4 2.4-2.4-2.4m-50 2.4l2.4 2.4-2.4-2.4z" fill="#9cc"/>
        <path d="M105.4 135.2l2.4 2.4-2.4-2.4m33.3 0l2.4 2.4-2.4-2.4z" fill="#c33"/>
        <path d="M143.5 135.2l2.4 2.4-2.4-2.4z" fill="#9cc"/>
        <path d="M105.4 137.6l2.4 2.3-2.4-2.3m33.3 0l2.4 2.3-2.4-2.3z" fill="#fcc"/>
        <path d="M103 140l2.4 2.3-2.4-2.4z" fill="#ccf"/>
        <path d="M108.6 141.5l.8 1.6-.8-1.6m28.5 0l.8 1.6-.8-1.6z" fill="#c33"/>
        <path d="M141.1 140l2.4 2.3-2.4-2.4z" fill="#ccf"/>
        <path d="M103 142.3l2.4 2.4-2.4-2.4m38.1 0l2.4 2.4-2.4-2.4z" fill="#9cc"/>
        <path d="M107.8 144.7l2.4 2.4-2.4-2.4m28.6 0l2.3 2.4-2.3-2.4z" fill="#fcc"/>
        <path d="M105.4 147l2.4 2.5-2.4-2.4z" fill="#ccf"/>
        <path d="M111 148.7l.7 1.6-.8-1.6m23.9 0l.8 1.6-.8-1.6z" fill="#c33"/>
        <path d="M138.7 147l2.4 2.5-2.4-2.4z" fill="#ccf"/>
        <path d="M105.4 149.5l2.4 2.3-2.4-2.3m33.3 0l2.4 2.3-2.4-2.3z" fill="#9cc"/>
        <path d="M110.2 151.8l2.3 2.4-2.3-2.3m23.8 0l2.4 2.3-2.4-2.3z" fill="#fcc"/>
        <path d="M107.8 154.2l2.4 2.4-2.4-2.4z" fill="#cff"/>
        <path d="M113.3 155.8l.8 1.6-.8-1.6m19 0l.9 1.6-.8-1.6z" fill="#c33"/>
        <path d="M136.3 154.2l2.4 2.4-2.3-2.4z" fill="#cff"/>
        <path d="M107.8 156.6l2.4 2.4-2.4-2.4m28.6 0l2.3 2.4-2.3-2.4z" fill="#9cc"/>
        <path d="M107.8 159l2.4 2.4-2.4-2.4z" fill="#69c"/>
        <path d="M112.5 159l2.4 2.4-2.4-2.4m19 0l2.5 2.4-2.4-2.4z" fill="#fcc"/>
        <path d="M136.3 159l2.4 2.4-2.3-2.4z" fill="#69c"/>
        <path d="M110.2 161.4l2.3 2.3-2.3-2.3zm23.8 0l2.4 2.3-2.4-2.3z" fill="#cff"/>
        <path d="M110.2 163.8l2.3 2.3-2.3-2.3m23.8 0l2.4 2.3-2.4-2.3z" fill="#9cc"/>
        <path d="M110.2 166.1l2.3 2.4-2.3-2.4m23.8 0l2.4 2.4-2.4-2.4z" fill="#69c"/>
        <path d="M115 168.5l2.3 2.4-2.4-2.4m14.3 0l2.4 2.4-2.4-2.4z" fill="#fcc"/>
        <path d="M112.5 170.9l2.4 2.4-2.4-2.4z" fill="#9cf"/>
        <path d="M118.1 172.5l.8 1.6-.8-1.6m9.5 0l.8 1.6-.8-1.6z" fill="#c33"/>
        <path d="M131.6 170.9l2.4 2.4-2.4-2.4z" fill="#9cf"/>
        <path d="M112.5 173.3l2.4 2.3-2.4-2.3m19 0l2.5 2.3-2.4-2.3z" fill="#69c"/>
        <path d="M117.3 175.7l2.4 2.3-2.4-2.3m9.5 0l2.4 2.3-2.4-2.3z" fill="#fcc"/>
        <path d="M115 178l2.3 2.4-2.4-2.4zm14.2 0l2.4 2.4-2.4-2.4z" fill="#9cf"/>
        <path d="M115 180.4l2.3 2.4-2.4-2.4m14.3 0l2.4 2.4-2.4-2.4z" fill="#6cc"/>
        <path d="M119.7 182.8l2.4 2.4-2.4-2.4m4.7 0l2.4 2.4-2.3-2.4z" fill="#fcc"/>
        <path d="M117.3 185.2l2.4 2.3-2.4-2.3m9.5 0l2.4 2.3-2.4-2.3z" fill="#ccf"/>
        <path d="M117.3 187.6l2.4 2.3-2.4-2.3z" fill="#6cc"/>
        <path d="M122 187.6l2.4 2.3-2.3-2.3z" fill="#c66"/>
        <path d="M126.8 187.6l2.4 2.3-2.4-2.3z" fill="#6cc"/>
        <path d="M119.7 192.3l2.4 2.4-2.4-2.4m4.7 0l2.4 2.4-2.3-2.4z" fill="#ccf"/>
        <path d="M119.7 194.7l2.4 2.4-2.4-2.4m4.7 0l2.4 2.4-2.3-2.4m-2.4 4.8l2.4 2.3-2.4-2.4z" fill="#9cc"/>
    </g>
</svg>
