<svg id="flag-icon-css-mn" viewBox="0 0 512 512" xmlns="http://www.w3.org/2000/svg">
    <path d="M0 0h512v512H0z" fill="#c4272f"/>
    <path d="M170.7 0h170.6v512H170.7z" fill="#015197"/>
    <circle cx="85.6" cy="215.3" fill="#f9cf02" r="28"/>
    <circle cx="85.6" cy="202.5" fill="#c4272f" r="30.5"/>
    <path d="M73 169.5a12.7 12.7 0 0025.3 0c0-5.1-3.1-5.8-3.1-7.7 0-1.9 1.9-4.4-2-7.6 2 3.2-1.2 3.8-1.2 7s1.2 3.2 1.2 5.7a2.5 2.5 0 01-5 0c0-2.5 2.5-5 2.5-8.9 0-3.8-.6-5-2.5-8.2-2-3.2-5.1-5.8-2.6-8.3-3.8 1.3-1.9 6.4-1.9 9.5 0 3.2-2.5 5.1-2.5 9 0 3.7 1.9 4.4 1.9 7a2.5 2.5 0 01-5.1 0c0-2.6 1.3-2.6 1.3-5.8 0-3.2-3.2-3.8-1.3-7-3.8 3.2-1.9 5.7-1.9 7.6 0 2-3.2 2.6-3.2 7.7z" fill="#f9cf02"
          fill-rule="evenodd"/>
    <circle cx="85.6" cy="207.6" fill="#f9cf02" r="20.4"/>
    <path d="M29.6 248.3v122.2h25.5V248.3zm86.6 0v122.2h25.4V248.3zm-56 20.4v10.2H111v-10.2zm0 71.3v10H111v-10zm0-91.7H111l-25.5 15.3zm0 107H111l-25.5 15.2z"
          fill="#f9cf02"/>
    <circle cx="85.6" cy="309.4" fill="#f9cf02" r="27" stroke="#c4272f" stroke-width="3"/>
    <path d="M85.6 282.4a13.5 13.5 0 010 27 13.5 13.5 0 100 27" fill="none" stroke="#c4272f" stroke-width="3"/>
    <circle cx="85.6" cy="295.9" fill="#c4272f" r="5.1"/>
    <circle cx="85.6" cy="322.9" fill="#c4272f" r="5.1"/>
</svg>
