<svg id="flag-icon-css-tn" viewBox="0 0 512 512" xmlns="http://www.w3.org/2000/svg">
    <defs>
        <clipPath id="a">
            <path d="M124 0h496v496H124z" fill-opacity=".7"/>
        </clipPath>
    </defs>
    <g clip-path="url(#a)" fill-rule="evenodd" transform="translate(-128) scale(1.0321)">
        <path d="M0 0h744v496H0z" fill="#e70013"/>
        <path d="M497.8 247.8a125.1 125.1 0 11-250.2 0 125.1 125.1 0 01250.2 0z" fill="#fff"/>
        <path d="M372.7 330.8a83 83 0 01-83-83 83 83 0 0183-83c11.4 0 24.5 2.7 33.3 9.2-60.6 2.3-76 53.7-76 74.5s9.8 67 76 73.8a70.4 70.4 0 01-33.3 8.5z"
              fill="#e70013"/>
        <path d="M445.8 282.7L408.1 269l-24.9 31.4 1.4-40-37.6-14 38.6-11.1 1.7-40 22.4 33.2 38.6-10.8-24.7 31.6z"
              fill="#e70013"/>
    </g>
</svg>
