<svg id="flag-icon-css-gr" viewBox="0 0 640 480" xmlns="http://www.w3.org/2000/svg">
    <path d="M0 0h640v53.3H0z" fill="#005bae" fill-rule="evenodd" stroke-width="6.7"/>
    <path d="M0 53.3h640v53.4H0z" fill="#fff" fill-rule="evenodd" stroke-width="6.7"/>
    <path d="M0 106.7h640V160H0z" fill="#005bae" fill-rule="evenodd" stroke-width="6.7"/>
    <path d="M0 160h640v53.3H0z" fill="#fff" fill-rule="evenodd" stroke-width="6.7"/>
    <path d="M0 0h266.7v266.7H0z" fill="#005bae" stroke-width=".9"/>
    <path d="M0 213.3h640v53.4H0z" fill="#005bae" fill-rule="evenodd" stroke-width="6.7"/>
    <path d="M0 266.7h640V320H0z" fill="#fff" fill-rule="evenodd" stroke-width="6.7"/>
    <path d="M0 320h640v53.3H0z" fill="#005bae" fill-rule="evenodd" stroke-width="6.7"/>
    <path d="M0 373.3h640v53.4H0z" fill="#fff" fill-rule="evenodd" stroke-width="6.7"/>
    <g fill="#fff" fill-rule="evenodd" stroke-width="1.3">
        <path d="M20 0h10v50H20z" transform="scale(5.33333)"/>
        <path d="M0 20h50v10H0z" transform="scale(5.33333)"/>
    </g>
    <path d="M0 426.7h640V480H0z" fill="#005bae" stroke-width=".6"/>
</svg>
