<svg id="flag-icon-css-nr" viewBox="0 0 640 480" xmlns="http://www.w3.org/2000/svg">
    <defs>
        <clipPath id="a">
            <path d="M-54.7 0H628v512H-54.7z" fill-opacity=".7"/>
        </clipPath>
    </defs>
    <g clip-path="url(#a)" fill-rule="evenodd" stroke-width="1pt" transform="translate(51.3) scale(.9375)">
        <path d="M-140 0H884v512H-140z" fill="#002170"/>
        <path d="M-140 234.1H884V278H-140z" fill="#ffb20d"/>
        <path d="M161.8 438l-33-33-10.5 45.4-12-45-31.9 34 12.1-45L42 407.9l33-33-45.4-10.6 45-12-34-31.8 45 12L72 288l33 33 10.6-45.4 12 45 31.8-34-12 45 44.5-13.5-33 33 45.4 10.5-45 12 34 32-45-12.2z"
              fill="#fff"/>
    </g>
</svg>
