<svg id="flag-icon-css-uz" viewBox="0 0 640 480" xmlns="http://www.w3.org/2000/svg"
     xmlns:xlink="http://www.w3.org/1999/xlink">
    <path d="M0 320h640v160H0z" fill="#1eb53a"/>
    <path d="M0 0h640v160H0z" fill="#0099b5"/>
    <path d="M0 153.6h640v172.8H0z" fill="#ce1126"/>
    <path d="M0 163.2h640v153.6H0z" fill="#fff"/>
    <circle cx="134.4" cy="76.8" fill="#fff" r="57.6"/>
    <circle cx="153.6" cy="76.8" fill="#0099b5" r="57.6"/>
    <g fill="#fff" transform="matrix(1.92 0 0 1.92 261.1 122.9)">
        <g id="e">
            <g id="d">
                <g id="c">
                    <g id="b">
                        <path d="M0-6L-1.9-.3 1 .7" id="a"/>
                        <use height="100%" transform="scale(-1 1)" width="100%" xlink:href="#a"/>
                    </g>
                    <use height="100%" transform="rotate(72)" width="100%" xlink:href="#b"/>
                </g>
                <use height="100%" transform="rotate(-72)" width="100%" xlink:href="#b"/>
                <use height="100%" transform="rotate(144)" width="100%" xlink:href="#c"/>
            </g>
            <use height="100%" width="100%" xlink:href="#d" y="-24"/>
            <use height="100%" width="100%" xlink:href="#d" y="-48"/>
        </g>
        <use height="100%" width="100%" x="24" xlink:href="#e"/>
        <use height="100%" width="100%" x="48" xlink:href="#e"/>
        <use height="100%" width="100%" x="-48" xlink:href="#d"/>
        <use height="100%" width="100%" x="-24" xlink:href="#d"/>
        <use height="100%" width="100%" x="-24" xlink:href="#d" y="-24"/>
    </g>
</svg>
