<?xml version="1.0" standalone="no"?>
<!DOCTYPE svg PUBLIC "-//W3C//DTD SVG 20010904//EN"
 "http://www.w3.org/TR/2001/REC-SVG-20010904/DTD/svg10.dtd">
<svg version="1.0" xmlns="http://www.w3.org/2000/svg"
 width="880.000000pt" height="880.000000pt" viewBox="0 0 880.000000 880.000000"
 preserveAspectRatio="xMidYMid meet">
<metadata>
Created by potrace 1.14, written by Peter Selinger 2001-2017
</metadata>
<g transform="translate(0.000000,880.000000) scale(0.100000,-0.100000)"
fill="#000000" stroke="none">
<path d="M3300 8783 c-19 -10 -41 -23 -48 -30 -8 -7 -23 -18 -35 -24 -11 -7
-26 -16 -31 -21 -10 -8 -138 -97 -321 -222 -44 -30 -145 -100 -225 -155 -80
-55 -154 -106 -164 -113 -26 -17 -130 -122 -134 -133 -1 -6 -13 -21 -24 -35
-12 -14 -21 -25 -19 -25 2 0 -5 -18 -17 -40 -18 -36 -43 -111 -58 -176 -3 -13
-7 -145 -8 -292 l-2 -268 -24 -20 c-14 -11 -83 -60 -155 -109 -71 -49 -137
-94 -145 -100 -8 -6 -96 -66 -195 -135 -99 -68 -184 -127 -190 -132 -5 -5 -32
-23 -60 -40 -27 -18 -56 -38 -64 -44 -8 -7 -41 -31 -75 -53 -33 -22 -67 -46
-74 -53 -7 -7 -17 -13 -21 -13 -4 0 -16 -8 -27 -17 -11 -10 -53 -46 -94 -79
-96 -79 -177 -159 -265 -260 -93 -108 -105 -123 -105 -133 0 -5 -4 -11 -9 -13
-11 -4 -131 -185 -131 -197 0 -5 -3 -11 -8 -13 -9 -4 -124 -228 -117 -228 3 0
-1 -10 -9 -22 -22 -36 -112 -298 -106 -310 1 -2 -4 -16 -10 -32 -6 -16 -13
-45 -16 -65 -3 -20 -7 -43 -10 -51 -3 -8 -8 -33 -10 -55 -3 -22 -7 -46 -10
-54 -2 -7 -8 -48 -12 -90 -10 -106 -9 -1802 1 -1876 5 -33 10 -72 10 -88 1
-15 5 -27 9 -27 3 0 5 -7 4 -16 -3 -18 48 -226 63 -259 5 -11 17 -42 26 -70
37 -104 109 -253 144 -297 8 -10 10 -18 5 -18 -5 0 -4 -4 2 -8 5 -4 21 -25 34
-47 21 -36 97 -142 110 -155 3 -3 30 -34 60 -70 152 -180 352 -337 583 -458
53 -29 97 -49 97 -46 0 3 12 -1 28 -9 70 -37 188 -77 319 -108 113 -27 118
-28 178 -34 28 -3 68 -7 90 -10 106 -14 385 -6 480 15 22 5 58 11 80 15 22 4
45 8 50 9 6 2 28 6 50 11 22 4 52 14 68 22 15 7 27 11 27 9 0 -16 360 137 368
157 2 4 8 7 13 7 8 0 102 55 124 72 31 26 127 88 135 88 4 0 10 4 12 8 2 8
155 116 206 147 9 6 22 16 30 23 7 6 17 12 21 12 4 0 16 8 27 18 10 9 60 44
109 77 50 33 92 62 95 65 3 3 48 34 100 70 52 35 97 68 98 72 2 4 8 8 13 8 9
0 65 36 79 50 7 7 198 139 300 207 30 21 57 40 60 43 3 3 26 19 52 35 27 17
48 33 48 38 0 4 5 7 11 7 6 0 21 8 34 18 12 9 33 24 45 32 13 8 35 25 50 38
15 12 30 22 33 22 3 0 60 38 126 85 67 47 125 85 130 85 5 0 11 4 13 8 2 4 46
37 98 72 52 36 97 67 100 70 5 5 57 40 210 144 41 28 77 53 80 56 3 3 32 23
65 45 33 22 64 44 70 48 48 36 198 137 205 137 4 0 10 4 12 8 2 5 84 64 183
132 212 146 194 133 253 191 51 51 118 139 105 139 -4 0 -3 4 3 8 12 8 54 105
60 139 2 12 7 35 10 51 9 35 13 1094 6 1107 -4 6 -7 15 -8 21 -3 22 -49 66
-83 80 -69 29 -100 19 -230 -71 -42 -28 -114 -78 -161 -110 -47 -32 -101 -71
-121 -87 -20 -15 -41 -28 -45 -28 -5 0 -25 -14 -44 -30 -19 -16 -38 -30 -42
-30 -4 0 -13 -6 -20 -12 -8 -7 -21 -17 -30 -23 -14 -9 -88 -60 -258 -178 -79
-55 -153 -105 -250 -171 -47 -32 -86 -62 -88 -67 -2 -5 -9 -9 -16 -9 -7 0 -21
-8 -32 -19 -11 -10 -31 -24 -44 -31 -13 -7 -29 -17 -34 -22 -10 -8 -247 -173
-290 -201 -10 -6 -32 -23 -47 -35 -16 -13 -29 -21 -29 -17 0 3 -6 0 -14 -7 -7
-7 -24 -20 -36 -28 -12 -8 -32 -22 -44 -31 -11 -8 -70 -49 -131 -90 -60 -41
-112 -76 -115 -80 -11 -12 -203 -139 -210 -139 -5 0 -10 -4 -12 -9 -1 -5 -35
-31 -74 -57 -253 -172 -319 -218 -322 -226 -2 -4 -8 -8 -13 -8 -5 0 -44 -25
-86 -55 -43 -30 -85 -60 -93 -65 -8 -5 -57 -39 -108 -75 -51 -35 -101 -69
-111 -75 -11 -5 -25 -16 -33 -23 -7 -7 -40 -30 -73 -52 -33 -21 -62 -42 -65
-45 -3 -4 -16 -13 -29 -20 -14 -7 -30 -17 -35 -22 -6 -5 -60 -44 -121 -85 -60
-42 -146 -101 -190 -131 -240 -167 -321 -216 -370 -227 -5 -1 -17 -5 -25 -8
-86 -32 -270 -32 -375 1 -63 20 -178 79 -220 113 -48 40 -131 138 -152 178
-10 20 -22 39 -28 43 -5 4 -7 8 -2 8 4 0 0 14 -9 31 -8 17 -17 38 -19 47 -2
10 -10 40 -18 69 -11 42 -13 185 -12 785 1 403 6 752 10 776 10 60 13 77 15
77 2 0 6 19 15 65 6 37 29 112 44 145 54 119 75 161 85 167 6 4 7 8 3 8 -4 0
20 41 55 92 80 118 208 246 328 331 52 36 100 70 105 75 6 4 25 17 43 27 17
11 32 23 32 27 0 4 4 8 10 8 8 0 109 68 147 100 7 5 16 10 22 10 5 0 11 3 13
8 3 6 41 33 238 167 25 16 47 32 50 35 3 3 33 24 68 48 34 23 90 61 125 85 34
23 64 45 65 50 2 4 10 7 18 7 8 0 14 5 14 10 0 6 6 10 14 10 8 0 16 4 18 8 2
4 46 38 98 74 140 98 192 155 244 263 61 126 70 163 71 292 0 46 3 83 6 83 4
0 3 17 0 38 -3 20 -4 55 -1 77 3 22 3 73 0 113 -3 40 -2 84 2 97 3 14 3 25 0
25 -6 0 -7 68 -2 95 2 6 1 15 0 20 -2 10 -2 37 1 133 0 24 -2 46 -4 49 -3 2
-1 18 3 34 5 16 6 29 2 29 -8 0 -7 194 2 215 3 8 1 17 -4 20 -5 3 -6 15 0 29
4 12 5 29 0 36 -5 7 -5 23 0 34 4 12 4 30 0 41 -4 11 -5 24 -2 29 8 13 6 161
-2 174 -3 6 -3 13 1 15 10 6 9 109 -1 125 -4 6 -4 12 1 12 4 0 8 31 8 70 0 38
-4 70 -9 70 -5 0 -4 6 1 13 21 28 -1 137 -35 173 -45 49 -125 65 -182 37z"/>
<path d="M6369 7454 c-102 -13 -150 -20 -186 -29 -13 -3 -31 -7 -41 -9 -49
-11 -116 -31 -197 -58 -118 -40 -365 -160 -403 -195 -7 -7 -17 -13 -22 -13 -5
0 -15 -6 -22 -12 -25 -23 -77 -58 -87 -58 -5 0 -11 -4 -13 -8 -4 -11 -267
-192 -278 -192 -4 0 -10 -4 -12 -9 -1 -5 -39 -33 -83 -63 -220 -149 -310 -213
-313 -220 -2 -4 -7 -8 -12 -8 -5 0 -105 -67 -224 -150 -119 -82 -220 -150
-226 -150 -5 0 -10 -3 -10 -8 0 -4 -57 -45 -127 -92 -71 -47 -130 -88 -133
-91 -3 -3 -27 -21 -55 -39 -27 -19 -51 -37 -53 -42 -2 -4 -9 -8 -16 -8 -7 0
-21 -8 -32 -17 -11 -10 -55 -42 -99 -72 -216 -147 -302 -206 -319 -223 -11
-10 -25 -18 -32 -18 -7 0 -17 -6 -21 -12 -4 -7 -16 -17 -25 -23 -21 -12 -189
-126 -203 -137 -9 -8 -132 -92 -348 -240 -43 -29 -83 -58 -90 -63 -7 -6 -39
-28 -72 -50 -33 -21 -62 -42 -65 -45 -3 -4 -15 -13 -28 -19 -32 -17 -52 -34
-131 -114 -64 -64 -113 -143 -150 -242 -25 -68 -29 -176 -29 -666 0 -568 -2
-554 63 -604 48 -36 114 -39 172 -8 25 13 52 30 60 38 8 8 24 20 36 26 11 7
26 16 31 21 12 10 208 144 366 252 58 39 110 76 117 81 7 6 19 16 27 23 8 6
19 12 24 12 4 0 17 8 28 18 32 27 114 82 124 82 6 0 10 4 10 8 0 4 35 31 78
60 42 28 109 73 147 100 39 26 99 68 135 92 36 25 69 49 75 53 43 33 345 239
363 247 12 5 22 14 22 19 0 5 14 14 30 21 17 7 30 16 30 19 0 4 18 17 40 30
22 12 46 27 53 34 7 7 20 17 29 22 27 16 379 259 392 270 6 6 47 34 91 64 44
30 114 77 155 105 41 27 77 53 80 56 3 3 19 14 35 26 130 90 219 151 233 159
10 6 19 12 22 15 3 3 32 23 65 45 33 22 64 44 70 48 35 29 328 227 335 227 5
0 10 3 12 8 5 12 76 62 87 62 6 0 11 4 11 8 0 4 15 16 33 27 17 10 34 21 37
24 3 4 48 35 100 70 52 35 97 67 98 72 2 5 9 9 16 9 7 0 21 8 32 18 28 24 145
94 164 97 3 0 28 8 55 18 112 37 292 38 379 2 20 -8 37 -14 38 -13 13 8 174
-90 218 -132 69 -67 163 -216 175 -278 2 -9 4 -17 5 -17 2 0 4 -13 18 -85 10
-56 8 -1475 -2 -1512 -4 -15 -9 -40 -11 -55 -10 -84 -56 -231 -104 -333 -87
-185 -222 -351 -393 -483 -55 -42 -210 -147 -218 -147 -4 0 -10 -3 -12 -8 -3
-8 -78 -61 -248 -177 -63 -43 -117 -81 -120 -85 -3 -4 -16 -13 -29 -20 -14 -7
-30 -17 -35 -22 -9 -7 -366 -254 -450 -310 -162 -110 -248 -221 -298 -388 -19
-61 -20 -103 -24 -730 -5 -808 -5 -770 2 -781 3 -5 2 -9 -3 -9 -4 0 -7 -28 -5
-62 3 -73 3 -63 1 -151 -1 -37 1 -70 4 -74 4 -3 3 -13 -1 -22 -9 -18 -8 -46 2
-112 5 -33 16 -54 39 -77 73 -70 134 -67 254 13 48 32 90 61 93 64 3 3 45 33
95 66 49 33 95 65 102 72 7 6 29 21 50 34 21 13 43 27 48 31 15 12 178 125
285 198 113 77 198 161 247 244 19 34 36 66 37 71 1 6 5 15 9 21 4 7 14 43 23
80 13 53 18 128 20 319 1 138 3 259 3 270 1 12 14 29 33 39 17 11 72 48 122
83 50 35 99 69 109 76 247 170 335 231 349 244 10 9 18 12 18 7 0 -5 4 -4 8 1
11 16 240 175 252 175 5 0 10 4 10 8 0 4 12 15 28 24 15 9 36 24 47 32 11 9
54 42 95 73 108 84 260 228 322 308 13 16 30 37 38 46 25 26 44 52 80 104 18
28 36 52 40 55 8 7 60 91 100 160 27 48 81 157 125 255 40 89 112 330 129 430
3 17 8 43 12 59 3 16 8 45 9 65 2 20 4 36 5 36 11 0 15 252 15 990 0 787 -3
970 -19 1016 -3 8 -8 32 -11 53 -9 66 -58 245 -82 306 -4 8 -7 18 -8 23 -2 4
-4 9 -5 12 -1 3 -3 8 -5 13 -10 38 -95 211 -107 218 -5 3 -6 9 -3 14 3 4 -2
13 -10 20 -8 7 -15 16 -15 21 0 12 -77 127 -149 219 -95 124 -292 316 -352
344 -10 5 -19 13 -19 17 0 4 -18 18 -40 30 -22 13 -40 26 -40 31 0 4 -5 8 -10
8 -6 0 -34 16 -63 35 -28 19 -57 35 -63 35 -6 0 -17 7 -24 15 -7 8 -21 15 -31
15 -11 0 -19 5 -19 10 0 6 -4 10 -10 10 -5 0 -34 11 -64 25 -60 27 -209 84
-241 91 -42 10 -50 13 -50 14 0 1 -7 3 -15 5 -8 1 -60 12 -115 23 -55 12 -125
24 -155 28 -98 11 -342 10 -441 -2z"/>
</g>
</svg>
