<?xml version="1.0" standalone="no"?>
<!DOCTYPE svg PUBLIC "-//W3C//DTD SVG 20010904//EN"
 "http://www.w3.org/TR/2001/REC-SVG-20010904/DTD/svg10.dtd">
<svg version="1.0" xmlns="http://www.w3.org/2000/svg"
 width="583.000000pt" height="583.000000pt" viewBox="0 0 583.000000 583.000000"
 preserveAspectRatio="xMidYMid meet">
<metadata>
Created by potrace 1.14, written by Peter Selinger 2001-2017
</metadata>
<g transform="translate(0.000000,583.000000) scale(0.100000,-0.100000)"
fill="#000000" stroke="none">
<path d="M2722 5814 c-361 -96 -490 -546 -237 -826 88 -97 202 -147 346 -153
149 -7 267 39 377 147 43 42 106 144 117 188 31 127 30 228 -4 324 -56 157
-187 278 -348 320 -65 17 -185 17 -251 0z"/>
<path d="M3775 5328 c-11 -6 -26 -19 -32 -27 -15 -18 -125 -353 -129 -390 -5
-44 36 -96 85 -108 14 -3 41 -14 59 -24 17 -10 32 -16 32 -13 0 11 238 -119
333 -183 131 -87 225 -163 338 -276 52 -51 104 -97 114 -102 42 -17 95 1 151
52 17 15 67 57 110 93 119 98 133 112 143 146 13 47 -6 79 -115 188 -95 95
-293 267 -317 275 -7 2 -14 7 -17 11 -11 15 -191 131 -287 185 -57 31 -153 79
-215 107 -184 81 -213 89 -253 66z"/>
<path d="M1892 5304 c-86 -32 -293 -133 -377 -184 -73 -45 -206 -131 -215
-140 -3 -3 -23 -18 -45 -35 -105 -76 -278 -234 -370 -335 -113 -124 -109 -138
84 -293 69 -56 128 -104 131 -108 3 -3 20 -14 38 -23 54 -28 91 -10 191 91
118 120 170 165 281 246 144 105 390 244 404 229 4 -3 6 0 6 6 0 7 5 12 11 12
29 0 121 54 133 78 14 28 12 83 -4 117 -5 11 -28 76 -50 145 -52 158 -65 187
-93 202 -35 18 -59 17 -125 -8z"/>
<path d="M355 3734 c-29 -32 -104 -253 -129 -384 -2 -14 -9 -46 -15 -72 -6
-25 -14 -70 -17 -100 -3 -29 -8 -56 -10 -59 -17 -30 -25 -501 -11 -629 4 -36
9 -81 10 -100 8 -88 54 -115 167 -95 41 7 91 16 110 19 19 3 44 7 55 9 11 3
52 10 90 17 104 19 133 57 119 161 -9 71 -10 417 -1 495 7 55 23 151 42 239 3
17 13 55 21 85 9 30 18 62 19 70 2 8 4 15 5 15 1 0 3 7 5 15 2 8 10 33 17 55
15 43 15 46 4 88 -9 29 -45 59 -86 72 -14 4 -43 16 -65 26 -130 58 -243 99
-272 99 -24 0 -41 -8 -58 -26z"/>
<path d="M5375 3743 c-11 -3 -33 -11 -50 -18 -16 -8 -88 -37 -160 -66 -71 -28
-140 -60 -152 -72 -34 -31 -38 -74 -13 -153 12 -38 26 -85 32 -104 5 -19 13
-51 19 -70 5 -19 11 -48 14 -65 2 -16 6 -42 9 -57 25 -120 31 -204 30 -393 0
-99 -4 -216 -8 -261 -8 -77 -7 -81 18 -111 22 -26 38 -33 108 -47 46 -8 93
-17 105 -20 11 -2 43 -8 70 -12 26 -5 50 -9 53 -9 115 -29 170 -3 184 85 28
185 29 594 2 740 -3 14 -7 43 -10 65 -2 22 -7 51 -10 65 -3 14 -8 37 -10 53
-3 15 -7 35 -10 45 -3 9 -8 31 -11 47 -8 38 -13 60 -15 60 -2 0 -7 20 -15 59
-3 16 -8 33 -11 38 -3 4 -7 16 -9 25 -11 51 -48 139 -65 155 -21 20 -63 29
-95 21z"/>
<path d="M748 2065 c-2 -2 -16 -5 -33 -8 -16 -2 -47 -12 -67 -20 -21 -9 -38
-14 -38 -11 0 14 -123 -81 -163 -126 -86 -96 -126 -204 -122 -337 2 -103 7
-126 48 -213 33 -72 137 -184 197 -214 115 -58 234 -77 344 -57 184 34 350
192 391 373 19 83 14 202 -10 269 -9 24 -19 53 -22 64 -4 11 -9 22 -13 25 -3
3 -16 22 -28 42 -54 88 -182 177 -293 202 -50 12 -182 19 -191 11z"/>
<path d="M5042 2055 c-160 -38 -296 -162 -353 -321 -25 -70 -33 -193 -18 -267
12 -55 57 -160 71 -165 4 -2 8 -9 8 -15 0 -18 111 -121 161 -150 81 -47 136
-61 249 -61 83 0 117 5 165 22 73 27 156 81 198 129 18 20 37 41 43 47 6 6 12
16 14 21 1 6 9 20 17 31 52 81 76 258 48 363 -43 162 -160 293 -317 352 -65
25 -210 32 -286 14z"/>
<path d="M4366 1085 c-21 -7 -50 -24 -64 -37 -100 -89 -247 -183 -428 -273
-73 -36 -135 -65 -139 -65 -4 0 -21 -6 -38 -14 -33 -14 -153 -54 -184 -61
-107 -24 -148 -42 -169 -72 -24 -37 -24 -54 1 -184 9 -46 18 -95 20 -109 18
-124 32 -168 61 -186 30 -20 69 -26 99 -14 12 4 39 11 59 14 21 3 46 11 57 16
10 6 19 9 19 6 0 -3 33 6 73 20 39 14 79 27 87 29 8 2 29 9 45 16 17 7 32 13
35 14 3 1 18 7 34 14 144 59 177 74 182 82 3 5 11 9 18 9 7 0 52 23 100 50 48
28 89 50 92 50 3 0 10 5 17 10 7 6 35 26 62 43 169 111 302 217 322 258 14 28
4 79 -19 102 -7 8 -45 49 -85 93 -181 200 -195 210 -257 189z"/>
<path d="M1394 1033 c-16 -16 -58 -61 -94 -102 -36 -41 -82 -93 -103 -115 -68
-74 -83 -130 -47 -174 31 -39 248 -195 372 -267 102 -60 333 -167 452 -210
124 -44 307 -96 393 -110 72 -11 119 30 129 113 3 30 4 38 30 192 23 140 23
151 7 182 -18 36 -32 43 -167 78 -151 39 -283 88 -433 161 -114 56 -330 191
-380 238 -12 12 -27 21 -33 21 -5 0 -10 4 -10 8 0 5 -20 9 -44 11 -35 1 -48
-3 -72 -26z"/>
</g>
</svg>
