<svg width="21" height="21" viewBox="0 0 21 21" fill="none" xmlns="http://www.w3.org/2000/svg">
<path d="M0.5 8.55C0.5 6.88333 0.870833 5.35417 1.6125 3.9625C2.35417 2.57083 3.35 1.41667 4.6 0.5L5.775 2.1C4.775 2.83333 3.97917 3.75833 3.3875 4.875C2.79583 5.99167 2.5 7.21667 2.5 8.55H0.5ZM18.5 8.55C18.5 7.21667 18.2042 5.99167 17.6125 4.875C17.0208 3.75833 16.225 2.83333 15.225 2.1L16.4 0.5C17.65 1.41667 18.6458 2.57083 19.3875 3.9625C20.1292 5.35417 20.5 6.88333 20.5 8.55H18.5ZM2.5 17.55V15.55H4.5V8.55C4.5 7.16667 4.91667 5.9375 5.75 4.8625C6.58333 3.7875 7.66667 3.08333 9 2.75V2.05C9 1.63333 9.14583 1.27917 9.4375 0.9875C9.72917 0.695833 10.0833 0.55 10.5 0.55C10.9167 0.55 11.2708 0.695833 11.5625 0.9875C11.8542 1.27917 12 1.63333 12 2.05V2.75C13.3333 3.08333 14.4167 3.7875 15.25 4.8625C16.0833 5.9375 16.5 7.16667 16.5 8.55V15.55H18.5V17.55H2.5ZM10.5 20.55C9.95 20.55 9.47917 20.3542 9.0875 19.9625C8.69583 19.5708 8.5 19.1 8.5 18.55H12.5C12.5 19.1 12.3042 19.5708 11.9125 19.9625C11.5208 20.3542 11.05 20.55 10.5 20.55ZM6.5 15.55H14.5V8.55C14.5 7.45 14.1083 6.50833 13.325 5.725C12.5417 4.94167 11.6 4.55 10.5 4.55C9.4 4.55 8.45833 4.94167 7.675 5.725C6.89167 6.50833 6.5 7.45 6.5 8.55V15.55Z" fill="#2484C6"/>
</svg>
