<svg width="40" height="41" viewBox="0 0 40 41" fill="none" xmlns="http://www.w3.org/2000/svg">
<path d="M0 17C0 13.6667 0.741667 10.6083 2.225 7.82499C3.70833 5.04166 5.7 2.73333 8.2 0.899994L10.55 4.09999C8.55 5.56666 6.95833 7.41666 5.775 9.64999C4.59167 11.8833 4 14.3333 4 17H0ZM36 17C36 14.3333 35.4083 11.8833 34.225 9.64999C33.0417 7.41666 31.45 5.56666 29.45 4.09999L31.8 0.899994C34.3 2.73333 36.2917 5.04166 37.775 7.82499C39.2583 10.6083 40 13.6667 40 17H36ZM4 35V31H8V17C8 14.2333 8.83333 11.775 10.5 9.62499C12.1667 7.47499 14.3333 6.06666 17 5.39999V3.99999C17 3.16666 17.2917 2.45833 17.875 1.87499C18.4583 1.29166 19.1667 0.999994 20 0.999994C20.8333 0.999994 21.5417 1.29166 22.125 1.87499C22.7083 2.45833 23 3.16666 23 3.99999V5.39999C25.6667 6.06666 27.8333 7.47499 29.5 9.62499C31.1667 11.775 32 14.2333 32 17V31H36V35H4ZM20 41C18.9 41 17.9583 40.6083 17.175 39.825C16.3917 39.0417 16 38.1 16 37H24C24 38.1 23.6083 39.0417 22.825 39.825C22.0417 40.6083 21.1 41 20 41ZM12 31H28V17C28 14.8 27.2167 12.9167 25.65 11.35C24.0833 9.78333 22.2 8.99999 20 8.99999C17.8 8.99999 15.9167 9.78333 14.35 11.35C12.7833 12.9167 12 14.8 12 17V31Z" fill="#4D4D4D"/>
</svg>
