<svg width="21" height="21" viewBox="0 0 21 21" fill="none" xmlns="http://www.w3.org/2000/svg">
<path d="M0.5 9.0002C0.5 7.33353 0.870833 5.80436 1.6125 4.4127C2.35417 3.02103 3.35 1.86686 4.6 0.950195L5.775 2.5502C4.775 3.28353 3.97917 4.20853 3.3875 5.3252C2.79583 6.44186 2.5 7.66686 2.5 9.0002H0.5ZM18.5 9.0002C18.5 7.66686 18.2042 6.44186 17.6125 5.3252C17.0208 4.20853 16.225 3.28353 15.225 2.5502L16.4 0.950195C17.65 1.86686 18.6458 3.02103 19.3875 4.4127C20.1292 5.80436 20.5 7.33353 20.5 9.0002H18.5ZM2.5 18.0002V16.0002H4.5V9.0002C4.5 7.61686 4.91667 6.3877 5.75 5.3127C6.58333 4.2377 7.66667 3.53353 9 3.2002V2.5002C9 2.08353 9.14583 1.72936 9.4375 1.4377C9.72917 1.14603 10.0833 1.0002 10.5 1.0002C10.9167 1.0002 11.2708 1.14603 11.5625 1.4377C11.8542 1.72936 12 2.08353 12 2.5002V3.2002C13.3333 3.53353 14.4167 4.2377 15.25 5.3127C16.0833 6.3877 16.5 7.61686 16.5 9.0002V16.0002H18.5V18.0002H2.5ZM10.5 21.0002C9.95 21.0002 9.47917 20.8044 9.0875 20.4127C8.69583 20.021 8.5 19.5502 8.5 19.0002H12.5C12.5 19.5502 12.3042 20.021 11.9125 20.4127C11.5208 20.8044 11.05 21.0002 10.5 21.0002ZM6.5 16.0002H14.5V9.0002C14.5 7.9002 14.1083 6.95853 13.325 6.1752C12.5417 5.39186 11.6 5.0002 10.5 5.0002C9.4 5.0002 8.45833 5.39186 7.675 6.1752C6.89167 6.95853 6.5 7.9002 6.5 9.0002V16.0002Z" fill="#262124"/>
</svg>
