<svg width="19" height="21" viewBox="0 0 19 21" fill="none" xmlns="http://www.w3.org/2000/svg">
<path d="M2.50879 20.687C1.95879 20.687 1.48796 20.4912 1.09629 20.0995C0.704622 19.7078 0.508789 19.237 0.508789 18.687V4.68701C0.508789 4.13701 0.704622 3.66618 1.09629 3.27451C1.48796 2.88285 1.95879 2.68701 2.50879 2.68701H3.50879V0.687012H5.50879V2.68701H13.5088V0.687012H15.5088V2.68701H16.5088C17.0588 2.68701 17.5296 2.88285 17.9213 3.27451C18.313 3.66618 18.5088 4.13701 18.5088 4.68701V18.687C18.5088 19.237 18.313 19.7078 17.9213 20.0995C17.5296 20.4912 17.0588 20.687 16.5088 20.687H2.50879ZM2.50879 18.687H16.5088V8.68701H2.50879V18.687ZM2.50879 6.68701H16.5088V4.68701H2.50879V6.68701ZM9.50879 12.687C9.22546 12.687 8.98796 12.5912 8.79629 12.3995C8.60462 12.2078 8.50879 11.9703 8.50879 11.687C8.50879 11.4037 8.60462 11.1662 8.79629 10.9745C8.98796 10.7828 9.22546 10.687 9.50879 10.687C9.79212 10.687 10.0296 10.7828 10.2213 10.9745C10.413 11.1662 10.5088 11.4037 10.5088 11.687C10.5088 11.9703 10.413 12.2078 10.2213 12.3995C10.0296 12.5912 9.79212 12.687 9.50879 12.687ZM5.50879 12.687C5.22546 12.687 4.98796 12.5912 4.79629 12.3995C4.60462 12.2078 4.50879 11.9703 4.50879 11.687C4.50879 11.4037 4.60462 11.1662 4.79629 10.9745C4.98796 10.7828 5.22546 10.687 5.50879 10.687C5.79212 10.687 6.02962 10.7828 6.22129 10.9745C6.41296 11.1662 6.50879 11.4037 6.50879 11.687C6.50879 11.9703 6.41296 12.2078 6.22129 12.3995C6.02962 12.5912 5.79212 12.687 5.50879 12.687ZM13.5088 12.687C13.2255 12.687 12.988 12.5912 12.7963 12.3995C12.6046 12.2078 12.5088 11.9703 12.5088 11.687C12.5088 11.4037 12.6046 11.1662 12.7963 10.9745C12.988 10.7828 13.2255 10.687 13.5088 10.687C13.7921 10.687 14.0296 10.7828 14.2213 10.9745C14.413 11.1662 14.5088 11.4037 14.5088 11.687C14.5088 11.9703 14.413 12.2078 14.2213 12.3995C14.0296 12.5912 13.7921 12.687 13.5088 12.687ZM9.50879 16.687C9.22546 16.687 8.98796 16.5912 8.79629 16.3995C8.60462 16.2078 8.50879 15.9703 8.50879 15.687C8.50879 15.4037 8.60462 15.1662 8.79629 14.9745C8.98796 14.7828 9.22546 14.687 9.50879 14.687C9.79212 14.687 10.0296 14.7828 10.2213 14.9745C10.413 15.1662 10.5088 15.4037 10.5088 15.687C10.5088 15.9703 10.413 16.2078 10.2213 16.3995C10.0296 16.5912 9.79212 16.687 9.50879 16.687ZM5.50879 16.687C5.22546 16.687 4.98796 16.5912 4.79629 16.3995C4.60462 16.2078 4.50879 15.9703 4.50879 15.687C4.50879 15.4037 4.60462 15.1662 4.79629 14.9745C4.98796 14.7828 5.22546 14.687 5.50879 14.687C5.79212 14.687 6.02962 14.7828 6.22129 14.9745C6.41296 15.1662 6.50879 15.4037 6.50879 15.687C6.50879 15.9703 6.41296 16.2078 6.22129 16.3995C6.02962 16.5912 5.79212 16.687 5.50879 16.687ZM13.5088 16.687C13.2255 16.687 12.988 16.5912 12.7963 16.3995C12.6046 16.2078 12.5088 15.9703 12.5088 15.687C12.5088 15.4037 12.6046 15.1662 12.7963 14.9745C12.988 14.7828 13.2255 14.687 13.5088 14.687C13.7921 14.687 14.0296 14.7828 14.2213 14.9745C14.413 15.1662 14.5088 15.4037 14.5088 15.687C14.5088 15.9703 14.413 16.2078 14.2213 16.3995C14.0296 16.5912 13.7921 16.687 13.5088 16.687Z" fill="#4D4D4D"/>
</svg>
