<svg width="20" height="22" viewBox="0 0 20 22" fill="none" xmlns="http://www.w3.org/2000/svg">
<path d="M18.6 22L15.9 19.3C15.5333 19.5167 15.15 19.6875 14.75 19.8125C14.35 19.9375 13.9333 20 13.5 20C12.25 20 11.1875 19.5625 10.3125 18.6875C9.4375 17.8125 9 16.75 9 15.5C9 14.25 9.4375 13.1875 10.3125 12.3125C11.1875 11.4375 12.25 11 13.5 11C14.75 11 15.8125 11.4375 16.6875 12.3125C17.5625 13.1875 18 14.25 18 15.5C18 15.9333 17.9375 16.35 17.8125 16.75C17.6875 17.15 17.5167 17.5333 17.3 17.9L20 20.6L18.6 22ZM13.5 18C14.2 18 14.7917 17.7583 15.275 17.275C15.7583 16.7917 16 16.2 16 15.5C16 14.8 15.7583 14.2083 15.275 13.725C14.7917 13.2417 14.2 13 13.5 13C12.8 13 12.2083 13.2417 11.725 13.725C11.2417 14.2083 11 14.8 11 15.5C11 16.2 11.2417 16.7917 11.725 17.275C12.2083 17.7583 12.8 18 13.5 18ZM18 9H16V4H14V7H4V4H2V18H7V20H2C1.45 20 0.979167 19.8042 0.5875 19.4125C0.195833 19.0208 0 18.55 0 18V4C0 3.45 0.195833 2.97917 0.5875 2.5875C0.979167 2.19583 1.45 2 2 2H6.175C6.35833 1.41667 6.71667 0.9375 7.25 0.5625C7.78333 0.1875 8.36667 0 9 0C9.66667 0 10.2625 0.1875 10.7875 0.5625C11.3125 0.9375 11.6667 1.41667 11.85 2H16C16.55 2 17.0208 2.19583 17.4125 2.5875C17.8042 2.97917 18 3.45 18 4V9ZM9 4C9.28333 4 9.52083 3.90417 9.7125 3.7125C9.90417 3.52083 10 3.28333 10 3C10 2.71667 9.90417 2.47917 9.7125 2.2875C9.52083 2.09583 9.28333 2 9 2C8.71667 2 8.47917 2.09583 8.2875 2.2875C8.09583 2.47917 8 2.71667 8 3C8 3.28333 8.09583 3.52083 8.2875 3.7125C8.47917 3.90417 8.71667 4 9 4Z" fill="black"/>
</svg>
