<svg width="40" height="44" viewBox="0 0 40 44" fill="none" xmlns="http://www.w3.org/2000/svg">
<path d="M37.2 44L31.8 38.6C31.0667 39.0333 30.3 39.375 29.5 39.625C28.7 39.875 27.8667 40 27 40C24.5 40 22.375 39.125 20.625 37.375C18.875 35.625 18 33.5 18 31C18 28.5 18.875 26.375 20.625 24.625C22.375 22.875 24.5 22 27 22C29.5 22 31.625 22.875 33.375 24.625C35.125 26.375 36 28.5 36 31C36 31.8667 35.875 32.7 35.625 33.5C35.375 34.3 35.0333 35.0667 34.6 35.8L40 41.2L37.2 44ZM27 36C28.4 36 29.5833 35.5167 30.55 34.55C31.5167 33.5833 32 32.4 32 31C32 29.6 31.5167 28.4167 30.55 27.45C29.5833 26.4833 28.4 26 27 26C25.6 26 24.4167 26.4833 23.45 27.45C22.4833 28.4167 22 29.6 22 31C22 32.4 22.4833 33.5833 23.45 34.55C24.4167 35.5167 25.6 36 27 36ZM36 18H32V8H28V14H8V8H4V36H14V40H4C2.9 40 1.95833 39.6083 1.175 38.825C0.391667 38.0417 0 37.1 0 36V8C0 6.9 0.391667 5.95833 1.175 5.175C1.95833 4.39167 2.9 4 4 4H12.35C12.7167 2.83333 13.4333 1.875 14.5 1.125C15.5667 0.375 16.7333 0 18 0C19.3333 0 20.525 0.375 21.575 1.125C22.625 1.875 23.3333 2.83333 23.7 4H32C33.1 4 34.0417 4.39167 34.825 5.175C35.6083 5.95833 36 6.9 36 8V18ZM18 8C18.5667 8 19.0417 7.80833 19.425 7.425C19.8083 7.04167 20 6.56667 20 6C20 5.43333 19.8083 4.95833 19.425 4.575C19.0417 4.19167 18.5667 4 18 4C17.4333 4 16.9583 4.19167 16.575 4.575C16.1917 4.95833 16 5.43333 16 6C16 6.56667 16.1917 7.04167 16.575 7.425C16.9583 7.80833 17.4333 8 18 8Z" fill="#4D4D4D"/>
</svg>
