<svg width="16" height="18" viewBox="0 0 16 18" fill="none" xmlns="http://www.w3.org/2000/svg">
<path d="M14.2 17.25L12.175 15.225C11.9 15.3875 11.6125 15.5156 11.3125 15.6094C11.0125 15.7031 10.7 15.75 10.375 15.75C9.4375 15.75 8.64062 15.4219 7.98438 14.7656C7.32812 14.1094 7 13.3125 7 12.375C7 11.4375 7.32812 10.6406 7.98438 9.98438C8.64062 9.32812 9.4375 9 10.375 9C11.3125 9 12.1094 9.32812 12.7656 9.98438C13.4219 10.6406 13.75 11.4375 13.75 12.375C13.75 12.7 13.7031 13.0125 13.6094 13.3125C13.5156 13.6125 13.3875 13.9 13.225 14.175L15.25 16.2L14.2 17.25ZM10.375 14.25C10.9 14.25 11.3438 14.0687 11.7063 13.7062C12.0688 13.3438 12.25 12.9 12.25 12.375C12.25 11.85 12.0688 11.4062 11.7063 11.0438C11.3438 10.6813 10.9 10.5 10.375 10.5C9.85 10.5 9.40625 10.6813 9.04375 11.0438C8.68125 11.4062 8.5 11.85 8.5 12.375C8.5 12.9 8.68125 13.3438 9.04375 13.7062C9.40625 14.0687 9.85 14.25 10.375 14.25ZM13.75 7.5H12.25V3.75H10.75V6H3.25V3.75H1.75V14.25H5.5V15.75H1.75C1.3375 15.75 0.984375 15.6031 0.690625 15.3094C0.396875 15.0156 0.25 14.6625 0.25 14.25V3.75C0.25 3.3375 0.396875 2.98438 0.690625 2.69063C0.984375 2.39688 1.3375 2.25 1.75 2.25H4.88125C5.01875 1.8125 5.2875 1.45312 5.6875 1.17188C6.0875 0.890625 6.525 0.75 7 0.75C7.5 0.75 7.94688 0.890625 8.34063 1.17188C8.73438 1.45312 9 1.8125 9.1375 2.25H12.25C12.6625 2.25 13.0156 2.39688 13.3094 2.69063C13.6031 2.98438 13.75 3.3375 13.75 3.75V7.5ZM7 3.75C7.2125 3.75 7.39063 3.67813 7.53438 3.53438C7.67813 3.39062 7.75 3.2125 7.75 3C7.75 2.7875 7.67813 2.60938 7.53438 2.46563C7.39063 2.32188 7.2125 2.25 7 2.25C6.7875 2.25 6.60938 2.32188 6.46563 2.46563C6.32188 2.60938 6.25 2.7875 6.25 3C6.25 3.2125 6.32188 3.39062 6.46563 3.53438C6.60938 3.67813 6.7875 3.75 7 3.75Z" fill="white"/>
</svg>
