<svg width="16" height="16" viewBox="0 0 16 16" fill="none" xmlns="http://www.w3.org/2000/svg">
<path d="M0.125 6.5375C0.125 5.2875 0.403125 4.14063 0.959375 3.09688C1.51562 2.05313 2.2625 1.1875 3.2 0.5L4.08125 1.7C3.33125 2.25 2.73438 2.94375 2.29063 3.78125C1.84688 4.61875 1.625 5.5375 1.625 6.5375H0.125ZM13.625 6.5375C13.625 5.5375 13.4031 4.61875 12.9594 3.78125C12.5156 2.94375 11.9188 2.25 11.1688 1.7L12.05 0.5C12.9875 1.1875 13.7344 2.05313 14.2906 3.09688C14.8469 4.14063 15.125 5.2875 15.125 6.5375H13.625ZM1.625 13.2875V11.7875H3.125V6.5375C3.125 5.5 3.4375 4.57812 4.0625 3.77188C4.6875 2.96563 5.5 2.4375 6.5 2.1875V1.6625C6.5 1.35 6.60938 1.08438 6.82813 0.865625C7.04688 0.646875 7.3125 0.5375 7.625 0.5375C7.9375 0.5375 8.20312 0.646875 8.42188 0.865625C8.64062 1.08438 8.75 1.35 8.75 1.6625V2.1875C9.75 2.4375 10.5625 2.96563 11.1875 3.77188C11.8125 4.57812 12.125 5.5 12.125 6.5375V11.7875H13.625V13.2875H1.625ZM7.625 15.5375C7.2125 15.5375 6.85938 15.3906 6.56563 15.0969C6.27188 14.8031 6.125 14.45 6.125 14.0375H9.125C9.125 14.45 8.97813 14.8031 8.68438 15.0969C8.39062 15.3906 8.0375 15.5375 7.625 15.5375ZM4.625 11.7875H10.625V6.5375C10.625 5.7125 10.3313 5.00625 9.74375 4.41875C9.15625 3.83125 8.45 3.5375 7.625 3.5375C6.8 3.5375 6.09375 3.83125 5.50625 4.41875C4.91875 5.00625 4.625 5.7125 4.625 6.5375V11.7875Z" fill="white"/>
</svg>
