<svg width="20" height="20" viewBox="0 0 20 20" fill="none" xmlns="http://www.w3.org/2000/svg">
<path d="M10 15.5556C10.3148 15.5556 10.5787 15.4491 10.7917 15.2361C11.0046 15.0231 11.1111 14.7593 11.1111 14.4444C11.1111 14.1296 11.0046 13.8657 10.7917 13.6528C10.5787 13.4398 10.3148 13.3333 10 13.3333C9.68519 13.3333 9.4213 13.4398 9.20833 13.6528C8.99537 13.8657 8.88889 14.1296 8.88889 14.4444C8.88889 14.7593 8.99537 15.0231 9.20833 15.2361C9.4213 15.4491 9.68519 15.5556 10 15.5556ZM8.88889 11.1111H11.1111V4.44444H8.88889V11.1111ZM5.83333 20L0 14.1667V5.83333L5.83333 0H14.1667L20 5.83333V14.1667L14.1667 20H5.83333Z" fill="#B62100"/>
</svg>
