<svg width="13" height="12" viewBox="0 0 13 12" fill="none" xmlns="http://www.w3.org/2000/svg">
<path d="M5.26544 12C5.05294 12 4.87482 11.9281 4.73107 11.7844C4.58732 11.6406 4.51544 11.4625 4.51544 11.25V6.75L0.165441 1.2C-0.0220588 0.95 -0.0501838 0.6875 0.0810662 0.4125C0.212316 0.1375 0.440441 0 0.765441 0H11.2654C11.5904 0 11.8186 0.1375 11.9498 0.4125C12.0811 0.6875 12.0529 0.95 11.8654 1.2L7.51544 6.75V11.25C7.51544 11.4625 7.44357 11.6406 7.29982 11.7844C7.15607 11.9281 6.97794 12 6.76544 12H5.26544ZM6.01544 6.225L9.72794 1.5H2.30294L6.01544 6.225Z" fill="#4D4D4D"/>
</svg>
