<svg width="24" height="25" viewBox="0 0 24 25" fill="none" xmlns="http://www.w3.org/2000/svg">
<path d="M11 17.1301H13V11.1301H11V17.1301ZM12 9.13013C12.2833 9.13013 12.5208 9.03429 12.7125 8.84263C12.9042 8.65096 13 8.41346 13 8.13013C13 7.84679 12.9042 7.60929 12.7125 7.41763C12.5208 7.22596 12.2833 7.13013 12 7.13013C11.7167 7.13013 11.4792 7.22596 11.2875 7.41763C11.0958 7.60929 11 7.84679 11 8.13013C11 8.41346 11.0958 8.65096 11.2875 8.84263C11.4792 9.03429 11.7167 9.13013 12 9.13013ZM12 22.1301C10.6167 22.1301 9.31667 21.8676 8.1 21.3426C6.88333 20.8176 5.825 20.1051 4.925 19.2051C4.025 18.3051 3.3125 17.2468 2.7875 16.0301C2.2625 14.8135 2 13.5135 2 12.1301C2 10.7468 2.2625 9.44679 2.7875 8.23013C3.3125 7.01346 4.025 5.95513 4.925 5.05513C5.825 4.15513 6.88333 3.44263 8.1 2.91763C9.31667 2.39263 10.6167 2.13013 12 2.13013C13.3833 2.13013 14.6833 2.39263 15.9 2.91763C17.1167 3.44263 18.175 4.15513 19.075 5.05513C19.975 5.95513 20.6875 7.01346 21.2125 8.23013C21.7375 9.44679 22 10.7468 22 12.1301C22 13.5135 21.7375 14.8135 21.2125 16.0301C20.6875 17.2468 19.975 18.3051 19.075 19.2051C18.175 20.1051 17.1167 20.8176 15.9 21.3426C14.6833 21.8676 13.3833 22.1301 12 22.1301ZM12 20.1301C14.2333 20.1301 16.125 19.3551 17.675 17.8051C19.225 16.2551 20 14.3635 20 12.1301C20 9.89679 19.225 8.00513 17.675 6.45513C16.125 4.90513 14.2333 4.13013 12 4.13013C9.76667 4.13013 7.875 4.90513 6.325 6.45513C4.775 8.00513 4 9.89679 4 12.1301C4 14.3635 4.775 16.2551 6.325 17.8051C7.875 19.3551 9.76667 20.1301 12 20.1301Z" fill="#262124"/>
</svg>
