<svg width="36" height="40" viewBox="0 0 36 40" fill="none" xmlns="http://www.w3.org/2000/svg">
<path d="M16 34.85V21.15L4 14.2V27.9L16 34.85ZM20 34.85L32 27.9V14.2L20 21.15V34.85ZM16 39.45L2 31.4C1.36667 31.0333 0.875 30.55 0.525 29.95C0.175 29.35 0 28.6833 0 27.95V12.05C0 11.3167 0.175 10.65 0.525 10.05C0.875 9.45 1.36667 8.96667 2 8.6L16 0.55C16.6333 0.183333 17.3 0 18 0C18.7 0 19.3667 0.183333 20 0.55L34 8.6C34.6333 8.96667 35.125 9.45 35.475 10.05C35.825 10.65 36 11.3167 36 12.05V27.95C36 28.6833 35.825 29.35 35.475 29.95C35.125 30.55 34.6333 31.0333 34 31.4L20 39.45C19.3667 39.8167 18.7 40 18 40C17.3 40 16.6333 39.8167 16 39.45ZM26 13.05L29.85 10.85L18 4L14.1 6.25L26 13.05ZM18 17.7L21.9 15.45L10.05 8.6L6.15 10.85L18 17.7Z" fill="#4d4d4d"/>
</svg>
