<svg width="30" height="33" viewBox="0 0 30 33" fill="none" xmlns="http://www.w3.org/2000/svg">
<path d="M29.5 26.225L26.5 23.225V6.5H23.5V11H14.275L6.775 3.5H11.7625C12.0375 2.625 12.575 1.90625 13.375 1.34375C14.175 0.78125 15.05 0.5 16 0.5C17 0.5 17.8938 0.78125 18.6813 1.34375C19.4688 1.90625 20 2.625 20.275 3.5H26.5C27.325 3.5 28.0312 3.79375 28.6188 4.38125C29.2063 4.96875 29.5 5.675 29.5 6.5V26.225ZM16 6.5C16.425 6.5 16.7812 6.35625 17.0688 6.06875C17.3563 5.78125 17.5 5.425 17.5 5C17.5 4.575 17.3563 4.21875 17.0688 3.93125C16.7812 3.64375 16.425 3.5 16 3.5C15.575 3.5 15.2188 3.64375 14.9313 3.93125C14.6438 4.21875 14.5 4.575 14.5 5C14.5 5.425 14.6438 5.78125 14.9313 6.06875C15.2188 6.35625 15.575 6.5 16 6.5ZM22.225 27.5L5.5 10.775V27.5H22.225ZM5.5 30.5C4.675 30.5 3.96875 30.2063 3.38125 29.6188C2.79375 29.0312 2.5 28.325 2.5 27.5V7.775L0.0625 5.3375L2.2 3.2L29.8 30.8L27.6625 32.9375L25.225 30.5H5.5Z" fill="black"/>
</svg>
