<svg width="48" height="48" viewBox="0 0 48 48" fill="none" xmlns="http://www.w3.org/2000/svg">
<path d="M40.8 7.2C40 6.4 39 6 38 6H29.6C29.2 4.8 28.6 3.8 27.4 3.2C26.6 2.4 25.4 2 24 2C22.8 2 21.6 2.4 20.4 3.2C19.4 3.8 18.8 4.8 18.4 6H10C9 6 8 6.4 7.2 7.2C6.4 8 6 9 6 10V38C6 39 6.4 40 7.2 40.8C8 41.6 9 42 10 42H27.6C26 41.4 24.6 40.4 23.4 39.2C23 38.8 22.6 38.4 22.4 38H10V10H14V16H34V10H38V18.2C39.4 18.8 40.6 19.8 41.8 20.8L42 21V10C42 9 41.6 8 40.8 7.2ZM25.4 9.4C25 9.8 24.6 10 24 10C23.4 10 23 9.8 22.6 9.4C22.2 9 22 8.6 22 8C22 7.4 22.2 7 22.6 6.6C23 6.2 23.4 6 24 6C24.6 6 25 6.2 25.4 6.6C25.8 7 26 7.4 26 8C26 8.6 25.8 9 25.4 9.4Z" fill="#4d4d4d"/>
<path d="M9.59998 5V17V37V5ZM32.6 35C34 35 35.2 34.6 36.2 33.6C37.2 32.6 37.6 31.4 37.6 30C37.6 28.6 37.2 27.4 36.2 26.4C35.2 25.4 34 25 32.6 25C31.2 25 30 25.4 29 26.4C28 27.4 27.6 28.6 27.6 30C27.6 31.4 28 32.6 29 33.6C30 34.6 31.2 35 32.6 35ZM42.8 43L37.4 37.6C36.6 38 36 38.4 35.2 38.6C34.4 38.8 33.6 39 32.6 39C30.2 39 28 38.2 26.2 36.4C24.4 34.6 23.6 32.6 23.6 30C23.6 27.4 24.4 25.4 26.2 23.6C28 21.8 30 21 32.6 21C35.2 21 37.2 21.8 39 23.6C40.8 25.4 41.6 27.4 41.6 30C41.6 30.8 41.4 31.8 41.2 32.6C41 33.4 40.6 34.2 40.2 34.8L45.6 40.2L42.8 43Z" fill="#4d4d4d"/>
</svg>
