<svg width="48" height="48" viewBox="0 0 48 48" fill="none" xmlns="http://www.w3.org/2000/svg">
<path d="M24.6 45.2V42.7999C24.6 41.1999 25.4 40 27 39C28.6 38 30.6 37.5999 33.2 37.5999C35.8 37.5999 37.8 38 39.4 39C41 40 41.8 41.1999 41.8 42.7999V45.2H24.6ZM16 45.2V43C16 41.8 16.6 41 17.6 40.4C18.6 39.8 20 39.4 21.8 39.4C22 39.4 22.4 39.4 22.6 39.4C22.8 39.4 23.2 39.4 23.4 39.4C23.2 40 23 40.4 22.8 41C22.6 41.6 22.6 42.1999 22.6 42.7999V45.2H16ZM19.8 37.2C19.2 36.6 19 36 19 35.2C19 34.4 19.2 33.8 19.8 33.2C20.4 32.6 21 32.4 21.8 32.4C22.6 32.4 23.2 32.6 23.8 33.2C24.4 33.8 24.6 34.4 24.6 35.2C24.6 36 24.4 36.6 23.8 37.2C23.2 37.8 22.6 38 21.8 38C21 38 20.4 37.8 19.8 37.2ZM30.2 35.4C29.4 34.6 29 33.6 29 32.4C29 31.2 29.4 30.1999 30.2 29.4C31 28.6 32 28.2 33.2 28.2C34.4 28.2 35.4 28.6 36.2 29.4C37 30.1999 37.4 31.2 37.4 32.4C37.4 33.6 37 34.6 36.2 35.4C35.4 36.2 34.4 36.5999 33.2 36.5999C32 36.5999 31 36.2 30.2 35.4Z" fill="#4D4D4D"/>
<path d="M41.4 14C41 13.4 40.6 13 40 12.6L26 4.6C25.4 4.2 24.6 4 24 4C23.4 4 22.6 4.2 22 4.6L8 12.6C7.4 13 6.8 13.4 6.6 14C6.2 14.6 6 15.4 6 16V32C6 32.8 6.2 33.4 6.6 34C7 34.6 7.4 35 8 35.4L13 38.2V33.6L10 32V18.2L22 25.2V27H26V25.2L38 18.2V27H42V16C41.8 15.4 41.8 14.6 41.4 14ZM24 21.8L12.2 14.8L16.2 12.6L28 19.4L24 21.8ZM32 17L20 10.2L24 8L35.8 14.8L32 17Z" fill="#4D4D4D"/>
</svg>
