<svg width="21" height="20" viewBox="0 0 21 20" fill="none" xmlns="http://www.w3.org/2000/svg">
<mask id="mask0_3246_16305" style="mask-type:alpha" maskUnits="userSpaceOnUse" x="0" y="0" width="21" height="20">
<rect x="0.5" width="20" height="20" fill="#D9D9D9"/>
</mask>
<g mask="url(#mask0_3246_16305)">
<path d="M2.16699 8.33333C2.16699 6.94445 2.47602 5.67014 3.09408 4.51042C3.71213 3.35069 4.54199 2.38889 5.58366 1.625L6.56283 2.95833C5.72949 3.56944 5.0663 4.34028 4.57324 5.27083C4.08019 6.20139 3.83366 7.22222 3.83366 8.33333H2.16699ZM17.167 8.33333C17.167 7.22222 16.9205 6.20139 16.4274 5.27083C15.9344 4.34028 15.2712 3.56944 14.4378 2.95833L15.417 1.625C16.4587 2.38889 17.2885 3.35069 17.9066 4.51042C18.5246 5.67014 18.8337 6.94445 18.8337 8.33333H17.167ZM3.83366 15.8333V14.1667H5.50033V8.33333C5.50033 7.18056 5.84755 6.15625 6.54199 5.26042C7.23644 4.36458 8.13921 3.77778 9.25033 3.5V2.91667C9.25033 2.56944 9.37185 2.27431 9.61491 2.03125C9.85796 1.78819 10.1531 1.66667 10.5003 1.66667C10.8475 1.66667 11.1427 1.78819 11.3857 2.03125C11.6288 2.27431 11.7503 2.56944 11.7503 2.91667V3.5C12.8614 3.77778 13.7642 4.36458 14.4587 5.26042C15.1531 6.15625 15.5003 7.18056 15.5003 8.33333V14.1667H17.167V15.8333H3.83366ZM10.5003 18.3333C10.042 18.3333 9.64963 18.1701 9.32324 17.8438C8.99685 17.5174 8.83366 17.125 8.83366 16.6667H12.167C12.167 17.125 12.0038 17.5174 11.6774 17.8438C11.351 18.1701 10.9587 18.3333 10.5003 18.3333ZM7.16699 14.1667H13.8337V8.33333C13.8337 7.41667 13.5073 6.63194 12.8545 5.97917C12.2017 5.32639 11.417 5 10.5003 5C9.58366 5 8.79894 5.32639 8.14616 5.97917C7.49338 6.63194 7.16699 7.41667 7.16699 8.33333V14.1667Z" fill="white"/>
</g>
</svg>
