<svg width="17" height="20" viewBox="0 0 17 20" fill="none" xmlns="http://www.w3.org/2000/svg">
<path d="M15.5 19.1667L13.25 16.9167C12.9444 17.0973 12.625 17.2396 12.2917 17.3438C11.9583 17.448 11.6111 17.5 11.25 17.5C10.2083 17.5 9.32292 17.1355 8.59375 16.4063C7.86458 15.6771 7.5 14.7917 7.5 13.75C7.5 12.7084 7.86458 11.823 8.59375 11.0938C9.32292 10.3646 10.2083 10 11.25 10C12.2917 10 13.1771 10.3646 13.9062 11.0938C14.6354 11.823 15 12.7084 15 13.75C15 14.1112 14.9479 14.4584 14.8438 14.7917C14.7396 15.125 14.5972 15.4445 14.4167 15.75L16.6667 18L15.5 19.1667ZM11.25 15.8334C11.8333 15.8334 12.3264 15.632 12.7292 15.2292C13.1319 14.8264 13.3333 14.3334 13.3333 13.75C13.3333 13.1667 13.1319 12.6737 12.7292 12.2709C12.3264 11.8681 11.8333 11.6667 11.25 11.6667C10.6667 11.6667 10.1736 11.8681 9.77083 12.2709C9.36806 12.6737 9.16667 13.1667 9.16667 13.75C9.16667 14.3334 9.36806 14.8264 9.77083 15.2292C10.1736 15.632 10.6667 15.8334 11.25 15.8334ZM15 8.33337H13.3333V4.16671H11.6667V6.66671H3.33333V4.16671H1.66667V15.8334H5.83333V17.5H1.66667C1.20833 17.5 0.815972 17.3368 0.489583 17.0105C0.163194 16.6841 0 16.2917 0 15.8334V4.16671C0 3.70837 0.163194 3.31601 0.489583 2.98962C0.815972 2.66324 1.20833 2.50004 1.66667 2.50004H5.14583C5.29861 2.01393 5.59722 1.61462 6.04167 1.30212C6.48611 0.989624 6.97222 0.833374 7.5 0.833374C8.05556 0.833374 8.55208 0.989624 8.98958 1.30212C9.42708 1.61462 9.72222 2.01393 9.875 2.50004H13.3333C13.7917 2.50004 14.184 2.66324 14.5104 2.98962C14.8368 3.31601 15 3.70837 15 4.16671V8.33337ZM7.5 4.16671C7.73611 4.16671 7.93403 4.08685 8.09375 3.92712C8.25347 3.7674 8.33333 3.56948 8.33333 3.33337C8.33333 3.09726 8.25347 2.89935 8.09375 2.73962C7.93403 2.5799 7.73611 2.50004 7.5 2.50004C7.26389 2.50004 7.06597 2.5799 6.90625 2.73962C6.74653 2.89935 6.66667 3.09726 6.66667 3.33337C6.66667 3.56948 6.74653 3.7674 6.90625 3.92712C7.06597 4.08685 7.26389 4.16671 7.5 4.16671Z" fill="white"/>
</svg>
