<svg width="24" height="25" viewBox="0 0 24 25" fill="none" xmlns="http://www.w3.org/2000/svg">
<path d="M20.4 4.1C20 3.7 19.5 3.5 19 3.5H14.8C14.6 2.9 14.3 2.4 13.7 2.1C13.3 1.7 12.7 1.5 12 1.5C11.4 1.5 10.8 1.7 10.2 2.1C9.7 2.4 9.4 2.9 9.2 3.5H5C4.5 3.5 4 3.7 3.6 4.1C3.2 4.5 3 5 3 5.5V19.5C3 20 3.2 20.5 3.6 20.9C4 21.3 4.5 21.5 5 21.5H11.2V19.5H5V5.5H7V8.5H17V5.5H19V9.6H21V5.5C21 5 20.8 4.5 20.4 4.1ZM12.7 5.2C12.5 5.4 12.3 5.5 12 5.5C11.7 5.5 11.5 5.4 11.3 5.2C11.1 5 11 4.8 11 4.5C11 4.2 11.1 4 11.3 3.8C11.5 3.6 11.7 3.5 12 3.5C12.3 3.5 12.5 3.6 12.7 3.8C12.9 4 13 4.2 13 4.5C13 4.8 12.9 5 12.7 5.2Z" fill="#2484C6"/>
<path d="M4.80005 3V9V19V3ZM16.3 18C17 18 17.6 17.8 18.1 17.3C18.6 16.8 18.8 16.2 18.8 15.5C18.8 14.8 18.6 14.2 18.1 13.7C17.6 13.2 17 13 16.3 13C15.6 13 15 13.2 14.5 13.7C14 14.2 13.8 14.8 13.8 15.5C13.8 16.2 14 16.8 14.5 17.3C15 17.8 15.6 18 16.3 18ZM21.4 22L18.7 19.3C18.3 19.5 18 19.7 17.6 19.8C17.2 19.9 16.8 20 16.3 20C15.1 20 14 19.6 13.1 18.7C12.2 17.8 11.8 16.8 11.8 15.5C11.8 14.2 12.2 13.2 13.1 12.3C14 11.4 15 11 16.3 11C17.6 11 18.6 11.4 19.5 12.3C20.4 13.2 20.8 14.2 20.8 15.5C20.8 15.9 20.7 16.4 20.6 16.8C20.5 17.2 20.3 17.6 20.1 17.9L22.8 20.6L21.4 22Z" fill="#2484C6"/>
</svg>
