<svg width="18" height="15" viewBox="0 0 18 15" fill="none" xmlns="http://www.w3.org/2000/svg">
<path d="M10.1667 15C9.16667 15 8.16667 14.8333 7.25 14.4167C6.33333 14 5.58333 13.5 4.91667 12.8333L6.08333 11.6667C6.58333 12.1667 7.25 12.5833 7.91667 12.9167C8.58333 13.25 9.33333 13.3333 10.1667 13.3333C11.75 13.3333 13.1667 12.75 14.3333 11.5833C15.5 10.4167 16 9.08333 16 7.5C16 5.91667 15.4167 4.5 14.3333 3.41667C13.25 2.33333 11.75 1.66667 10.1667 1.66667C8.58333 1.66667 7.16667 2.25 6.08333 3.41667C5 4.58333 4.33333 5.91667 4.33333 7.5V7.66667L5.83333 6.16667L7 7.33333L3.5 10.8333L0 7.25L1.16667 6.08333L2.66667 7.66667V7.5C2.66667 6.5 2.83333 5.5 3.25 4.58333C3.66667 3.66667 4.16667 2.91667 4.83333 2.25C5.5 1.58333 6.33333 1 7.16667 0.666667C8 0.333333 9.16667 0 10.1667 0C11.1667 0 12.1667 0.166667 13.0833 0.583333C14 1 14.75 1.5 15.5 2.16667C16.1667 2.83333 16.6667 3.66667 17.0833 4.5C17.5 5.33333 17.6667 6.5 17.6667 7.5C17.6667 9.58333 16.9167 11.3333 15.5 12.8333C14.0833 14.3333 12.25 15 10.1667 15Z" fill="#4D4D4D"/>
</svg>
