<svg width="25" height="25" viewBox="0 0 48 48" fill="none" xmlns="http://www.w3.org/2000/svg">
<path d="M24.6 45.2002V42.8002C24.6 41.2002 25.4 40.0002 27 39.0002C28.6 38.0002 30.6 37.6002 33.2 37.6002C35.8 37.6002 37.8 38.0002 39.4 39.0002C41 40.0002 41.8 41.2002 41.8 42.8002V45.2002H24.6ZM16 45.2002V43.0002C16 41.8002 16.6 41.0002 17.6 40.4002C18.6 39.8002 20 39.4002 21.8 39.4002C22 39.4002 22.4 39.4002 22.6 39.4002C22.8 39.4002 23.2 39.4002 23.4 39.4002C23.2 40.0002 23 40.4002 22.8 41.0002C22.6 41.6002 22.6 42.2002 22.6 42.8002V45.2002H16ZM19.8 37.2002C19.2 36.6002 19 36.0002 19 35.2002C19 34.4002 19.2 33.8002 19.8 33.2002C20.4 32.6002 21 32.4002 21.8 32.4002C22.6 32.4002 23.2 32.6002 23.8 33.2002C24.4 33.8002 24.6 34.4002 24.6 35.2002C24.6 36.0002 24.4 36.6002 23.8 37.2002C23.2 37.8002 22.6 38.0002 21.8 38.0002C21 38.0002 20.4 37.8002 19.8 37.2002ZM30.2 35.4002C29.4 34.6002 29 33.6002 29 32.4002C29 31.2002 29.4 30.2002 30.2 29.4002C31 28.6002 32 28.2002 33.2 28.2002C34.4 28.2002 35.4 28.6002 36.2 29.4002C37 30.2002 37.4 31.2002 37.4 32.4002C37.4 33.6002 37 34.6002 36.2 35.4002C35.4 36.2002 34.4 36.6002 33.2 36.6002C32 36.6002 31 36.2002 30.2 35.4002Z" fill="#4D4D4D"/>
<path d="M41.4 14C41 13.4 40.6 13 40 12.6L26 4.6C25.4 4.2 24.6 4 24 4C23.4 4 22.6 4.2 22 4.6L8 12.6C7.4 13 6.8 13.4 6.6 14C6.2 14.6 6 15.4 6 16V32C6 32.8 6.2 33.4 6.6 34C7 34.6 7.4 35 8 35.4L13 38.2V33.6L10 32V18.2L22 25.2V27H26V25.2L38 18.2V27H42V16C41.8 15.4 41.8 14.6 41.4 14ZM24 21.8L12.2 14.8L16.2 12.6L28 19.4L24 21.8ZM32 17L20 10.2L24 8L35.8 14.8L32 17Z" fill="#4D4D4D"/>
</svg>
