<svg width="22" height="22" viewBox="0 0 22 22" fill="none" xmlns="http://www.w3.org/2000/svg">
<path d="M10.9988 16.2033C11.3309 16.2033 11.6097 16.091 11.8352 15.8663C12.0607 15.6417 12.1735 15.3633 12.1735 15.0313C12.1735 14.6992 12.0612 14.4194 11.8366 14.1919C11.6119 13.9643 11.3336 13.8506 11.0015 13.8506C10.6694 13.8506 10.3906 13.9643 10.1651 14.1919C9.93955 14.4194 9.82677 14.6992 9.82677 15.0313C9.82677 15.3633 9.93909 15.6417 10.1637 15.8663C10.3884 16.091 10.6667 16.2033 10.9988 16.2033ZM9.86265 12.012H12.1376V5.87448H9.86265V12.012ZM11.0001 21.2033C9.58493 21.2033 8.25706 20.9357 7.01652 20.4004C5.77599 19.8651 4.6969 19.1386 3.77925 18.2209C2.8616 17.3033 2.13512 16.2242 1.59982 14.9837C1.06452 13.7431 0.796875 12.4152 0.796875 11C0.796875 9.58481 1.06452 8.25694 1.59982 7.0164C2.13512 5.77587 2.8616 4.69678 3.77925 3.77913C4.6969 2.86148 5.77599 2.135 7.01652 1.5997C8.25706 1.0644 9.58493 0.796753 11.0001 0.796753C12.4154 0.796753 13.7432 1.0644 14.9838 1.5997C16.2243 2.135 17.3034 2.86148 18.2211 3.77913C19.1387 4.69678 19.8652 5.77587 20.4005 7.0164C20.9358 8.25694 21.2034 9.58481 21.2034 11C21.2034 12.4152 20.9358 13.7431 20.4005 14.9837C19.8652 16.2242 19.1387 17.3033 18.2211 18.2209C17.3034 19.1386 16.2243 19.8651 14.9838 20.4004C13.7432 20.9357 12.4154 21.2033 11.0001 21.2033Z" fill="#F58220"/>
</svg>
