<svg width="21" height="20" viewBox="0 0 21 20" fill="none" xmlns="http://www.w3.org/2000/svg">
<path d="M7.75001 20L7.35001 16.8C7.13335 16.7167 6.92918 16.6167 6.73751 16.5C6.54585 16.3833 6.35835 16.2583 6.17501 16.125L3.20001 17.375L0.450012 12.625L3.02501 10.675C3.00835 10.5583 3.00001 10.4458 3.00001 10.3375V9.6625C3.00001 9.55417 3.00835 9.44167 3.02501 9.325L0.450012 7.375L3.20001 2.625L6.17501 3.875C6.35835 3.74167 6.55001 3.61667 6.75001 3.5C6.95001 3.38333 7.15001 3.28333 7.35001 3.2L7.75001 0H13.25L13.65 3.2C13.8667 3.28333 14.0708 3.38333 14.2625 3.5C14.4542 3.61667 14.6417 3.74167 14.825 3.875L17.8 2.625L20.55 7.375L17.975 9.325C17.9917 9.44167 18 9.55417 18 9.6625V10.3375C18 10.4458 17.9833 10.5583 17.95 10.675L20.525 12.625L17.775 17.375L14.825 16.125C14.6417 16.2583 14.45 16.3833 14.25 16.5C14.05 16.6167 13.85 16.7167 13.65 16.8L13.25 20H7.75001ZM9.50001 18H11.475L11.825 15.35C12.3417 15.2167 12.8208 15.0208 13.2625 14.7625C13.7042 14.5042 14.1083 14.1917 14.475 13.825L16.95 14.85L17.925 13.15L15.775 11.525C15.8583 11.2917 15.9167 11.0458 15.95 10.7875C15.9833 10.5292 16 10.2667 16 10C16 9.73333 15.9833 9.47083 15.95 9.2125C15.9167 8.95417 15.8583 8.70833 15.775 8.475L17.925 6.85L16.95 5.15L14.475 6.2C14.1083 5.81667 13.7042 5.49583 13.2625 5.2375C12.8208 4.97917 12.3417 4.78333 11.825 4.65L11.5 2H9.52501L9.17501 4.65C8.65835 4.78333 8.17918 4.97917 7.73751 5.2375C7.29585 5.49583 6.89168 5.80833 6.52501 6.175L4.05001 5.15L3.07501 6.85L5.22501 8.45C5.14168 8.7 5.08335 8.95 5.05001 9.2C5.01668 9.45 5.00001 9.71667 5.00001 10C5.00001 10.2667 5.01668 10.525 5.05001 10.775C5.08335 11.025 5.14168 11.275 5.22501 11.525L3.07501 13.15L4.05001 14.85L6.52501 13.8C6.89168 14.1833 7.29585 14.5042 7.73751 14.7625C8.17918 15.0208 8.65835 15.2167 9.17501 15.35L9.50001 18ZM10.55 13.5C11.5167 13.5 12.3417 13.1583 13.025 12.475C13.7083 11.7917 14.05 10.9667 14.05 10C14.05 9.03333 13.7083 8.20833 13.025 7.525C12.3417 6.84167 11.5167 6.5 10.55 6.5C9.56668 6.5 8.73751 6.84167 8.06251 7.525C7.38751 8.20833 7.05001 9.03333 7.05001 10C7.05001 10.9667 7.38751 11.7917 8.06251 12.475C8.73751 13.1583 9.56668 13.5 10.55 13.5Z" fill="#A6A6A6"/>
</svg>
